<svg xmlns="http://www.w3.org/2000/svg" viewBox="0 0 378.23 457.37"><defs><style>.cls-1,.cls-11{fill:#987ff8;}.cls-1,.cls-7{stroke:#272425;stroke-miterlimit:10;stroke-width:0.25px;}.cls-2{opacity:0.3;}.cls-3{fill:#263238;}.cls-4{fill:#aa8776;}.cls-5{fill:#996552;}.cls-6{fill:#fafafa;}.cls-7{fill:#5b3294;}.cls-8{opacity:0.2;}.cls-9{fill:#e0e0e0;}.cls-10{fill:#ebebeb;}.cls-12{font-size:15.68px;fill:#fff;font-family:Montserrat-Bold, Montserrat;font-weight:700;}.cls-13{letter-spacing:-0.01em;}</style></defs><g id="Capa_2" data-name="Capa 2"><g id="Character"><path class="cls-1" d="M3.19,240.73s6.34-6.08,14.25,15.52,10.94,34.06,10.94,34.06,2.08,4.52,4.26,1.52,5.12-11.47,8.86-10,5.2,7.65,4.52,16.69-1.66,28.91-1.74,30.71.65,4.36,2.36,2.65,11.52-17.55,16.52-10.47.21,31.81-.28,34.52-.11,3.88.8,4.53,3.85-5.1,6.77-9.45,6.84-8.65,9.49-4.22,3.6,22.92-8.58,53.16l-6.29,13.48-11.41-.75C29.32,409,19.36,397,18.39,391.35s3.79-7.63,8-8.45,9.19-.82,9.35-2.25-.28-2.55-2.11-3.58-18.72-10-19.8-19.95,13.68-11.92,15.66-12.89.93-3.32-.13-4.27-12.95-11.5-18.49-16-8.25-9.64-6.84-15c1.36-5.17,7.91-3.59,10.9-4.34s1.63-5.8,1.63-5.8S11.23,288,3.59,266.19s-.26-25.57-.26-25.57"/><path class="cls-1" d="M10.3,260.06a1.91,1.91,0,0,1,.16.38l.43,1.15,1.61,4.46,5.87,16.44c5,13.87,11.9,33,19.51,54.11s14.52,40.27,19.41,54.2L63,407.33c.66,1.93,1.17,3.44,1.54,4.51L65,413a2.36,2.36,0,0,1,.11.41s-.06-.13-.16-.38-.24-.67-.42-1.16l-1.61-4.46L57,391c-5-13.87-11.87-33-19.52-54.12S23,296.61,18.09,282.69l-5.75-16.53c-.65-1.93-1.17-3.45-1.53-4.51-.16-.5-.29-.89-.39-1.18A2.26,2.26,0,0,1,10.3,260.06Z"/><path class="cls-1" d="M37.71,293.92c.06,0-.2,1.64-.63,4.25-.44,2.79-1,6.32-1.64,10.23s-1.23,7.62-1.72,10.22c-.25,1.3-.46,2.34-.62,3.06a5.28,5.28,0,0,1-.31,1.09c-.06,0,.22-1.64.63-4.26.43-2.79,1-6.33,1.59-10.25s1.26-7.6,1.77-10.19c.26-1.3.47-2.34.63-3.06A5.24,5.24,0,0,1,37.71,293.92Z"/><path class="cls-1" d="M31.75,323.07c0,.17-5.25-1.74-11.65-4.27s-11.57-4.71-11.53-4.88,5.24,1.75,11.65,4.27S31.78,322.9,31.75,323.07Z"/><path class="cls-1" d="M46.48,359.42a2.37,2.37,0,0,1-.83.17c-.54.08-1.32.15-2.28.22a66.27,66.27,0,0,1-7.54.1,68.79,68.79,0,0,1-7.53-.7c-1-.15-1.73-.29-2.27-.41a2.26,2.26,0,0,1-.82-.24,18.29,18.29,0,0,1,3.12.21c1.92.18,4.57.4,7.51.52s5.59.1,7.52.08A16,16,0,0,1,46.48,359.42Z"/><path class="cls-1" d="M56,334.73a32.85,32.85,0,0,1-1.28,3.69c-.84,2.23-2,5.3-3.35,8.67s-2.57,6.41-3.47,8.59a31.27,31.27,0,0,1-1.55,3.47,31.33,31.33,0,0,1,1.27-3.69c.84-2.23,2-5.3,3.36-8.68s2.56-6.4,3.47-8.58A31.27,31.27,0,0,1,56,334.73Z"/><path class="cls-1" d="M71.82,364.47a9.76,9.76,0,0,1-.42,1.28l-1.29,3.39c-1.1,2.84-2.66,6.75-4.39,11s-3.33,8.17-4.51,11c-.55,1.3-1,2.4-1.41,3.29a8.27,8.27,0,0,1-.56,1.16,6.91,6.91,0,0,1,.42-1.29c.34-.91.77-2,1.28-3.38,1.11-2.84,2.66-6.75,4.4-11.05s3.33-8.17,4.5-11c.56-1.29,1-2.39,1.41-3.28A6,6,0,0,1,71.82,364.47Z"/><path class="cls-1" d="M59.39,394.72a3.21,3.21,0,0,1-1.06.13c-.69,0-1.68.07-2.9.08-2.45,0-5.83-.05-9.56-.35s-7.1-.75-9.53-1.15c-1.21-.21-2.19-.39-2.87-.54a3.45,3.45,0,0,1-1-.3,3.8,3.8,0,0,1,1.07.05l2.88.34c2.44.3,5.8.68,9.53,1s7.09.44,9.53.54l2.9.12A3.68,3.68,0,0,1,59.39,394.72Z"/><path class="cls-1" d="M357.87,233.56l-30.72,42.56L298.84,353,267,440l-39.11-26.09-42.28-30.81,27-73.52,16.81-82.33c-11.87,11.21-33.92,26.48-60.31,18.52-28.58-8.63-14.86-162.06-14.86-162.06l31.41-1.15,3.13,108.18,35.51-22.31.06.18c2.13-1.36,4-2.56,5-3.34C249,150,261.92,148.13,283,158.84h0l30.39,14.36c7.81,5.25,36.61,25.42,44.49,60.36"/><path class="cls-1" d="M250.35,155.63c0,.06-.72.57-1.91,1.78a27.24,27.24,0,0,0-4.4,6.16,52.85,52.85,0,0,0-4.34,11.48c-1.24,4.61-2.19,9.88-3.23,15.4-2.11,11-4,21-5.41,28.25-.7,3.55-1.27,6.45-1.69,8.55-.19.95-.35,1.71-.48,2.31a3.67,3.67,0,0,1-.2.79,6.3,6.3,0,0,1,.11-.83l.39-2.34c.38-2.12.91-5,1.55-8.6,1.36-7.32,3.21-17.29,5.26-28.31,1-5.51,2-10.81,3.29-15.45a51.68,51.68,0,0,1,4.48-11.54,24.92,24.92,0,0,1,4.57-6.09A13.38,13.38,0,0,1,249.8,156,2.07,2.07,0,0,1,250.35,155.63Z"/><g class="cls-2"><path class="cls-1" d="M238.9,177.3c-8.79,33.84-24.58,52.77-47,69.72,0,0,19.18-1.89,36.88-19.23"/></g><g class="cls-2"><path class="cls-1" d="M266.87,153.21q5.6,127.22,11.17,254.42L267,440Z"/></g><path class="cls-1" d="M301.48,241.2c-.13.07-1.26-3.94-2.82-8.75s-3-8.64-2.85-8.74a12.73,12.73,0,0,1,1.09,2.37c.61,1.52,1.4,3.66,2.19,6.08s1.42,4.67,1.83,6.32A15.12,15.12,0,0,1,301.48,241.2Z"/><path class="cls-1" d="M326.48,223.31a57.92,57.92,0,0,1-6,5.7c-3.36,3-6.15,5.27-6.22,5.11a58.5,58.5,0,0,1,6-5.69C323.63,225.44,326.41,223.15,326.48,223.31Z"/><path class="cls-1" d="M315.63,210.43a51.25,51.25,0,0,1-.49-6.94,50.33,50.33,0,0,1,0-7,51.31,51.31,0,0,1,.49,6.95A52.09,52.09,0,0,1,315.63,210.43Z"/><path class="cls-1" d="M340.59,208c-.07.16-2.08-1.44-4.5-3.56a30.74,30.74,0,0,1-4.26-4.14c.07-.16,2.09,1.43,4.51,3.56A29.69,29.69,0,0,1,340.59,208Z"/><path class="cls-1" d="M302.43,278.41a89.82,89.82,0,0,1,2.48-9,83.21,83.21,0,0,1,2.92-8.76,90.9,90.9,0,0,1-2.48,9A85,85,0,0,1,302.43,278.41Z"/><path class="cls-1" d="M291.31,294.43a37.39,37.39,0,0,1-2.24-5.62,38.65,38.65,0,0,1-1.81-5.93,35.65,35.65,0,0,1,2.24,5.62A38.29,38.29,0,0,1,291.31,294.43Z"/><path class="cls-1" d="M300.61,316c0,.17-2,1.19-4.72,1.72s-4.87.38-4.87.21,2.17-.35,4.8-.89S300.57,315.79,300.61,316Z"/><path class="cls-1" d="M312.54,292.41a44,44,0,0,1,1.63-6.34,41.82,41.82,0,0,1,2.06-6.08,43.81,43.81,0,0,1-1.62,6.34A41.07,41.07,0,0,1,312.54,292.41Z"/><path class="cls-1" d="M283.54,342.23c-.12.11-1.47-2.55-3.32-5.59s-3.51-5.33-3.41-5.48,1.89,1.95,3.77,5A27.2,27.2,0,0,1,283.54,342.23Z"/><path class="cls-1" d="M278.28,288.66a49.79,49.79,0,0,1-2.4,6.56,46.43,46.43,0,0,1-2.81,6.23,47.45,47.45,0,0,1,2.4-6.57A45.19,45.19,0,0,1,278.28,288.66Z"/><path class="cls-1" d="M282,270.2c0,.18-2.33-.5-5.13-1.53s-5-2-5-2.19,2.33.5,5.13,1.53S282.05,270,282,270.2Z"/><path class="cls-1" d="M281.81,232.35a48.75,48.75,0,0,1,2.71,5.33,52.76,52.76,0,0,1,2.56,5.48,24.25,24.25,0,0,1-2.95-5.1A29.16,29.16,0,0,1,281.81,232.35Z"/><path class="cls-1" d="M273.35,230.5a27.85,27.85,0,0,1-3.18,4.38c-1.84,2.28-3.4,4-3.49,3.87a27.09,27.09,0,0,1,3.18-4.38C271.7,232.09,273.26,230.36,273.35,230.5Z"/><path class="cls-1" d="M280,210.68c-.08.13-2.13-2.28-4.25-5.82a34.22,34.22,0,0,1-3.36-6.89c.12-.11,1.63,2.95,3.73,6.45S280.12,210.53,280,210.68Z"/><path class="cls-1" d="M303.5,204.58c0,.18-2.27,1.34-5.15,2.59s-5.25,2.12-5.28,1.94,2.26-1.34,5.14-2.59S303.46,204.4,303.5,204.58Z"/><path class="cls-1" d="M270.45,172.76c-.14,0-.08-3-.41-6.63s-.89-6.51-.75-6.57a24,24,0,0,1,1.23,6.48A25.6,25.6,0,0,1,270.45,172.76Z"/><path class="cls-1" d="M249.56,267.48a18.94,18.94,0,0,1-2.16,2.27c-1.36,1.35-3.21,3.26-5.2,5.47s-3.73,4.33-5,5.87a20.75,20.75,0,0,1-2.07,2.45,18.35,18.35,0,0,1,1.84-2.8,76.14,76.14,0,0,1,4.91-6.06,70.11,70.11,0,0,1,5.3-5.33A12.86,12.86,0,0,1,249.56,267.48Z"/><path class="cls-1" d="M248.35,257c-.12.11-1.66-3.31-3.8-7.29s-4-7-3.92-7.16a8.64,8.64,0,0,1,1.38,1.82c.8,1.19,1.85,2.92,2.93,4.93s1.95,3.91,2.55,5.32A11.25,11.25,0,0,1,248.35,257Z"/><path class="cls-1" d="M254,215.71a29.13,29.13,0,0,1-4.39,3.83c-2.48,2-4.55,3.4-4.61,3.24s1.9-1.88,4.38-3.84S253.88,215.54,254,215.71Z"/><path class="cls-1" d="M248.41,197.68a7.85,7.85,0,0,1-1.57-1.76,45.82,45.82,0,0,1-3.32-5,52.77,52.77,0,0,1-2.8-5.61,12.16,12.16,0,0,1-.9-2.54c.12-.11,1.69,3.61,4.07,7.72S248.51,197.53,248.41,197.68Z"/><path class="cls-1" d="M257.94,197.3a36.57,36.57,0,0,1,1.69-5.72,32.25,32.25,0,0,1,2.12-5.41,36.3,36.3,0,0,1-1.69,5.71A32.61,32.61,0,0,1,257.94,197.3Z"/><path class="cls-1" d="M255.4,176.67c-.15,0,0-4.06-.54-9s-1.55-8.69-1.41-8.76a9.64,9.64,0,0,1,.78,2.42,48.35,48.35,0,0,1,1.11,6.23,50,50,0,0,1,.28,6.42A11.88,11.88,0,0,1,255.4,176.67Z"/><path class="cls-1" d="M257.75,280.77a37.67,37.67,0,0,1,0-3.82c.06-2.35.11-5.61.05-9.2s-.23-6.83-.37-9.18a36.2,36.2,0,0,1-.17-3.81,25,25,0,0,1,.51,3.76c.22,2.34.44,5.6.5,9.22s0,6.88-.18,9.24A25.16,25.16,0,0,1,257.75,280.77Z"/><path class="cls-1" d="M256.35,313.23c-.11.15-1.63-2.47-4.07-4.66s-4.74-3.09-4.69-3.29,2.43.42,4.94,2.72A14.53,14.53,0,0,1,256.35,313.23Z"/><path class="cls-1" d="M267.84,333.36c.06.17-2.76,2.42-6.3,5s-6.47,4.59-6.53,4.42,2.76-2.42,6.31-5S267.78,333.19,267.84,333.36Z"/><path class="cls-1" d="M235.51,342.28a83.82,83.82,0,0,1-4.64-8.4,90.3,90.3,0,0,1-4.26-8.82,87.29,87.29,0,0,1,4.64,8.41A92.12,92.12,0,0,1,235.51,342.28Z"/><path class="cls-1" d="M225.53,305.13a13.14,13.14,0,0,1-.2-2.68c-.06-1.66-.07-4,0-6.49s.25-4.82.41-6.47a14.15,14.15,0,0,1,.37-2.64c.14,0-.14,4.1-.3,9.14S225.67,305.13,225.53,305.13Z"/><path class="cls-1" d="M214.76,368.55a56.52,56.52,0,0,1-5.36-5.9,61.56,61.56,0,0,1-5.06-6.43c.09-.15,2.49,2.5,5.37,5.9A59.47,59.47,0,0,1,214.76,368.55Z"/><path class="cls-1" d="M221.23,366.6c-.14,0-.32-4.58-.41-10.23s-.06-10.25.07-10.26.31,4.58.41,10.24S221.36,366.6,221.23,366.6Z"/><path class="cls-1" d="M234,405.94a27.26,27.26,0,0,1-3-1.38,33.68,33.68,0,0,0-7.36-2.38,31.34,31.34,0,0,0-7.53-.51,27.9,27.9,0,0,1-3.14.19c0-.05.28-.15.82-.28a17.27,17.27,0,0,1,2.3-.39,25.17,25.17,0,0,1,7.62.32,27.54,27.54,0,0,1,7.4,2.6,21.77,21.77,0,0,1,2.13,1.25A3.17,3.17,0,0,1,234,405.94Z"/><path class="cls-1" d="M244.5,413.12a11.91,11.91,0,0,1,2.07,2,63.24,63.24,0,0,1,4.53,5.73,68.34,68.34,0,0,1,4,6.46,16.47,16.47,0,0,1,1.43,2.94,23.1,23.1,0,0,1-1.69-2.64c-1-1.65-2.44-3.91-4.11-6.28s-3.24-4.4-4.41-5.84A20.92,20.92,0,0,1,244.5,413.12Z"/><path class="cls-1" d="M249.08,345.06a61.46,61.46,0,0,1-2.38-7.62,68.63,68.63,0,0,1-1.94-7.87,62.17,62.17,0,0,1,2.38,7.62A69.19,69.19,0,0,1,249.08,345.06Z"/><path class="cls-1" d="M212.21,212.66a10.28,10.28,0,0,1-1.41,2.18,35.8,35.8,0,0,1-3.93,4.42,30,30,0,0,1-4.38,3.47,6.56,6.56,0,0,1-2,1c-.06-.2,2.85-2,6.07-5S212.1,212.51,212.21,212.66Z"/><path class="cls-1" d="M214.55,198.82a36,36,0,0,1,0-5.83,34.8,34.8,0,0,1,.43-5.8,36,36,0,0,1,0,5.83A34.94,34.94,0,0,1,214.55,198.82Z"/><path class="cls-1" d="M196.25,210.44c-.05.18-2.19-1.05-4.77-2.73a26.52,26.52,0,0,1-4.57-3.36c.06-.17,2.19,1.06,4.77,2.74S196.31,210.27,196.25,210.44Z"/><path class="cls-1" d="M228.92,192.72a56.09,56.09,0,0,1,.15-7.22,55.42,55.42,0,0,1,.63-7.18,56.25,56.25,0,0,1-.15,7.23A51,51,0,0,1,228.92,192.72Z"/><path class="cls-1" d="M186.52,238.13c0,.17-2.51-.92-5.24-3.26a20,20,0,0,1-4.48-5c.09-.16,2,2.18,4.73,4.46S186.58,237.94,186.52,238.13Z"/><path class="cls-1" d="M172.91,211.55a57.72,57.72,0,0,1-3.91,6.6,49.31,49.31,0,0,1-4.27,6.14,57.72,57.72,0,0,1,3.91-6.6A50.27,50.27,0,0,1,172.91,211.55Z"/><path class="cls-1" d="M171.74,187.74c-.05.16-2.1-1.08-4.28-3.41a17.85,17.85,0,0,1-3.5-4.9c.1-.13,1.64,2.07,3.79,4.35S171.8,187.56,171.74,187.74Z"/><path class="cls-1" d="M163.18,192.72a17.78,17.78,0,0,1-2,3.82,15.12,15.12,0,0,1-2.32,3.38,17.73,17.73,0,0,1,2-3.82A15.43,15.43,0,0,1,163.18,192.72Z"/><path class="cls-1" d="M181.55,148.52a57.37,57.37,0,0,1-3.59,6.77,49.35,49.35,0,0,1-4,6.34,57.37,57.37,0,0,1,3.59-6.77A49.35,49.35,0,0,1,181.55,148.52Z"/><path class="cls-1" d="M165.79,153.55a44.23,44.23,0,0,1-3.9-5.84,48.49,48.49,0,0,1-3.55-6.28,44.82,44.82,0,0,1,3.91,5.84A49.09,49.09,0,0,1,165.79,153.55Z"/><path class="cls-1" d="M173.67,125.18a44.35,44.35,0,0,1-2.74-6.2,50.41,50.41,0,0,1-2.32-6.54,43.69,43.69,0,0,1,2.74,6.2A50.41,50.41,0,0,1,173.67,125.18Z"/><path class="cls-1" d="M173.28,106.87c-.12-.13,1.26-2.6,2.35-6.12s1.49-6.61,1.64-6.58a21.92,21.92,0,0,1-1.2,6.86C174.94,104.65,173.36,107,173.28,106.87Z"/><path class="cls-1" d="M158.12,105.78a23.12,23.12,0,0,1,3.37-12.85,5.34,5.34,0,0,1,1.27-1.58,43.27,43.27,0,0,0-3.08,6.72A51,51,0,0,0,158.12,105.78Z"/><path class="cls-3" d="M290.47,74.7a116.71,116.71,0,0,1-.14-16.3c.46-5.41,1.73-10.81,4.23-14.93s6.36-6.78,10.15-6.08c2.34.43,4.57,2.08,6.93,2,2.73-.12,5.11-2.52,7.6-4.13a14.55,14.55,0,0,1,12.52-1.86,11.18,11.18,0,0,1,5.92,4.25,12.22,12.22,0,0,1,1.92,8.73,22.55,22.55,0,0,1,8.22,1,11.65,11.65,0,0,1,6.6,6.59c1.37,3.41,1.27,8.15-.69,10.91,2.55-.74,5.23,2.06,5.84,5.66a11.9,11.9,0,0,1-2.75,9.72,9.72,9.72,0,0,1-8.58,2.46c-2.56-.69-5.48-1.71-7.56-4"/><path class="cls-4" d="M288.47,197.77h0c10.55,3.85,21.31-5.12,24.09-20.1,1.55-8.36,2.81-15.38,2.81-15.38s15.34,3.74,20.42-16.92,13.78-69.51,13.78-69.51h0c-14.44-18.39-34.74-24.21-53.06-15.22L293.79,62,274.3,163C271.37,178.18,277.75,193.84,288.47,197.77Z"/><path class="cls-5" d="M315.46,162s-9.46-3.34-17.19-16.77c0,0,1,17.08,16,22.16Z"/><path class="cls-4" d="M290.52,84.33c-.22-.27-9-9-12,5.33s7.71,15.71,7.81,15.3S290.52,84.33,290.52,84.33Z"/><path class="cls-5" d="M284.35,98.22c0-.07-.21.1-.55.16a1.45,1.45,0,0,1-1.32-.52c-.94-1-1.33-3.8-.84-6.4a10.26,10.26,0,0,1,1.25-3.37c.53-.92,1.16-1.45,1.72-1.35s.86.67.9,1.13-.08.71,0,.76.27-.15.31-.77a2.17,2.17,0,0,0-.21-1.07,1.38,1.38,0,0,0-.89-.78c-.79-.26-1.71.46-2.3,1.44a10.24,10.24,0,0,0-1.45,3.73c-.55,2.92-.08,6.07,1.25,7.29a1.49,1.49,0,0,0,1.68.31C284.26,98.56,284.38,98.26,284.35,98.22Z"/><path class="cls-3" d="M337.21,105.73c-.33,1.58-1.55,2.49-2.72,2s-1.84-2.11-1.51-3.7,1.54-2.49,2.71-2S337.54,104.14,337.21,105.73Z"/><path class="cls-3" d="M339.93,103.73c-.35.26-1.54-2.16-3.78-3.22s-4.26-.25-4.41-.76c-.08-.23.35-.8,1.24-1.2a4.36,4.36,0,0,1,3.64.13,6.47,6.47,0,0,1,2.89,3C340,102.8,340.09,103.61,339.93,103.73Z"/><path class="cls-3" d="M315.18,95.21c-.33,1.58-1.54,2.49-2.71,2s-1.85-2.12-1.52-3.7,1.55-2.49,2.72-2S315.51,93.62,315.18,95.21Z"/><path class="cls-3" d="M317.76,93.8c-.35.26-1.53-2.15-3.77-3.21s-4.26-.25-4.42-.76c-.07-.23.35-.8,1.24-1.2a4.34,4.34,0,0,1,3.65.13,6.52,6.52,0,0,1,2.89,3C317.86,92.88,317.93,93.69,317.76,93.8Z"/><path class="cls-3" d="M320.32,121.33c0-.19,1.5.14,3.86.81.59.18,1.17.28,1.4-.23a6,6,0,0,0,.18-2.59c-.07-2.23-.15-4.56-.23-7-.26-10-.25-18,0-18s.73,8,1,18c.06,2.45.11,4.78.15,7a6.77,6.77,0,0,1-.45,3.34,1.38,1.38,0,0,1-1.22.74,3.16,3.16,0,0,1-1-.27C321.7,122.18,320.28,121.52,320.32,121.33Z"/><path class="cls-3" d="M313.2,120.39c.38.14-.44,3.6,1.07,7.06s4.18,4.3,4.08,4.79c0,.24-.73.4-1.84-.08a7.24,7.24,0,0,1-3.46-3.81,10.88,10.88,0,0,1-.73-5.84C312.57,121,313,120.29,313.2,120.39Z"/><path class="cls-3" d="M340.43,97.72c-.57.54-1.93-1-3.78-1.87s-3.54-1.15-3.73-2.08c-.07-.45.35-1.06,1.2-1.41a4,4,0,0,1,3.36.28,6.34,6.34,0,0,1,2.68,2.9C340.64,96.6,340.68,97.45,340.43,97.72Z"/><path class="cls-3" d="M317.57,80.88c-.35.27-.88-.16-1.58-.72a16.54,16.54,0,0,0-2.64-1.85,14.35,14.35,0,0,0-2.85-1.07c-.78-.22-1.39-.39-1.52-.91s.3-1.29,1.29-1.83a4.3,4.3,0,0,1,4,.14,7.09,7.09,0,0,1,3.12,3.65C317.93,79.63,317.89,80.64,317.57,80.88Z"/><path class="cls-3" d="M348.79,82.57s-10.86,0-20.9-11.69C321.3,63.2,313,57.82,310.79,59.33s-4.39,12.28-12.26,13.08c0,0-2.81,21-8.52,18.34s3.07-33.66,3.07-33.66l15.83-5.3,16.23.84,14.57,4.71,12.6,10.3Z"/><rect class="cls-6" x="60.9" y="0.34" width="206.1" height="456.76"/><path class="cls-3" d="M267,457.1c0-2.82-.09-188.31-.22-456.76l.22.31L60.93.68h0l.24-.34c0,172.8,0,331.93,0,456.76l-.19-.27L267,457.1l-206.11.27h-.18v-.27c0-124.83,0-284,0-456.76V0h.26L267,0h.22V.34C267.1,268.79,267,454.29,267,457.1Z"/><path class="cls-7" d="M116.14,102.05H89.77c-1.82,0-3.3-2.1-3.3-4.7V45.41c0-2.6,1.48-4.7,3.3-4.7h16.72l13,19V97.35C119.44,100,118,102.05,116.14,102.05Z"/><path class="cls-7" d="M106.49,40.71V55.33c0,2.41,1.38,4.37,3.07,4.37h9.88Z"/><g class="cls-8"><path class="cls-7" d="M106.63,56.61s-.13,3.55,2.7,4.72l.33.1c1.29.33,9.78,2.48,9.78,2.2V59.7h-9.88A3.33,3.33,0,0,1,106.63,56.61Z"/></g><g class="cls-2"><path class="cls-7" d="M106.49,40.71V55.33c0,2.41,1.38,4.37,3.07,4.37h9.88Z"/></g><path class="cls-7" d="M104.28,54.74c0,.18-2.73.34-6.1.34s-6.1-.16-6.1-.34,2.73-.35,6.1-.35S104.28,54.55,104.28,54.74Z"/><path class="cls-7" d="M112.16,63c0,.19-4.49.34-10,.34s-10-.15-10-.34,4.5-.34,10-.34S112.16,62.81,112.16,63Z"/><path class="cls-7" d="M114,69.9c0,.19-4.9.34-10.94.34s-11-.15-11-.34,4.9-.34,11-.34S114,69.72,114,69.9Z"/><path class="cls-7" d="M114,76.42c0,.18-4.9.34-10.94.34s-11-.16-11-.34,4.9-.34,11-.34S114,76.23,114,76.42Z"/><path class="cls-7" d="M114,82.93c0,.19-4.9.34-10.94.34s-11-.15-11-.34,4.9-.34,11-.34S114,82.74,114,82.93Z"/><path class="cls-7" d="M114,89.44c0,.19-4.9.34-10.94.34s-11-.15-11-.34,4.9-.34,11-.34S114,89.25,114,89.44Z"/><path class="cls-3" d="M232.22,172.81c0,.18-31.68.34-70.75.34s-70.75-.16-70.75-.34,31.67-.34,70.75-.34S232.22,172.62,232.22,172.81Z"/><path class="cls-3" d="M232.22,188.05c0,.18-31.68.34-70.75.34s-70.75-.16-70.75-.34,31.67-.34,70.75-.34S232.22,187.86,232.22,188.05Z"/><path class="cls-3" d="M232.22,203.29c0,.18-31.68.34-70.75.34s-70.75-.16-70.75-.34,31.67-.34,70.75-.34S232.22,203.1,232.22,203.29Z"/><path class="cls-3" d="M232.22,218.52c0,.19-31.68.34-70.75.34s-70.75-.15-70.75-.34,31.67-.34,70.75-.34S232.22,218.34,232.22,218.52Z"/><path class="cls-3" d="M232.22,233.76c0,.19-31.68.34-70.75.34s-70.75-.15-70.75-.34,31.67-.34,70.75-.34S232.22,233.58,232.22,233.76Z"/><path class="cls-3" d="M232.22,249c0,.19-31.68.34-70.75.34s-70.75-.15-70.75-.34,31.67-.34,70.75-.34S232.22,248.82,232.22,249Z"/><path class="cls-3" d="M232.22,287.29c0,.19-31.68.34-70.75.34s-70.75-.15-70.75-.34,31.67-.34,70.75-.34S232.22,287.1,232.22,287.29Z"/><path class="cls-9" d="M232.22,306.86c0,.19-31.68.34-70.75.34s-70.75-.15-70.75-.34,31.67-.34,70.75-.34S232.22,306.67,232.22,306.86Z"/><path class="cls-10" d="M232.22,333c0,.19-31.68.34-70.75.34s-70.75-.15-70.75-.34,31.67-.34,70.75-.34S232.22,332.77,232.22,333Z"/><rect class="cls-7" x="167.69" y="371.95" width="74.85" height="39.69"/><path class="cls-4" d="M269,402l10.69-7.33L273.81,370l-12.91-4.26c-1.2-.38-2.54-.84-4-1.43a14.84,14.84,0,0,1-4.89-3.27,30.14,30.14,0,0,1-5.12-6.18c-1.22-2.37-3.81-1.49-3.81,1.14s3.26,9.25,9,13.94-4.44,6.95-8.16,7.87-15.1,4.54-15.78,6.38c-1,2.7.9,4.76,4.6,3.72s14.95-3.06,15.24-.26l0,.07a15.49,15.49,0,0,0,.49,13.32c2.07,3.7,5.18,8.34,7.47,7.63C260.24,407.36,269,402,269,402Z"/><path class="cls-11" d="M268.34,358.55l10,48.18,77.76-33.62c16.73-7.24,26-32.65,20.54-56.29L357.6,232.39,316.19,247l22.72,78.1Z"/><path class="cls-3" d="M357.87,372.27l-.38.19-1.11.5L352,374.89,335.7,382l-56.6,24.43-.21.09-.07-.3c-3.46-14.72-6.82-30.93-10.7-47.56l-.08-.33.23-.1,2-.93,68.63-32.43-.11.35c-5.48-18.94-10-34.47-13.09-45.28-1.54-5.39-2.75-9.59-3.57-12.48q-.6-2.13-.93-3.27c-.2-.74-.29-1.13-.29-1.13s.13.37.35,1.1.55,1.83,1,3.24c.85,2.87,2.09,7.06,3.67,12.42L339.09,325l.08.27-.2.09-68.59,32.56-2,.93.15-.43c3.89,16.65,7.23,32.86,10.68,47.58l-.28-.21,56.65-24.2L352,374.68l4.37-1.82,1.13-.46A3.31,3.31,0,0,1,357.87,372.27Z"/><path class="cls-3" d="M353.29,339.18c-.07.06-.59-1.22-1.63-3.05a26.72,26.72,0,0,0-4.75-6.17,19.1,19.1,0,0,0-5.85-3.84c-1.59-.65-2.62-.83-2.61-.95s.26,0,.73,0a10.11,10.11,0,0,1,2,.47,16.66,16.66,0,0,1,6,3.74,24.07,24.07,0,0,1,4.76,6.44,19.83,19.83,0,0,1,1.07,2.4A3.56,3.56,0,0,1,353.29,339.18Z"/><path class="cls-6" d="M334.44,251.12a55,55,0,0,1-.23-7.14,55.11,55.11,0,0,1,.23-7.15,52,52,0,0,1,.24,7.15A51.9,51.9,0,0,1,334.44,251.12Z"/><path class="cls-6" d="M350.06,252.26a51.78,51.78,0,0,1-1.69-6.85,55.6,55.6,0,0,1-1.23-7,48.73,48.73,0,0,1,1.69,6.85A51.88,51.88,0,0,1,350.06,252.26Z"/><path class="cls-6" d="M340.37,272.31c0,.18-2.17.08-4.72-1a11.85,11.85,0,0,1-4.36-2.79c.07-.18,2,1.11,4.49,2.14S340.39,272.11,340.37,272.31Z"/><path class="cls-6" d="M358,283.36a49.32,49.32,0,0,1,.58-6.83,48.53,48.53,0,0,1,1.06-6.71,48.61,48.61,0,0,1-.59,6.83A48,48,0,0,1,358,283.36Z"/><path class="cls-6" d="M351.72,301.34a44.93,44.93,0,0,1-2.28-6.28,46.51,46.51,0,0,1-1.84-6.56,44.22,44.22,0,0,1,2.27,6.28A47.43,47.43,0,0,1,351.72,301.34Z"/><path class="cls-6" d="M349.13,317.1c-.06.17-2-1-4.35-2.63a23,23,0,0,1-4.15-3.24c.06-.16,2,1,4.35,2.63A23,23,0,0,1,349.13,317.1Z"/><path class="cls-6" d="M369,312.91c.12.09-.76,2.7-1.74,6s-1.71,6-1.84,5.93a30.18,30.18,0,0,1,1.4-6.2A26.1,26.1,0,0,1,369,312.91Z"/><path class="cls-6" d="M363.47,350.85a56,56,0,0,1-.75-7.3,57.53,57.53,0,0,1-.27-7.37,55.76,55.76,0,0,1,.75,7.3A57.53,57.53,0,0,1,363.47,350.85Z"/><path class="cls-6" d="M349.45,362.83c-.09.14-1.73-1.79-3.65-4.31a32,32,0,0,1-3.33-4.81c.09-.14,1.72,1.79,3.65,4.31A31.44,31.44,0,0,1,349.45,362.83Z"/><path class="cls-6" d="M325.21,366.27a42.62,42.62,0,0,1-2.81,6,40.52,40.52,0,0,1-3.19,5.62,42.62,42.62,0,0,1,2.81-6A38.22,38.22,0,0,1,325.21,366.27Z"/><path class="cls-6" d="M332.9,350.1c-.08.14-1.86-1.77-3.72-4.64a25.29,25.29,0,0,1-3-5.62c.11-.12,1.48,2.34,3.33,5.16S333,350,332.9,350.1Z"/><path class="cls-6" d="M314.61,353.78c0,.16-1.59.86-3.66.64A5.93,5.93,0,0,1,307.4,353c.05-.19,1.6.52,3.59.71S314.58,353.58,314.61,353.78Z"/><path class="cls-6" d="M303,382.35a33.46,33.46,0,0,1-.92-5.61,34.6,34.6,0,0,1-.45-5.73,32.51,32.51,0,0,1,.92,5.62A34.51,34.51,0,0,1,303,382.35Z"/><path class="cls-6" d="M289.39,392.21c-.07.16-2.15-1.52-4.63-3.75a34,34,0,0,1-4.38-4.33c.07-.16,2.14,1.52,4.63,3.75A34,34,0,0,1,289.39,392.21Z"/><path class="cls-6" d="M294.26,357.43c.1.14-1.23,2.38-2.71,5.31s-2.58,5.42-2.7,5.32a25.3,25.3,0,0,1,2.31-5.72A20.06,20.06,0,0,1,294.26,357.43Z"/><path class="cls-6" d="M283.7,364c-.06.17-1.26-.52-2.68-1.53a9.24,9.24,0,0,1-2.47-2.13c.06-.17,1.26.51,2.68,1.52A9.37,9.37,0,0,1,283.7,364Z"/><g class="cls-8"><path d="M338.26,323.14c4.16.61,8.31,1.22,12.46,2a11.62,11.62,0,0,1,4.21,1.36,6.87,6.87,0,0,1,3,4.2c.48,1.94.08,4.38-1.15,5.47s-2.61.66-3.77-.23a23.82,23.82,0,0,1-3.1-3.47,16.32,16.32,0,0,0-6.37-4.74,9,9,0,0,1-3-1.52,4.39,4.39,0,0,1-1.32-3.87"/></g><text class="cls-12" transform="translate(175.94 396.89) scale(0.7 1)">Desca<tspan class="cls-13" x="50.1" y="0">r</tspan><tspan x="56.72" y="0">gar</tspan></text><ellipse class="cls-11" cx="129.39" cy="68.82" rx="9.27" ry="14.41"/><path class="cls-11" d="M144.8,101.82c0,4.24-4.57,5.7-15.41,5.7S114,106.06,114,101.82c0-9.29,3.43-15.88,10.08-18.89a7.91,7.91,0,0,0,10.67,0C141.37,85.94,144.8,92.53,144.8,101.82Z"/></g></g></svg>