<svg width="281" height="251" viewBox="0 0 281 251" fill="none" xmlns="http://www.w3.org/2000/svg">
<g clip-path="url(#clip0_164_2)">
<path d="M252.419 113.859C250.836 96.4343 245.498 79.5596 236.771 64.395C228.045 49.2304 216.137 36.136 201.868 26.0122C187.598 15.8884 171.305 8.97559 154.109 5.74914C136.912 2.52269 119.222 3.05918 102.253 7.32172C85.2836 11.5843 69.4392 19.4717 55.8092 30.4416C42.1791 41.4114 31.0869 55.2034 23.2953 70.8689C15.5038 86.5344 11.1978 103.702 10.6735 121.19C10.1493 138.678 13.4192 156.073 20.2585 172.177L160.235 242.519C188.472 235.686 213.314 218.935 230.235 195.319C247.156 171.703 255.029 142.793 252.419 113.859Z" fill="#A480FD" stroke="#231F20" stroke-width="0.320114" stroke-miterlimit="10"/>
<path d="M37.9755 170.58C32.7253 171.046 27.5117 171.857 22.3685 173.01C22.2173 173.042 22.0801 173.121 21.9765 173.236C21.8728 173.351 21.8079 173.495 21.791 173.649C21.7741 173.803 21.8061 173.958 21.8823 174.092C21.9585 174.227 22.0752 174.334 22.2157 174.398L158.513 242.908C158.649 242.98 158.804 243.008 158.957 242.987C159.11 242.967 159.252 242.899 159.364 242.793C159.476 242.687 159.552 242.549 159.581 242.398C159.61 242.246 159.591 242.09 159.527 241.95C149.24 218.863 131.991 199.571 110.196 186.773C88.4003 173.976 63.1486 168.314 37.9755 170.58Z" fill="#A480FD" stroke="#231F20" stroke-width="0.320114" stroke-miterlimit="10"/>
<path d="M35.14 119.301L33.2066 97.8184L43.7171 96.2259C46.0934 95.8659 48.225 95.9888 50.1117 96.5947C51.9967 97.1801 53.5187 98.1938 54.6779 99.6357C55.837 101.078 56.516 102.903 56.7149 105.113C56.9156 107.343 56.5809 109.343 55.7109 111.113C54.839 112.863 53.5388 114.315 51.8104 115.468C50.0801 116.602 48.0268 117.348 45.6505 117.708L35.14 119.301ZM41.8216 112.565L44.8377 112.108C45.8532 111.954 46.7192 111.625 47.4357 111.123C48.1725 110.617 48.7201 109.954 49.0785 109.132C49.435 108.29 49.5636 107.316 49.4641 106.212C49.3665 105.127 49.0704 104.239 48.5758 103.547C48.0811 102.854 47.4304 102.372 46.6236 102.1C45.8372 101.825 44.9362 101.765 43.9207 101.919L40.9046 102.376L41.8216 112.565ZM69.3245 114.432C67.2934 114.74 65.4822 114.631 63.8908 114.105C62.3198 113.575 61.0589 112.719 60.1084 111.536C59.156 110.332 58.6052 108.902 58.456 107.245C58.3032 105.546 58.5741 103.981 59.2686 102.549C59.9835 101.113 61.0187 99.9193 62.3741 98.9673C63.7498 98.0123 65.3313 97.3994 67.1186 97.1286C68.7638 96.8793 70.3063 96.9774 71.7463 97.4229C73.2067 97.8652 74.4112 98.6678 75.3599 99.8306C76.3289 100.99 76.8991 102.521 77.0703 104.424C77.0924 104.67 77.1071 104.947 77.1144 105.257C77.1199 105.547 77.1235 105.816 77.1253 106.065L64.2994 108.008L63.9984 104.663L73.1684 103.273L70.659 104.556C70.6 103.901 70.4285 103.367 70.1442 102.954C69.8785 102.517 69.5314 102.207 69.1031 102.023C68.673 101.818 68.1736 101.759 67.6049 101.845C67.0362 101.932 66.5506 102.14 66.148 102.471C65.7639 102.778 65.4813 103.183 65.3003 103.688C65.1174 104.172 65.0554 104.741 65.1143 105.396L65.2082 106.439C65.2726 107.155 65.4701 107.748 65.8004 108.216C66.1308 108.684 66.572 109.012 67.124 109.197C67.6742 109.363 68.325 109.389 69.0765 109.275C69.8482 109.158 70.4687 108.96 70.9377 108.682C71.427 108.4 71.9275 108.013 72.439 107.521L76.3626 110.628C75.6294 111.631 74.6848 112.459 73.5288 113.111C72.3913 113.74 70.9899 114.18 69.3245 114.432ZM86.5471 111.823C85.1254 112.038 83.7102 112.097 82.3015 111.999C80.8928 111.902 79.7398 111.672 78.8426 111.31L80.3199 106.452C81.1543 106.802 82.1014 107.032 83.1612 107.141C84.2412 107.247 85.2789 107.224 86.2741 107.074C87.1068 106.947 87.6589 106.791 87.9303 106.605C88.2221 106.416 88.3569 106.198 88.3348 105.953C88.3127 105.707 88.1245 105.559 87.77 105.509C87.4137 105.439 86.9484 105.416 86.3742 105.441C85.8 105.466 85.1639 105.489 84.466 105.512C83.7866 105.512 83.0933 105.471 82.3862 105.392C81.679 105.312 81.0246 105.132 80.4227 104.849C79.8209 104.567 79.3197 104.146 78.9192 103.584C78.5169 103.002 78.2724 102.23 78.1859 101.269C78.0901 100.205 78.3184 99.1957 78.8707 98.241C79.4433 97.2832 80.3362 96.4532 81.5494 95.7509C82.781 95.0251 84.3311 94.5206 86.1997 94.2375C87.4183 94.0529 88.647 93.9808 89.8859 94.0212C91.1247 94.0616 92.202 94.2509 93.1177 94.5892L91.6404 99.448C90.745 99.1067 89.8736 98.9173 89.0262 98.8798C88.1972 98.8188 87.4273 98.8421 86.7164 98.9498C85.8431 99.0821 85.2513 99.2547 84.941 99.4676C84.6511 99.6775 84.5154 99.8847 84.5338 100.089C84.5559 100.335 84.7451 100.493 85.1014 100.563C85.4577 100.634 85.923 100.656 86.4972 100.632C87.0714 100.607 87.6982 100.595 88.3777 100.596C89.0756 100.573 89.7689 100.613 90.4575 100.716C91.1646 100.796 91.8191 100.976 92.4209 101.258C93.0228 101.541 93.5249 101.973 93.9272 102.554C94.3277 103.116 94.5713 103.877 94.6578 104.839C94.748 105.842 94.5179 106.83 93.9675 107.806C93.4152 108.76 92.5232 109.6 91.2916 110.326C90.0581 111.032 88.4766 111.53 86.5471 111.823ZM106.21 108.844C104.301 109.133 102.572 109.021 101.023 108.51C99.4742 107.998 98.2143 107.152 97.2435 105.972C96.2911 104.768 95.7384 103.317 95.5856 101.619C95.4328 99.9207 95.7138 98.3539 96.4287 96.9183C97.1639 95.4797 98.2396 94.2797 99.656 93.3186C101.072 92.3574 102.735 91.7322 104.644 91.4429C106.675 91.1352 108.451 91.3119 109.973 91.9732C111.494 92.6345 112.599 93.701 113.287 95.1728L108.193 98.6199C107.778 97.8947 107.301 97.3967 106.762 97.1258C106.243 96.8519 105.689 96.7595 105.1 96.8488C104.592 96.9257 104.126 97.1208 103.701 97.434C103.297 97.7441 102.985 98.1647 102.765 98.6957C102.563 99.2032 102.496 99.8252 102.562 100.562C102.628 101.298 102.806 101.894 103.093 102.348C103.402 102.799 103.78 103.115 104.229 103.296C104.698 103.473 105.186 103.524 105.694 103.447C106.283 103.358 106.805 103.102 107.261 102.681C107.738 102.256 108.114 101.629 108.389 100.799L113.958 102.63C113.55 104.268 112.664 105.636 111.301 106.735C109.938 107.833 108.241 108.536 106.21 108.844ZM126.053 105.526L125.785 102.549L125.226 101.825L124.718 96.1783C124.644 95.3599 124.334 94.7744 123.788 94.4217C123.262 94.0659 122.44 93.9726 121.323 94.1419C120.571 94.2557 119.821 94.4939 119.071 94.8563C118.32 95.1983 117.688 95.6155 117.177 96.1077L114.572 91.8674C115.491 91.1059 116.617 90.4584 117.948 89.9249C119.279 89.3914 120.595 89.0261 121.895 88.8292C124.758 88.3953 127.03 88.7043 128.71 89.7563C130.41 90.8052 131.387 92.7311 131.639 95.5341L132.451 104.557L126.053 105.526ZM121.359 106.548C119.998 106.755 118.839 106.692 117.883 106.359C116.927 106.027 116.18 105.508 115.643 104.801C115.104 104.074 114.791 103.23 114.705 102.268C114.607 101.184 114.798 100.222 115.279 99.3816C115.759 98.5415 116.54 97.8425 117.622 97.2845C118.725 96.7235 120.139 96.3122 121.865 96.0506L125.338 95.5244L125.639 98.8695L123.263 99.2295C122.532 99.3403 122.005 99.5446 121.682 99.8424C121.377 100.117 121.246 100.489 121.288 100.96C121.323 101.348 121.495 101.654 121.803 101.877C122.13 102.076 122.547 102.138 123.055 102.061C123.522 101.99 123.937 101.803 124.301 101.499C124.683 101.171 124.941 100.717 125.074 100.137L126.143 102.059C125.991 103.348 125.516 104.363 124.718 105.106C123.921 105.849 122.801 106.33 121.359 106.548ZM135.422 104.106L133.916 87.3642L140.448 86.3744L140.903 91.4246L139.71 90.1472C140.099 88.7646 140.821 87.6624 141.876 86.8406C142.931 86.0189 144.239 85.4898 145.799 85.2535L146.35 91.375C146.042 91.3802 145.766 91.391 145.521 91.4074C145.296 91.4208 145.062 91.4459 144.819 91.4827C143.786 91.6392 142.96 92.0436 142.342 92.6958C141.741 93.3246 141.501 94.3021 141.62 95.6284L142.289 103.066L135.422 104.106ZM158.14 106.993C156.499 107.242 154.944 107.302 153.474 107.173C152.005 107.044 150.723 106.711 149.627 106.174L151.512 101.11C152.206 101.522 153.062 101.796 154.081 101.931C155.121 102.084 156.087 102.092 156.978 101.957C158.396 101.742 159.381 101.283 159.934 100.579C160.488 99.8949 160.715 98.9918 160.614 97.8696L160.487 96.4616L160.323 91.2124L159.885 86.0045L159.656 83.4641L166.189 82.4743L167.395 95.8803C167.687 99.1247 167.013 101.667 165.372 103.509C163.731 105.35 161.32 106.512 158.14 106.993ZM156.158 100.034C154.761 100.246 153.425 100.117 152.15 99.6483C150.875 99.1591 149.808 98.3693 148.95 97.279C148.092 96.1887 147.589 94.8171 147.44 93.1643C147.291 91.5115 147.537 90.0264 148.178 88.709C148.82 87.3915 149.718 86.3143 150.875 85.4771C152.032 84.64 153.309 84.1156 154.706 83.9038C156.145 83.6859 157.345 83.7936 158.308 84.2268C159.291 84.657 160.06 85.4402 160.614 86.5766C161.166 87.6926 161.525 89.1688 161.69 91.0052C161.855 92.8416 161.769 94.3956 161.432 95.667C161.093 96.918 160.484 97.9099 159.606 98.6428C158.746 99.3523 157.596 99.816 156.158 100.034ZM157.496 94.3708C158.043 94.2879 158.519 94.102 158.925 93.8131C159.33 93.5242 159.636 93.1573 159.842 92.7124C160.048 92.2674 160.127 91.7797 160.08 91.2492C160.03 90.6983 159.866 90.2474 159.588 89.8965C159.309 89.5252 158.947 89.2698 158.503 89.1302C158.058 88.9702 157.561 88.9316 157.014 89.0145C156.488 89.0943 156.012 89.2802 155.586 89.5722C155.179 89.8407 154.862 90.1989 154.636 90.6469C154.428 91.0714 154.348 91.5591 154.398 92.1101C154.446 92.6406 154.609 93.0915 154.889 93.4628C155.189 93.831 155.562 94.0951 156.008 94.2551C156.474 94.412 156.97 94.4506 157.496 94.3708ZM180.789 97.2326L180.522 94.2637L179.964 93.5416L179.458 87.9098C179.384 87.0937 179.075 86.5097 178.53 86.1579C178.005 85.8031 177.186 85.71 176.072 85.8788C175.322 85.9924 174.574 86.2299 173.826 86.5914C173.076 86.9325 172.447 87.3485 171.936 87.8395L169.338 83.6104C170.255 82.851 171.378 82.2052 172.706 81.6731C174.033 81.141 175.346 80.7767 176.642 80.5803C179.498 80.1475 181.764 80.4558 183.439 81.5049C185.135 82.5511 186.109 84.4718 186.36 87.2673L187.17 96.2658L180.789 97.2326ZM176.107 98.2523C174.75 98.4579 173.595 98.3951 172.641 98.0639C171.687 97.7327 170.942 97.2147 170.407 96.5099C169.869 95.7847 169.557 94.9426 169.471 93.9836C169.374 92.9021 169.565 91.9425 170.044 91.1046C170.522 90.2668 171.302 89.5696 172.381 89.0131C173.48 88.4535 174.891 88.0433 176.613 87.7825L180.076 87.2576L180.377 90.5938L178.007 90.9529C177.277 91.0634 176.752 91.2672 176.429 91.5642C176.125 91.8378 175.995 92.2092 176.037 92.6785C176.072 93.0662 176.243 93.3712 176.55 93.5935C176.876 93.7923 177.292 93.8533 177.799 93.7766C178.265 93.706 178.679 93.5191 179.042 93.216C179.423 92.8893 179.68 92.4367 179.813 91.8582L180.879 93.7754C180.727 95.06 180.254 96.0728 179.458 96.8138C178.662 97.5549 177.546 98.0343 176.107 98.2523ZM190.138 95.8162L188.631 79.074L195.164 78.0842L195.618 83.1344L194.425 81.857C194.814 80.4744 195.536 79.3722 196.591 78.5504C197.647 77.7287 198.954 77.1996 200.514 76.9633L201.065 83.0848C200.757 83.09 200.481 83.1008 200.236 83.1172C200.012 83.1306 199.778 83.1557 199.535 83.1925C198.502 83.349 197.676 83.7534 197.057 84.4056C196.456 85.0344 196.216 86.0119 196.335 87.3382L197.005 94.7758L190.138 95.8162Z" fill="white"/>
<path d="M45.424 151.624C45.1256 151.669 44.8308 151.643 44.5396 151.544C44.2683 151.443 44.1192 151.243 44.0921 150.942L42.274 130.74C42.2469 130.439 42.3464 130.201 42.5726 130.024C42.7969 129.828 43.0483 129.708 43.3268 129.666L53.8615 128.07C54.1599 128.025 54.3896 128.112 54.5505 128.331C54.7114 128.551 54.8036 128.791 54.8271 129.051C54.8541 129.352 54.7989 129.635 54.6614 129.899C54.5438 130.161 54.3457 130.313 54.0671 130.355L44.9052 131.743L45.5925 139.379L50.2779 138.669C50.5564 138.627 50.7752 138.705 50.9343 138.905C51.1133 139.101 51.2155 139.339 51.2407 139.62C51.2624 139.861 51.2135 140.102 51.0941 140.343C50.9746 140.585 50.7657 140.728 50.4673 140.773L45.7819 141.483L46.599 150.562C46.626 150.863 46.5165 151.103 46.2705 151.282C46.0245 151.462 45.7423 151.576 45.424 151.624ZM64.0496 149.045C62.9979 149.204 62.0014 149.082 61.0599 148.677C60.1166 148.253 59.3375 147.642 58.7226 146.843C58.1077 146.045 57.7544 145.136 57.6626 144.117L57.3874 141.059C57.2956 140.039 57.4691 139.061 57.9076 138.123C58.3642 137.162 59.0147 136.344 59.859 135.669C60.7034 134.994 61.6613 134.576 62.7328 134.413C63.7844 134.254 64.781 134.377 65.7225 134.781C66.6622 135.165 67.4386 135.747 68.0517 136.525C68.6846 137.3 69.0488 138.218 69.1441 139.277L69.4193 142.335C69.5093 143.335 69.3169 144.326 68.8423 145.31C68.3857 146.271 67.7361 147.098 66.8936 147.793C66.0493 148.468 65.1013 148.886 64.0496 149.045ZM63.8472 146.796C64.4822 146.7 65.0324 146.444 65.4979 146.029C65.9832 145.611 66.3603 145.109 66.6292 144.521C66.8963 143.913 67.0029 143.309 66.9489 142.71L66.6737 139.651C66.6215 139.072 66.4124 138.536 66.0464 138.045C65.7002 137.55 65.2538 137.172 64.7073 136.91C64.1608 136.649 63.5701 136.566 62.9352 136.662C62.3002 136.758 61.7401 137.015 61.2547 137.433C60.7694 137.851 60.4022 138.353 60.1531 138.938C59.9041 139.522 59.8056 140.105 59.8578 140.684L60.133 143.742C60.187 144.342 60.388 144.899 60.736 145.414C61.0822 145.908 61.5286 146.286 62.075 146.548C62.6215 146.81 63.2123 146.892 63.8472 146.796ZM74.0752 147.283C73.7378 147.334 73.442 147.287 73.1877 147.144C72.9515 146.977 72.8235 146.784 72.8037 146.564L71.6838 134.121C71.6604 133.861 71.7507 133.635 71.9546 133.442C72.1783 133.246 72.4588 133.122 72.7961 133.071C73.1334 133.02 73.4184 133.058 73.6511 133.185C73.8838 133.312 74.0118 133.505 74.0352 133.765L74.162 135.174C74.3425 134.721 74.605 134.286 74.9497 133.869C75.2925 133.432 75.7011 133.056 76.1756 132.741C76.6699 132.423 77.2247 132.218 77.8398 132.125L78.8518 131.971C79.1097 131.932 79.3379 132.009 79.5362 132.202C79.7545 132.392 79.878 132.646 79.9067 132.966C79.9337 133.266 79.8579 133.541 79.6793 133.791C79.5205 134.038 79.3121 134.181 79.0541 134.22L78.0422 134.373C77.4072 134.469 76.8182 134.741 76.2751 135.188C75.7321 135.635 75.3017 136.217 74.9841 136.934C74.6845 137.627 74.5761 138.434 74.6588 139.353L75.2741 146.189C75.2938 146.409 75.1838 146.639 74.9438 146.878C74.7219 147.094 74.4323 147.229 74.0752 147.283ZM84.2781 145.737C83.921 145.791 83.6152 145.746 83.3609 145.602C83.1247 145.435 82.9966 145.242 82.9768 145.022L81.857 132.58C81.8336 132.32 81.9239 132.093 82.1277 131.9C82.3515 131.704 82.6419 131.579 82.9991 131.525C83.3166 131.477 83.5916 131.516 83.8243 131.643C84.0569 131.77 84.185 131.963 84.2083 132.223L84.319 133.453C84.6041 132.822 85.0534 132.227 85.6669 131.668C86.2785 131.089 87.0804 130.724 88.0725 130.574C89.0249 130.43 89.8835 130.583 90.6482 131.035C91.4129 131.486 92.0035 132.126 92.42 132.955C92.8441 131.857 93.4414 131.007 94.2118 130.404C94.9803 129.781 95.7913 129.405 96.6445 129.275C97.5176 129.143 98.3617 129.248 99.1769 129.591C100.01 129.91 100.704 130.464 101.257 131.251C101.831 132.035 102.172 133.037 102.282 134.256L102.978 141.992C102.998 142.212 102.888 142.441 102.648 142.68C102.426 142.896 102.146 143.03 101.809 143.081C101.472 143.132 101.176 143.085 100.922 142.942C100.665 142.778 100.528 142.586 100.508 142.366L99.8116 134.631C99.7432 133.871 99.5269 133.255 99.1626 132.784C98.8182 132.309 98.3863 131.98 97.8668 131.795C97.3654 131.587 96.8667 131.521 96.3706 131.596C95.8349 131.677 95.3415 131.894 94.8905 132.246C94.4394 132.598 94.0777 133.048 93.8051 133.596C93.5326 134.143 93.4288 134.777 93.4935 135.497L94.2005 143.352C94.2275 143.652 94.1183 143.891 93.8729 144.07C93.6276 144.249 93.3462 144.363 93.0287 144.411C92.7509 144.453 92.4668 144.425 92.1764 144.327C91.9059 144.227 91.7571 144.026 91.7301 143.726L91.0258 135.901C90.9647 135.221 90.7619 134.644 90.4175 134.17C90.0929 133.692 89.6799 133.349 89.1785 133.142C88.6951 132.911 88.1757 132.838 87.6201 132.922C87.0843 133.003 86.581 133.221 86.1101 133.576C85.6591 133.928 85.2982 134.388 85.0275 134.956C84.7748 135.501 84.6827 136.153 84.7511 136.912L85.4472 144.648C85.467 144.868 85.3569 145.097 85.117 145.336C84.8951 145.552 84.6154 145.686 84.2781 145.737ZM109.544 142.152C108.433 142.32 107.452 142.145 106.6 141.625C105.767 141.083 105.289 140.132 105.167 138.773C105.068 137.674 105.289 136.779 105.831 136.089C106.37 135.379 107.146 134.836 108.158 134.46C109.188 134.061 110.388 133.758 111.757 133.55L113.185 133.334L113.129 132.704C113.075 132.104 112.913 131.541 112.645 131.015C112.374 130.468 111.985 130.051 111.476 129.763C110.986 129.453 110.334 129.359 109.52 129.482C108.826 129.588 108.276 129.742 107.872 129.945C107.488 130.145 107.184 130.343 106.96 130.539C106.735 130.715 106.533 130.816 106.354 130.843C106.056 130.888 105.816 130.783 105.632 130.527C105.446 130.252 105.341 129.984 105.318 129.724C105.289 129.404 105.481 129.081 105.895 128.755C106.308 128.429 106.835 128.137 107.475 127.877C108.115 127.618 108.753 127.441 109.388 127.345C110.777 127.134 111.913 127.246 112.797 127.679C113.681 128.112 114.341 128.742 114.777 129.567C115.233 130.389 115.506 131.3 115.596 132.3L116.287 139.975C116.309 140.215 116.209 140.443 115.987 140.659C115.785 140.872 115.505 141.005 115.148 141.06C114.83 141.108 114.554 141.058 114.32 140.912C114.085 140.765 113.957 140.571 113.936 140.331L113.828 139.132C113.366 139.81 112.79 140.444 112.099 141.035C111.408 141.626 110.556 141.998 109.544 142.152ZM110.137 140.026C110.713 139.939 111.254 139.694 111.761 139.293C112.288 138.889 112.708 138.421 113.022 137.887C113.356 137.35 113.503 136.862 113.463 136.422L113.323 134.863L112.281 135.021C111.448 135.147 110.659 135.317 109.914 135.531C109.188 135.742 108.613 136.053 108.187 136.461C107.76 136.85 107.578 137.405 107.643 138.124C107.713 138.904 107.983 139.44 108.452 139.734C108.92 140.028 109.482 140.125 110.137 140.026ZM124.621 139.624C123.013 139.868 121.751 139.694 120.833 139.104C119.935 138.511 119.415 137.425 119.272 135.846L117.883 120.405C117.859 120.145 117.969 119.915 118.213 119.716C118.457 119.517 118.727 119.395 119.025 119.35C119.342 119.302 119.637 119.339 119.91 119.459C120.182 119.58 120.33 119.771 120.353 120.03L120.871 125.787L124.621 125.219C124.86 125.183 125.047 125.256 125.184 125.437C125.341 125.616 125.431 125.836 125.455 126.095C125.478 126.355 125.429 126.596 125.308 126.817C125.205 127.015 125.035 127.132 124.797 127.168L121.047 127.736L121.743 135.471C121.82 136.331 122.054 136.913 122.443 137.219C122.851 137.502 123.511 137.574 124.424 137.436L125.346 137.296C125.704 137.242 125.981 137.311 126.18 137.504C126.378 137.697 126.49 137.933 126.515 138.213C126.54 138.493 126.474 138.766 126.317 139.033C126.158 139.28 125.901 139.43 125.543 139.485L124.621 139.624ZM134.012 138.445C132.96 138.604 131.964 138.481 131.022 138.077C130.079 137.653 129.3 137.041 128.685 136.243C128.07 135.445 127.717 134.536 127.625 133.516L127.35 130.458C127.258 129.439 127.432 128.46 127.87 127.523C128.327 126.562 128.977 125.744 129.821 125.069C130.666 124.394 131.624 123.975 132.695 123.813C133.747 123.654 134.743 123.776 135.685 124.181C136.625 124.565 137.401 125.146 138.014 125.925C138.647 126.7 139.011 127.617 139.107 128.677L139.382 131.735C139.472 132.734 139.279 133.726 138.805 134.71C138.348 135.67 137.699 136.498 136.856 137.193C136.012 137.868 135.064 138.285 134.012 138.445ZM133.81 136.196C134.445 136.1 134.995 135.844 135.46 135.429C135.946 135.011 136.323 134.508 136.592 133.92C136.859 133.313 136.965 132.709 136.911 132.109L136.636 129.051C136.584 128.471 136.375 127.936 136.009 127.444C135.663 126.95 135.216 126.572 134.67 126.31C134.123 126.048 133.533 125.966 132.898 126.062C132.263 126.158 131.703 126.415 131.217 126.833C130.732 127.251 130.365 127.752 130.116 128.337C129.867 128.922 129.768 129.504 129.82 130.084L130.095 133.142C130.149 133.742 130.35 134.299 130.698 134.813C131.045 135.308 131.491 135.686 132.037 135.948C132.584 136.209 133.175 136.292 133.81 136.196ZM155.042 135.197C154.705 135.248 154.371 135.228 154.041 135.136C153.729 135.021 153.521 134.83 153.417 134.562L145.729 115.517C145.702 115.44 145.684 115.352 145.675 115.252C145.657 115.052 145.721 114.87 145.867 114.706C146.011 114.522 146.189 114.373 146.4 114.26C146.629 114.124 146.853 114.04 147.071 114.007C147.289 113.974 147.492 113.994 147.68 114.066C147.886 114.116 148.017 114.238 148.075 114.432L154.708 131.479L156.548 120.078C156.602 119.786 156.743 119.562 156.97 119.406C157.217 119.247 157.48 119.146 157.758 119.104C158.055 119.059 158.328 119.078 158.577 119.162C158.826 119.246 158.993 119.423 159.078 119.694L162.923 130.235L166.35 111.663C166.391 111.454 166.488 111.298 166.64 111.194C166.809 111.067 167.003 110.987 167.221 110.954C167.459 110.918 167.692 110.933 167.919 111C168.165 111.044 168.374 111.134 168.547 111.269C168.718 111.385 168.813 111.543 168.831 111.743C168.84 111.843 168.828 111.936 168.796 112.022L164.757 132.844C164.682 133.139 164.504 133.389 164.221 133.594C163.936 133.779 163.614 133.899 163.257 133.953C162.92 134.004 162.586 133.983 162.256 133.892C161.944 133.777 161.746 133.584 161.661 133.313L158.181 123.811L156.512 134.093C156.458 134.385 156.289 134.634 156.006 134.839C155.721 135.024 155.4 135.143 155.042 135.197ZM176.856 131.953C175.804 132.112 174.807 131.99 173.866 131.585C172.923 131.161 172.144 130.55 171.529 129.751C170.914 128.953 170.56 128.044 170.469 127.025L170.193 123.967C170.102 122.947 170.275 121.969 170.714 121.031C171.17 120.07 171.821 119.253 172.665 118.578C173.509 117.903 174.467 117.484 175.539 117.322C176.591 117.162 177.587 117.285 178.529 117.689C179.468 118.074 180.245 118.655 180.858 119.433C181.491 120.209 181.855 121.126 181.95 122.185L182.225 125.244C182.315 126.243 182.123 127.234 181.648 128.218C181.192 129.179 180.542 130.007 179.7 130.702C178.855 131.377 177.907 131.794 176.856 131.953ZM176.653 129.704C177.288 129.608 177.838 129.353 178.304 128.938C178.789 128.52 179.166 128.017 179.435 127.429C179.702 126.821 179.809 126.218 179.755 125.618L179.48 122.56C179.428 121.98 179.219 121.444 178.852 120.953C178.506 120.458 178.06 120.08 177.513 119.818C176.967 119.557 176.376 119.474 175.741 119.57C175.106 119.667 174.546 119.924 174.061 120.342C173.575 120.76 173.208 121.261 172.959 121.846C172.71 122.43 172.612 123.013 172.664 123.592L172.939 126.651C172.993 127.25 173.194 127.807 173.542 128.322C173.888 128.816 174.335 129.195 174.881 129.456C175.428 129.718 176.018 129.801 176.653 129.704ZM186.881 130.191C186.544 130.242 186.248 130.196 185.994 130.052C185.758 129.885 185.63 129.692 185.61 129.472L184.49 117.029C184.467 116.769 184.557 116.543 184.761 116.35C184.984 116.154 185.265 116.03 185.602 115.979C185.94 115.928 186.225 115.966 186.457 116.093C186.69 116.22 186.818 116.413 186.841 116.673L186.968 118.082C187.149 117.629 187.411 117.194 187.756 116.777C188.099 116.341 188.507 115.965 188.982 115.65C189.476 115.332 190.031 115.126 190.646 115.033L191.658 114.879C191.916 114.84 192.144 114.917 192.342 115.11C192.561 115.3 192.684 115.555 192.713 115.874C192.74 116.174 192.664 116.449 192.485 116.699C192.327 116.946 192.118 117.089 191.86 117.128L190.848 117.281C190.213 117.378 189.624 117.649 189.081 118.096C188.538 118.543 188.108 119.125 187.79 119.842C187.491 120.535 187.382 121.342 187.465 122.262L188.08 129.098C188.1 129.317 187.99 129.547 187.75 129.786C187.528 130.002 187.238 130.137 186.881 130.191ZM200.095 128.432C199.162 128.573 198.265 128.436 197.403 128.019C196.559 127.58 195.849 126.958 195.274 126.154C194.717 125.326 194.393 124.413 194.303 123.414L194.028 120.355C193.932 119.296 194.084 118.301 194.483 117.369C194.902 116.434 195.485 115.647 196.232 115.007C196.997 114.344 197.865 113.939 198.837 113.792C199.79 113.647 200.615 113.765 201.313 114.146C202.029 114.503 202.572 114.948 202.942 115.479L202.059 105.675C202.036 105.415 202.136 105.187 202.36 104.991C202.603 104.792 202.904 104.666 203.261 104.612C203.618 104.558 203.913 104.594 204.146 104.721C204.378 104.848 204.506 105.041 204.53 105.301L206.421 126.319C206.441 126.538 206.351 126.765 206.15 126.998C205.948 127.211 205.669 127.344 205.312 127.398C204.994 127.447 204.708 127.399 204.454 127.255C204.218 127.088 204.09 126.895 204.07 126.675L203.962 125.476C203.72 126.14 203.244 126.77 202.533 127.364C201.82 127.938 201.007 128.294 200.095 128.432ZM200.488 126.093C201.123 125.997 201.673 125.741 202.138 125.326C202.622 124.888 202.993 124.427 203.251 123.942C203.509 123.457 203.626 123.085 203.603 122.825L203.255 118.957C203.188 118.218 202.964 117.624 202.581 117.175C202.217 116.704 201.764 116.367 201.223 116.165C200.68 115.944 200.141 115.873 199.605 115.955C198.97 116.051 198.41 116.308 197.925 116.726C197.44 117.144 197.062 117.647 196.794 118.234C196.544 118.819 196.446 119.401 196.498 119.981L196.773 123.039C196.826 123.619 197.026 124.166 197.374 124.681C197.742 125.192 198.199 125.579 198.745 125.84C199.292 126.102 199.873 126.186 200.488 126.093Z" fill="white"/>
<path d="M169.691 171.857L171.01 224.357L185.589 217.068L201.349 248.601L206.723 245.907L212.096 243.227L196.337 211.694L210.916 204.404L169.691 171.857Z" fill="white" stroke="#141414" stroke-width="3.84137" stroke-linecap="round" stroke-linejoin="round"/>
<path d="M163.956 160.402L158.874 150.238" stroke="#141414" stroke-width="3.84137" stroke-linecap="round" stroke-linejoin="round"/>
<path d="M175.397 160.402L180.466 150.224" stroke="#141414" stroke-width="3.84137" stroke-linecap="round" stroke-linejoin="round"/>
<path d="M182.271 169.538L193.462 167.47" stroke="#141414" stroke-width="3.84137" stroke-linecap="round" stroke-linejoin="round"/>
<path d="M157.097 169.552L145.905 167.511" stroke="#141414" stroke-width="3.84137" stroke-linecap="round" stroke-linejoin="round"/>
<path d="M160.291 180.536L151.932 188.242" stroke="#141414" stroke-width="3.84137" stroke-linecap="round" stroke-linejoin="round"/>
<path d="M273.486 185.604C284.867 170.462 281.818 148.962 266.677 137.581C251.536 126.201 230.036 129.249 218.655 144.39C207.274 159.532 210.323 181.032 225.464 192.413C240.605 203.793 262.105 200.745 273.486 185.604Z" fill="#E8FFFB" stroke="#231F20" stroke-width="0.320114" stroke-miterlimit="10"/>
<path d="M265.29 104.875C265.532 107.558 264.973 110.252 263.683 112.617C262.394 114.981 260.433 116.911 258.047 118.161C255.661 119.412 252.959 119.927 250.28 119.641C247.602 119.356 245.068 118.282 243 116.557C240.931 114.832 239.421 112.533 238.659 109.949C237.897 107.366 237.918 104.614 238.72 102.043C239.521 99.4715 241.067 97.1954 243.162 95.5024C245.257 93.8093 247.806 92.7753 250.489 92.5311C252.271 92.3688 254.068 92.5594 255.777 93.0921C257.486 93.6247 259.073 94.4889 260.448 95.6353C261.823 96.7818 262.958 98.1878 263.789 99.7733C264.62 101.359 265.13 103.092 265.29 104.875Z" fill="#E8FFFB" stroke="#231F20" stroke-width="0.320114" stroke-miterlimit="10"/>
<path d="M27.3707 142.398C28.0316 134.904 22.4925 128.294 14.9987 127.633C7.50487 126.972 0.894172 132.511 0.233277 140.005C-0.427618 147.499 5.11156 154.109 12.6054 154.77C20.0992 155.431 26.7099 149.892 27.3707 142.398Z" fill="#E8FFFB" stroke="#231F20" stroke-width="0.320114" stroke-miterlimit="10"/>
<path d="M97.8896 20.5794C101.636 14.0558 99.3852 5.73019 92.8617 1.98354C86.3381 -1.76311 78.0125 0.487994 74.2659 7.01152C70.5192 13.5351 72.7703 21.8607 79.2938 25.6073C85.8174 29.354 94.143 27.1029 97.8896 20.5794Z" fill="#E8FFFB" stroke="#231F20" stroke-width="0.320114" stroke-miterlimit="10"/>
<path d="M64.507 55.8992C72.8303 46.0254 71.5734 31.2738 61.6996 22.9504C51.8259 14.6271 37.0742 15.884 28.7509 25.7578C20.4276 35.6315 21.6844 50.3832 31.5582 58.7065C41.432 67.0298 56.1836 65.773 64.507 55.8992Z" fill="#E8FFFB" stroke="#231F20" stroke-width="0.320114" stroke-miterlimit="10"/>
</g>
<defs>
<clipPath id="clip0_164_2">
<rect width="280.523" height="250.684" fill="white"/>
</clipPath>
</defs>
</svg>
