<svg xmlns="http://www.w3.org/2000/svg" viewBox="0 0 487.36 473.79"><defs><style>.cls-1{fill:#fafafa;}.cls-2{fill:#ebebeb;}.cls-3{fill:#e0e0e0;}.cls-4{opacity:0.05;}.cls-5{fill:#f5f5f5;}.cls-6{fill:#fff;}.cls-7{fill:#f0f0f0;}.cls-10,.cls-17,.cls-18,.cls-8,.cls-9{fill:#5b3296;}.cls-10,.cls-11,.cls-14,.cls-15,.cls-17,.cls-18,.cls-20,.cls-25,.cls-26,.cls-27,.cls-28,.cls-8,.cls-9{stroke:#272425;stroke-miterlimit:10;stroke-width:0.25px;}.cls-9{opacity:0.6;}.cls-10{opacity:0.8;}.cls-11,.cls-15,.cls-20,.cls-25,.cls-26,.cls-27,.cls-28{fill:#9a80fa;}.cls-12{fill:#ba68c8;}.cls-13{opacity:0.45;}.cls-14{fill:#effffc;}.cls-15,.cls-19{opacity:0.3;}.cls-16{fill:#455a64;}.cls-17{opacity:0.15;}.cls-18,.cls-27{opacity:0.2;}.cls-20{opacity:0.1;}.cls-21{fill:#b16668;}.cls-22{fill:#263238;}.cls-23{fill:#9a4a4d;}.cls-24{fill:#ffa8a7;}.cls-25{opacity:0.25;}.cls-26{opacity:0.38;}.cls-28{opacity:0.4;}</style></defs><g id="Capa_2" data-name="Capa 2"><g id="Floor"><ellipse id="Floor-2" data-name="Floor" class="cls-1" cx="243.68" cy="333.1" rx="243.68" ry="140.69"/></g><g id="Shadows"><path id="Shadow" class="cls-2" d="M71.41,425.41c6.07,2.2,25.64,18.74,32.48,13.75L253.65,352.7c2.39-1.38,2.39-3.62,0-5-6.08-2.2-25.66-18.75-32.5-13.76L71.41,420.41C69,421.79,69,424,71.41,425.41Z"/><path id="Shadow-2" data-name="Shadow" class="cls-2" d="M431.35,356l49.35-28.44a1.27,1.27,0,0,0,0-2.41l-122-70.67a4.62,4.62,0,0,0-4.16,0l-49.35,28.44a1.27,1.27,0,0,0,0,2.4L427.2,356A4.6,4.6,0,0,0,431.35,356Z"/><path id="Shadow-3" data-name="Shadow" class="cls-2" d="M41,369.87c-14.4,8.32-14.4,21.8,0,30.11s37.75,8.32,52.15,0,14.4-21.79,0-30.11S55.4,361.56,41,369.87Z"/><ellipse id="Shadow-4" data-name="Shadow" class="cls-2" cx="358.27" cy="391.77" rx="77.18" ry="44.56"/></g><g id="Furniture"><g id="Drawer"><polygon class="cls-3" points="420.79 327.21 425.03 348.23 429.15 350.61 433.23 348.25 437.51 327.21 429.15 322.38 420.79 327.21"/><polygon class="cls-4" points="420.79 327.21 425.03 348.23 429.15 350.61 433.23 348.25 437.51 327.21 429.15 322.38 420.79 327.21"/><polygon class="cls-2" points="429.15 350.61 429.15 332.03 420.79 327.21 425.03 348.23 429.15 350.61"/><polygon class="cls-4" points="420.79 327.21 423.53 340.78 429.15 344.03 434.75 340.8 437.51 327.21 429.15 322.38 420.79 327.21"/><polygon class="cls-3" points="457.54 305.99 461.78 327.01 465.9 329.39 469.99 327.03 474.26 305.99 465.9 301.16 457.54 305.99"/><polygon class="cls-4" points="457.54 305.99 461.78 327.01 465.9 329.39 469.99 327.03 474.26 305.99 465.9 301.16 457.54 305.99"/><polygon class="cls-2" points="465.9 329.39 465.9 310.81 457.54 305.99 461.78 327.01 465.9 329.39"/><polygon class="cls-4" points="457.54 305.99 460.28 319.56 465.9 322.81 471.5 319.58 474.26 305.99 465.9 301.16 457.54 305.99"/><polygon class="cls-4" points="312.07 264.44 316.31 285.46 320.43 287.84 324.51 285.48 328.79 264.44 320.43 259.61 312.07 264.44"/><polygon class="cls-2" points="320.43 287.84 320.43 269.26 312.07 264.44 316.31 285.46 320.43 287.84"/><polygon class="cls-4" points="312.07 264.44 314.81 278.01 320.43 281.26 326.03 278.03 328.79 264.44 320.43 259.61 312.07 264.44"/><g id="Cabinet"><g id="Cabinet-2" data-name="Cabinet"><polygon class="cls-3" points="429.15 340.64 474.7 314.34 474.7 215.76 429.15 242.06 429.15 340.64"/><polygon class="cls-2" points="429.15 242.06 309.7 173.09 309.7 271.67 429.15 340.64 429.15 242.06"/><polygon class="cls-5" points="309.7 173.09 429.15 242.06 474.7 215.76 355.25 146.79 309.7 173.09"/><polygon class="cls-3" points="422.64 290.89 316.21 229.44 316.21 265.62 315.01 266.31 421.45 327.76 422.64 327.07 422.64 290.89"/><polygon class="cls-5" points="421.45 291.58 315.01 230.13 315.01 266.31 421.45 327.76 421.45 291.58"/><path class="cls-3" d="M370.28,268.88c-1.12-.07-10.92-7.93-10.94-4.44-.21,3.19,9,6.6,10.94,8.19C373.64,274.17,372.28,269.71,370.28,268.88Z"/><polygon class="cls-3" points="422.64 247.21 316.21 185.76 316.21 221.94 315.02 222.63 421.45 284.08 422.65 283.38 422.64 247.21"/><polygon class="cls-5" points="421.45 247.9 315.01 186.45 315.02 222.63 421.45 284.08 421.45 247.9"/><path class="cls-3" d="M370.28,225.19c-1.12-.06-10.92-7.93-10.93-4.43-.22,3.19,9,6.59,10.93,8.19C373.64,230.49,372.28,226,370.28,225.19Z"/></g></g><g id="Pot"><path class="cls-3" d="M344,163.16c-14.11,10.77,12.32,18,20,11.54,5.52-3.18,5.52-8.35,0-11.54S349.48,160,344,163.16Z"/><path class="cls-2" d="M362.75,169.65c4.81-4.91,7.64-17.16,2.95-21.05H341.83c-4.69,3.89-1.86,16.13,2.94,21C349.21,173.93,358.32,173.92,362.75,169.65Z"/><path class="cls-1" d="M343.91,147c-5.45,3.14-5.45,8.24,0,11.38,7.57,6.34,33.64-.76,19.71-11.38C358.18,143.89,349.35,143.89,343.91,147Z"/><path class="cls-5" d="M347.77,149.26c-8.47,6.46,7.39,10.78,12,6.92C368.23,149.73,352.37,145.41,347.77,149.26Z"/><path class="cls-2" d="M359.76,152.55c-4-2.21-11.13-2.12-14,1.82,3.32,4.41,12.65,4.41,16,0A5.47,5.47,0,0,0,359.76,152.55Z"/><path class="cls-3" d="M348.5,154.37c-1.92-.78-8.54-12.51-5.68-14.65,1-.58,5.25,4.15,5.25,4.15-1.83-14.94,3.23-17.39,6.59-1.11,2.13-14.21,7-12.46,5.56,1.38-.15.17,5.51-6.22,6.25-4.87,2.55,1.25-6.28,15.31-7.45,15.09C359,154.37,355.14,156.87,348.5,154.37Z"/></g><g id="Picture"><g id="Frame"><polygon class="cls-1" points="443.84 220.55 442.06 221.41 409.21 202.44 410.99 201.59 443.84 220.55"/><polygon class="cls-6" points="410.99 201.59 442.24 219.62 446.78 172.88 415.53 154.86 410.99 201.59"/><path class="cls-7" d="M405.87,204l38.89,22.45,5.37-55.13-38.9-22.45Zm8.06-50.08,32.85,19-4.72,48.53-32.84-19Z"/><polygon class="cls-3" points="409.21 202.44 410.99 201.59 415.53 154.86 413.93 153.92 409.21 202.44"/><polygon class="cls-1" points="411.23 148.87 413.03 148.04 451.92 170.49 450.13 171.32 411.23 148.87"/><polygon class="cls-3" points="451.92 170.49 450.13 171.32 444.76 226.45 446.56 225.62 451.92 170.49"/></g><g id="Land"><polygon class="cls-7" points="412.36 200.7 441.17 217.33 441.94 209.46 436.58 186.32 431.47 194.22 432.53 200.87 424.01 176.32 413.13 192.82 412.36 200.7"/><path class="cls-7" d="M437,176.58c2.18.89,3,6.2-.45,4.66C434.39,180.36,433.62,175.05,437,176.58Z"/></g></g></g></g><g id="Picture-2" data-name="Picture"><g id="Picture-3" data-name="Picture"><g id="Frame-2" data-name="Frame"><polygon class="cls-1" points="461.77 144.73 459.68 145.97 416.81 121.22 418.9 119.97 461.77 144.73"/><polygon class="cls-6" points="418.9 119.97 459.68 143.52 459.68 32.8 418.9 9.27 418.9 119.97"/><path class="cls-7" d="M412.87,123.49l50.76,29.31V30.52L412.87,1.21ZM416.81,8,459.68,32.8V146l-42.87-24.75Z"/><polygon class="cls-3" points="416.81 121.22 418.9 119.97 418.9 9.27 416.81 8.04 416.81 121.22"/><polygon class="cls-1" points="412.87 1.22 414.99 0 465.75 29.31 463.63 30.52 412.87 1.22"/><polygon class="cls-3" points="465.75 29.31 463.63 30.52 463.63 152.8 465.75 151.59 465.75 29.31"/></g><g id="Land-2" data-name="Land"><polygon class="cls-7" points="421.96 117.53 456.63 137.55 456.63 36.48 421.96 16.47 421.96 117.53"/></g><g id="Land-3" data-name="Land"><polygon class="cls-7" points="421.96 117.53 456.63 137.55 456.63 36.48 421.96 16.47 421.96 117.53"/></g><path class="cls-1" d="M456.62,103.1c-12.2,1.32-23.09-5.63-34.66-7.39v21.82l4.69,2.71c8.5-8.32,19.85-1.07,30-1Z"/><path class="cls-1" d="M456.62,75.53c-30.1-6-26-22.36-34.66-45.63V74.35c7.33,12.65,21,17.06,34.66,14.32Z"/><path class="cls-1" d="M456.62,55.51c-6.39-5.63-9.57-14.94-7.28-23.23L436,24.58c-1,15.85,3.58,34.17,20.62,39.24Z"/></g></g><g id="Window"><g id="Window-2" data-name="Window"><g id="Window-3" data-name="Window"><g id="Frame-3" data-name="Frame"><polygon class="cls-1" points="29.12 228.93 31.38 230.28 123.17 177.28 120.92 175.93 29.12 228.93"/><polygon class="cls-6" points="120.92 175.93 31.38 227.62 31.38 61.69 120.92 10.02 120.92 175.93"/><path class="cls-7" d="M127.43,1.31,27.12,59.23V237.66l100.31-57.92Zm-4.26,176-91.79,53V61.69l91.79-53Z"/><polygon class="cls-3" points="123.17 177.28 120.92 175.93 120.92 10.02 123.17 8.69 123.17 177.28"/><polygon class="cls-1" points="31.38 169.81 31.38 172.46 123.17 119.46 120.92 118.11 31.38 169.81"/><polygon class="cls-1" points="31.38 111.96 31.38 114.61 123.17 61.61 120.92 60.26 31.38 111.96"/><polygon class="cls-1" points="127.43 1.31 125.14 0 24.82 57.92 27.12 59.23 127.43 1.31"/><polygon class="cls-3" points="24.82 57.92 27.12 59.23 27.12 237.66 24.82 236.34 24.82 57.92"/><polygon class="cls-3" points="71.72 38.4 74.02 37.07 74.02 205.67 71.72 204.36 71.72 38.4"/></g><polygon class="cls-7" points="78.28 34.62 74.02 37.07 74.02 205.67 78.28 203.2 78.28 34.62"/><polygon class="cls-7" points="127.43 59.15 127.43 64.06 27.12 121.98 27.12 117.07 127.43 59.15"/><polygon class="cls-7" points="127.43 116.99 127.43 121.9 27.12 179.82 27.12 174.91 127.43 116.99"/><polygon class="cls-1" points="74.02 89.99 71.72 88.66 31.38 111.96 31.38 114.61 74.02 89.99"/><polygon class="cls-1" points="74.02 147.81 71.72 146.49 31.38 169.78 31.38 172.43 74.02 147.81"/></g></g></g><g id="Plant"><g id="Pot-2" data-name="Pot"><path class="cls-8" d="M45.47,387.91C33.91,376,27.12,327.45,38.4,318H95.76c11.27,9.46,4.48,58-7.07,69.91-9.32,9.47-27.68,9.73-38.83,3.52A19.53,19.53,0,0,1,45.47,387.91Z"/><path class="cls-9" d="M45.47,387.91C33.91,376,27.12,327.45,38.4,318H95.76c11.27,9.46,4.48,58-7.07,69.91-9.32,9.47-27.68,9.73-38.83,3.52A19.53,19.53,0,0,1,45.47,387.91Z"/><path class="cls-8" d="M90.78,314.19c13.08,7.64,13.08,20,0,27.67s-34.3,7.64-47.39,0-13.09-20,0-27.67S77.69,306.54,90.78,314.19Z"/><path class="cls-10" d="M90.78,314.19c13.08,7.64,13.08,20,0,27.67s-34.3,7.64-47.39,0-13.09-20,0-27.67S77.69,306.54,90.78,314.19Z"/><path class="cls-8" d="M84.48,317.86c9.61,5.61,9.61,14.71,0,20.32s-25.19,5.61-34.8,0-9.62-14.71,0-20.32S74.87,312.25,84.48,317.86Z"/><path class="cls-9" d="M84.48,317.86c9.61,5.61,9.61,14.71,0,20.32s-25.19,5.61-34.8,0-9.62-14.71,0-20.32S74.87,312.25,84.48,317.86Z"/><path class="cls-8" d="M49.68,327.5C61.24,321,82,321.33,90.24,332.84c-9.59,13-36.74,13-46.32,0A16.07,16.07,0,0,1,49.68,327.5Z"/></g><path class="cls-11" d="M73,272.44c-2.13-3.85-6.06-6.8-3.4-15.47s3.61-21.12,6.08-23.63,6.26,5.14,7.73,14.18S83.71,268.39,73,272.44Z"/><path class="cls-11" d="M54.48,243.86C19.37,232.09,74.82,132.5,66.39,210.4,65.74,227.1,64.79,232.66,54.48,243.86Z"/><path class="cls-11" d="M46.46,258.61c-13.16,7-21.42-21.43-17.17-26.24,2.1-1.36,8.31,7.52,10.91,11.24C44.14,249.24,45.93,250.65,46.46,258.61Z"/><path class="cls-11" d="M56.8,293.93c-3.48-.72-5.41-1.25-7.15-6.49s-5.65-11.78-5.3-13.9C49.06,269.28,63.59,289.09,56.8,293.93Z"/><path class="cls-11" d="M37.52,289.65c-12,3.37-18.38-25.43-13.36-29.52,2.95-1.69,5.51,4.17,9.63,11.46S40.5,281.55,37.52,289.65Z"/><path class="cls-11" d="M40.5,301.84c-6.11,7.31-24.95-14.65-7-5.62C36.71,297.59,38.81,297.2,40.5,301.84Z"/><path class="cls-12" d="M90.2,285.32c12.9.38,11.71-28.27,5.93-31.24-3.27-.92-4.33,5.4-6.55,13.46S87.48,278.69,90.2,285.32Z"/><path class="cls-12" d="M91,298.43c5.74,4.85,12.63-8.66,11-11.22-.9-.87-4.82,2.88-6.46,4.46C93,294.05,91.36,294.42,91,298.43Z"/><path class="cls-12" d="M97.64,293.22c-5.24,4.35-11.52,6.7-17.65,9.55C90.15,292.58,96.25,277,94.52,263.38c-1.87,25.38-12.79,33.09-26,52.18A127.66,127.66,0,0,0,65.47,294C67.14,279.58,79,268.07,78,252.93c-1.38,12.83-9.55,24.44-13.46,36.83-7.25-29.42-13.59-61-7.8-90.7-7,22.74-3.52,47,1.19,69.88-5.34-8.73-17-12.72-21.83-20.93,3.27,8.76,13.19,12,18.52,19.21,8.22,10.84,9.86,32.81,11.88,46.55-10.35-7.52-5.85-22.64-14.88-31,5.1,6.9,4.53,16.64,8,24.48C41.82,295.75,35.47,287,27.73,269a51.77,51.77,0,0,0,24,34.45,114.16,114.16,0,0,1-19.53-4.69c6.66,5.11,15.57,4.4,23.11,7.24,13.71,8.1,12.05,14.33,10.86,28.57,3.48,3.82,2.08-14,2.7-16,1.72-4.73,5.19-8.59,8.32-12.44C83.45,301.49,93.57,299.93,97.64,293.22Z"/><path class="cls-13" d="M97.64,293.22c-5.24,4.35-11.52,6.7-17.65,9.55C90.15,292.58,96.25,277,94.52,263.38c-1.87,25.38-12.79,33.09-26,52.18A127.66,127.66,0,0,0,65.47,294C67.14,279.58,79,268.07,78,252.93c-1.38,12.83-9.55,24.44-13.46,36.83-7.25-29.42-13.59-61-7.8-90.7-7,22.74-3.52,47,1.19,69.88-5.34-8.73-17-12.72-21.83-20.93,3.27,8.76,13.19,12,18.52,19.21,8.22,10.84,9.86,32.81,11.88,46.55-10.35-7.52-5.85-22.64-14.88-31,5.1,6.9,4.53,16.64,8,24.48C41.82,295.75,35.47,287,27.73,269a51.77,51.77,0,0,0,24,34.45,114.16,114.16,0,0,1-19.53-4.69c6.66,5.11,15.57,4.4,23.11,7.24,13.71,8.1,12.05,14.33,10.86,28.57,3.48,3.82,2.08-14,2.7-16,1.72-4.73,5.19-8.59,8.32-12.44C83.45,301.49,93.57,299.93,97.64,293.22Z"/></g><g id="Device"><g id="Mobile"><path class="cls-14" d="M248.83,336V17.45c0-12.6-13-17.42-22.39-12.93L94.9,80.46c-5.14,3-9.3,10.18-9.3,16.12V415.11c0,5.93,3.72,9.43,7.33,11.52S102.85,431,108,428L239.53,352.1A17.51,17.51,0,0,0,248.83,336Z"/><path class="cls-14" d="M240.46,339,105.2,417.09l0-319.91L88.32,87.41a19,19,0,0,0-2.72,9.17V415.11c0,5.93,3.72,9.43,7.33,11.52S102.85,431,108,428c3.32-4.12,145.84-78.87,139.07-85.23Z"/><path class="cls-14" d="M239.28,14.7,107.37,90.86a14.45,14.45,0,0,0-6.53,11.3v316c0,6.37,4.52,9,10,5.78l128.4-74.13a16.4,16.4,0,0,0,7.4-12.81V19C246.68,14.27,243.35,12.35,239.28,14.7Z"/><path class="cls-14" d="M240.24,34.07V329.41a15.54,15.54,0,0,1-7,12.18L114.3,410.25c-3.88,2.26-7,.44-7-4.05V108.69A15.73,15.73,0,0,1,112.2,98.1c2.35-2.29,35.18-20.41,37.73-22.15,3.08-1.8,1.28,4.41,4.51,2.43,1.31-1.77,44.08-22.95,41.31-26.36-1.87-4.09,33-20.56,34.9-22.68C235.45,26.11,240.35,27.92,240.24,34.07Z"/><path class="cls-14" d="M223,333.7a15.55,15.55,0,0,0,7-12.18V29.7C228,31.84,193.93,48,195.75,52c2.87,3.27-40,24.71-41.31,26.36-3.24,2-1.43-4.23-4.51-2.43l-2.18,1.26L114.3,96.52a15.47,15.47,0,0,0-7,12.17V400.53Z"/><path class="cls-14" d="M160.36,66.49l17.87-10.32c3.15-1.35,1.82,3.49,0,4.19L160.36,70.67C157.2,72,158.53,67.18,160.36,66.49Z"/><path class="cls-14" d="M187.4,50c3.56-1.49,2,4.28,0,5C183.83,56.54,185.35,50.78,187.4,50Z"/><path class="cls-14" d="M97.8,134.79c0-2.83-2.69-7.6-5.79-6.41-1.54,1.05-3.8,1.4-3.64,3.92,1,5-2.85,29.54,3.43,32.17,2,1.28,6.24-1.28,6-3.72Z"/><path class="cls-14" d="M95.24,136.27v25.95c-.77,6.47-7.47-.31-6.87-4V132.3C89.14,125.83,95.84,132.61,95.24,136.27Z"/><path class="cls-14" d="M97.8,180.22c0-2.83-2.69-7.6-5.79-6.41-1.54,1.05-3.8,1.4-3.64,3.91,1,5-2.85,29.55,3.43,32.17,2,1.29,6.24-1.27,6-3.72Z"/><path class="cls-14" d="M95.24,181.69v26c-.77,6.46-7.47-.32-6.87-4v-26C89.14,171.26,95.84,178,95.24,181.69Z"/></g></g><g id="Screen"><path class="cls-11" d="M263.22,44c-1.72-1.13-4.73-.56-7.07,1-1.89,2.08-37.44,19-35.43,23,2.56,3.6-40.46,25-42,26.8,0-1.68-1.95-1.84-2.92-2.66-.8-.78-3.81,1.6-3.78,1.43l-34,19.61a10.54,10.54,0,0,0-2.12,1.6,16,16,0,0,0-5,10.75v302a6.22,6.22,0,0,0,9.42,5.43L261,363.33A15.8,15.8,0,0,0,268.17,351V51.16C268.22,46.93,266.14,45.45,263.22,44Z"/><path class="cls-15" d="M141,432.05v.59a6.28,6.28,0,0,1-10.09-5v-302a14.85,14.85,0,0,1,2.46-7.62l2.73,1.57a14.37,14.37,0,0,0-2.4,7.37v302C133.39,433.56,137.79,434.66,141,432.05Z"/><path class="cls-15" d="M224.34,67.07c-1.23,1.59-.48,3.35-1.71,5l-2.74-1.58c1.2-1.61.48-3.36,1.72-5Z"/><path class="cls-11" d="M137.13,433.51c-2.45-.09-3.44-2.12-3.43-4.59v-302A15.21,15.21,0,0,1,140.57,115l34-19.61c-.11.27,2.05-1.49,2.95-1.51,1.5.47,0,4.48,3.84,2.7,1.75-2.12,44.78-23,42.19-27.2-2-3.47,33.69-20.77,35.18-22.58,4-2.88,9.13-1.79,9,4.36V351a15.2,15.2,0,0,1-6.87,11.92C257.9,363.81,140.26,433.92,137.13,433.51Z"/><path class="cls-11" d="M263.16,45.74h0c2.5,0,4,2,4,5.42V351a14.87,14.87,0,0,1-6.63,11.48L139.81,432.16c-2.82,1.72-5.68.79-5.61-3.24v-302a14.73,14.73,0,0,1,6.63-11.48l34-19.6c-.08.35,1.75-1.34,2.69-1.45.32,2.35,1.68,4,4.1,2.64,2.2-2.48,44.82-22.77,42.44-27.64a3.92,3.92,0,0,1,1.71-3c1.79-.71,36.21-21.85,37.43-20.67m0-1c-1.76-1.2-35.58,19.89-37.94,20.81A4.87,4.87,0,0,0,223,69.38c2.93,3.26-40.66,25.13-41.94,26.76-3.35,2-1.39-4.3-4.58-2.47L174.27,95l-34,19.61a15.62,15.62,0,0,0-7.13,12.35v302c0,4.84,3.65,6.28,7.13,4.11L261,363.33A15.8,15.8,0,0,0,268.17,351V51.16c0-4.07-2.05-6.44-5-6.44Z"/><path class="cls-16" d="M145.87,132.31c-.73-.27-4.23-2.33-3.52-3.4l2.7-5.16a.93.93,0,0,1,1.64.86l-2.33,4.46C145.18,129.68,148.4,131.67,145.87,132.31Z"/><path class="cls-16" d="M245.61,70.2c.26,1.74-2.65,4.76-3,1.72C242.38,70.17,245.28,67.15,245.61,70.2Z"/><path class="cls-16" d="M251.9,66.57c.26,1.74-2.65,4.76-3,1.72C248.66,66.55,251.57,63.53,251.9,66.57Z"/><path class="cls-16" d="M258.18,62.94c.26,1.74-2.65,4.76-3,1.72C255,62.92,257.85,59.9,258.18,62.94Z"/><path class="cls-14" d="M194.89,141.56c-19.57-3.59-1.88-46,14.27-38.73C221.17,112.66,208.94,140.57,194.89,141.56Zm10.63-38.88c-13.31,1.06-25.07,27.68-13.87,37.23C206.69,146.42,223.59,106.39,205.52,102.68Z"/><path class="cls-14" d="M194.89,141.56c-9.72.39-.73-13.61,2.94-15.3,4.53-3.29,11.41-6.06,12.1,2.23-1.49,5.1-6.14,9.26-9.52,11.41h0A11.13,11.13,0,0,1,194.89,141.56Zm-3.63-1.91c2.36,1.61,5.45,1.45,8.74-.45h0c3.44-2,6.68-5.62,9.16-10.25-.53-8.12-6.59-4.92-10.93-2C194.58,129.06,191.54,134.59,191.26,139.65Z"/><path class="cls-14" d="M198,124.1c-7.32-1.35-2.48-14,2-16C210.7,104.2,205.41,124.57,198,124.1Zm4.37-16c-6.14-.45-11.58,17.59-2.39,14.55C203.83,120.92,208.57,109.7,202.39,108.14Z"/><path class="cls-14" d="M184.69,154.89c1.92-1.7,4.85,1,2.09,2.12-.24.14-.34.1-.48-.1-1-1.2-3.15.87-3.12,2.1.11,1.65,2.53-.11,3.5.08,3.92,1.16-.4,7.28-3.19,7.63-1.91.63-3.09-2.11-1-2.69.24-.14.37-.13.49.09.87,1.37,3-.56,3.44-1.56.86-2.83-3.11.2-4.26-.84C180.48,159.54,182.6,156.09,184.69,154.89Z"/><path class="cls-14" d="M190.68,151.43c.58-.27.23,1.26.32,1.47,0,.58-1.11,1.19-1.56,1.2a3.62,3.62,0,0,1,0-1.82C189.53,152,190.47,151.59,190.68,151.43Zm.26,10.62c.14.45-1.5,1.61-1.53.88.11-.28-.31-8.13.32-8,.23,0,1.23-1,1.21-.28Z"/><path class="cls-14" d="M195.26,161.56a3.36,3.36,0,0,0,1.46-3.21c-5.66,8.24-6-8.37,0-6.62,0-.32,0-.8.32-1s1.24-1,1.22-.28c-.19,2.36.57,8.72-.8,10.73-1.94,4.17-7.46,2.55-3.94.31C194.2,161.52,194.41,162.24,195.26,161.56Zm-1.42-5.3c-.45,4.06,3.43,1.32,2.91-1.23C196.9,151.68,193.58,154.11,193.84,156.26Z"/><path class="cls-14" d="M205.66,153.55c-2.8,4-.81-3.63-1.87-4.44-3.68-.63-1.59,5.77-2.68,7.49-.23,0-1.23,1-1.22.28v-7.34c0-.6,1.85-1.86,1.54-.53C205.82,142.87,205.92,150.05,205.66,153.55Z"/><path class="cls-14" d="M211.2,139.59c.58-.28.24,1.25.32,1.47,0,.57-1.11,1.18-1.56,1.2a3.66,3.66,0,0,1,0-1.83C210.05,140.15,211,139.74,211.2,139.59Zm.26,10.61c.14.45-1.5,1.61-1.53.89.11-.28-.31-8.13.32-8,.23,0,1.23-1,1.21-.27Z"/><path class="cls-14" d="M218.86,145.93c-2.79,4-.81-3.64-1.86-4.44-3.69-.63-1.6,5.76-2.69,7.49-.22,0-1.23,1-1.21.28v-7.35c0-.59,1.84-1.86,1.53-.52C219,135.25,219.12,142.42,218.86,145.93Z"/><path class="cls-16" d="M153,210.63c1.3.76-2.69,2.27-3,2.64s-.29-7.13,0-7a32.81,32.81,0,0,1,3.1-1.71c.69,1-2.16,1.88-2.59,2.32V209c.28.05,2.91-2.27,2.49-.81.14.44-2.28,1.49-2.49,1.7v2.19Z"/><path class="cls-16" d="M154.12,208.29c-1.14-.65,1.86-1.81,2.21-2.13C157.48,206.81,154.48,208,154.12,208.29Z"/><path class="cls-16" d="M158.29,203.84c.24-.79,1.57-2.14,2.23-1.1.43-1.65,2.9-2.79,2.67-.15-.18.54.49,3.45-.63,3.32a26.06,26.06,0,0,1-.05-2.82c.06-2.31-2.06-.41-1.77.95-.14.51.4,3.18-.48,3.28-.79-.29.69-4.61-1.09-3.81-1.35.73-.76,3.42-.88,4.68-1.22,2.53-.51-4.16-.68-4.26C157.64,203.43,158.47,203.08,158.29,203.84Z"/><path class="cls-16" d="M164,203.85c0-1.58,1.48-2.59,2.59-3.47-.14-2.82-2.83,2.62-2.2.08,2.76-4.32,3.15-.14,2.88,2.54-.1.59-.87.84-.68,0C166.37,204,164.11,205.76,164,203.85Zm1.37-.24a2.66,2.66,0,0,0,1.22-2.43C165.94,201.46,163.41,204,165.37,203.61Z"/><path class="cls-16" d="M169.12,196c0,.34-.41.5-.63.64s-.2-.77-.14-1C168.9,195.06,169.23,195.08,169.12,196Zm-.08,6c.06.27-.63.83-.68.39.07-.17-.19-5.15.2-5C169.56,196.16,168.84,201.9,169,202Z"/><path class="cls-16" d="M170.85,200.94c.05.27-.64.83-.68.39.2-.26-.59-8.17.68-6.94Z"/><path class="cls-3" d="M155.28,225.37c.24-.79,1.58-2.14,2.24-1.1.43-1.66,2.89-2.79,2.66-.15-.15.51.42,3.21-.48,3.31-.43.29-.1-2.72-.2-2.81.06-2.32-2.05-.41-1.77.95-.14.5.41,3.18-.48,3.28-.79-.29.69-4.61-1.08-3.81a2.13,2.13,0,0,0-.89,1.94c-.13.5.4,3.19-.47,3.28-.47.37-.09-4.76-.21-4.8C154.63,225,155.46,224.61,155.28,225.37Z"/><path class="cls-3" d="M162.28,227.6c-1.51,2.06,0-1.88,0-2.17,0-.06-1.52-3.52-1.49-3.59.69-1.93,1.54,2,1.86,2.32.27-.49,1-4.55,1.69-4.61S162.14,227.4,162.28,227.6Z"/><path class="cls-3" d="M168.76,221.93c-1.14,2.1-.53-2-.68-2.24,0-2.41-2.41-.17-2.09,1.21-.07.39.33,3.89-.68,3,.18-.49-.47-5.18.47-5.2.28-.13.2.33.21.46C168.57,215.21,169.05,219.56,168.76,221.93Z"/><path class="cls-3" d="M169.57,220.43c0-1.59,1.49-2.6,2.59-3.48-.13-2.82-2.83,2.63-2.19.08,2.76-4.32,3.15-.13,2.88,2.55-.1.59-.87.83-.69,0C172,220.59,169.69,222.34,169.57,220.43Zm1.38-.25a2.61,2.61,0,0,0,1.21-2.43C171.51,218,169,220.59,171,220.18Z"/><path class="cls-3" d="M174.62,214.21c.24-.8,1.57-2.14,2.23-1.1.43-1.66,2.9-2.79,2.67-.15-.16.51.41,3.21-.48,3.31-.43.28-.1-2.73-.2-2.82.06-2.31-2.05-.41-1.77,1-.14.51.4,3.19-.48,3.28-.79-.29.69-4.61-1.09-3.8-1.35.73-.76,3.42-.88,4.67-1.21,2.53-.5-4.16-.68-4.26C174,213.79,174.8,213.44,174.62,214.21Z"/><path class="cls-3" d="M180.43,212.37c-.2-2.63,3.89-5.43,3.38-1.16a30.12,30.12,0,0,1-2.72,1.65c.16,2.29,1.83,0,2.46-.6C184.14,214.27,179.79,216.53,180.43,212.37Zm.66-.35,2.11-1.22C183.09,208.66,180.84,210.84,181.09,212Z"/><path class="cls-3" d="M190.14,207.63c0,1-.89,2.65-2,2.13-2.56,4.31-3.08-3.71-.21-3,1.32-2.51,0,2.76,1.1,2.1,2.36-6.7-5-2.93-3.76,1.88.38,3.13,3.1.39,4.13-.72.53,1-1.91,2.86-3.07,3-2.4.09-1.79-3.53-1.44-5.08C185.76,204.56,190.88,202.27,190.14,207.63Zm-3.51,1.53c.16,2.15,1.78-.13,1.29-1.25C187.51,206.58,186.44,208.48,186.63,209.16Z"/><path class="cls-3" d="M191,206.28c-.2-2.63,3.89-5.44,3.38-1.17a30.12,30.12,0,0,1-2.72,1.65c.17,2.29,1.83,0,2.47-.59C194.71,208.17,190.35,210.43,191,206.28Zm.66-.36,2.11-1.21C193.65,202.56,191.4,204.74,191.65,205.92Z"/><path class="cls-3" d="M196,201.85c.24-.79,1.57-2.14,2.23-1.1.43-1.65,2.9-2.79,2.67-.15-.18.53.49,3.45-.62,3.32a23.7,23.7,0,0,1-.07-2.82c.07-2.31-2-.41-1.76,1-.15.5.4,3.18-.48,3.28-.8-.29.69-4.61-1.09-3.81-1.61.86-.39,3.82-1.08,5.06-1,1.18-.28-4.57-.48-4.64C195.37,201.44,196.2,201.09,196,201.85Z"/><path class="cls-3" d="M201.73,201.86c0-1.58,1.48-2.59,2.59-3.47.15-1.14-1-.83-1.38-.19-.15.28-.67,1.37-.95.8,0-1.56,3-3.73,3-1-.16.5.42,3.5-.48,3.59-.3.14-.18-.43-.2-.56C204.11,202,201.84,203.77,201.73,201.86Zm1.37-.24a2.66,2.66,0,0,0,1.22-2.43C203.67,199.47,201.15,202,203.1,201.62Z"/><path class="cls-3" d="M206.85,194c0,.33-.41.5-.63.64s-.2-.77-.14-.95C206.63,193.07,207,193.09,206.85,194Zm-.08,6c.06.27-.63.83-.68.39.07-.17-.19-5.15.2-5C207.29,194.17,206.57,199.91,206.77,200Z"/><path class="cls-3" d="M208.58,199c.06.27-.64.83-.68.39.2-.26-.59-8.17.68-6.94Z"/><path class="cls-3" d="M210.31,197c.36-.17.16.69.21.83,0,.34-.58.68-.85.67A1.1,1.1,0,0,1,210.31,197Z"/><path class="cls-3" d="M212,195c.06,1.82,1.92.68,2.09-.5a.69.69,0,0,1,.47-.54c.89.93-2.25,4.5-3.1,2.3-1.35-5.15,4.7-6.48,2.87-3.75C213,191,211.73,193.59,212,195Z"/><path class="cls-3" d="M217.24,188.92c3.45-1.29,1.56,6.72-1.26,5.5C214.79,192.87,215.57,189.91,217.24,188.92Zm1.1,2.49c.35-3.29-2.54-1.23-2.2.85C216,194.83,218.52,193,218.34,191.41Z"/><path class="cls-3" d="M220.65,187.63c.24-.79,1.57-2.14,2.23-1.1.43-1.66,2.9-2.79,2.67-.15-.16.51.41,3.21-.48,3.31-.44.29-.1-2.72-.2-2.82.06-2.3-2.05-.4-1.77,1-.14.5.4,3.18-.48,3.28-.8-.29.69-4.61-1.08-3.81a2.11,2.11,0,0,0-.89,1.94c-.13.5.4,3.19-.48,3.28-.46.37-.09-4.76-.2-4.8C220,187.21,220.83,186.87,220.65,187.63Z"/><path class="cls-3" d="M146.23,200c-1.85-1,108-63.26,108.3-62.93C255,138,146.59,199.46,146.23,200Z"/><path class="cls-3" d="M206.88,310.46c-1.87-.85,47.35-28.33,47.65-27.91C255,283.56,207.25,310,206.88,310.46Z"/><path class="cls-3" d="M146.23,345.48c-1.87-.85,47.35-28.33,47.65-27.92C194.34,318.58,146.6,345,146.23,345.48Z"/><path class="cls-3" d="M196.9,314.39c0-1.67,1.12-3.64,2.87-3.93C204.13,312.34,196.47,323,196.9,314.39Zm3.09-1.74c-1-3.13-3.18,2.55-1.85,3.61C199.93,316.57,200.13,314,200,312.65Z"/><path class="cls-3" d="M203.4,311c-1.22.54-.64,2.81-.77,3.83.06.28-.83.92-.89.51V311.1c0-.37,1.06-1.05.89-.3.21-.4,1-1.46,1.4-1A1,1,0,0,1,203.4,311Z"/><path class="cls-3" d="M151.18,240c-4.75-.06-2-11.45-2.69-14.15a9.05,9.05,0,0,1,3.84-7.3l95.21-55c6.85-3.27,3.7,10.7,4.38,13.65a9.05,9.05,0,0,1-3.84,7.3C246.1,185.15,153.38,240.07,151.18,240Zm98-75.85c-1.45-.08-95.07,54.91-96.36,55.33a8,8,0,0,0-3.31,6.37c.7,1.74-2.07,15.36,2.77,12.72l95.21-55a8,8,0,0,0,3.31-6.37C250.28,175.43,252.32,164.18,249.23,164.11ZM247.81,184h0Z"/><path class="cls-16" d="M151.83,246.33c2.08-1.27,2.14,1.87,1.27,3-.49,1-1.77,1.53-2.64,2.05-.15.55.45,3.13-.66,3-.17-.11,0-6.46-.06-6.61C149.63,247.35,151.61,246.56,151.83,246.33Zm-1.37,4.17c2.79-.86,3.89-5.25,0-2.47Z"/><path class="cls-16" d="M154.1,250.7c0-1.58,1.48-2.59,2.59-3.47.16-1.13-1-.83-1.37-.19-.15.28-.68,1.37-1,.8,0-1.55,3-3.73,3-1-.15.5.43,3.51-.47,3.59-.31.15-.18-.42-.21-.56C156.48,250.87,154.22,252.62,154.1,250.7Zm1.38-.24a2.62,2.62,0,0,0,1.21-2.43C156,248.31,153.52,250.87,155.48,250.46Z"/><path class="cls-16" d="M160.68,246.78c0-.67-.85-.21-1.28-.13-2.71.35.12-4.64,1.75-3.24.33.35-.18,1-.57.83-.63-.45-1.88.73-1.53,1.43,4.54-1.3,1.5,4.38-.7,3.2-.36-.36.2-1,.57-.86C159.55,248.52,160.64,247.45,160.68,246.78Z"/><path class="cls-16" d="M164.47,244.59c-.12-1-1.69.39-2.13-.21-1-1.29,1.15-4.15,2.6-3.16.26.33,0,.72-.35.84-.7-.49-2.47.84-1.55,1.51,3.91-1.68,1.51,4.47-.9,3.11-.36-.36.2-1,.58-.86C163.34,246.33,164.43,245.26,164.47,244.59Z"/><path class="cls-16" d="M169.61,241.45c.29-.51.5-4.5,1.46-4.36,0,.14-1,7.08-1.79,5.88l-.89-2.8c-.24.32-.72,5.19-1.58,4.23.11-.51-2-4.66-.55-4.52.15.06.84,2.86.92,3C167.94,240.69,168,235.12,169.61,241.45Z"/><path class="cls-16" d="M173.45,235.55c3.44-1.29,1.55,6.72-1.26,5.5C171,239.5,171.77,236.54,173.45,235.55Zm1.09,2.49c.28-3.61-2.78-.82-2.19,1.26C172.59,241.47,174.74,239.28,174.54,238Z"/><path class="cls-16" d="M178.15,232.94c.36-.11.23.76,0,.86a1.91,1.91,0,0,0-1.29,1.89c-.15.5.41,3.38-.48,3.46-.52.27,0-4.7-.21-4.8,0-.5.87-.85.69-.09A2.33,2.33,0,0,1,178.15,232.94Z"/><path class="cls-16" d="M180.43,231.52c.47-.28.84-.31,1.16,0,.12-.5-.37-2.64.48-2.75.53-.27,0,6.6.2,6.7,0,.5-.86.85-.68.09C178.64,240.29,177.54,232.88,180.43,231.52Zm1.16,2.46c.36-3.4-2.73-1-2.18,1.11C179.52,237.42,181.79,235.31,181.59,234Z"/><path class="cls-3" d="M154.9,269.3c-.18-1.51,2-5,3.33-2.83C159.35,268.51,155.41,273.18,154.9,269.3Z"/><path class="cls-3" d="M160.49,266.07c0-1.42,1.25-4.11,3-3.34C165.58,264.51,161.06,270.26,160.49,266.07Z"/><path class="cls-3" d="M166.07,262.85c-.18-1.5,2-5,3.33-2.82C170.52,262.06,166.57,266.73,166.07,262.85Z"/><path class="cls-3" d="M171.65,259.63c0-1.42,1.25-4.11,3-3.35C176.75,258.06,172.23,263.81,171.65,259.63Z"/><path class="cls-3" d="M177.24,256.4c-.19-1.5,2-5,3.32-2.82C181.69,255.62,177.73,260.28,177.24,256.4Z"/><path class="cls-3" d="M182.82,253.18c-.18-1.5,2-5,3.33-2.82C187.27,252.39,183.32,257.06,182.82,253.18Z"/><path class="cls-3" d="M188.4,250c0-1.41,1.25-4.1,3-3.34C193.5,248.39,189,254.14,188.4,250Z"/><path class="cls-3" d="M194,246.73c-.19-1.5,2-5,3.32-2.82C198.44,245.94,194.48,250.61,194,246.73Z"/><path class="cls-3" d="M151.18,281.1c-4.75-.06-2-11.45-2.69-14.15a9.05,9.05,0,0,1,3.84-7.3l95.21-55c6.85-3.27,3.7,10.7,4.38,13.65a9.05,9.05,0,0,1-3.84,7.3C246.1,226.29,153.38,281.21,151.18,281.1Zm98-75.85c-1.45-.08-95.07,54.91-96.36,55.33a8,8,0,0,0-3.31,6.37c.7,1.74-2.07,15.35,2.77,12.72l95.21-55a8,8,0,0,0,3.31-6.37C250.28,216.57,252.32,205.32,249.23,205.25Zm-1.42,19.91h0Z"/><path class="cls-12" d="M247.81,274.47l-95.21,55c-2,1.14-3.58-.07-3.58-2.71.85-5.15-2.41-20.09,3.58-23.05l95.21-55c2-1.14,3.57.07,3.57,2.71C250.54,256.57,253.8,271.51,247.81,274.47Z"/><path class="cls-1" d="M187,292.26c1.64-1.46,4.14.86,1.79,1.8-.21.12-.3.08-.41-.08-.85-1-2.69.74-2.67,1.79.1,1.4,2.17-.09,3,.07,3.34,1-.34,6.21-2.72,6.5-1.63.54-2.63-1.8-.85-2.3.34-.23.4.14.58.34,1,.57,2.33-.75,2.77-1.59.73-2.41-2.66.17-3.64-.72C183.4,296.22,185.2,293.28,187,292.26Z"/><path class="cls-1" d="M192.1,289.3c.48-.23.19,1.08.27,1.26,0,.49-1,1-1.33,1a3,3,0,0,1,0-1.56C191.11,289.78,191.92,289.44,192.1,289.3Zm.22,9.06c.11.38-1.29,1.37-1.31.75.09-.24-.26-6.93.27-6.78.2,0,1.05-.85,1-.24Z"/><path class="cls-1" d="M196,297.94a2.89,2.89,0,0,0,1.25-2.74c-4.84,7-5.12-7.13,0-5.64,0-.28,0-.68.27-.83s1-.86,1-.24c-.16,2,.48,7.44-.68,9.15-1.57,3.49-6.39,2.25-3.37.27C195.09,297.91,195.27,298.52,196,297.94Zm-1.21-4.52c-.45,3.07,2.54,1.58,2.46-.53C197.8,289.74,194.66,291.05,194.79,293.42Z"/><path class="cls-1" d="M204.87,291.11c-3,4.07.23-5.3-2.46-3.77-2.54,1.21.4,6.29-2.38,6.82-.09-.35-.33-6.87.19-7s1.21-.91,1,.07C204.9,282,205.14,288.14,204.87,291.11Z"/><path class="cls-1" d="M209.59,279.2c.49-.23.2,1.08.28,1.26,0,.49-1,1-1.33,1a3,3,0,0,1,0-1.56C208.61,279.68,209.41,279.34,209.59,279.2Zm.22,9.05c.12.39-1.28,1.38-1.31.76.1-.24-.26-6.93.28-6.78.19,0,1.05-.86,1-.24Z"/><path class="cls-1" d="M216.13,284.61c-2.42,3.44-.68-3.1-1.6-3.78-2.67-.62-1.91,4.31-2,5.86,0,.5-.73.75-1,1-.62.48-.12-6.41-.27-6.47,0-.52,1.57-1.57,1.31-.45C216.16,275.54,216.39,281.64,216.13,284.61Z"/><path class="cls-3" d="M159.34,283.68c2-1.12,1.64,2.15.59,2.89,0,.24,1.25,1.7.79,1.91-.6.75-1.1-1.24-1.39-1.46l-1,.6c-.12.44.38,2.58-.52,2.49-.14-.09,0-5.16-.05-5.29C157.64,284.46,159.16,283.86,159.34,283.68Zm-1,3.22c2.17-.66,3-4,0-1.9Z"/><path class="cls-3" d="M161.38,285.62c-.22-2.12,3.17-4.23,2.71-.94a22.47,22.47,0,0,1-2.18,1.32c.14,1.84,1.47,0,2-.47C164.36,287.18,160.84,288.87,161.38,285.62Zm.53-.29,1.69-1C163.51,282.64,161.72,284.39,161.91,285.33Z"/><path class="cls-3" d="M165.41,282.08c.19-.64,1.26-1.71,1.78-.88.35-1.33,2.32-2.24,2.14-.12-.13.41.33,2.56-.39,2.65-.35.22-.08-2.18-.16-2.26.05-1.85-1.64-.32-1.41.76-.12.41.32,2.55-.39,2.63-.63-.24.55-3.69-.86-3.05s0,3.42-1.09,4.18c-.42.25-.05-3.78-.17-3.84C164.89,281.74,165.55,281.47,165.41,282.08Z"/><path class="cls-3" d="M170.05,280.61c-.22-2.11,3.18-4.23,2.71-.93.07.08-2.13,1.27-2.17,1.32,0,1.65,1.44.32,1.79-.37C173.8,280.53,169.71,285,170.05,280.61Zm.54-.28,1.68-1C172.19,277.64,170.38,279.38,170.59,280.33Z"/><path class="cls-3" d="M174.08,277.07c.19-.63,1.26-1.71,1.78-.88.35-1.32,2.32-2.23,2.14-.12-.13.41.33,2.57-.39,2.65-.35.23-.08-2.18-.16-2.25.05-1.85-1.64-.33-1.41.76-.12.4.32,2.54-.39,2.62-.63-.23.56-3.69-.86-3s-.31,3.06-.87,4.05c-.83.92-.2-3.65-.39-3.72C173.56,276.74,174.22,276.46,174.08,277.07Z"/><path class="cls-3" d="M180.34,272.91c2.64-1,1.14,5.48-.93,4.31-.91,3-.44-4.69-.54-4.68a.38.38,0,0,1,.16-.31c.72-.73.25,1.6.38,1.76A2.26,2.26,0,0,1,180.34,272.91Zm-.93,3c.63,2.31,2.54-1.44,1.49-2.34C179.78,273.2,179.27,275.05,179.41,276Z"/><path class="cls-3" d="M182.3,273.54c-.22-2.12,3.18-4.23,2.71-.93.07.07-2.13,1.27-2.17,1.31,0,1.65,1.44.32,1.79-.37C186.05,273.45,182,277.92,182.3,273.54Zm.54-.29,1.68-1C184.44,270.56,182.64,272.31,182.84,273.25Z"/><path class="cls-3" d="M187.37,268.94c.29-.09.18.6,0,.68a1.56,1.56,0,0,0-1,1.52c-.12.4.33,2.7-.38,2.77-.42.22,0-3.76-.16-3.84,0-.41.69-.68.54-.07A1.84,1.84,0,0,1,187.37,268.94Z"/><path class="cls-3" d="M189.92,267.93c.19-.64,1.26-1.72,1.79-.88.34-1.33,2.31-2.24,2.13-.12-.13.41.33,2.56-.38,2.65-.35.22-.09-2.18-.17-2.26.05-1.85-1.64-.32-1.41.76-.12.41.32,2.55-.39,2.63-.63-.24.56-3.69-.86-3s0,3.42-1.09,4.18c-.41.24,0-3.78-.17-3.85C189.4,267.59,190.06,267.31,189.92,267.93Z"/><path class="cls-3" d="M194.56,266.46c-.22-2.11,3.17-4.23,2.71-.93.06.08-2.12,1.26-2.17,1.32.13,1.83,1.46,0,2-.48C197.54,268,194,269.71,194.56,266.46Zm.54-.28,1.68-1C196.7,263.49,194.9,265.23,195.1,266.18Z"/><path class="cls-3" d="M149.62,295.92c-1.22.32-.36-6.9-.6-7.35s5.17-3.19,5.36-3.44a.59.59,0,0,1,.6,0c.6-.23.19,7.06.3,7.27C155.39,293,150,295.73,149.62,295.92Zm.6-7v5.36l3.86-2.23v-5.36Zm4.46,3.48h0Z"/><path class="cls-12" d="M152.42,292.1c-.38.06-1.37-.9-1.67-1.08-1-1,.65-1.9,1.36-.87l1.88-4.28a.76.76,0,0,1,1.39.61C155,286.92,153.3,292.36,152.42,292.1Z"/><path class="cls-3" d="M151.18,373.44c-4.75-.05-2-11.44-2.69-14.15,0-2.84,1.69-6.05,3.84-7.29l95.21-55c6.85-3.27,3.7,10.7,4.38,13.65,0,2.84-1.69,6.05-3.84,7.29C246.1,318.64,153.38,373.55,151.18,373.44Zm98-75.84c-1.45-.08-95.07,54.91-96.36,55.33a8,8,0,0,0-3.31,6.36c.7,1.74-2.07,15.36,2.77,12.72l95.21-55a8,8,0,0,0,3.31-6.36C250.28,308.92,252.32,297.67,249.23,297.6Zm-1.42,19.91h0Z"/><path class="cls-3" d="M161.23,357.89c-1.88-.93,78-46,78.3-45.61C240,313.33,161.6,357.37,161.23,357.89Z"/><path class="cls-3" d="M151.18,404.52c-4.75,0-2-11.44-2.69-14.15,0-2.84,1.69-6.05,3.84-7.29l95.21-55c6.85-3.28,3.7,10.7,4.38,13.65,0,2.84-1.69,6.05-3.84,7.29C246.1,349.72,153.38,404.63,151.18,404.52Zm98-75.84c-1.45-.08-95.07,54.91-96.36,55.33a8,8,0,0,0-3.31,6.36c.7,1.74-2.07,15.36,2.77,12.72l95.21-55a8,8,0,0,0,3.31-6.36C250.28,340,252.32,328.75,249.23,328.68Zm-1.42,19.91h0Z"/><path class="cls-3" d="M161.23,389c-1.88-.93,78-46,78.3-45.61C240,344.41,161.6,388.45,161.23,389Z"/><path class="cls-8" d="M250.15,248.53c-2.42-1.89-95.33,55-97.56,55.16-5.92,2.88-2.84,18-3.57,23.05a3.15,3.15,0,0,0,1.24,2.88c1.85.6,4.18,3.62,6.4,2.16,2.3-3.36,104.26-55.1,98.79-61.8V253.76C255.66,250.42,252.2,250.08,250.15,248.53Z"/><path class="cls-17" d="M154.32,332c-2.07-1.54-5.47-1.91-5.3-5.23.32-3.12-.9-17.66,1.07-20.23l4.06,2.34c-2,2.5-.76,17.17-1.07,20.23A3.16,3.16,0,0,0,154.32,332Z"/><path class="cls-18" d="M250.14,248.53l4,2.3c-2.37-1.72-95.31,55-97.49,55.2a7,7,0,0,0-2.51,2.82l-4.06-2.34a7,7,0,0,1,2.5-2.82C154.81,303.48,247.74,246.66,250.14,248.53Z"/><path class="cls-8" d="M251.87,276.81l-95.21,55c-2,1.14-3.57-.07-3.57-2.7.85-5.16-2.42-20.09,3.57-23.05l95.21-55c2-1.14,3.58.07,3.58,2.7C254.6,258.92,257.87,273.85,251.87,276.81Z"/><g class="cls-19"><path class="cls-8" d="M156.66,306c28.75-17.27,63.4-37.25,92.66-53.86,2.46-1.77,6.2-3.21,6.36,1.31l-.23,16.5-.26-16.47c-.17-4-3.47-2.28-5.56-.79C220.59,269.77,186,289.75,156.66,306Z"/></g><path class="cls-14" d="M191.05,294.6c1.63-1.45,4.13.86,1.78,1.81-.21.12-.3.08-.41-.09-.85-1-2.69.74-2.66,1.79s1.23.39,1.94.26c4.79-1.05,1.2,6.19-1.68,6.32-1.62.54-2.63-1.81-.85-2.3.35-.24.4.13.59.33,1,.57,2.32-.74,2.76-1.58.73-2.42-2.65.17-3.63-.72C187.46,298.56,189.26,295.62,191.05,294.6Z"/><path class="cls-14" d="M196.16,291.65c.49-.23.19,1.07.27,1.26,0,.49-1,1-1.33,1a3,3,0,0,1,0-1.56C195.17,292.13,196,291.79,196.16,291.65Zm.22,9.05c.09.41-1.24,1.36-1.31.76V295.2c0-.5.73-.76,1-1C196.72,293.75,196.23,300.64,196.38,300.7Z"/><path class="cls-14" d="M200.06,300.28a2.85,2.85,0,0,0,1.25-2.73c-4.83,7-5.12-7.13,0-5.65,0-.27,0-.67.27-.83s1-.86,1-.23c-.16,2,.49,7.43-.68,9.15-1.57,3.48-6.39,2.25-3.36.26C199.15,300.25,199.33,300.87,200.06,300.28Zm-1.21-4.51c-.45,3.07,2.54,1.58,2.46-.53C201.86,292.08,198.72,293.4,198.85,295.77Z"/><path class="cls-14" d="M208.93,293.46c-2.41,3.44-.68-3.11-1.59-3.79-2.68-.61-1.91,4.32-2,5.87.05.49-.73.75-1,1-.62.49-.12-6.4-.27-6.47,0-.52,1.57-1.57,1.31-.44C209,284.38,209.2,290.48,208.93,293.46Z"/><path class="cls-14" d="M213.66,281.55c.48-.24.19,1.07.27,1.25,0,.5-1,1-1.33,1a3,3,0,0,1,0-1.56C212.67,282,213.48,281.68,213.66,281.55Zm.22,9.05c.11.38-1.29,1.38-1.31.76v-6.27c-.06-.49.73-.75,1-1C214.22,283.65,213.73,290.53,213.88,290.6Z"/><path class="cls-14" d="M220.19,287c-2.95,4.07.23-5.3-2.46-3.77-2.49,1.24.28,5.86-2.19,6.81-.62.49-.12-6.4-.27-6.47,0-.52,1.57-1.57,1.31-.44C220.22,277.88,220.46,284,220.19,287Z"/></g><g id="Character"><g id="Chair"><path class="cls-11" d="M390.86,399.75c2.45-1.78,9.46-5.36,8.78.54.11,1.26-3.95,2.79-4.72,3.45C391.67,405.62,387.84,402.66,390.86,399.75Z"/><path class="cls-11" d="M398.71,399.91l-3.79,2.19c-1.7,1.38-7.15,0-4.06-2.35l3.79-2.19C396.34,396.18,401.79,397.6,398.71,399.91Z"/><path class="cls-11" d="M364.08,415.19c2.11-1.15,5.53-3.86,8-2.27a2.6,2.6,0,0,1-.13,4.06c-2.1,1.15-5.52,3.87-8,2.27A2.62,2.62,0,0,1,364.08,415.19Z"/><path class="cls-11" d="M371.94,415.35l-3.79,2.19c-1.7,1.38-7.15,0-4.07-2.35l3.8-2.19C369.57,411.62,375,413,371.94,415.35Z"/><path class="cls-11" d="M352.19,377.53c2.45-1.78,9.46-5.36,8.78.53.11,1.26-4,2.79-4.72,3.45C353,383.4,349.17,380.44,352.19,377.53Z"/><path class="cls-11" d="M360,377.68l-3.79,2.2c-1.7,1.38-7.14,0-4.06-2.35l3.79-2.19C357.68,374,363.12,375.38,360,377.68Z"/><path class="cls-11" d="M325.42,393c2.45-1.78,9.46-5.36,8.78.53.11,1.26-3.95,2.79-4.72,3.45C326.23,398.84,322.4,395.87,325.42,393Z"/><path class="cls-11" d="M333.27,393.12l-3.79,2.19c-1.7,1.39-7.15,0-4.06-2.34l3.79-2.19C330.9,389.39,336.35,390.82,333.27,393.12Z"/><path class="cls-11" d="M316.94,400.37c-2.14-.05-3.22-1.81-3-4.17L325.7,253.44l2,.16c1.8,2.39-16.2,147.26-9.35,144.3l42.19-24.35c8.09,3.43-1.8-138-.24-140l2-.06c-2.07,5.18,9.63,142.37-.76,141.76l-42.19,24.36A4.93,4.93,0,0,1,316.94,400.37Z"/><rect class="cls-11" x="335.33" y="344.94" width="2" height="41.66" transform="translate(-148.6 474.16) rotate(-60)"/><rect class="cls-11" x="381.18" y="319.33" width="2" height="41.72" transform="translate(-103.52 501.08) rotate(-60)"/><path class="cls-11" d="M355.52,422.64c-2.15,0-3.34-1.76-3.27-4.12l3.92-147.44,2,.06c2.06,2.51-8.39,152.24-1.23,149l42.19-24.35a7.63,7.63,0,0,0,3.41-6.54L390.78,251.22l2-.17c-2,4.65,18.42,147.81,7.36,146.51l-42.19,24.35A4.84,4.84,0,0,1,355.52,422.64Z"/><g id="Chair-2" data-name="Chair"><path class="cls-11" d="M330.51,238.56c15.86-9.16,41.58-9.16,57.44,0,11.38,6.43,12.54,14,11.89,23.95,0,6-4,12-11.89,16.59-19.36,11.53-65.05,10.14-69.33-16.58C318,252.56,319.12,245,330.51,238.56Z"/><path class="cls-11" d="M330.51,235c15.86-9.16,41.58-9.16,57.44,0,11.38,6.43,12.54,14,11.89,24,0,6-4,12-11.89,16.59-19.36,11.53-65.05,10.14-69.33-16.59C318,249,319.12,241.41,330.51,235Z"/><path class="cls-15" d="M330.51,235c15.86-9.16,41.58-9.16,57.44,0,11.38,6.43,12.54,14,11.89,24,0,6-4,12-11.89,16.59-19.36,11.53-65.05,10.14-69.33-16.59C318,249,319.12,241.41,330.51,235Z"/><ellipse class="cls-11" cx="359.23" cy="251.56" rx="40.62" ry="23.45"/><ellipse class="cls-20" cx="359.23" cy="251.56" rx="40.62" ry="23.45"/></g></g><path class="cls-21" d="M336.4,276.55c2.86,1.7,5.87-.86,8.89,1,3.68,1.83,4,5.88,5.51,9.21a75.6,75.6,0,0,0,7.28,9.35c10.33,9.84-.31,36.62-9.35,23-2.13-4.07-2-9.79-5.68-13-4.72-4.21-9-8.94-13.43-13.45-2.63-2.55-14.55-9.53-14.55-9.53l9.85-19.24Z"/><path class="cls-22" d="M346.21,276.93c7.32-1.43,5.3,11.58,9.6,14.84,6.33,5,11.29,14.05,7.26,24.05-3.49,8.69-6.27,9.32-11.29,8.54Z"/><path class="cls-11" d="M335.3,275.34c4.86,3.59,4.87,9.85,3.93,13.94a3.69,3.69,0,0,0-3,.58c-11.09,6-.88,6.64,5.07,15.39,6.12,5.94,1.75,19.13,11.93,18.94,11.31-4.3,12.51-24.77.82-31.76-7.06-6.76-1.21-17.76-15.84-16.52C336.44,275.56,335.9,274.45,335.3,275.34Z"/><path class="cls-22" d="M339.23,289.28a2.4,2.4,0,0,0,.89,2.57c4.44,4.59,9.18,9.17,11.67,15.17-1.52-6.41-6.46-11.42-11.36-15.52A2.26,2.26,0,0,1,339.23,289.28Z"/><path class="cls-14" d="M352,305.23c-2.37.43-8.69,3.36-7.58,6.07C339.75,308.32,353.2,301.35,352,305.23Z"/><path class="cls-14" d="M349.47,301.22c-2.38.19-7.34,2.66-7.59,4.93l.29.45C337.18,304.12,350.75,297.19,349.47,301.22Z"/><path class="cls-14" d="M346.49,297.38c-2.33.39-7.25,3.08-7.29,5.39l.44.47C334.14,301.47,347.46,293.23,346.49,297.38Z"/><path class="cls-1" d="M343.8,294.22c-2.34.39-7.61,3.21-7.65,5.51l.46.47C330.94,298.37,344.78,290.11,343.8,294.22Z"/><path class="cls-14" d="M347.42,210.24c-.1,3.22-19.78,8.8-33.78,13.33-64.34,19-23.6,46.79,9.28,64.79,0,0,10.32-6.86,11.91-14.78l-14.45-15.74,41.29-12.36Z"/><path class="cls-14" d="M315.54,274.36c-.25,3-.47,6.2-.65,9.15,2.58,1.5,5.18,3,8,4.85,0,0,10.32-6.86,11.91-14.78L322.18,259.8C317.93,264,316.23,265.91,315.54,274.36Z"/><path class="cls-14" d="M361.67,245.48l-1.3-2.68s-23.91,5.69-32.21,7.63c-7,1.64-8.44,1.87-12-1.26-5-4.36-8.45-5-11.91-4.21,5.27.64,10.89,6.54,16.16,12.88Z"/><path class="cls-14" d="M351.16,234.07,326,256.17l35.71-10.69-10.61-28.36-5.74,3.22C345.29,226.31,347.46,230,351.16,234.07Z"/><path class="cls-21" d="M336.72,342.26c3.73,8.39,3.49,13.87-4.71,19.43-7,11.56-15.14,22.74-30.4,20.07-5.63-.45-7.31-6.42-3.54-10.32,22.76-17.74,21-29.91,19-55.35l21.63,1.5S335.94,339.41,336.72,342.26Z"/><path class="cls-22" d="M340,353.49c4.08,6.8-9.4,9.59-11.08,15.12-2.55,9.21-10.05,15.28-22.66,15.29-10-.38-11.06-2.86-12.18-7.47Z"/><path class="cls-11" d="M336.66,340.25c1.38,5.82-6.18,9.53-9.73,9.79-.34-2.78-10-5.5-10.69-4.39-1.05.59-2.55,6.91-5.89,11.94s-6.57,7.25-11.05,10.56c-12.42,8.08-1.61,16.35,14.47,11.88,15.72-4.92,10.33-15.25,22.1-21.49,6.21-2.84,3.28-10.26,2.12-14.7C337.7,342,337.75,340.53,336.66,340.25Z"/><path class="cls-22" d="M326.93,350a2.47,2.47,0,0,0-2.19,1.84,61.32,61.32,0,0,1-12.32,17c5.91-3.95,10.09-10.5,12.78-16.84A2.4,2.4,0,0,1,326.93,350Z"/><path class="cls-1" d="M314.4,367.86c-2.37-3.55-7.42-5.63-9.71-3.86C306.72,358.11,319,367.3,314.4,367.86Z"/><path class="cls-1" d="M318.62,364.1c-1.91-3.41-7.4-5.08-9.72-4.51l-.38.48C309.41,354.39,323.77,363.41,318.62,364.1Z"/><path class="cls-1" d="M321.65,359.79c-1.38-2.92-7.75-5.19-10-4.4l-.34.65C310.79,350.22,326.71,358.58,321.65,359.79Z"/><path class="cls-1" d="M323.61,355.88c-1.17-3.23-7.81-5-10.08-4.23l-.44.83c.11-3.68,7.84-2.74,11.5,2.25C324.7,355.52,324,356.5,323.61,355.88Z"/><path class="cls-14" d="M347.42,210.24h0l58.39,4.19c5.58,43.36-28.56,49.69-54.81,64.21-4.78,3.08-7.33,2.16-7.5,13.88-.14,10.11-5.06,32.25-5.94,39.5-2.37,3.52-15.71,5.64-19.86,1,0,0-2.63-41.16-1.84-56.41-1.33-13.68,34.33-37.06,39.27-41.86C355.13,234.73,339.41,223.17,347.42,210.24Z"/><path class="cls-11" d="M396.8,218.17c1.33,13.09,2.14,21-15,31.06C369.55,257,338.14,270.46,337.91,279c-.08,15.52-3.5,41.25-6.58,56.29.55-.08,1.07-.19,1.57-.31,3-15.44,6.44-40.57,6.46-55.85,1-8,31.53-21.13,43.17-28.57,19.73-11.51,16.69-21.26,15.34-36.39l-1.48-.21C396.52,215.38,396.66,216.81,396.8,218.17Z"/><path class="cls-11" d="M387.27,247.14c-.23-.15-5.62-3.84-3.7-13.51,2.1-10.56,1.58-15.43.56-22.5l1.44-.22c1.05,7.26,1.53,12.43-.57,23-1.73,8.7,3,12,3.07,12Z"/><path class="cls-11" d="M317.22,327.8c2.77,3.17,14.87,3.9,21.16-.8l-.82,6.33c-4.58,4.47-14.16,5.74-20.07,1.39Z"/><g id="Arm"><path class="cls-21" d="M365.79,140.3c-22,1.51-24.26,19.9-37.48,37.29l-19-8.87L301.7,182s20.42,13.13,28,15.68c5.65,1.91,7-.57,11.16-4.93,4.64-4.85,18.3-20.69,18.3-20.69Z"/><path class="cls-23" d="M328.31,177.59c3.21,1.09,6.62,4.15,7.21,6-1.85-5.61-4.76-6.64-6.3-7.38Z"/></g><path class="cls-14" d="M285.84,153.4h0l1.48-1.38v0c-.21-1.27,17.7,3.73,18.24,3.61a6.12,6.12,0,0,1,3.86,3.33l13.3,33.92a1.58,1.58,0,0,1-.15,1.77h0L321,196.1v0c.17,1.3-17.69-3.72-18.26-3.6a6.07,6.07,0,0,1-3.86-3.33C296.73,181.53,286.22,160.9,285.84,153.4Z"/><path class="cls-14" d="M305.89,157.93c1.87.4,15.93,36.18,15.23,38.09l1.43-1.33,0,0c1-1.56-13.45-37.74-15-38Z"/><path class="cls-14" d="M321.21,194.29c-2-2.82-12.35-37.87-17.16-37.25l-16.68-3.85c-1.55-.35-2.34.56-1.76,2,3.5,5.93,11.19,35.85,17.16,37.25l16.68,3.85C321,196.69,321.79,195.78,321.21,194.29Z"/><path class="cls-14" d="M308.18,167.59c-.39-.55-2.31-7.05-3.21-7-.25.15-3.89-1.38-3.46-.34.89,1.54,1.7,6,3.21,7C305,167.1,308.6,168.63,308.18,167.59Z"/><path class="cls-14" d="M305.6,162.79c-.17-1-3.16-2.61-2.72-.63C303.06,163.19,306.05,164.76,305.6,162.79Z"/><path class="cls-14" d="M306.82,166c-.18-1-3.17-2.6-2.72-.62C304.27,166.39,307.26,168,306.82,166Z"/><path class="cls-21" d="M290.46,175.73c-3.29-2.92.49-6.1,4.15-6.74,3.58-.84,8.11.33,2.79,3.29-3.7,1.26-3.56,2.29-3.56,2.29a48.05,48.05,0,0,1,4.8-1.39c2-.28,10.87-.1,5.19,3.34l3,.15c3.45,0,2.21,3-.35,3.46,4.53-.34,2.34,3.49-2.9,5-4.07,1.68-4.69,4.05-3.68,5.52-.67-.52-6.28-2-5.34-4.86-3.23.68-3.06-2.82-2.48-4.42-1.75-.2-1.93-4.27-1-5Z"/><path class="cls-23" d="M303.83,176.52c-3.72-.64-6.76,2-9.55,4.09C297.65,179.46,300.26,177,303.83,176.52Z"/><path class="cls-23" d="M306.46,180.13c-3.89-.44-7.33,2.4-10.25,4.63C299.76,183.43,302.69,180.8,306.46,180.13Z"/><path class="cls-11" d="M384.15,137.31l16.56,4.41c14.62,8.91,10.73,27,5.5,48.64-.25,11.06,1.49,23.81,0,35.2-6,6.13-56.47,6.19-63.14-12.09,2-6.14,4.59-10.3,7.67-16.17a59.84,59.84,0,0,1-.49-13.16c-17.37-14.67,4.36-36.14,15.54-43.84Z"/><path class="cls-22" d="M396.57,81.8c2.22,5.36,8.6,2.48,11.37,6.53,1.11,2.32-.6,5.36.44,7.72,1.29,2.88,6.08,3,6.25,6.53,0,2-2,3.5-2,5.5s2.31,3.67,1.94,5.71c-.58,2.66-3.86,2.33-5.6,3.78-2.08,1.79-1.8,5.8-4.08,7.26-6.52,1.08-5.19,3.55-9.45,6.77-2.2.92-4.59-.82-6.95-.69s-4.39,2-6.61,1.42-3.5-3.41-5.61-4.53c-3.33-1.77-7.8,1.19-10.83-1.14-2-1.52-2.49-4.89-4.89-5.77-6.6-.67-6.76-5.54-7.3-10.84-8.94-7.37-2.23-7.49.4-15.3-1.1-8.6,2.14-6.71,7.68-10.51,1.74-3.08,3.53-6.76,7.81-5.64,4,1.51,6.1.19,9.5-1.6,2.69-.52,4.77,2.39,7.41,2.15A9.45,9.45,0,0,1,396.57,81.8Z"/><g id="Head"><path class="cls-22" d="M398.84,92.35c-11.07-13.65-41.24-10-40.57,13.52.94,13,31.82,27.56,31.82,27.56C396.21,120.54,409.15,108.08,398.84,92.35Z"/><path class="cls-21" d="M390,136.38c0-2,.38-12,.38-12,4.45,5.38,14.28-8.32,7.39-12.64-2.46-1.49-6-.92-7.67,3-6.08.39,0-10.31-9.48-15-2.77-1.91-6.88-4-8.78-6.54-4.86,4-11.09,3.42-13.4,9.35-.34,8.92-3.09,33.57,13.85,30.41l-.22,3.32h0c.52,2.68-2,3.41-3.59,3.51,0,0-6,4.6,4.34,6.07,15.36,2.2,24-5.24,24-5.24C396.29,140.35,388.8,139.27,390,136.38Z"/><path class="cls-23" d="M376.33,121.05l-5.58,1.73C371.8,126.59,377.45,124.72,376.33,121.05Z"/><path class="cls-24" d="M376,122.34a3.2,3.2,0,0,0-3.23,2.47,2.93,2.93,0,0,0,3.66-2.42A3,3,0,0,0,376,122.34Z"/><path class="cls-22" d="M360.1,106.13l4-2C362.86,101.38,358.83,103.56,360.1,106.13Z"/><path class="cls-22" d="M381,105.87l-4.09-2C378.08,101.12,382.2,103.23,381,105.87Z"/><path class="cls-22" d="M365.23,109.87c.22,2.36-3.58,2.79-3.73.36S365.09,107.44,365.23,109.87Z"/><path class="cls-22" d="M378.78,110.32c.22,2.36-3.58,2.79-3.73.36S378.63,107.89,378.78,110.32Z"/><polygon class="cls-23" points="363.94 115.99 369.82 118.86 371.13 107.49 363.94 115.99"/><path class="cls-23" d="M372.31,133c7.12-.66,13.94-2.93,15.56-6.16,1.22,6.71-14.58,8.56-15.72,8.67Z"/></g><g id="Arm-2" data-name="Arm"><path class="cls-23" d="M371.74,165c-5.67-5.66-8.72-6.07-15-9.49-1.31-.52-2.16,1.56-.63,3.28,1.17,1.33,4.42,3.3,5.82,4.34s3.89,5.07,3.89,5.07Z"/><path class="cls-21" d="M415.87,155.08c-2.48-8.64-7-12-15.16-13.36-11.14,13.37-.93,34.22,1,44,0,0-16.15-6.47-18.26-8.26-4-2.56-9.54-13.59-14.42-12.91-5.73.38-7.06-.36-8.14,2.51a3.1,3.1,0,0,0-4,3.34c-2.62.2-.93,5.67.12,7,.52,1.09,5,1.83,4.22-.29l1.75.35c5.73,8,2.4,9.34,13.81,12.58C433.65,232,427.41,208.15,415.87,155.08Z"/><path class="cls-23" d="M400.87,182.91l.79,2.77c5.56,1.72,10.94,3.4,12.33,5.6C412.62,187.67,408.71,185,400.87,182.91Z"/><path class="cls-23" d="M360.84,167l5.74-.35-5.51-.4A2.16,2.16,0,0,0,360.84,167Z"/><path class="cls-23" d="M356.88,170.36l6.55.06-6.45-.8A3.48,3.48,0,0,0,356.88,170.36Z"/><path class="cls-23" d="M357.34,173.31a3,3,0,0,0,1.81,1.4l-.08-.07c.13.36.27.71.41,1.06l.15-.15a1.45,1.45,0,0,0-1.73.87,1.51,1.51,0,0,1,1.89-.56c-.16-.46-.33-.92-.51-1.36A3.81,3.81,0,0,1,357.34,173.31Z"/><path class="cls-23" d="M358.94,174.38a19.87,19.87,0,0,0,2.3.48c-.34.06,1.53,2.59,1.73,2.56l-1.75-.35a2.92,2.92,0,0,0-1.88-1.38Z"/></g><g id="Warp"><path class="cls-11" d="M400.24,113.74c5.41,5,3.4,26.64,10,31.66-6,0-13.73,8.09-13.26,11.2-3.69-6.82-.65-32.64.26-38.76Z"/><path class="cls-15" d="M400.24,113.74c5.41,5,3.4,26.64,10,31.66-6,0-13.73,8.09-13.26,11.2-3.69-6.82-.65-32.64.26-38.76Z"/><path class="cls-11" d="M394,125.56c4.91-23.48-28.24-50-35.72-19.69C358.69,63.91,422.27,92.72,394,125.56Z"/><path class="cls-25" d="M394,125.56c4.91-23.48-28.24-50-35.72-19.69C358.69,63.91,422.27,92.72,394,125.56Z"/><path class="cls-11" d="M394,125.56c-7.84,9.51-14.05,38-8.42,50.39,1.8-11.74,9.41-7.84,14.94-15.52-5.58-7.81-1.94-36.39-2.14-41.88C398.37,118.55,396.55,121.75,394,125.56Z"/><path class="cls-26" d="M394,125.56c-7.84,9.51-14.05,38-8.42,50.39,1.8-11.74,9.41-7.84,14.94-15.52-5.58-7.81-1.94-36.39-2.14-41.88C398.37,118.55,396.55,121.75,394,125.56Z"/></g></g><g id="Speech_Bubble" data-name="Speech Bubble"><g id="Speech_Bubble-2" data-name="Speech Bubble"><path class="cls-11" d="M370.72,68.5l-6.82-3.94a.62.62,0,0,1-.32-.28l-1.25-2.19,4-2.34-.12.36Z"/><path class="cls-20" d="M370.72,68.5l-6.82-3.94a.62.62,0,0,1-.32-.28l-1.25-2.19,4-2.34-.12.36Z"/><path class="cls-11" d="M365.76,60.09c.59.2,4.9,10.67,6,8l5-14.4Z"/><path class="cls-27" d="M365.76,60.09c.59.2,4.9,10.67,6,8l5-14.4Z"/><path class="cls-11" d="M388.17,12.25c-.06-5-6.18-8.66-10.61-6.14L285.44,59.44c-6.3,2.14-2.2,32.18-3.3,36.82a7.4,7.4,0,0,0,4,6.14c-1.74,8.4,98.23-54.38,99-53.55,3-1.69,3-3.39,3-5.49Z"/><path class="cls-27" d="M388.17,12.25c-.06-5-6.18-8.66-10.61-6.14L285.44,59.44c-6.3,2.14-2.2,32.18-3.3,36.82a7.4,7.4,0,0,0,4,6.14c-1.74,8.4,98.23-54.38,99-53.55,3-1.69,3-3.39,3-5.49Z"/><path class="cls-11" d="M282.14,96.26a7.4,7.4,0,0,0,10.05,6.42c-1.55.58-2.73-.3-2.73-2.18.29-1.58-.84-34.29,1-34.36l-7.31-4.24C281.31,61.89,282.43,94.76,282.14,96.26Z"/><path class="cls-28" d="M388.06,11.31c-.38-1.39-1.66-1.84-3.18-1L292.75,63.68a6.49,6.49,0,0,0-2.32,2.46l-7.31-4.24a6.72,6.72,0,0,1,2.32-2.46L377.55,6.11A7.37,7.37,0,0,1,388.06,11.31Z"/></g><path class="cls-6" d="M316.12,70.12c-.19-1.51,2-5,3.32-2.83C320.57,69.33,316.61,74,316.12,70.12Z"/><path class="cls-6" d="M321.7,66.89c-.18-1.5,2-5,3.33-2.82C326.15,66.11,322.2,70.77,321.7,66.89Z"/><path class="cls-6" d="M327.28,63.67c-.18-1.5,2-5,3.33-2.82C331.73,62.88,327.78,67.55,327.28,63.67Z"/><path class="cls-6" d="M332.87,60.45c-.19-1.51,2-5,3.32-2.83C337.32,59.66,333.36,64.33,332.87,60.45Z"/><path class="cls-6" d="M338.45,57.22c-.19-1.5,2-5,3.33-2.82C342.9,56.44,339,61.1,338.45,57.22Z"/><path class="cls-6" d="M344,54c-.18-1.5,2-5,3.33-2.82C348.48,53.21,344.53,57.88,344,54Z"/><path class="cls-6" d="M349.62,50.78c-.19-1.51,2-5,3.32-2.83C354.07,50,350.12,54.66,349.62,50.78Z"/><path class="cls-6" d="M355.2,47.55c-.19-1.5,2-5,3.33-2.82C359.65,46.77,355.7,51.43,355.2,47.55Z"/><path class="cls-6" d="M299.79,89.3c-4.74-.06-2-11.44-2.69-14.15a9.05,9.05,0,0,1,3.84-7.3L373.54,26c6.86-3.27,3.7,10.7,4.38,13.65a9.05,9.05,0,0,1-3.84,7.3h0C372.42,47.41,301.61,89.6,299.79,89.3Zm75.44-62.77c-1.43-.1-72.48,41.85-73.75,42.26-1.82,1-3.3,3.9-3.3,6.36.46,1.69-1,12,1,12.91,1.9,1.35,72.65-41.91,74.4-42.09h0a8,8,0,0,0,3.31-6.37C376.32,37.74,378.3,26.65,375.23,26.53Zm-1.42,19.9h0Z"/></g></g></svg>

