<svg xmlns="http://www.w3.org/2000/svg" viewBox="0 0 736.36 394.21"><defs><style>.cls-1,.cls-15{fill:#fff;}.cls-2{fill:#0c0b16;}.cls-11,.cls-2,.cls-8{stroke:#272425;stroke-miterlimit:10;stroke-width:0.25px;}.cls-3{fill:#e0e0e0;}.cls-4{fill:#ffbe9d;}.cls-5{fill:#eb996e;}.cls-6{fill:#263238;}.cls-7{fill:#455a64;}.cls-8{fill:#9a80fa;}.cls-9{opacity:0.3;}.cls-10{fill:#ff725e;}.cls-11{fill:#5b3296;}.cls-12{fill:#ebebeb;}.cls-13{fill:#fafafa;}.cls-14{fill:#f5f5f5;}.cls-15{font-size:12px;font-family:Montserrat-Black, Montserrat;font-weight:800;}.cls-16{letter-spacing:-0.02em;}</style></defs><g id="Capa_2" data-name="Capa 2"><g id="Desk"><path class="cls-1" d="M609.25,164.61h4c2.85,0,4.81,1.72,4.81,4.36s-2,4.36-4.81,4.36h-4Zm3.86,7.07a2.71,2.71,0,1,0,0-5.41h-1.84v5.41Z"/><path class="cls-2" d="M613.12,304.65l-45.83,80.14-90.66,1.31a5.49,5.49,0,0,0-5.4,5.19h0l92.2.26,3.47-.12,115.44.23,23.33-40.23,29.8-42.72a4.21,4.21,0,0,0-3.47-6.62l-115.24.44A4.2,4.2,0,0,0,613.12,304.65Z"/><path class="cls-3" d="M735.49,305.12a2.05,2.05,0,0,1-.56.06l-1.62.06-6.23.11-22.93.18-75.63.17H623a4.49,4.49,0,0,0-4.19,2q-2.61,4.69-5.14,9.25L604,334.5c-6.21,11.16-11.81,21.23-16.54,29.71l-11.23,20-3.11,5.4c-.33.57-.61,1-.83,1.4s-.3.46-.32.45a2.68,2.68,0,0,1,.22-.51c.2-.39.44-.86.73-1.45l2.92-5.51c2.63-4.84,6.34-11.71,10.92-20.16L603,334l9.68-17.6,5.16-9.33a5.71,5.71,0,0,1,5.14-2.5h5.51l75.63.17,22.93.18,6.23.11,1.62.06A2.44,2.44,0,0,1,735.49,305.12Z"/><path class="cls-1" d="M654.25,345.41c-2,2.26-2.09,5.54-.11,7.33s5.24,1.4,7.28-.86,2.08-5.54.1-7.33S656.29,343.15,654.25,345.41Z"/><path class="cls-4" d="M287.22,64.77,286,167.18c-.21,17.41,3,43,30.58,42.13h0c23.84-2.6,30.17-25.17,30.35-41.42.09-7.71.18-14.14.24-14.93,0,0,26.1-2.13,28.3-27.91,1.07-12.46,1.17-38.3,1-61.68a48.2,48.2,0,0,0-44.7-47.67l-2.48-.18C302.26,15.13,286.87,37.8,287.22,64.77Z"/><path class="cls-5" d="M347.12,153s-16.34-.24-32.87-12.39c0,0,6.82,19.45,32.73,19Z"/><path class="cls-6" d="M332.34,73.94c-.51.52-3.49-1.88-7.81-2s-7.54,2-8,1.45c-.22-.25.31-1.2,1.72-2.19a10.79,10.79,0,0,1,6.42-1.83,10.45,10.45,0,0,1,6.2,2.26C332.17,72.72,332.59,73.71,332.34,73.94Z"/><path class="cls-6" d="M331.43,82.87a3.49,3.49,0,0,1-3.62,3.27,3.34,3.34,0,0,1-3.36-3.4,3.49,3.49,0,0,1,3.61-3.27A3.34,3.34,0,0,1,331.43,82.87Z"/><path class="cls-6" d="M343.16,104c0-.23,2.49-.48,6.52-.7,1,0,2-.16,2.22-.84s0-1.83-.46-3L349,91.47c-3.36-11.28-5.71-20.52-5.25-20.66s3.54,8.91,6.9,20.19c.8,2.78,1.57,5.43,2.3,8,.3,1.18.86,2.53.24,4a2.55,2.55,0,0,1-1.78,1.36,6.69,6.69,0,0,1-1.73.11C345.65,104.38,343.16,104.21,343.16,104Z"/><path class="cls-6" d="M330.5,57.7c-.42,1-3.87.24-8,.45s-7.55,1.12-8,.2c-.21-.44.43-1.32,1.84-2.17a13.53,13.53,0,0,1,12.22-.5C330,56.42,330.68,57.24,330.5,57.7Z"/><path class="cls-6" d="M371.52,65.7c-.45.78-3.82-.08-7.91-.21s-7.47.4-7.9-.42c-.19-.39.48-1.09,1.91-1.71a14.34,14.34,0,0,1,6-1,14.71,14.71,0,0,1,6,1.48C371.07,64.58,371.72,65.33,371.52,65.7Z"/><path class="cls-4" d="M287.94,84c-.43-.23-17.35-6.54-18.08,11.14s17.18,14.76,17.23,14.26S287.94,84,287.94,84Z"/><path class="cls-5" d="M282,102.51c-.08-.06-.32.2-.85.42a3.12,3.12,0,0,1-2.31-.05c-1.84-.76-3.29-3.79-3.24-7a10.24,10.24,0,0,1,1-4.38A3.57,3.57,0,0,1,279,89.25a1.57,1.57,0,0,1,1.79.92c.22.51.09.85.18.89s.39-.28.28-1a2,2,0,0,0-.65-1.14,2.37,2.37,0,0,0-1.69-.52A4.37,4.37,0,0,0,275.6,91a10.71,10.71,0,0,0-1.27,4.89c0,3.57,1.66,7,4.18,7.82a3.34,3.34,0,0,0,2.84-.35C281.92,102.93,282,102.54,282,102.51Z"/><path class="cls-6" d="M339,116.23c.19-.45-3.28-1.49-5.71-4.74a19.92,19.92,0,0,1-2.45-4.61c-.51-1.29-.9-2.09-1.1-2s-.13.92.15,2.32a13.12,13.12,0,0,0,2.28,5.17,10.58,10.58,0,0,0,4.52,3.46C338,116.35,338.94,116.38,339,116.23Z"/><path class="cls-6" d="M410.65,40.23a4.17,4.17,0,0,0-2-2.44c-2-1.19-4.34-1-6.59-1.07a37.13,37.13,0,0,1-19.39-5.89,86.71,86.71,0,0,0-9-10.93c-7.82-8.06-14.25-13.54-20.9-16.22-8.6-3.47-23-4.87-32-2.52S303.8,10.8,302.56,20c-5-4.26-12.59-4.22-18.71-1.76l-.16-.07C276.87,20.6,273,27.81,271,34.76s-2.87,14.4-6.56,20.64c-.77,1.3-1.68,2.87-1,4.22a2.88,2.88,0,0,0,3,1.32,8.55,8.55,0,0,0,3.18-1.44L267.32,65a16.08,16.08,0,0,0,7.42-.49c1.45,6.51,3.18,13.94,4.85,18.35,2.86,0,5.47.19,7.23,1.78,2.38,2.14,3.45,6.19,7.42,4.65,2-.78,3.87-5,4.55-7.08a100.46,100.46,0,0,0,4.35-42.59,32.56,32.56,0,0,1,10-7.21l-.3.28c7.2-2.5,15.35-5,22.19-1.58,5.3,2.62,8.42,8.12,12.38,12.51a40.48,40.48,0,0,0,28.85,13.33c.38,7.26-.23,17.52.15,24.78l6.11-11.63v.06c.5-.85.92-1.71,1.32-2.57l.14-.26v0A45.24,45.24,0,0,1,386,63.12l.07.07c3.93,3.47,9.73-1.84,6.62-6.07a9.94,9.94,0,0,0-2.19-2.2,7.19,7.19,0,0,0,6.84,1.77,5.64,5.64,0,0,0,4-5.57,4.8,4.8,0,0,0-2.86-3.84,16.12,16.12,0,0,0,9.2-2C409.48,44.22,411.27,42.52,410.65,40.23Z"/><path class="cls-7" d="M310.67,23a21.07,21.07,0,0,0-2.58,2.36,18.46,18.46,0,0,0-4,8.56,32.38,32.38,0,0,0-.66,6.56c0,2.37.18,4.92.36,7.6a66.92,66.92,0,0,1,.2,8.45,30.28,30.28,0,0,1-.59,4.47,9.24,9.24,0,0,1-1.82,4.32A3.9,3.9,0,0,1,298,66.5a5.85,5.85,0,0,1-3.27-1.85c-1.66-1.94-2.07-4.4-2.49-6.56l.55.06a22,22,0,0,1-3.14,5.41,7.72,7.72,0,0,1-5,2.73,5,5,0,0,1-2.66-.47,4.24,4.24,0,0,1-1.8-1.78,4.37,4.37,0,0,1-.55-2.28,3.18,3.18,0,0,1,.83-2l.27.25a16.64,16.64,0,0,1-5.54,4.15,14.62,14.62,0,0,1-1.72.67,2.44,2.44,0,0,1-.61.15,2.58,2.58,0,0,1,.58-.25c.38-.15.95-.38,1.66-.74a17.31,17.31,0,0,0,5.35-4.22l.27.24a3.33,3.33,0,0,0-.17,3.83,3.91,3.91,0,0,0,1.64,1.58,4.43,4.43,0,0,0,2.41.39,7.21,7.21,0,0,0,4.65-2.59,21.22,21.22,0,0,0,3-5.29l.38-.83.17.89c.41,2.17.85,4.52,2.36,6.27a5.18,5.18,0,0,0,2.93,1.65,3.29,3.29,0,0,0,3.1-1,8.91,8.91,0,0,0,1.68-4.05,29.92,29.92,0,0,0,.58-4.37,70.29,70.29,0,0,0-.16-8.39c-.17-2.68-.34-5.23-.31-7.64a32.26,32.26,0,0,1,.74-6.64,18.33,18.33,0,0,1,4.2-8.63A10.45,10.45,0,0,1,310.67,23Z"/><path class="cls-7" d="M390.45,48s-.06.07-.2.18-.39.28-.65.47a9.53,9.53,0,0,1-1.09.7,14,14,0,0,1-1.57.82,22.85,22.85,0,0,1-11,2,29.3,29.3,0,0,1-15.56-5.75C355.19,42.74,350.66,37.29,347,31c-1.88-3.12-3.41-6.33-5.09-9.28a34.14,34.14,0,0,0-5.77-7.85,17.51,17.51,0,0,0-7.43-4.51,12.4,12.4,0,0,0-3.92-.46,14.12,14.12,0,0,0-3.58.69,15,15,0,0,0-5.38,3.24,14.77,14.77,0,0,0-2.91,3.78,17.91,17.91,0,0,0-1.33,3.86,1.1,1.1,0,0,1,0-.27c0-.21.07-.47.12-.79a12.91,12.91,0,0,1,1-2.91,14.53,14.53,0,0,1,2.89-3.91A15.12,15.12,0,0,1,321,9.23a14,14,0,0,1,3.7-.75,13.08,13.08,0,0,1,4.08.43,18.09,18.09,0,0,1,7.68,4.6,34.28,34.28,0,0,1,5.89,8c1.71,3,3.24,6.18,5.1,9.27,3.66,6.2,8.12,11.6,13.18,15.27a29,29,0,0,0,15.26,5.77A23.21,23.21,0,0,0,386.84,50,34.59,34.59,0,0,0,390.45,48Z"/><path class="cls-7" d="M392.8,36.71a4.47,4.47,0,0,1-.92.64,19.89,19.89,0,0,1-2.74,1.39,26.27,26.27,0,0,1-4.34,1.43,30.06,30.06,0,0,1-5.54.73,30.9,30.9,0,0,1-5.59-.38,26.24,26.24,0,0,1-4.41-1.14,20.77,20.77,0,0,1-2.83-1.21,4,4,0,0,1-1-.59c0-.1,1.47.63,3.92,1.39a29.4,29.4,0,0,0,4.37,1,32.81,32.81,0,0,0,5.48.33,33,33,0,0,0,5.44-.68,30.83,30.83,0,0,0,4.3-1.27C391.37,37.43,392.74,36.61,392.8,36.71Z"/><path class="cls-6" d="M371.72,75.57c-.52.52-3.49-1.88-7.81-2s-7.55,2-8,1.44c-.22-.25.31-1.2,1.72-2.19A10.84,10.84,0,0,1,364.05,71a10.42,10.42,0,0,1,6.19,2.26C371.54,74.35,372,75.33,371.72,75.57Z"/><path class="cls-6" d="M367.31,84.13a3.5,3.5,0,0,1-3.62,3.27A3.35,3.35,0,0,1,360.33,84,3.5,3.5,0,0,1,364,80.72,3.35,3.35,0,0,1,367.31,84.13Z"/><path class="cls-4" d="M533.83,177.66c0-7.5-7.16-7.5-7.16-7.5-2.72-3.58-5.79-2.28-5.79-2.28l-11.59,7.82c-1.71,2.93-13,14-13,14-3.06-2.28-3.06-6.84-6.74-12.38s-12-4.89-12-4.89,6.47,14.66,7.15,23.78-5,34.56-5,34.56L512.53,240s2.07-14,5.74-15.08c4.42-1.36,6.88-7.88,6.88-7.88,4.78-9.68,14.48-23.74,15.84-30.91S533.83,177.66,533.83,177.66Z"/><path class="cls-8" d="M284.75,162.22c20.87,13.11,41.9,18.05,63.2,9.55L380,180l31.5,210.49-184.72,1.61,9.1-48.89,22.9-175.66Z"/><path class="cls-8" d="M380,180s24.9,10.34,34.41,28.46,24.78,69,24.78,69l28.15-51.68,52.23,13.35s-38.88,107.24-48.64,117c-10.69,10.69-39.81,21.46-54.07,13.15s-17.16-39.89-17.16-39.89Z"/><path class="cls-8" d="M381.69,268c-.14,0-.26-9.35-.26-20.88s.12-20.88.26-20.88.26,9.35.26,20.88S381.84,268,381.69,268Z"/><path class="cls-8" d="M391.44,192a29.25,29.25,0,0,1-1.21,3.45c-.78,2.11-1.83,5-2.84,8.33s-1.82,6.29-2.37,8.48a28.19,28.19,0,0,1-.94,3.53,3.28,3.28,0,0,1,.1-1c.09-.63.26-1.53.49-2.63.45-2.22,1.2-5.26,2.22-8.56s2.12-6.22,3-8.31c.43-1,.8-1.88,1.08-2.45A3.68,3.68,0,0,1,391.44,192Z"/><path class="cls-8" d="M255.38,246.33,261.16,167s-43.48,4-57.87,34.7C191.17,227.57,157.7,305.35,154.12,316c-10.52,31.22,5.9,74.14,73.61,71.65l7.72-42.44Z"/><path class="cls-8" d="M206.7,354.05a4,4,0,0,1,.35-.76l1.1-2.14,4.15-7.8c.44-.82.9-1.69,1.39-2.58a7.6,7.6,0,0,1,2-2.56,5.42,5.42,0,0,1,3.35-1,15.53,15.53,0,0,1,3.6.58,37.19,37.19,0,0,1,7.28,2.76,18.83,18.83,0,0,1,3.49,2.22l.4.35a1.33,1.33,0,0,1,.35.54,4.79,4.79,0,0,1,.22,1.09,17.18,17.18,0,0,1,0,2.15,83,83,0,0,1-.82,8.3c-.36,2.66-.77,5.22-1.18,7.66-.82,4.86-1.63,9.23-2.34,12.9s-1.28,6.57-1.69,8.67c-.2,1-.35,1.77-.47,2.35a7.47,7.47,0,0,1-.17.82,3.25,3.25,0,0,1,.07-.83c.07-.55.19-1.35.37-2.38l1.53-8.7c.66-3.67,1.44-8.05,2.23-12.91.39-2.44.79-5,1.15-7.65s.7-5.42.8-8.24a16.13,16.13,0,0,0,0-2.09,4.19,4.19,0,0,0-.19-1,.89.89,0,0,0-.21-.34l-.38-.33a19,19,0,0,0-3.4-2.17,37.13,37.13,0,0,0-7.16-2.74,14.49,14.49,0,0,0-3.49-.59,5,5,0,0,0-3.08.85A7.32,7.32,0,0,0,214,341l-1.42,2.57-4.29,7.72-1.19,2.09A7.54,7.54,0,0,1,206.7,354.05Z"/><path class="cls-8" d="M175.25,316.37a1.93,1.93,0,0,1,.52,0l1.46.05c1.26.06,3.09.17,5.35.38a69.07,69.07,0,0,1,7.9,1.15,40.12,40.12,0,0,1,9.29,3.08,36.3,36.3,0,0,1,8.17,5.39,21.89,21.89,0,0,1,5,6.26,14,14,0,0,1,1.5,5.18,9.41,9.41,0,0,1,0,1.46,2.48,2.48,0,0,1,0,.51c-.06,0,0-.7-.19-1.95a14.67,14.67,0,0,0-1.63-5,22.09,22.09,0,0,0-4.95-6.07,36.65,36.65,0,0,0-8.08-5.28,41.17,41.17,0,0,0-9.16-3.08,75.1,75.1,0,0,0-7.83-1.25c-2.25-.26-4.08-.42-5.34-.55l-1.45-.15A1.85,1.85,0,0,1,175.25,316.37Z"/><path class="cls-8" d="M221.78,312.37a20.28,20.28,0,0,1-1.08,3.12c-.75,1.9-1.86,4.49-3.13,7.32s-2.37,5.26-3.26,7.25a24.24,24.24,0,0,1-1.42,3,17.87,17.87,0,0,1,1.08-3.12c.74-1.9,1.85-4.49,3.12-7.32s2.37-5.26,3.27-7.25A22.55,22.55,0,0,1,221.78,312.37Z"/><path class="cls-8" d="M245.84,249.94c-.15,0-.26-5-.26-11.22s.11-11.23.26-11.23.26,5,.26,11.23S246,249.94,245.84,249.94Z"/><g class="cls-9"><path class="cls-8" d="M214.39,339.82c-11.44,4-19.17,14.37-22.3,26.08-.32,1.22-.54,2.67.28,3.64a2.86,2.86,0,0,0,3.59.29,8.42,8.42,0,0,0,2.55-2.93c5.51-8.82,10.89-17,15.88-27.08Z"/></g><g class="cls-9"><path class="cls-8" d="M200.2,317.19c-6-3.32-12.86-4.75-19.69-5.16a30,30,0,0,0-8,.7c-3.57.75-7.68,2.55-8.46,5.12,8.21-2.57,20.3-.88,28.7,1A30.82,30.82,0,0,1,212.89,333,28.71,28.71,0,0,0,200.2,317.19Z"/></g><path class="cls-8" d="M239.44,216.17a7.44,7.44,0,0,1-.4-1.25c-.21-.82-.56-2-1-3.41a54.9,54.9,0,0,0-11.82-20.08c-1-1.11-1.87-2-2.47-2.56a6.29,6.29,0,0,1-.91-1,5.43,5.43,0,0,1,1,.81c.65.54,1.55,1.37,2.61,2.45a50.35,50.35,0,0,1,7.17,9.4,49.77,49.77,0,0,1,4.73,10.83,35.21,35.21,0,0,1,.88,3.47A6.11,6.11,0,0,1,239.44,216.17Z"/><path class="cls-10" d="M255.41,392,207,275.12c-2.21-5.33.56-9.66,6.2-9.66h9.74c4,0,6.69-2.19,6.95-5.61l.32-4.29c.26-3.43,3-5.62,7-5.62h46.32a16.22,16.22,0,0,1,10.72,4.75l3.76,3.64a16.2,16.2,0,0,0,10.72,4.75h59c5.63,0,11.94,4.32,14.09,9.66l48,119.28Z"/><path class="cls-11" d="M255.41,392,207,275.12c-2.21-5.33.56-9.66,6.2-9.66h9.74c4,0,6.69-2.19,6.95-5.61l.32-4.29c.26-3.43,3-5.62,7-5.62h46.32a16.22,16.22,0,0,1,10.72,4.75l3.76,3.64a16.2,16.2,0,0,0,10.72,4.75h59c5.63,0,11.94,4.32,14.09,9.66l48,119.28Z"/><path class="cls-3" d="M247.4,352.32l-18.27-70.65c-1.2-4.65,1.85-9.32,6.09-9.32H378.44a6.54,6.54,0,0,1,6.1,5.26L411.14,384c1.17,4.67-.7,7.47-4.94,7.42l-144.11,0a6.52,6.52,0,0,1-6-5.22Z"/><path class="cls-12" d="M257.3,388.82l-7.78-111.26a6.82,6.82,0,0,1,6.8-7.3H404.73V388.82Z"/><path class="cls-13" d="M255.64,391.37l17.66-114.7a8.21,8.21,0,0,1,8.07-6.41H431.49a8.12,8.12,0,0,1,7.58,11.31l-32.42,105Z"/><path class="cls-11" d="M255.41,392l36.41-107.43A10.78,10.78,0,0,1,302,277.08H456.71a7.55,7.55,0,0,1,6.91,10L429.76,392Z"/><g class="cls-9"><path d="M330.24,374s-5.84.27-8.54.45a79.5,79.5,0,0,1-37.6-6.67c-3.64-1.62-7.49-3.91-8.6-7.74-1.23-4.3,1.55-8.76,4.94-11.67s7.51-5,10.45-8.34,4.33-8.79,1.43-12.19l-.8.59c-2.09,5.3-7.92,7.86-12.75,10.89A45,45,0,0,0,259.87,364c-1.7,5.56-2.15,12,1.22,16.78,2.39,3.36,6.31,5.27,10.18,6.71C283,391.84,295.49,392,308,392c3.94,0,16-.16,16-.16,3.81-1,5.06-3,7.36-6.23C333.49,382.68,333,376.29,330.24,374Z"/></g><path class="cls-4" d="M330.24,374l-40.36-6.07-15.68-9a7.08,7.08,0,0,1-3.6-5.69.57.57,0,0,0,0-.13,7.16,7.16,0,0,1,4.44-6.83c5-2.1,12.85-4.88,16.21-10.77,4.82-8.46,0-10.21,0-10.21l-33.71,13.47L233.67,355l-4.8,27.08,33.29,10.88s37.1,2.09,47.34.94S319.73,388,319.73,388c1.9-.59,5.75-4,5.75-7.11,5-4.66,4.76-6.86,4.76-6.86"/><path class="cls-5" d="M278.61,385.64a7.82,7.82,0,0,1,1.66.31c1.06.26,2.59.6,4.49,1a98.7,98.7,0,0,0,15,1.79,97.66,97.66,0,0,0,15.11-.62c1.93-.23,3.48-.45,4.55-.62a9.41,9.41,0,0,1,1.69-.19,7.48,7.48,0,0,1-1.64.45c-1.06.26-2.61.55-4.53.84a81.58,81.58,0,0,1-30.3-1.18c-1.9-.44-3.42-.85-4.46-1.19A9.43,9.43,0,0,1,278.61,385.64Z"/><path class="cls-5" d="M282.3,379.4a7.93,7.93,0,0,1,1.69.32c1.07.26,2.63.59,4.56,1a98.48,98.48,0,0,0,15.25,1.68,103.33,103.33,0,0,0,15.35-.7c2-.24,3.53-.46,4.62-.64a7.68,7.68,0,0,1,1.71-.19,8.29,8.29,0,0,1-1.66.46c-1.08.25-2.65.55-4.61.85a86.35,86.35,0,0,1-15.43.91,82.8,82.8,0,0,1-15.33-1.9c-1.93-.43-3.48-.84-4.53-1.18A9.25,9.25,0,0,1,282.3,379.4Z"/><path class="cls-12" d="M525.78,229.33,454.06,243.5a9.15,9.15,0,0,1-10.75-7.2L423.71,137a9.14,9.14,0,0,1,7.2-10.75l45.48-9,42.38,29.33,14.21,72A9.15,9.15,0,0,1,525.78,229.33Z"/><path class="cls-14" d="M476.39,117.3l5.52,27.94a8.5,8.5,0,0,0,10,6.69l26.87-5.3Z"/><path class="cls-3" d="M482.76,147.62s1,6.84,9.14,7.55c.3,0,.61,0,.92,0,3.63-.07,27.53-.52,27.43-1.05s-1.48-7.51-1.48-7.51l-26.87,5.31S485.15,153,482.76,147.62Z"/><path class="cls-6" d="M525.78,229.33l.38-.11a7.12,7.12,0,0,0,1.13-.37,9.07,9.07,0,0,0,5.68-9.67c-.53-2.91-1.24-6.26-2-10l-12.44-62.49.09.13L476.25,117.5l.19,0-26.25,5.19-13.72,2.72-3.49.69a22.55,22.55,0,0,0-3.43.81,8.87,8.87,0,0,0-5,4.65,8.74,8.74,0,0,0-.72,4.75c.25,1.61.62,3.26.93,4.88l1.91,9.68q1.91,9.61,3.74,18.93c2.44,12.41,4.8,24.39,7.05,35.79q1.68,8.56,3.28,16.67c.53,2.7,1.06,5.36,1.57,8,.26,1.32.51,2.62.77,3.9a20.45,20.45,0,0,0,.91,3.76,8.93,8.93,0,0,0,8.79,5.5,33.73,33.73,0,0,0,3.55-.6l13.54-2.66,40.87-8,11.11-2.14,2.9-.55,1-.17s-.33.09-1,.22l-2.89.6-11.09,2.24L470,240.54l-13.53,2.69a32,32,0,0,1-3.61.62,9.29,9.29,0,0,1-3.72-.53,9.43,9.43,0,0,1-5.49-5.22,20.79,20.79,0,0,1-.94-3.83l-.78-3.9c-.52-2.62-1-5.28-1.58-8L437,205.73c-2.26-11.41-4.63-23.38-7.08-35.79L426.2,151l-1.91-9.68c-.31-1.64-.67-3.23-.94-4.92a9.28,9.28,0,0,1,.76-5,9.44,9.44,0,0,1,5.26-4.92,22.85,22.85,0,0,1,3.51-.83l3.49-.69,13.72-2.71,26.25-5.18.11,0,.08.06,42.36,29.36.07.05,0,.09c5.09,26,9.31,47.5,12.26,62.53.72,3.76,1.41,7.1,1.92,10a9.22,9.22,0,0,1-2.06,7.09,9.12,9.12,0,0,1-3.78,2.67,6.77,6.77,0,0,1-1.15.34Z"/><path class="cls-6" d="M518.77,146.63a3.7,3.7,0,0,1-.68.19l-2,.44-7.26,1.52L498.08,151l-6.38,1.26a8.72,8.72,0,0,1-6.78-1.68,8.87,8.87,0,0,1-2.36-2.75,10.1,10.1,0,0,1-1.06-3.33c-.44-2.21-.85-4.34-1.25-6.38-.78-4.05-1.48-7.71-2.08-10.8s-1-5.51-1.35-7.29c-.14-.83-.26-1.49-.34-2a3.09,3.09,0,0,1-.09-.7,3.39,3.39,0,0,1,.19.68c.11.5.26,1.15.44,2,.37,1.77.88,4.24,1.52,7.26s1.36,6.73,2.18,10.78c.41,2,.83,4.16,1.28,6.37a9.33,9.33,0,0,0,1,3.18,8.29,8.29,0,0,0,8.59,4.18l6.37-1.23,10.81-2.07,7.29-1.36,2-.34A5.54,5.54,0,0,1,518.77,146.63Z"/><path class="cls-6" d="M476.72,145.81c0,.14-8.42,1.92-18.87,4s-18.94,3.62-19,3.48,8.42-1.93,18.87-4S476.69,145.66,476.72,145.81Z"/><path class="cls-6" d="M497.53,153.89c0,.14-12.44,2.72-27.85,5.76s-27.92,5.4-27.94,5.26,12.43-2.72,27.84-5.77S497.5,153.75,497.53,153.89Z"/><path class="cls-6" d="M448.49,178.84c0-.14,12.44-2.72,27.84-5.76s27.92-5.4,27.95-5.26-12.44,2.73-27.85,5.77S448.52,179,448.49,178.84Z"/><path class="cls-6" d="M503,181.76c0,.14-12.44,2.72-27.84,5.77s-27.92,5.39-27.95,5.25,12.44-2.72,27.85-5.76S503,181.62,503,181.76Z"/><path class="cls-6" d="M505.79,195.7c0,.14-12.44,2.72-27.85,5.76S450,206.86,450,206.72,462.43,204,477.84,201,505.76,195.56,505.79,195.7Z"/><rect class="cls-11" x="471.97" y="196.21" width="62.09" height="27.9" rx="4.22" transform="translate(-31.19 101.45) rotate(-11.17)"/><path class="cls-4" d="M514.5,155.46s5.29-6.7,9.37-3,2.9,5.67-1,11.6c0,0,8.65-.45,5.88,8.44,0,0,8.63-1,7.8,6.32,0,0,6.51,6.38,3.12,10.49S524,200.89,520.92,199.61s-3.13-5.67-3.13-5.67-3.69-1.66-4.71-3.61.73-4.67.73-4.67-3.11-3.18-3.88-4.07.42-5,.42-5l5-4.82s-6.84,3-8.27,1.84-3-2.12-1.5-4.19,6.95-6.69,6.95-6.69Z"/><path class="cls-5" d="M518.49,194.45a23.16,23.16,0,0,1,2.24-2.73,26.39,26.39,0,0,1,6.32-5.79,59.84,59.84,0,0,0,7.1-4.56,34.54,34.54,0,0,0,2.43-2.5,6.36,6.36,0,0,1-2,2.93c-1.58,1.58-4.25,3.12-7,4.83a31.5,31.5,0,0,0-6.33,5.49A11.46,11.46,0,0,1,518.49,194.45Z"/><path class="cls-5" d="M513.69,186.94c-.16-.16,3-3.59,7.1-7.67,2.05-2,3.81-4,5.32-5.14a6.45,6.45,0,0,1,2.67-1.58c.06.11-.94.72-2.28,2s-3,3.27-5.12,5.3C517.29,183.93,513.85,187.1,513.69,186.94Z"/><path class="cls-5" d="M515.32,171.76c-.16-.21,1.8-1.77,4-3.84s3.3-4.27,3.51-4.19-.61,2.61-2.93,4.78S515.44,171.91,515.32,171.76Z"/><path class="cls-5" d="M514.5,155.44a2.81,2.81,0,0,1-.09.49l-.34,1.42q-.51,2-1.39,5.39l0,0,0,0c-1,.88-2.12,1.89-3.34,3a30,30,0,0,0-3.69,3.95,2.11,2.11,0,0,0-.38,1.25,2,2,0,0,0,.67,1.17,14.24,14.24,0,0,0,1.22,1,1.89,1.89,0,0,0,1.38.27,26.47,26.47,0,0,0,6.71-2.08l1.6-.66-1.23,1.2-5,4.84.08-.1a6.31,6.31,0,0,0-.26,5,14.28,14.28,0,0,0,3.92,4l.34.26-.27.32c-1.08,1.27-1.85,3.29-.43,4.54a18.28,18.28,0,0,0,4.69,3.21l-.58.32v-.09s0,0,0,0h0c.1.12-.23-.29.23.35,1.12-.53.33-.22.57-.31h0v.59a7.35,7.35,0,0,0,.07.82,6.52,6.52,0,0,0,.43,1.57,4.08,4.08,0,0,0,.88,1.31,2.42,2.42,0,0,0,1.28.74,7.88,7.88,0,0,0,3.28-.64,30.34,30.34,0,0,0,3.25-1.47,53.09,53.09,0,0,0,5.78-3.49,33.88,33.88,0,0,0,5.06-4.16,4.14,4.14,0,0,0,1.32-2.6,6.28,6.28,0,0,0-.54-2.91,16.29,16.29,0,0,0-3.4-5l-.13-.13v-.19a6.16,6.16,0,0,0-.29-2.85,4.28,4.28,0,0,0-1.74-2.06,9.38,9.38,0,0,0-5.34-1l-.5,0,.12-.49c.13-.54.29-1.07.4-1.6a9.7,9.7,0,0,0,.12-1.59,4.42,4.42,0,0,0-.89-2.82,6.52,6.52,0,0,0-5.16-2h-.58l.31-.47a46.22,46.22,0,0,0,2.79-4.55,6.69,6.69,0,0,0,.71-2.25,3.68,3.68,0,0,0-.44-2.1,9.28,9.28,0,0,0-2.73-3,4,4,0,0,0-3.23-.33,10.79,10.79,0,0,0-4,2.52c-.41.37-.7.68-.9.88l-.31.3s.07-.14.24-.36a12,12,0,0,1,.85-1,13.62,13.62,0,0,1,1.55-1.37,8.27,8.27,0,0,1,2.5-1.35,4.38,4.38,0,0,1,3.54.3l.83.61.75.72a8.4,8.4,0,0,1,1.36,1.76,4.19,4.19,0,0,1,.54,2.36,7.37,7.37,0,0,1-.73,2.45,49.13,49.13,0,0,1-2.78,4.65l-.27-.47a9,9,0,0,1,3,.43,5.51,5.51,0,0,1,2.69,1.78,5.12,5.12,0,0,1,1.06,3.21,10.14,10.14,0,0,1-.12,1.73c-.12.56-.27,1.12-.41,1.69l-.38-.46a10.06,10.06,0,0,1,5.81,1.1,5,5,0,0,1,2.06,2.42,7,7,0,0,1,.35,3.21l-.11-.32a17.22,17.22,0,0,1,3.6,5.19,7.17,7.17,0,0,1,.6,3.3,5.12,5.12,0,0,1-.49,1.69,7,7,0,0,1-1,1.39,33.91,33.91,0,0,1-5.18,4.27,53.89,53.89,0,0,1-5.87,3.56,29.52,29.52,0,0,1-3.35,1.5,8.3,8.3,0,0,1-3.68.68,4.08,4.08,0,0,1-2.79-2.54,7.05,7.05,0,0,1-.48-1.77,9,9,0,0,1-.09-.91v-.74h0c.24-.09-.55.22.57-.31.47.64.13.23.24.35v.23l0,.61-.53-.28a19.22,19.22,0,0,1-4.92-3.4,3.81,3.81,0,0,1-.84-1.35,3.12,3.12,0,0,1-.07-1.6,6.19,6.19,0,0,1,1.35-2.65l.07.58a14.71,14.71,0,0,1-4.14-4.29,5.3,5.3,0,0,1-.46-2.94,9.12,9.12,0,0,1,.73-2.73l0-.06.06,0,5-4.81.37.55a27.06,27.06,0,0,1-6.94,2.07,2.46,2.46,0,0,1-1.78-.41,12.73,12.73,0,0,1-1.26-1.07,2.53,2.53,0,0,1-.81-1.52,2.64,2.64,0,0,1,.47-1.59,28.9,28.9,0,0,1,3.84-4q1.86-1.68,3.41-3l-.06.09c.67-2.29,1.19-4.09,1.57-5.38l.42-1.38C514.43,155.58,514.48,155.43,514.5,155.44Z"/><text class="cls-15" transform="translate(481.34 220.29) rotate(-11.17)"><tspan class="cls-16">W</tspan><tspan x="14.17" y="0">ORD</tspan></text><path class="cls-12" d="M656.29,362.72H594.67A7.71,7.71,0,0,1,587,355V269.72a7.71,7.71,0,0,1,7.71-7.71h39.08L664,293.19V355A7.72,7.72,0,0,1,656.29,362.72Z"/><path class="cls-14" d="M633.75,262v24a7.17,7.17,0,0,0,7.17,7.17H664Z"/><path class="cls-3" d="M634.07,288.12s-.31,5.82,6.32,7.74c.25.07.51.12.76.17,3,.54,22.85,4.07,22.85,3.61v-6.45H640.92S635.16,293,634.07,288.12Z"/><path class="cls-6" d="M656.29,362.72s.47,0,1.34-.15a7.72,7.72,0,0,0,3.49-1.63,7.6,7.6,0,0,0,2.76-5.44c0-2.49,0-5.37,0-8.6,0-12.91,0-31.39-.09-53.71l.06.15-30.28-31.16.18.08H596.41a20.65,20.65,0,0,0-3,.11,7.48,7.48,0,0,0-4.84,3,7.35,7.35,0,0,0-1.36,3.79c0,1.37,0,2.8,0,4.18V298c0,10.66,0,21,0,30.75q0,7.35,0,14.32v6.86c0,1.12,0,2.24,0,3.35a18.17,18.17,0,0,0,.14,3.24,7.53,7.53,0,0,0,3.5,5,7.32,7.32,0,0,0,2.84,1,25.38,25.38,0,0,0,3,.08l11.63,0,35.1.08,9.55.05,2.48,0,.84,0-.84,0-2.48,0-9.55,0-35.1.09H596.69a26.86,26.86,0,0,1-3.09-.07,7.92,7.92,0,0,1-6.7-6.29,17.68,17.68,0,0,1-.16-3.32v-3.35c0-2.26,0-4.54,0-6.86q0-7,0-14.32c0-9.8,0-20.09,0-30.75q0-8,0-16.27v-8.32c0-1.4,0-2.78,0-4.22a7.94,7.94,0,0,1,6.64-7.28,19.57,19.57,0,0,1,3-.12h37.45l.07.08L664.16,293l.06.06v.09c0,22.32-.07,40.8-.09,53.71,0,3.23,0,6.1,0,8.61a7.8,7.8,0,0,1-2.87,5.53,7.7,7.7,0,0,1-3.57,1.59,4.72,4.72,0,0,1-1,.09Z"/><path class="cls-6" d="M664,293.19a2.08,2.08,0,0,1-.59.05l-1.7.05-6.25.08-9.27.06H640.7a7.42,7.42,0,0,1-5.35-2.51,7.32,7.32,0,0,1-1.51-2.67,8.36,8.36,0,0,1-.34-2.95c0-1.89,0-3.72,0-5.47,0-3.48,0-6.61.06-9.28s.06-4.7.08-6.25c0-.69,0-1.25.05-1.7a3.86,3.86,0,0,1,0-.59,2.27,2.27,0,0,1,.06.59l0,1.7c0,1.55,0,3.67.09,6.25s0,5.8,0,9.28c0,1.75,0,3.58,0,5.47a8.16,8.16,0,0,0,.32,2.79,7,7,0,0,0,1.41,2.48,6.9,6.9,0,0,0,5,2.35l5.47,0,9.27.05,6.25.09,1.7.05A2.08,2.08,0,0,1,664,293.19Z"/><path class="cls-6" d="M632.59,283.43c0,.14-7.28.26-16.26.26s-16.25-.12-16.25-.26,7.27-.26,16.25-.26S632.59,283.29,632.59,283.43Z"/><path class="cls-6" d="M648,295.41c0,.14-10.73.26-24,.26s-24-.12-24-.26,10.73-.26,24-.26S648,295.26,648,295.41Z"/><path class="cls-6" d="M648,307.38c0,.14-10.73.26-24,.26s-24-.12-24-.26,10.73-.26,24-.26S648,307.24,648,307.38Z"/><path class="cls-6" d="M648,319.35c0,.15-10.73.27-24,.27s-24-.12-24-.27,10.73-.26,24-.26S648,319.21,648,319.35Z"/><path class="cls-6" d="M648,331.33c0,.14-10.73.26-24,.26s-24-.12-24-.26,10.73-.26,24-.26S648,331.19,648,331.33Z"/><path class="cls-6" d="M648,346.1c0,.14-10.73.26-24,.26s-24-.12-24-.26,10.73-.26,24-.26S648,346,648,346.1Z"/><rect class="cls-11" x="573.14" y="322.58" width="52.34" height="23.52" rx="4.22"/><path class="cls-1" d="M579.21,330.25h4c2.9,0,4.9,1.75,4.9,4.44s-2,4.45-4.9,4.45h-4Zm3.93,7.2a2.76,2.76,0,1,0,0-5.51h-1.88v5.51Z"/><path class="cls-1" d="M589.13,334.69a4.87,4.87,0,1,1,4.87,4.6A4.6,4.6,0,0,1,589.13,334.69Zm7.65,0a2.78,2.78,0,1,0-2.78,2.85A2.71,2.71,0,0,0,596.78,334.69Z"/><path class="cls-1" d="M599.85,334.69a4.56,4.56,0,0,1,4.82-4.59,4.61,4.61,0,0,1,3.66,1.57L607,332.89a2.89,2.89,0,0,0-2.24-1,2.85,2.85,0,0,0,0,5.69,2.85,2.85,0,0,0,2.24-1.06l1.32,1.22a4.88,4.88,0,0,1-8.48-3Z"/><path class="cls-1" d="M615.13,339.14,613,336.05l-2.1,3.09h-2.37l3.29-4.52-3.12-4.37H611l2,2.88,2-2.88h2.23l-3.1,4.29,3.31,4.6Z"/><path class="cls-6" d="M667.72,392c0,.14-149.48.26-333.84.26S0,392.16,0,392s149.45-.26,333.88-.26S667.72,391.87,667.72,392Z"/></g></g></svg>