<svg xmlns="http://www.w3.org/2000/svg" viewBox="0 0 396.36 457.87"><defs><style>.cls-1{fill:#e0e0e0;}.cls-2{fill:#effffc;}.cls-2,.cls-5,.cls-6,.cls-9{stroke:#272425;stroke-miterlimit:10;stroke-width:0.25px;}.cls-3{fill:#f5f5f5;}.cls-4{fill:#263238;}.cls-5{fill:#5b3296;}.cls-6{fill:#9a80fa;}.cls-7{fill:#fff;}.cls-8{opacity:0.3;}.cls-9{fill:#0c0b16;}.cls-10{fill:#ffbe9d;}.cls-11{fill:#eb996e;}.cls-12{opacity:0.6;}.cls-13{fill:#455a64;}</style></defs><g id="Capa_2" data-name="Capa 2"><g id="Character"><path class="cls-1" d="M237.14,445.78c0,2.74-17.44,5-39,5s-39-2.22-39-5,17.45-4.95,39-4.95S237.14,443.05,237.14,445.78Z"/><path class="cls-2" d="M121.49,124.71a42.36,42.36,0,0,1,10.31-4.48l2.13-10.2,17.24-.31,2.48,10.13A42.37,42.37,0,0,1,164.12,124l8.71-5.71,12.41,12-5.4,8.91a42.36,42.36,0,0,1,4.48,10.31l10.2,2.13.31,17.24L184.7,171.3a42.31,42.31,0,0,1-4.11,10.46l5.71,8.72-12,12.41-8.91-5.41A42,42,0,0,1,155.1,202L153,212.17l-17.24.3-2.48-10.12a41.8,41.8,0,0,1-10.46-4.12l-8.72,5.71-12.41-12,5.41-8.91a42.08,42.08,0,0,1-4.49-10.32l-10.2-2.12-.3-17.24,10.12-2.49a42.1,42.1,0,0,1,4.12-10.46l-5.72-8.71,12-12.41,8.91,5.4Zm9.2,23a18.5,18.5,0,1,0,26.16-.46A18.49,18.49,0,0,0,130.69,147.68Z"/><path class="cls-2" d="M222.91,154.8a32.32,32.32,0,0,1,8.4-1.7l3.21-7.27,12.91,2.51.24,7.95a32.19,32.19,0,0,1,7.14,4.73l7.41-2.87,7.34,10.9-5.44,5.78a32.4,32.4,0,0,1,1.7,8.41l7.27,3.2-2.52,12.91-7.94.24a31.89,31.89,0,0,1-4.74,7.14l2.88,7.41-10.91,7.34L244.08,216a32.32,32.32,0,0,1-8.4,1.7L232.47,225l-12.9-2.52-.24-7.94a32.25,32.25,0,0,1-7.15-4.73l-7.4,2.87-7.35-10.91,5.45-5.78a31.84,31.84,0,0,1-1.7-8.4l-7.28-3.21,2.52-12.9,8-.24a32.13,32.13,0,0,1,4.73-7.15l-2.87-7.4,10.9-7.35,5.78,5.45Zm3.2,18.59a14.1,14.1,0,1,0,19.58,3.81A14.1,14.1,0,0,0,226.11,173.39Z"/><path class="cls-3" d="M284.13,109.34a61.83,61.83,0,0,0-13.64-21.26c-10.32-10.53-22.06-19.86-35.36-26.4s-35-12.34-50.77-12.25c-8.15-.31-12.27.2-19.69,3.06-4.64,1.79-8.53,5.92-8.85,10.82-.3,4.53,2.5,10.1,6.25,12.74C178.15,87.38,190.33,88,205.92,93s31.64,12.39,40.06,26.26c4.56,7.53,7.16,17.16,15.08,21.16,7.68,3.87,17.81.11,22.52-7S287.16,117.3,284.13,109.34Z"/><path class="cls-1" d="M70.32,251.63s-.39.23-1.16.65-1.94,1-3.42,1.89a126.52,126.52,0,0,0-12.58,8.19A129,129,0,0,0,35.42,278.1a125.42,125.42,0,0,0-9.5,11.37,83,83,0,0,0-8.63,14.16A65.54,65.54,0,0,0,14.07,312a48.53,48.53,0,0,0-1.78,9.13,35.2,35.2,0,0,0,.52,9.63,32.87,32.87,0,0,0,1.32,4.8,31.13,31.13,0,0,0,2.15,4.57,39.74,39.74,0,0,0,15,14.51,63.4,63.4,0,0,0,21.19,7.07c3.8.64,7.68,1.06,11.61,1.36,2,.17,4,.24,5.94.32l6,.26c2,.13,4,.09,6.08.09l6.15,0c2.06,0,4.12-.13,6.2-.21l6.25-.29A311.86,311.86,0,0,0,152,355.48c34.69-8.07,66.41-20.62,94.33-33.66,14-6.46,27.06-13.22,38.09-21.39a95.32,95.32,0,0,0,14.66-13.26l1.56-1.79c.52-.59,1-1.22,1.46-1.83l1.44-1.83,1.3-1.88a43.2,43.2,0,0,0,4.47-7.71,36.09,36.09,0,0,0,3.5-16,19.49,19.49,0,0,0-5.54-13.27,21.71,21.71,0,0,0-11.34-5.6,30.8,30.8,0,0,0-10.76,0,51.23,51.23,0,0,0-8.36,2.21c-2.37.82-4.33,1.64-5.91,2.3l-3.59,1.54-1.23.52s.4-.2,1.2-.57l3.57-1.59c1.58-.67,3.54-1.51,5.91-2.35a51.68,51.68,0,0,1,8.38-2.26A30.93,30.93,0,0,1,296,237a21.94,21.94,0,0,1,11.49,5.64,19.85,19.85,0,0,1,5.67,13.46,36.42,36.42,0,0,1-3.49,16.2,44.49,44.49,0,0,1-4.49,7.78L303.88,282l-1.44,1.84c-.48.61-.95,1.25-1.46,1.85l-1.57,1.79a95.69,95.69,0,0,1-14.71,13.35c-11.05,8.21-24.15,15-38.14,21.48-27.93,13.06-59.67,25.65-94.41,33.72s-69.1,10.38-99.72,6.16A64.09,64.09,0,0,1,31.08,355,40.23,40.23,0,0,1,15.9,340.3a31.64,31.64,0,0,1-2.17-4.65,33.9,33.9,0,0,1-1.33-4.85,35.75,35.75,0,0,1-.51-9.76,49.29,49.29,0,0,1,1.81-9.2A67.92,67.92,0,0,1,17,303.47a84.48,84.48,0,0,1,8.7-14.2A127.28,127.28,0,0,1,35.2,277.9,128.59,128.59,0,0,1,53,262.19a121.62,121.62,0,0,1,12.65-8.11C68.69,252.4,70.32,251.63,70.32,251.63Z"/><path class="cls-4" d="M396.36,437.5c0,.15-88.73.26-198.17.26S0,437.65,0,437.5s88.72-.26,198.19-.26S396.36,437.36,396.36,437.5Z"/><path class="cls-5" d="M48.26,127.12l.72,1.2a8.21,8.21,0,0,0,3.4,3.13l1.25.62-1.2.72a8.32,8.32,0,0,0-3.13,3.39l-.62,1.26-.72-1.2a8.25,8.25,0,0,0-3.39-3.13l-1.26-.62,1.2-.72a8.25,8.25,0,0,0,3.13-3.39Z"/><path class="cls-5" d="M307.83,258.82l.72,1.2a8.19,8.19,0,0,0,3.4,3.12l1.25.62-1.2.72a8.19,8.19,0,0,0-3.12,3.4l-.62,1.25-.73-1.2a8.16,8.16,0,0,0-3.39-3.12l-1.25-.62,1.19-.72a8.21,8.21,0,0,0,3.13-3.4Z"/><path class="cls-5" d="M166.84,11.51l.72,1.19a8.21,8.21,0,0,0,3.4,3.13l1.25.62-1.2.72a8.28,8.28,0,0,0-3.13,3.4l-.62,1.25-.72-1.2a8.16,8.16,0,0,0-3.39-3.12l-1.26-.62,1.2-.73a8.13,8.13,0,0,0,3.13-3.39Z"/><path class="cls-5" d="M335.63,124.51l.72,1.19a8.12,8.12,0,0,0,3.39,3.13l1.26.62-1.2.72a8.21,8.21,0,0,0-3.13,3.4l-.62,1.25-.72-1.2a8.19,8.19,0,0,0-3.4-3.12l-1.25-.62,1.2-.72a8.19,8.19,0,0,0,3.12-3.4Z"/><path class="cls-5" d="M75.6,173.33l.53.87a6,6,0,0,0,2.48,2.29l.91.45-.87.52a6.08,6.08,0,0,0-2.29,2.48l-.45.92-.53-.88a6,6,0,0,0-2.47-2.28l-.92-.45.88-.53a6,6,0,0,0,2.28-2.48Z"/><path class="cls-5" d="M99.52,285.4l.53.87a5.93,5.93,0,0,0,2.48,2.28l.91.46-.87.52a5.93,5.93,0,0,0-2.28,2.48l-.46.92-.52-.88a6,6,0,0,0-2.48-2.28l-.92-.45.88-.53a6,6,0,0,0,2.28-2.48Z"/><path class="cls-5" d="M327.78,90.57l.53.88a6,6,0,0,0,2.47,2.28l.92.45-.87.53a6,6,0,0,0-2.29,2.47l-.45.92-.53-.88a6,6,0,0,0-2.47-2.28l-.92-.45.88-.53a6,6,0,0,0,2.28-2.47Z"/><path class="cls-5" d="M28.78,149.69l.53.88a6,6,0,0,0,2.48,2.28l.91.45-.87.53a6,6,0,0,0-2.29,2.48l-.45.91-.53-.87a6,6,0,0,0-2.47-2.29l-.92-.45.88-.52a6.12,6.12,0,0,0,2.28-2.48Z"/><path class="cls-5" d="M353.07,96l.3.5a3.45,3.45,0,0,0,1.42,1.31l.52.26-.5.3a3.45,3.45,0,0,0-1.31,1.42l-.26.52-.3-.5a3.45,3.45,0,0,0-1.42-1.31l-.52-.26.5-.3a3.45,3.45,0,0,0,1.31-1.42Z"/><path class="cls-5" d="M334.37,239.92l.3.5a3.52,3.52,0,0,0,1.42,1.31l.52.25-.5.31a3.37,3.37,0,0,0-1.3,1.42l-.26.52-.3-.5a3.45,3.45,0,0,0-1.42-1.31l-.53-.26.5-.3a3.39,3.39,0,0,0,1.31-1.42Z"/><path class="cls-5" d="M205.06.26l.3.5a3.45,3.45,0,0,0,1.42,1.31l.52.26-.5.3a3.45,3.45,0,0,0-1.31,1.42l-.26.52-.3-.5a3.45,3.45,0,0,0-1.42-1.31L203,2.5l.5-.3A3.39,3.39,0,0,0,204.8.78Z"/><path class="cls-5" d="M147.78,25.79l.3.5a3.39,3.39,0,0,0,1.42,1.31l.53.26-.5.3a3.39,3.39,0,0,0-1.31,1.42l-.26.52-.3-.5a3.43,3.43,0,0,0-1.42-1.3l-.52-.26.5-.3a3.49,3.49,0,0,0,1.3-1.42Z"/><path class="cls-5" d="M105.92,298.54l.3.5a3.44,3.44,0,0,0,1.42,1.31l.53.26-.5.3a3.39,3.39,0,0,0-1.31,1.42l-.26.52-.3-.5a3.43,3.43,0,0,0-1.42-1.3l-.52-.26.5-.3a3.43,3.43,0,0,0,1.3-1.42Z"/><path class="cls-6" d="M253.06,372.36l-124-.29c-5.13,0-9.29-3.62-9.28-8.07h0c0-4.45,4.18-8.05,9.32-8l124,.29c5.14,0,9.3,3.63,9.29,8.08h0C262.38,368.77,258.2,372.37,253.06,372.36Z"/><path class="cls-6" d="M253.06,352.8l-124-.28c-5.13,0-9.29-3.63-9.28-8.08h0c0-4.45,4.18-8,9.32-8l124,.29c5.14,0,9.3,3.62,9.29,8.07h0C262.38,349.22,258.2,352.82,253.06,352.8Z"/><path class="cls-6" d="M248.08,375.28,134.56,375a8.52,8.52,0,1,0,0,17l12.46,0,16.46,31.5a11,11,0,0,0,9.68,5.88l40.56.09a10.93,10.93,0,0,0,9.75-5.93l16.14-31.33,8.47,0a8.52,8.52,0,0,0,0-17Z"/><path class="cls-4" d="M287.07,243.21h0s-.3.47-.91,1.37l-2.71,4-2,2.93c-.72,1.09-1.43,2.34-2.24,3.66s-1.68,2.76-2.6,4.3-1.78,3.25-2.76,5q-.72,1.33-1.47,2.76l-.77,1.43-.71,1.52c-1,2-2,4.19-3,6.43l-2.94,7.2c-.93,2.53-1.86,5.18-2.81,7.93a162.8,162.8,0,0,0-4.64,18.11,105.78,105.78,0,0,0-2,20.95V331h-.16L123,331.05h-.21l0-.21a135.89,135.89,0,0,0-11.94-44.75A173.86,173.86,0,0,0,99,264.42c-2.23-3.53-4.61-7-7.15-10.41s-5.28-6.66-8-10l-.34-.4h.54l-.2.4a128.3,128.3,0,0,1-24.69-54.41c-.54-2.54-.87-5.12-1.26-7.7-.16-1.3-.29-2.6-.43-3.9l-.2-1.95-.13-2c-.07-1.31-.19-2.62-.22-3.94l-.09-4c-.06-1.32,0-2.65.06-4s.05-2.65.11-4a132.42,132.42,0,0,1,5.7-31.61A129,129,0,0,1,116.8,56.51a131.53,131.53,0,0,1,19.23-10,124.72,124.72,0,0,1,20.25-6.47,129,129,0,0,1,40.94-2.76,133.94,133.94,0,0,1,19.57,3.33,138.16,138.16,0,0,1,18.32,6.13,127.88,127.88,0,0,1,31.54,19A129.58,129.58,0,0,1,290.1,91a126.47,126.47,0,0,1,15,28c1,2.34,1.69,4.75,2.51,7.08s1.37,4.72,2.05,7c.52,2.35,1.11,4.66,1.56,7,.21,1.16.41,2.31.61,3.45s.43,2.27.54,3.4a129.83,129.83,0,0,1,1.07,25.74,128.29,128.29,0,0,1-8.94,40.14,133.31,133.31,0,0,1-6.42,13.62c-2.12,3.81-4,7-5.71,9.43l-2.22,3.26-1.69,2.27-1.4,1.86,1.34-1.86L290.1,239l2.19-3.26c1.64-2.49,3.56-5.64,5.67-9.46a132,132,0,0,0,6.36-13.62,128.2,128.2,0,0,0,8.84-40.08,130.74,130.74,0,0,0-1.1-25.67c-.12-1.13-.34-2.26-.55-3.4s-.41-2.28-.61-3.43c-.46-2.3-1-4.6-1.57-7-.68-2.3-1.28-4.67-2.05-7s-1.53-4.73-2.51-7.06a125.91,125.91,0,0,0-15-27.87,128.49,128.49,0,0,0-23.39-25.09,139.57,139.57,0,0,0-14.79-10.47,140.76,140.76,0,0,0-16.66-8.49,136.72,136.72,0,0,0-18.26-6.09,131.3,131.3,0,0,0-19.49-3.31,128.57,128.57,0,0,0-40.78,2.76A124.11,124.11,0,0,0,136.23,47a130.17,130.17,0,0,0-19.16,10,128.49,128.49,0,0,0-53.86,69.84,131.51,131.51,0,0,0-5.68,31.49c-.06,1.32-.07,2.64-.11,4s-.12,2.64-.06,3.95l.09,3.94c0,1.32.15,2.62.22,3.93l.12,1.95.21,2c.14,1.3.26,2.59.42,3.88.39,2.57.72,5.14,1.26,7.67a127.87,127.87,0,0,0,24.58,54.21l.31.4h-.51l.19-.4c2.73,3.3,5.55,6.54,8,10s4.93,6.9,7.17,10.44a176,176,0,0,1,11.79,21.73,136.55,136.55,0,0,1,12,44.92l-.23-.21,132.35.06-.16.17a105.39,105.39,0,0,1,2.06-21,160.4,160.4,0,0,1,4.69-18.14c.95-2.75,1.88-5.4,2.82-7.94s2-4.89,3-7.19l3-6.44.71-1.51.78-1.44c.5-.94,1-1.86,1.48-2.75,1-1.78,1.82-3.51,2.77-5l2.62-4.29c.83-1.32,1.54-2.56,2.27-3.65s1.42-2.05,2-2.92l2.74-4c.62-.89.95-1.34.95-1.34h0Z"/><path class="cls-4" d="M75.21,208.13a2.73,2.73,0,0,1-.11-.28c-.07-.22-.17-.49-.29-.84-.25-.78-.61-1.87-1.06-3.26-.23-.72-.48-1.5-.75-2.36s-.47-1.83-.74-2.86c-.49-2.06-1.17-4.37-1.59-7-.24-1.31-.5-2.68-.77-4.11s-.38-2.94-.59-4.49c-.47-3.1-.63-6.45-.86-10a139.61,139.61,0,0,1,1-22.87,140.79,140.79,0,0,1,5.09-22.34c1.17-3.32,2.21-6.51,3.49-9.37.61-1.44,1.14-2.86,1.77-4.17l1.83-3.76c1.11-2.43,2.38-4.48,3.41-6.33.52-.92,1-1.79,1.47-2.56l1.35-2.07,1.89-2.86.5-.74c.12-.16.18-.25.19-.24a1.2,1.2,0,0,1-.14.27l-.46.76-1.81,2.91c-.39.64-.83,1.34-1.31,2.1s-.92,1.65-1.43,2.57c-1,1.86-2.24,3.92-3.33,6.35l-1.79,3.76c-.62,1.31-1.14,2.73-1.74,4.17-1.26,2.86-2.28,6-3.43,9.36a142.63,142.63,0,0,0-5,22.26,142.12,142.12,0,0,0-1.08,22.78c.22,3.51.36,6.84.8,9.94.2,1.54.33,3,.57,4.48s.5,2.8.73,4.1c.4,2.63,1,5,1.51,7,.26,1,.46,2,.7,2.86s.49,1.65.71,2.37l1,3.28.24.86A1.18,1.18,0,0,1,75.21,208.13Z"/><path class="cls-4" d="M113.41,73.57a85,85,0,0,1-6.88,6.28,85.59,85.59,0,0,1-7.22,5.89,82,82,0,0,1,6.88-6.29A82.39,82.39,0,0,1,113.41,73.57Z"/><path class="cls-4" d="M288.44,222.64a.88.88,0,0,1,.08-.23l.3-.64,1.19-2.46.88-1.78c.3-.65.6-1.37.94-2.14.67-1.55,1.5-3.29,2.22-5.28.38-1,.78-2,1.2-3.1s.76-2.24,1.17-3.42c.84-2.35,1.53-4.92,2.3-7.61a142.39,142.39,0,0,0,3.46-17.89,140.35,140.35,0,0,0,.9-18.2c-.1-2.8-.16-5.46-.42-7.94-.11-1.24-.17-2.45-.31-3.6s-.29-2.24-.43-3.3c-.23-2.11-.62-4-.89-5.65-.15-.83-.27-1.6-.41-2.31s-.3-1.35-.42-1.93l-.57-2.67c-.06-.29-.1-.51-.14-.7a.77.77,0,0,1,0-.25.74.74,0,0,1,.08.23c0,.19.11.41.19.69l.66,2.66c.15.58.3,1.22.47,1.92s.29,1.48.46,2.31c.3,1.66.71,3.54,1,5.65l.46,3.31c.15,1.15.22,2.36.35,3.6.27,2.49.34,5.16.46,8a125.8,125.8,0,0,1-4.38,36.22c-.79,2.7-1.49,5.28-2.36,7.63-.41,1.18-.77,2.33-1.19,3.42s-.84,2.11-1.24,3.1c-.75,2-1.6,3.72-2.29,5.26-.36.76-.67,1.48-1,2.13l-.92,1.76-1.28,2.42c-.13.25-.25.45-.34.62S288.45,222.65,288.44,222.64Z"/><path class="cls-6" d="M247,100.22c-6.84-3.91-14-7.48-21.68-9.19a8.93,8.93,0,0,0-3.29-.27,3.45,3.45,0,0,0-2.65,1.76c-.66,1.37,0,3,.82,4.27,1.85,2.79,4.62,4.83,7.41,6.68,7.64,5.06,15.85,9.19,24,13.31-1-5.83-3.08-10.85-4.66-16.56"/><path class="cls-6" d="M299.43,115.29c2.23,7.56,4.93,15.08,9.31,21.64a9,9,0,0,0,2.18,2.46,3.5,3.5,0,0,0,3.14.57c1.42-.54,2.09-2.16,2.36-3.65.59-3.3,0-6.68-.74-10-2-9-5.1-17.61-8.17-26.25-3.28,4.93-5.27,10-8.08,15.18"/><path class="cls-6" d="M246.88,100.07s.54,52.35,29.92,53.37,30.61-53,30.61-53.37c0,0-3.47-7.81-30.27-7.51S246.88,100.07,246.88,100.07Z"/><path class="cls-4" d="M285.91,120.86A10.13,10.13,0,1,1,276.54,110,10.13,10.13,0,0,1,285.91,120.86Z"/><path class="cls-7" d="M283.17,120.66a7.38,7.38,0,1,1-6.83-7.9A7.39,7.39,0,0,1,283.17,120.66Z"/><path class="cls-4" d="M246.76,100l.15,0,.45.15,1.7.6,1.23.44c.45.15,1,.29,1.48.45,1.07.32,2.27.73,3.63,1.05l2.13.55c.74.18,1.53.32,2.33.5,1.61.37,3.35.62,5.18.91a92.34,92.34,0,0,0,12,.86,94.37,94.37,0,0,0,12-.85c1.83-.3,3.57-.55,5.18-.92.8-.17,1.59-.31,2.33-.5l2.13-.54c1.36-.33,2.56-.74,3.63-1,.53-.17,1-.31,1.48-.46l1.23-.44,1.7-.6.45-.15c.1,0,.15,0,.15,0l-.15.06-.43.17-1.69.64-1.23.45c-.45.16-.94.31-1.47.48-1.07.33-2.27.75-3.63,1.08l-2.13.56c-.75.19-1.53.33-2.34.51-1.6.38-3.35.63-5.18.94a92.9,92.9,0,0,1-12,.87,90.94,90.94,0,0,1-12-.88c-1.83-.3-3.58-.56-5.18-.93-.81-.18-1.6-.32-2.34-.52l-2.13-.56c-1.36-.33-2.56-.75-3.63-1.08-.53-.17-1-.31-1.47-.47l-1.23-.46-1.69-.63-.44-.18Z"/><g class="cls-8"><path d="M246.88,100.07s3.47-7.2,30.26-7.51,30.27,7.51,30.27,7.51S280.38,113.4,246.88,100.07Z"/></g><path class="cls-7" d="M256.09,137.32s0,0,0-.07l-.13-.24-.48-.91c-.11-.2-.22-.43-.35-.67l-.37-.81c-.27-.58-.58-1.24-.88-2q-.22-.57-.48-1.17c-.15-.42-.31-.84-.47-1.29-.34-.88-.63-1.85-1-2.86-.62-2-1.24-4.29-1.78-6.68s-.93-4.71-1.25-6.81-.52-4-.65-5.61c-.08-.81-.12-1.53-.16-2.17s-.08-1.19-.09-1.64l0-1v-.27c0-.06,0-.09,0-.09a.31.31,0,0,1,0,.09l0,.27c0,.25,0,.6.07,1s.07,1,.12,1.63.11,1.36.2,2.16c.14,1.6.39,3.5.69,5.6s.74,4.4,1.27,6.79,1.14,4.65,1.76,6.68c.33,1,.62,2,.95,2.85.16.45.32.88.46,1.29s.32.8.47,1.17c.29.75.58,1.41.84,2l.36.81.33.67.45.93.11.25S256.1,137.32,256.09,137.32Z"/><path class="cls-7" d="M270.25,149.91a1.52,1.52,0,0,1-.47,0,10.08,10.08,0,0,1-1.25-.31,13.37,13.37,0,0,1-1.78-.68,14.72,14.72,0,0,1-2-1.17,16.5,16.5,0,0,1-1.79-1.51,13.23,13.23,0,0,1-1.24-1.44,8.36,8.36,0,0,1-.71-1.08,1.84,1.84,0,0,1-.21-.42s.37.56,1,1.41a13.74,13.74,0,0,0,1.27,1.39,16.08,16.08,0,0,0,1.77,1.48,16.84,16.84,0,0,0,2,1.17,13.92,13.92,0,0,0,1.74.71C269.6,149.76,270.26,149.87,270.25,149.91Z"/><path class="cls-7" d="M276.37,131.44a1,1,0,0,1-.28,0,6.08,6.08,0,0,1-.8,0,10.53,10.53,0,0,1-2.93-.47,12.51,12.51,0,0,1-1.91-.77,12.27,12.27,0,0,1-2-1.28,10.74,10.74,0,0,1-4.14-9.54,12.43,12.43,0,0,1,.42-2.32,11,11,0,0,1,.74-1.92,10.33,10.33,0,0,1,1.65-2.46,8,8,0,0,1,.57-.58c.13-.12.2-.19.21-.18s-.27.28-.72.81a11.65,11.65,0,0,0-1.58,2.47,13,13,0,0,0-.71,1.9,12.4,12.4,0,0,0-.39,2.3,10.68,10.68,0,0,0,4.07,9.37,12,12,0,0,0,1.94,1.28,11.87,11.87,0,0,0,1.87.78,11.15,11.15,0,0,0,2.89.53C276,131.44,276.37,131.42,276.37,131.44Z"/><path class="cls-6" d="M275.11,45.63s-25.62-.31-29.67,21.88,17.6,22.6,23.83,23c2.83.19,8.87.21,14.21.12,11.8-.21,20.15-2.49,23-13.45a20.67,20.67,0,0,0,.63-3.92C307.86,61.27,299.73,45,275.11,45.63Z"/><path class="cls-9" d="M293.69,79.42,256.48,80a7.07,7.07,0,0,1-7.18-7h0a7.06,7.06,0,0,1,7-7.17l37.21-.58a7.06,7.06,0,0,1,7.17,7h0A7.06,7.06,0,0,1,293.69,79.42Z"/><path class="cls-7" d="M264.2,72.28a2.27,2.27,0,1,1-1.79-2.66A2.27,2.27,0,0,1,264.2,72.28Z"/><path class="cls-7" d="M290.19,71.87a2.26,2.26,0,1,1-1.78-2.66A2.27,2.27,0,0,1,290.19,71.87Z"/><path class="cls-7" d="M270.71,71.23c.17,0,.09.82.58,1.87a4.74,4.74,0,0,0,1.21,1.58,3.6,3.6,0,0,0,4.39.4,4.48,4.48,0,0,0,1.47-1.34c.68-.94.74-1.74.91-1.72s.13.2.13.57a3.33,3.33,0,0,1-.41,1.53,4.67,4.67,0,0,1-1.59,1.77,4.51,4.51,0,0,1-2.87.77,4.57,4.57,0,0,1-2.68-1.27,4.72,4.72,0,0,1-1.25-2,3.5,3.5,0,0,1-.12-1.58C270.54,71.41,270.65,71.22,270.71,71.23Z"/><path class="cls-7" d="M271.86,47.29l-.09,0-.27,0c-.24,0-.59,0-1,.09a28.87,28.87,0,0,0-3.78.62,28.22,28.22,0,0,0-5.36,1.86,27.16,27.16,0,0,0-5.87,3.69,27.52,27.52,0,0,0-4.74,5.06,28.17,28.17,0,0,0-2.84,4.92,27.26,27.26,0,0,0-1.33,3.59c-.14.43-.21.77-.28,1l-.08.26q0,.09,0,.09a.62.62,0,0,1,0-.09l.06-.27c.06-.23.12-.58.24-1a25.1,25.1,0,0,1,1.28-3.63,26.44,26.44,0,0,1,2.82-5A27.12,27.12,0,0,1,266.65,47.9a24.6,24.6,0,0,1,3.8-.56c.46,0,.81,0,1.05-.05h.36Z"/><path class="cls-7" d="M246.8,78a2.83,2.83,0,0,1-.36-.79,11.22,11.22,0,0,1-.52-2,10.37,10.37,0,0,1-.13-2.11,2.7,2.7,0,0,1,.1-.87c.06,0,0,1.33.23,2.94S246.86,78,246.8,78Z"/><path class="cls-7" d="M287.54,64s-4.9.1-11,.1-10.95,0-10.95-.1,4.9-.11,10.95-.11S287.54,63.94,287.54,64Z"/><path class="cls-7" d="M268.86,89a.52.52,0,0,1-.19,0l-.53,0-.85,0c-.33,0-.71,0-1.12,0-.83,0-1.83-.06-2.92-.17a30,30,0,0,1-7-1.64c-1-.39-1.94-.78-2.69-1.15-.38-.18-.71-.36-1-.51l-.74-.42-.45-.28-.16-.11s.07,0,.18.07l.47.25.75.38c.3.15.63.32,1,.49.75.35,1.67.72,2.7,1.1a34.08,34.08,0,0,0,3.41,1,34.47,34.47,0,0,0,3.51.63c1.09.12,2.07.19,2.9.21.42,0,.79,0,1.12,0s.61,0,.85,0h.72Z"/><path class="cls-7" d="M300.18,103.26l-.1,0-.28.11-1.12.39c-.48.17-1.07.38-1.77.58s-1.48.47-2.37.69l-1.39.37c-.48.13-1,.23-1.52.35-1.05.26-2.18.45-3.37.68a77.87,77.87,0,0,1-7.82.92,77.15,77.15,0,0,1-7.88,0c-1.21-.07-2.36-.13-3.43-.26-.54-.05-1.05-.09-1.55-.16l-1.42-.19c-.91-.12-1.73-.28-2.44-.4s-1.33-.25-1.83-.36l-1.15-.26-.3-.07c-.07,0-.1,0-.1,0h.1l.3,0,1.16.22c.5.1,1.12.22,1.84.33s1.53.26,2.44.36l1.42.18c.49.06,1,.1,1.55.15,1.06.12,2.21.17,3.42.24,2.41.1,5.07.1,7.85-.06s5.42-.51,7.81-.9c1.19-.22,2.32-.41,3.36-.66.53-.12,1-.21,1.52-.34l1.39-.35c.89-.21,1.68-.46,2.38-.66s1.29-.38,1.78-.55l1.12-.35.3-.09Z"/><path class="cls-6" d="M56.85,275.4l.07,13.87s23-13,16.27-25.45Z"/><path class="cls-6" d="M59.1,243.36s-16.58-6.07-29.18,5.21l12.92,7.29Z"/><path class="cls-3" d="M42.84,255.86c.53.69,14,19.54,14,19.54l35.22-25a12.87,12.87,0,0,0,2.38-18.81h0a12.85,12.85,0,0,0-17.66-1.88Z"/><path class="cls-4" d="M42.84,255.86l.29-.24.88-.7,3.44-2.7,12.76-9.93,8.85-6.87L74,231.6l2.58-2a13.83,13.83,0,0,1,2.93-1.72,15,15,0,0,1,1.63-.58,14.56,14.56,0,0,1,1.72-.35,12.86,12.86,0,0,1,3.56,0,13,13,0,0,1,6.65,2.95,13.32,13.32,0,0,1,2.52,2.82,14,14,0,0,1,1.62,3.48,13.3,13.3,0,0,1-.09,7.75,13,13,0,0,1-4.2,6.13c-2,1.5-3.93,2.82-5.85,4.2L76,262.15l-19,13.4-.16.11-.11-.15c-4.29-6.06-7.77-11-10.19-14.4l-2.74-3.9-.7-1c-.15-.23-.23-.34-.22-.34a2.8,2.8,0,0,1,.28.35l.75,1,2.84,3.88L57,275.29l-.26-.05,18.94-13.48,11.1-7.89c1.9-1.37,3.92-2.72,5.81-4.18a12.45,12.45,0,0,0,4-5.89,12.75,12.75,0,0,0,.09-7.44A13.44,13.44,0,0,0,95.16,233a13,13,0,0,0-2.42-2.71,12.48,12.48,0,0,0-6.38-2.84,12,12,0,0,0-3.43,0,13.15,13.15,0,0,0-1.66.32,16.21,16.21,0,0,0-1.57.56c-2.06.83-3.69,2.36-5.4,3.62l-4.93,3.77-8.85,6.76-12.88,9.79-3.53,2.66-.93.7Z"/><path class="cls-6" d="M59.72,254.78l-22,15.83s.94,2.42,1.55,2.17,17.08-11.49,22.46-15.16A1.72,1.72,0,0,0,62,255h0A1.73,1.73,0,0,0,59.72,254.78Z"/><path class="cls-7" d="M82.56,244.85A7.36,7.36,0,1,1,74.74,238,7.36,7.36,0,0,1,82.56,244.85Z"/><path class="cls-4" d="M82.56,244.85c-.06,0-.07-.66-.44-1.75a7.36,7.36,0,0,0-2.94-3.76,7.17,7.17,0,0,0-3.1-1.11,7.14,7.14,0,0,0-2.86,13.93,7.16,7.16,0,0,0,6.7-1.42,7.43,7.43,0,0,0,2.43-4.1c.22-1.14.15-1.79.21-1.79a2.48,2.48,0,0,1,0,.47,5.64,5.64,0,0,1-.07,1.35,7.47,7.47,0,0,1-5.45,6,7.66,7.66,0,0,1-4-.05,7.41,7.41,0,0,1-3.7-2.4,7.58,7.58,0,0,1-1.77-4.39,7.67,7.67,0,0,1,1.19-4.58,7.57,7.57,0,0,1,3.36-2.86,7.69,7.69,0,0,1,4-.56,7.52,7.52,0,0,1,3.25,1.24,7.3,7.3,0,0,1,2.92,4,5.56,5.56,0,0,1,.25,1.33A2.5,2.5,0,0,1,82.56,244.85Z"/><path class="cls-6" d="M93.72,249c11.83-11.06,9.72-23.87,9.72-23.87-15.91-4.18-26.65,4.58-26.65,4.58Q92.67,232,93.72,249Z"/><path class="cls-10" d="M219.37,202l4.08,37.76,24.33,8.11,1,11.77-34.33-2.3s-10.57.26-12.88-13.69L201,207Z"/><path class="cls-10" d="M269.85,259.4a1.7,1.7,0,0,1-1.82.5,2.33,2.33,0,0,1-.39-.19c-.85-.55-.26-2.43-.26-2.43l-4.29-1.92s-6.82,2.22-9.56,4.16-7.49-1.47-7.49-1.47l.69-10L257,242.73s-.63.31.31-.93,3.39,0,3.39,0c.59-.58,2.35-.38,2.35-.38l7,2.75a5.12,5.12,0,0,1,3,3.23l1.78,5.66s.69,3.91.22,4.65a1.5,1.5,0,0,1-1.94.51s-1,2.2-1.58,2.12a5.09,5.09,0,0,1-1.68-.9Z"/><path class="cls-11" d="M255.52,258.4a2.85,2.85,0,0,0,.52-.21l1.47-.66a53.91,53.91,0,0,1,5.62-2H263l4.28,1.95-.1-.23a5.16,5.16,0,0,0-.21,1.12,2.05,2.05,0,0,0,.23,1.21,1.13,1.13,0,0,0,.52.43,1.56,1.56,0,0,0,.62.2,1.85,1.85,0,0,0,1.28-.32,2.65,2.65,0,0,0,.26-.21l.06-.06,0,0,0,0h0c.06,0-.55,0-.29,0h0l.13.1.52.36a4.54,4.54,0,0,0,.58.31l.32.13a.85.85,0,0,0,.44,0,1.46,1.46,0,0,0,.59-.48c.14-.18.27-.37.39-.56a11.13,11.13,0,0,0,.62-1.19l-.31.11a1.74,1.74,0,0,0,1.82-.13,1.41,1.41,0,0,0,.55-.82,4.71,4.71,0,0,0,.07-.91,25.52,25.52,0,0,0-.39-3.55h0v0c-.31-1-.63-2-.95-3-.21-.64-.41-1.28-.61-1.91a8.69,8.69,0,0,0-.71-1.89,5,5,0,0,0-1.34-1.51,6.81,6.81,0,0,0-1.75-.87l-6.62-2.57H263a6.08,6.08,0,0,0-1.28,0,2.12,2.12,0,0,0-1.23.45h.27a2.58,2.58,0,0,0-2.36-.49,3,3,0,0,0-1.63,1.53l.08-.08-7,3.61-1.9,1a5,5,0,0,0-.65.38,3.7,3.7,0,0,0,.69-.29l2-.92,7.11-3.47,0,0,0-.06a2.61,2.61,0,0,1,1.43-1.32,2.17,2.17,0,0,1,2,.43l.14.11.13-.12a1.74,1.74,0,0,1,1-.33,5.92,5.92,0,0,1,1.19,0h-.05l6.61,2.6a6.23,6.23,0,0,1,1.63.82,4.56,4.56,0,0,1,1.21,1.37,9,9,0,0,1,.67,1.79l.6,1.91c.33,1,.65,2.06,1,3v0a24.74,24.74,0,0,1,.39,3.47,3.42,3.42,0,0,1-.06.8,1,1,0,0,1-.37.56,1.33,1.33,0,0,1-1.34.09l-.21-.1-.1.21a9.45,9.45,0,0,1-.59,1.14,2.24,2.24,0,0,1-.72.85.69.69,0,0,1-.19,0l-.26-.1a3.92,3.92,0,0,1-.53-.29c-.17-.1-.34-.22-.5-.33l-.12-.09h0l-.29,0h0l0,0,0,0-.21.17a1.45,1.45,0,0,1-1,.26,1.17,1.17,0,0,1-.48-.15.81.81,0,0,1-.36-.28,2.89,2.89,0,0,1,0-2l0-.16-.14-.07-4.31-1.88,0,0-.06,0a44.61,44.61,0,0,0-5.6,2.17c-.64.3-1.12.55-1.44.73A4,4,0,0,0,255.52,258.4Z"/><path class="cls-11" d="M261.22,244.64a9.2,9.2,0,0,0,2.14,1.3,23.32,23.32,0,0,0,5.85,2l-.19-.22c0,.39.05.8.11,1.21a18.32,18.32,0,0,0,2.17,6.66,15.73,15.73,0,0,0,1.16,1.79c.31.39.5.59.53.57s-.59-.94-1.38-2.52a20.39,20.39,0,0,1-2-6.56c-.05-.4-.09-.8-.12-1.18v-.19l-.18,0a29.24,29.24,0,0,1-5.82-1.82C262.08,245,261.25,244.58,261.22,244.64Z"/><path class="cls-11" d="M267,250.67a12,12,0,0,0,3.09,8.46c.12-.09-1.06-1.76-1.91-4.1S267.12,250.66,267,250.67Z"/><path class="cls-11" d="M245.39,254.77s.05.07.19.19a5.22,5.22,0,0,0,.64.46,8.17,8.17,0,0,0,2.77,1.09,8.08,8.08,0,0,0,4.49-.41,8.4,8.4,0,0,0,4.3-3.73l-.31.1a19.31,19.31,0,0,0,5.17,1.63c.68.11,1.35.18,2,.22a6.21,6.21,0,0,0,2-.12,1.46,1.46,0,0,0,.9-.6,1.4,1.4,0,0,0-.48-1.93l-.78-.43c-2.06-1.11-4-2-5.58-2.73s-3-1.23-3.89-1.57a9,9,0,0,0-1.46-.46,9.64,9.64,0,0,0,1.39.64c.91.39,2.22,1,3.81,1.71s3.47,1.68,5.51,2.81l.76.44a.94.94,0,0,1,.43.56,1,1,0,0,1-.11.7,1.06,1.06,0,0,1-.64.4,5.57,5.57,0,0,1-1.84.09,19.11,19.11,0,0,1-7-1.79l-.21-.09-.1.19a8.23,8.23,0,0,1-4,3.59,8.1,8.1,0,0,1-4.29.48,8.74,8.74,0,0,1-2.74-.92A9.45,9.45,0,0,0,245.39,254.77Z"/><path class="cls-4" d="M274.72,395.9s.07-.33,0-.94a6.37,6.37,0,0,0-.95-2.39,3.53,3.53,0,0,0-.57-.69,1.08,1.08,0,0,0-1.07-.24.73.73,0,0,0-.47.47,1.06,1.06,0,0,0,0,.64,6.63,6.63,0,0,0,.5,1c.37.62.67,1.24,1.15,1.94a1.35,1.35,0,0,0,1.26.57,2.66,2.66,0,0,0,1.22-.54,11,11,0,0,0,1.8-1.66,8.92,8.92,0,0,0,.7-.92,2.9,2.9,0,0,0,.54-1.05,1,1,0,0,0-.54-1.16,1.21,1.21,0,0,0-1.14.26,7,7,0,0,0-1.2,1.36,9.22,9.22,0,0,0-1.18,2.28,2.42,2.42,0,0,0-.2.92,18.28,18.28,0,0,1,1.7-3,7.26,7.26,0,0,1,1.15-1.21c.23-.16.51-.27.68-.18a.5.5,0,0,1,.22.59,2.74,2.74,0,0,1-.47.86,10.67,10.67,0,0,1-.68.86,9.83,9.83,0,0,1-1.71,1.56,2.14,2.14,0,0,1-.95.44.79.79,0,0,1-.77-.35c-.39-.57-.77-1.28-1.13-1.86a6,6,0,0,1-.48-.86c-.09-.27,0-.44.15-.52.43-.18.85.31,1.14.72A9,9,0,0,1,274.72,395.9Z"/><polygon class="cls-10" points="250.31 396.74 238.19 423.01 218.63 413.97 231.17 381.46 250.31 396.74"/><path class="cls-5" d="M240.48,421.26l-7.08,13.5s18.13,18.75,16.42,22.94l-42.61-20.44,11.71-27.09Z"/><path class="cls-5" d="M221.11,426.6A1.93,1.93,0,0,0,219,428a1.86,1.86,0,0,0,1.38,2.15,2,2,0,0,0,2.27-1.51,1.91,1.91,0,0,0-1.68-2.07"/><g class="cls-12"><path class="cls-5" d="M207.21,437.26l1.77-3.39,40.2,20.86s1.5,1.73.64,3Z"/></g><path class="cls-5" d="M234.19,434.88c-.1.2-1.19-.2-2.53,0s-2.31.79-2.47.61.74-1.23,2.37-1.41S234.33,434.71,234.19,434.88Z"/><path class="cls-5" d="M237.78,438.87c-.05.22-1.12.14-2.25.69s-1.78,1.37-2,1.26.22-1.35,1.64-2S237.87,438.67,237.78,438.87Z"/><path class="cls-5" d="M237.75,445.44c-.21-.05,0-1.23,1.08-2.11s2.27-.87,2.28-.66-.89.54-1.77,1.28S238,445.51,237.75,445.44Z"/><path class="cls-5" d="M236.23,429.67c-.18.15-1-.59-2.21-1.08s-2.31-.55-2.34-.78,1.22-.55,2.64,0S236.41,429.56,236.23,429.67Z"/><path class="cls-9" d="M244.47,417.75l32-80s-.72-13.65-3.24-18-78.62-29.44-78.62-29.44-19.39-4.66-32.32,0-22.62,20.83-20.82,29.8,10,16.25,10,16.25l55.3,1,30.51,11.13-20.54,58.88Z"/><polygon class="cls-10" points="272.89 363.11 273.61 392.03 252.07 392.56 248.97 357.85 272.89 363.11"/><path class="cls-5" d="M274.9,389.45l-.4,15.24S299,413.51,299.37,418l-47.26.48L250.65,389Z"/><path class="cls-5" d="M259.87,402.79a1.93,1.93,0,0,0-1.31,2.22,1.85,1.85,0,0,0,2.18,1.32,2,2,0,0,0,1.38-2.36,1.94,1.94,0,0,0-2.43-1.12"/><g class="cls-12"><path class="cls-5" d="M252.11,418.5l.09-3.83,45.28,1s2.11.9,1.89,2.38Z"/></g><path class="cls-5" d="M275.27,404.44c0,.23-1.16.35-2.29,1.1s-1.72,1.73-1.94,1.65.12-1.43,1.5-2.32S275.31,404.23,275.27,404.44Z"/><path class="cls-5" d="M280.24,406.44c.06.23-.94.63-1.71,1.61s-1,2-1.22,2-.39-1.31.6-2.51S280.24,406.22,280.24,406.44Z"/><path class="cls-5" d="M283.12,412.35c-.21,0-.54-1.1,0-2.37s1.65-1.78,1.75-1.59-.56.87-1,1.92S283.35,412.32,283.12,412.35Z"/><path class="cls-5" d="M274.79,398.88c-.09.21-1.15-.1-2.46,0s-2.31.53-2.43.33.84-1,2.38-1.13S274.91,398.7,274.79,398.88Z"/><path class="cls-9" d="M260.31,282.81s12.91-1,14.35,13,2.84,79.35,2.84,79.35l-30.16,2.51-4.66-66.78-48.11-20.47S251.7,281,260.31,282.81Z"/><path class="cls-9" d="M207.12,263.91s7.83,22,6.34,24.41-21.63,12.52-21.63,12.52l-50.4,19.35s-5.18-8.23-5.18-20.88,17.53-35.4,17.53-35.4Z"/><path class="cls-13" d="M192.18,289.27l.24.13.71.33,2.79,1.24,10.48,4.57,36.17,15.57-.16-.23c.45,6.59,1,13.72,1.46,21.09,1.23,17.23,2.36,33.12,3.25,45.69l0,.22.22,0,22-1.93,6.05-.56,1.58-.16.54-.08a3.13,3.13,0,0,0-.54,0l-1.59.1-6.06.44-22,1.74.24.2c-.87-12.57-2-28.46-3.14-45.69-.52-7.37-1-14.49-1.48-21.09l0-.17-.15-.06-36.25-15.39L196,290.8l-2.83-1.16-.73-.28A1.8,1.8,0,0,0,192.18,289.27Z"/><path class="cls-13" d="M152.1,291.47a6.78,6.78,0,0,0,1.41-.39l3.8-1.22a82.38,82.38,0,0,1,12.7-3.21,37.14,37.14,0,0,1,13,.17,50.65,50.65,0,0,1,5.21,1.51,6.26,6.26,0,0,0-1.31-.67,23,23,0,0,0-3.82-1.23,34.88,34.88,0,0,0-13.17-.34,71.33,71.33,0,0,0-12.74,3.39c-1.59.57-2.86,1-3.74,1.4A6.57,6.57,0,0,0,152.1,291.47Z"/><path class="cls-13" d="M159.22,279.89a38.73,38.73,0,0,1,4.41,0c1.36.09,3,.3,4.77.51s3.77.46,5.81.84a27,27,0,0,1,9.87,3.67,32,32,0,0,1,3.43,2.75,4,4,0,0,0-.74-.94,14.61,14.61,0,0,0-2.47-2.14,25.19,25.19,0,0,0-10-3.89c-2.07-.39-4.05-.62-5.85-.81s-3.43-.34-4.81-.39a17.59,17.59,0,0,0-3.26.15A3.91,3.91,0,0,0,159.22,279.89Z"/><path class="cls-4" d="M181.48,103.42c-5.8-1-10.89,1.25-15.78,4.51a29.92,29.92,0,0,0-11.77,31.92,23,23,0,0,0,11.32,14.09c7.55,3.83,17.19,2.49,23.94-2.61s10.61-13.54,10.93-22a27.88,27.88,0,0,0-4.42-16.62,21.3,21.3,0,0,0-14.22-9.29"/><path class="cls-4" d="M165,123.14c.85-2.22.52-4.7.86-7,.74-5.18,4.91-9.33,9.73-11.35,4.49-1.87,10-1.46,15.38.28a20.65,20.65,0,0,1,9.67,6.3,16.29,16.29,0,0,1,3,14.61l-26.5-3.86c-2.48,2.05-5,4.14-8,5.28a5.44,5.44,0,0,1-2.77.44,2.47,2.47,0,0,1-2.06-1.7C164,125.09,164.62,124.1,165,123.14Z"/><path class="cls-10" d="M191.53,112.34l-23.13,4.9a4.31,4.31,0,0,0-4,4.23l.27,50.05A15.58,15.58,0,0,0,167.9,181l2.21,2.84c5,6.49,15.22,5.84,19.06-1.42a5.35,5.35,0,0,0,.53-1.31,9.3,9.3,0,0,0,.22-1.13l.44-4.88c.22-4.45.26-9,.26-8.94s9.46-1.2,11.89-13.39c1.2-6.07,1.28-16.08,1.09-24.28C203.42,121.07,198.89,111.85,191.53,112.34Z"/><path class="cls-4" d="M199.7,138.67a1.57,1.57,0,0,1-1.58,1.53,1.5,1.5,0,0,1-1.56-1.48,1.57,1.57,0,0,1,1.57-1.53A1.5,1.5,0,0,1,199.7,138.67Z"/><path class="cls-4" d="M201.22,133.57c-.2.2-1.36-.73-3.05-.79s-3,.73-3.14.52.12-.46.68-.83a4.38,4.38,0,0,1,2.53-.68,4.18,4.18,0,0,1,2.42.89C201.16,133.1,201.32,133.48,201.22,133.57Z"/><path class="cls-4" d="M184.06,137.86a1.57,1.57,0,0,1-1.58,1.53,1.51,1.51,0,0,1-1.57-1.48,1.57,1.57,0,0,1,1.58-1.53A1.51,1.51,0,0,1,184.06,137.86Z"/><path class="cls-4" d="M185.14,133.15c-.2.2-1.36-.73-3-.79s-3,.74-3.14.53.12-.46.68-.83a4.29,4.29,0,0,1,2.52-.68,4.18,4.18,0,0,1,2.43.89C185.08,132.69,185.24,133.07,185.14,133.15Z"/><path class="cls-4" d="M190.22,146a12,12,0,0,1,2.77-.38c.44,0,.85-.1.94-.39a2.26,2.26,0,0,0-.24-1.3c-.37-1.06-.75-2.17-1.15-3.34-1.6-4.76-2.73-8.66-2.54-8.72s1.64,3.74,3.23,8.5l1.1,3.36a2.54,2.54,0,0,1,.16,1.7,1.12,1.12,0,0,1-.74.61,3.4,3.4,0,0,1-.74.07A11,11,0,0,1,190.22,146Z"/><path class="cls-11" d="M190.62,166.12a31.29,31.29,0,0,1-16.27-5s3.81,8.65,16.13,8Z"/><path class="cls-11" d="M189.35,150.09a3.06,3.06,0,0,0-2.69-1.24,2.76,2.76,0,0,0-2,1,1.77,1.77,0,0,0-.21,2,2,2,0,0,0,2.2.65,6.47,6.47,0,0,0,2.21-1.21,2,2,0,0,0,.51-.48.58.58,0,0,0,0-.63"/><path class="cls-4" d="M185.2,147c.27,0,.2,1.84,1.73,3.2s3.48,1.24,3.49,1.5c0,.11-.45.34-1.28.33a4.55,4.55,0,0,1-2.92-1.15,4,4,0,0,1-1.33-2.67C184.85,147.44,185.07,147,185.2,147Z"/><path class="cls-4" d="M185.05,128.13c-.19.45-1.87.17-3.86.33s-3.63.64-3.88.22c-.11-.2.19-.63.86-1.05a6.45,6.45,0,0,1,2.89-.89,6.54,6.54,0,0,1,3,.47C184.78,127.54,185.13,127.91,185.05,128.13Z"/><path class="cls-4" d="M201,126.14c-.31.38-1.46-.07-2.87-.14s-2.6.16-2.85-.26c-.12-.2.09-.57.62-.92a4.16,4.16,0,0,1,4.61.32C201,125.56,201.16,126,201,126.14Z"/><path class="cls-4" d="M160.75,119.57c2.4-7,12.87-16.64,20.28-16l11.71,7.35a11.46,11.46,0,0,1-7.94,8.59c-2.1.6-4.63.72-5.91,2.5s-.62,4.51-1.84,6.38c-1.7,2.6-6.18,2.38-7.47,5.2-.56,1.24-.31,2.73-.89,3.95-.78,1.63-5,3.63-6.69,3.05s-1.66-3.51-2.19-5.06a8.14,8.14,0,0,1-.14-5.45C160.49,126.65,159.61,122.93,160.75,119.57Z"/><path class="cls-10" d="M167.05,142.16c0-.92-.94-3.11-1.84-3.29-2.4-.47-6.75-.44-7,5.68-.38,8.36,8.1,7,8.13,6.78S166.93,145.31,167.05,142.16Z"/><path class="cls-11" d="M163.89,148s-.15.1-.4.2a1.42,1.42,0,0,1-1.09,0c-.87-.36-1.55-1.8-1.52-3.31a4.81,4.81,0,0,1,.5-2.06,1.68,1.68,0,0,1,1.15-1.07.73.73,0,0,1,.84.43c.1.24,0,.41.09.42s.18-.13.13-.48a.94.94,0,0,0-.3-.53,1.09,1.09,0,0,0-.8-.25,2,2,0,0,0-1.58,1.22,5,5,0,0,0-.61,2.31c0,1.69.77,3.31,2,3.71a1.54,1.54,0,0,0,1.34-.16C163.87,148.25,163.92,148.06,163.89,148Z"/><path class="cls-4" d="M159,117.4h0c0-2.62-3.24-4.33-5.79-4.92a10.83,10.83,0,0,0-7.54,1.44c-1.34.73-2.69,1.78-3,3.28s1.14,3.29,2.57,2.75a5,5,0,1,0,4.81,8.48,11.07,11.07,0,0,1-4.35,5.94,12.44,12.44,0,0,0,13.29-17Z"/><path class="cls-6" d="M154.45,130.79a10.5,10.5,0,0,1-.17-2.5,26.22,26.22,0,0,1,.8-6,22.85,22.85,0,0,1,2.11-5.44,7.15,7.15,0,0,1,1.27-1.84,34.08,34.08,0,0,0-3,7.44A40.11,40.11,0,0,0,154.45,130.79Z"/><path class="cls-4" d="M190.31,108.41c.77,3.4,5.94,7.77,8.21,10.42,4.34,5.06,5.19,6.74,5.15,18,2.05-3.91,3.62-7.73,3.46-12.14a18.22,18.22,0,0,0-4.85-12,14.18,14.18,0,0,0-12-4.34"/><path class="cls-5" d="M225.78,201.47s-9-15-11.52-18.07a19.94,19.94,0,0,0-7.38-5.41,15.25,15.25,0,0,0-3.51-1l-13-2.87s0,8.85-9.3,9.4S164,171.11,164,171.11s-15,2.31-18.56,4.16-9.22,4.18-12.32,19.7L131,210.16l25.82,2.38,2.48,38.38,12.81,8.92s35.51,9.23,37.77,9.84,3-57.14,3-57.14S222,206.64,225.78,201.47Z"/><path class="cls-5" d="M208.78,195a5,5,0,0,1,.5,1.11c.3.72.67,1.79,1.09,3.12A60.92,60.92,0,0,1,213,220.82c-.08,1.39-.19,2.52-.3,3.29a5.34,5.34,0,0,1-.22,1.2,5,5,0,0,1,0-1.22c.05-.77.1-1.9.14-3.29A71.56,71.56,0,0,0,210,199.35c-.37-1.34-.69-2.42-.93-3.16A5.87,5.87,0,0,1,208.78,195Z"/><path class="cls-10" d="M207.68,257.89,159.05,247.3l-2.25-34.76-21.62-2s.8,23.77,1.63,30.83c1.2,10.16,7.2,24,10.72,26.79s62.33,1.52,62.33,1.52Z"/><path class="cls-10" d="M235.28,264.19a1.86,1.86,0,0,1-1.81,1.05,2.15,2.15,0,0,1-.47-.09c-1.07-.35-1-2.54-1-2.54l-5.16-.84s-6.7,4.32-9.08,7.19-8.47.54-8.47.54l-2.11-11,9.49-8.58s-.58.51.07-1.1,3.64-1,3.64-1c.46-.8,2.41-1.08,2.41-1.08l8.32,1a5.7,5.7,0,0,1,4.17,2.62l3.51,5.57s1.86,4,1.56,4.94a1.65,1.65,0,0,1-1.93,1.09s-.41,2.64-1.11,2.73a5.78,5.78,0,0,1-2.06-.49Z"/><path class="cls-11" d="M217.58,256.3c0,.08,1.11,0,2.89.06a25.53,25.53,0,0,1,6.79,1.27,23.61,23.61,0,0,1,3.5,1.5c1,.56,2.05,1,2.38,1.76a1,1,0,0,1-.09,1,1.39,1.39,0,0,1-.63.53,2.26,2.26,0,0,1-.73.11s.26.23.79.09a1.57,1.57,0,0,0,.81-.56,1.32,1.32,0,0,0,.19-1.3,2.69,2.69,0,0,0-1-1.17,16.58,16.58,0,0,0-1.46-.88A21.82,21.82,0,0,0,220.48,256,9.37,9.37,0,0,0,217.58,256.3Z"/><path class="cls-11" d="M217,261.6c0,.16,3.4,0,7.56.26s7.51.75,7.54.6a8.4,8.4,0,0,0-2.17-.53,47,47,0,0,0-5.34-.6,45.34,45.34,0,0,0-5.37,0A8.44,8.44,0,0,0,217,261.6Z"/><path class="cls-11" d="M235.24,264a4.91,4.91,0,0,0,.1-.89,19.11,19.11,0,0,0,0-2.44,10,10,0,0,0-.24-1.68,5.26,5.26,0,0,0-.81-1.82,11.49,11.49,0,0,0-3.12-3.19,15.53,15.53,0,0,0-4-2,14.68,14.68,0,0,0-3.59-.55c-1,0-1.86,0-2.43,0a2.64,2.64,0,0,0-.89.09,27.68,27.68,0,0,0,3.29.28,15.91,15.91,0,0,1,3.47.63,16.15,16.15,0,0,1,3.83,2,11.24,11.24,0,0,1,3,3,6.22,6.22,0,0,1,1.08,3.26C235.17,262.7,235.12,264,235.24,264Z"/><path class="cls-11" d="M223.22,248.88c0,.08,1.24.11,3.23.34s5,.44,6.72,3.08a28.14,28.14,0,0,1,4.2,6.52,16.72,16.72,0,0,1,.79,3.12,2.26,2.26,0,0,0,.05-.89,8.57,8.57,0,0,0-.48-2.36,24.92,24.92,0,0,0-4.14-6.73,9.26,9.26,0,0,0-1.62-1.63,5.93,5.93,0,0,0-2-.92,17.76,17.76,0,0,0-3.52-.56A12.32,12.32,0,0,0,223.22,248.88Z"/><path class="cls-11" d="M219.61,267.18a2.76,2.76,0,0,0,.49-.37l1.4-1.12a57.38,57.38,0,0,1,5.46-3.77l-.11,0,5.14.88-.17-.22a6,6,0,0,0,.09,1.26,2.34,2.34,0,0,0,.59,1.24,1.28,1.28,0,0,0,.68.31,2,2,0,0,0,.73,0,2.11,2.11,0,0,0,1.28-.71,3.46,3.46,0,0,0,.22-.31l.05-.08,0,0v0h0l-.3.11h0l.16.07.67.23a5.12,5.12,0,0,0,.7.18,2.45,2.45,0,0,0,.39,0,.82.82,0,0,0,.47-.09,1.56,1.56,0,0,0,.51-.68,6.68,6.68,0,0,0,.25-.71,10.29,10.29,0,0,0,.33-1.46l-.3.21a1.93,1.93,0,0,0,1.92-.66,1.59,1.59,0,0,0,.36-1,4.54,4.54,0,0,0-.19-1,27.34,27.34,0,0,0-1.42-3.7v0h0l-1.88-3c-.4-.63-.79-1.26-1.19-1.88a10.13,10.13,0,0,0-1.3-1.82,5.51,5.51,0,0,0-1.87-1.24,7.1,7.1,0,0,0-2.12-.44l-7.85-.89h-.06a7.67,7.67,0,0,0-1.37.37,2.37,2.37,0,0,0-1.2.83l.29-.09a2.89,2.89,0,0,0-2.67.15,3.35,3.35,0,0,0-1.32,2.11l.06-.11L210,255.67l-1.76,1.62a4.53,4.53,0,0,0-.59.6,7.49,7.49,0,0,0,.67-.51l1.83-1.55c1.61-1.4,3.88-3.35,6.65-5.74l0,0,0-.07a3,3,0,0,1,1.17-1.83,2.44,2.44,0,0,1,2.25-.1l.18.08.11-.17a1.92,1.92,0,0,1,1-.63,6.68,6.68,0,0,1,1.28-.33h-.06l7.84.93a6.46,6.46,0,0,1,2,.41,4.92,4.92,0,0,1,1.69,1.13,9.4,9.4,0,0,1,1.23,1.73l1.19,1.89c.65,1,1.28,2,1.88,3v0a26.87,26.87,0,0,1,1.39,3.62,3.59,3.59,0,0,1,.17.88,1.06,1.06,0,0,1-.24.7,1.45,1.45,0,0,1-1.41.48l-.26,0,0,.25a12.91,12.91,0,0,1-.31,1.4,2.56,2.56,0,0,1-.54,1.11.4.4,0,0,1-.21,0l-.32,0a4.94,4.94,0,0,1-.64-.15c-.22-.07-.43-.14-.63-.22l-.16-.06h0l-.31.11h0v0l0,0,0,.07a1.37,1.37,0,0,1-.18.24,1.58,1.58,0,0,1-1,.56,1.37,1.37,0,0,1-.57,0,.88.88,0,0,1-.47-.2,3.2,3.2,0,0,1-.56-2.15v-.19l-.18,0-5.16-.8h-.06l-.06,0a50.17,50.17,0,0,0-5.4,3.92c-.6.5-1,.91-1.34,1.19A3.16,3.16,0,0,0,219.61,267.18Z"/><path class="cls-6" d="M288.55,232.23l-64.06.52c-2.07,0-4.06,1-4.37,3.06l-7,46.68h-33a1.93,1.93,0,1,0,0,3.85H285.5l7.2-49.27A4.2,4.2,0,0,0,288.55,232.23Z"/><path class="cls-6" d="M288.55,232.23a3.51,3.51,0,0,1,1,.1,4.23,4.23,0,0,1,3.23,3.66,11.75,11.75,0,0,1-.23,2.64q-.4,2.84-.92,6.5c-1.41,9.79-3.45,23.89-5.94,41.24l0,.16h-.17l-102.23.07h-2.75a2.76,2.76,0,0,1-1.46-.28,2.19,2.19,0,0,1,0-3.82,2.72,2.72,0,0,1,1.45-.27h32.6l-.25.21,7-46.3a3.57,3.57,0,0,1,1.19-2.44,4.65,4.65,0,0,1,2.45-1.08,20.52,20.52,0,0,1,2.58-.1h2.51l9.65-.07,17.13-.11,24.4-.12h8.79l-.57,0-1.69,0-6.53.1-24.39.27-17.14.17-9.64.09-2.52,0a19.11,19.11,0,0,0-2.52.09,4.34,4.34,0,0,0-2.23,1,3.17,3.17,0,0,0-1,2.19c-2.09,14-4.42,29.59-6.91,46.32l0,.21H180.52a2.12,2.12,0,0,0-1.2.21,1.68,1.68,0,0,0-.76,2,1.72,1.72,0,0,0,.76.88,2.21,2.21,0,0,0,1.2.21h2.75l102.23.06-.19.17,6.11-41.21c.36-2.44.69-4.61,1-6.5a11.14,11.14,0,0,0,.26-2.59,4.06,4.06,0,0,0-.74-2,4.23,4.23,0,0,0-2.37-1.64C288.9,232.23,288.54,232.26,288.55,232.23Z"/><path class="cls-9" d="M249.79,258.69a4,4,0,1,0,4-4A4,4,0,0,0,249.79,258.69Z"/><path class="cls-6" d="M215.71,285.91c.1,0,2.13-11.88,4.56-26.55s4.31-26.59,4.22-26.61-2.13,11.87-4.55,26.55S215.62,285.89,215.71,285.91Z"/></g></g></svg>