<svg xmlns="http://www.w3.org/2000/svg" viewBox="0 0 500 327.87"><defs><style>.cls-1{fill:#ebebeb;}.cls-2{fill:#f0f0f0;}.cls-3{fill:#e0e0e0;}.cls-4{fill:#f5f5f5;}.cls-5{fill:#e6e6e6;}.cls-6{fill:#fff;}.cls-11,.cls-15,.cls-17,.cls-7,.cls-8{fill:#9a80fa;}.cls-11,.cls-13,.cls-15,.cls-17,.cls-7,.cls-8,.cls-9{stroke:#272425;stroke-width:0.25px;}.cls-11,.cls-13,.cls-14,.cls-15,.cls-17,.cls-7,.cls-8,.cls-9{stroke-miterlimit:10;}.cls-8{opacity:0.6;}.cls-15,.cls-8{isolation:isolate;}.cls-12,.cls-9{fill:#effffc;}.cls-10{opacity:0.4;}.cls-11,.cls-15,.cls-20{opacity:0.2;}.cls-13{fill:#5b3296;}.cls-14{fill:none;stroke:#563e66;stroke-width:0.94px;}.cls-16{fill:#263238;}.cls-17{opacity:0.7;}.cls-18{fill:#407bff;}.cls-19{fill:#e4897b;}.cls-21{fill:#de5753;}</style></defs><g id="Capa_2" data-name="Capa 2"><g id="Background_Complete" data-name="Background Complete"><rect class="cls-1" y="283.22" width="500" height="0.25"/><rect class="cls-1" x="416.78" y="299.31" width="33.12" height="0.25"/><rect class="cls-1" x="322.53" y="302.03" width="8.69" height="0.25"/><rect class="cls-1" x="396.59" y="290.03" width="19.19" height="0.25"/><rect class="cls-1" x="52.46" y="291.71" width="43.19" height="0.25"/><rect class="cls-1" x="104.56" y="291.71" width="6.33" height="0.25"/><rect class="cls-1" x="131.47" y="295.93" width="93.68" height="0.25"/><rect class="cls-2" x="100.36" y="74.7" width="141.98" height="208.17"/><rect class="cls-3" x="105.37" y="81.25" width="131.95" height="38.45"/><rect class="cls-1" x="105.37" y="87.47" width="7.5" height="32.22"/><rect class="cls-1" x="141.62" y="87.47" width="7.5" height="32.22"/><rect class="cls-1" x="185.55" y="87.07" width="7.5" height="32.22" transform="translate(-14.77 33.65) rotate(-9.78)"/><rect class="cls-1" x="114.66" y="91.72" width="7.5" height="27.98"/><rect class="cls-1" x="131.89" y="91.72" width="7.5" height="27.98"/><rect class="cls-1" x="175.38" y="91.72" width="7.5" height="27.98"/><rect class="cls-1" x="154.59" y="91.24" width="7.5" height="27.98" transform="translate(-19.06 36.85) rotate(-12.53)"/><rect class="cls-1" x="124.89" y="85.87" width="3.75" height="33.82"/><rect class="cls-1" x="169.47" y="85.87" width="3.75" height="33.82"/><rect class="cls-3" x="105.37" y="125.78" width="131.95" height="38.45"/><rect class="cls-1" x="229.83" y="132.01" width="7.5" height="32.22"/><rect class="cls-1" x="193.58" y="132.01" width="7.5" height="32.22"/><rect class="cls-1" x="137.28" y="143.97" width="32.22" height="7.5" transform="translate(-18.23 273.79) rotate(-80.22)"/><rect class="cls-1" x="220.54" y="136.25" width="7.5" height="27.98"/><rect class="cls-1" x="203.31" y="136.25" width="7.5" height="27.98"/><rect class="cls-1" x="159.82" y="136.25" width="7.5" height="27.98"/><rect class="cls-1" x="170.37" y="146.01" width="27.98" height="7.5" transform="translate(-1.82 297.25) rotate(-77.47)"/><rect class="cls-1" x="214.06" y="130.41" width="3.75" height="33.82"/><rect class="cls-1" x="169.47" y="130.41" width="3.75" height="33.82"/><rect class="cls-1" x="105.37" y="132.01" width="7.5" height="32.22"/><rect class="cls-1" x="114.66" y="136.25" width="7.5" height="27.98"/><rect class="cls-1" x="131.89" y="136.25" width="7.5" height="27.98"/><rect class="cls-1" x="124.89" y="130.41" width="3.75" height="33.82"/><rect class="cls-3" x="105.37" y="170.32" width="131.95" height="38.45"/><rect class="cls-1" x="181.11" y="176.54" width="7.5" height="32.22"/><rect class="cls-1" x="225.04" y="176.14" width="7.5" height="32.22" transform="translate(-29.33 41.65) rotate(-9.78)"/><rect class="cls-1" x="154.15" y="180.79" width="7.5" height="27.98"/><rect class="cls-1" x="171.38" y="180.79" width="7.5" height="27.98"/><rect class="cls-1" x="214.87" y="180.79" width="7.5" height="27.98"/><rect class="cls-1" x="194.08" y="180.31" width="7.5" height="27.98" transform="translate(-37.43 47.53) rotate(-12.53)"/><rect class="cls-1" x="164.38" y="174.94" width="3.75" height="33.82"/><rect class="cls-1" x="208.96" y="174.94" width="3.75" height="33.82"/><rect class="cls-1" x="138.81" y="176.14" width="7.5" height="32.22" transform="translate(-30.58 27.01) rotate(-9.78)"/><rect class="cls-1" x="128.63" y="180.79" width="7.5" height="27.98"/><rect class="cls-1" x="107.84" y="180.31" width="7.5" height="27.98" transform="translate(-39.49 28.83) rotate(-12.53)"/><rect class="cls-1" x="122.73" y="174.94" width="3.75" height="33.82"/><rect class="cls-3" x="75.86" y="74.7" width="24.5" height="208.71"/><path class="cls-4" d="M325.44,278H304.63l10.94-89.1a7.93,7.93,0,0,1,7.67-6.83c2.31-.07,86.32,0,90.8,0L400.73,278Z"/><path class="cls-2" d="M391.44,278h20.81l10.95-89.1c1-7.67-8.1-7-13.15-6.83a8,8,0,0,0-7.67,6.83Z"/><path class="cls-5" d="M383.78,277.86l3.77-43.1a4.1,4.1,0,0,1,3.57-3.72c3.09,0,6.11-1.88,6.34-5.18.37-4.58,2.56-13.88-4.8-13.85h34.78c7.35,0,5.18,9.25,4.8,13.85-.4,7-9.18,2.92-9.91,8.9-7.89,55.08,11,48.69-44.61,48.65A6.09,6.09,0,0,0,383.78,277.86Z"/><path class="cls-5" d="M288.06,224A13.1,13.1,0,0,0,275,212c51.91-1,40.91-1.37,46.32,46.12H291.05Z"/><path class="cls-2" d="M261.56,212c10.05-.17,25.27-1.91,26.5,12l3,34.16h72.12l3-34.16a13.09,13.09,0,0,1,13-12c4.84.74,19.78-3,18.94,6-.6,5.08.44,13.23-7,13a4.1,4.1,0,0,0-3.57,3.72l-3.77,43.1a6.09,6.09,0,0,1-6.06,5.55H276.5a6.09,6.09,0,0,1-6.06-5.55l-3.77-43.1A4.12,4.12,0,0,0,263.1,231c-3.07,0-6.13-1.88-6.35-5.18C256.49,221.29,254.12,212,261.56,212Z"/><path class="cls-5" d="M102.16,64.3s-1.11-7.31,4.22-12,4.86-7.47,3.33-7.83-2.92,4.32-5.26,5.61c0,0-.08-6.68,2.3-9.14s3.63-8.79,1.36-8.9-2.49,3.76-3,6.51-3,6.61-3,6.61-.49-6-2-8.43,2.56-8.08,1-10.54S96.72,28.43,97,33.7s3.75,10.88,2.93,16.39c0,0-1.55-3.87-2.94-4.22S94.14,43,93.21,42c-5.4.7,8.87,15.54,6.67,23.14Z"/><path class="cls-5" d="M105.34,61c.7,6.11,5.41,18.56-5.61,17.39C90.81,78.26,95.6,65.92,96,61Z"/><rect class="cls-1" x="210.06" y="52.86" width="5.43" height="23.35"/><rect class="cls-1" x="183.79" y="52.86" width="5.43" height="23.35"/><rect class="cls-1" x="142.99" y="61.53" width="23.35" height="5.43" transform="translate(65.09 205.75) rotate(-80.22)"/><rect class="cls-1" x="203.33" y="55.94" width="5.43" height="20.27"/><rect class="cls-1" x="190.84" y="55.94" width="5.43" height="20.27"/><rect class="cls-1" x="159.33" y="55.94" width="5.43" height="20.27"/><rect class="cls-1" x="166.97" y="63.01" width="20.27" height="5.43" transform="translate(74.53 224.36) rotate(-77.47)"/><rect class="cls-1" x="198.63" y="51.7" width="2.72" height="24.51"/><rect class="cls-1" x="166.32" y="51.7" width="2.72" height="24.51"/><rect class="cls-1" x="120.48" y="57.68" width="26.47" height="18.27"/><rect class="cls-1" x="215.56" y="65.16" width="22.17" height="13.64"/><rect class="cls-1" x="221.46" y="53.17" width="11.09" height="13.64"/><rect class="cls-3" x="391.44" y="35.12" width="26.37" height="109.88"/><rect class="cls-3" x="316.37" y="35.12" width="98.62" height="110.17"/><rect class="cls-2" x="313.19" y="35.12" width="102.32" height="110.17"/><rect class="cls-6" x="317.56" y="38.64" width="93.74" height="101.6"/><rect class="cls-3" x="317.56" y="38.64" width="1.74" height="101.6"/><rect class="cls-3" x="319" y="111.7" width="92.54" height="2.74"/><rect class="cls-2" x="317.56" y="107.1" width="95.21" height="4.6"/></g><g id="Shadow"><path id="_Path_" data-name="&lt;Path&gt;" class="cls-4" d="M443.89,317.06C454,331.47,46,331.47,56.11,317.05,46,302.64,454.05,302.64,443.89,317.06Z"/></g><g id="Interface"><rect class="cls-7" x="135.72" y="53.64" width="193.55" height="225.3" rx="7.32"/><rect class="cls-8" x="136.32" y="53.64" width="193.55" height="225.3" rx="7.32"/><rect class="cls-9" x="167.08" y="156.97" width="130.84" height="22.4"/><g class="cls-10"><path class="cls-7" d="M178.78,170.35v.58h-4.54v-6.42h4.4v.59h-3.72v2.29h3.32V168h-3.32v2.39Z"/><path class="cls-7" d="M179.69,168.16h2.41v.57h-2.41Z"/><path class="cls-7" d="M191.51,168.14v2.79h-.65c-.14-1.18.63-4.43-1.38-4.27-2.15-.14-1.54,2.94-1.61,4.27h-.66c-.14-1.19.64-4.43-1.39-4.27-2.14-.14-1.54,2.94-1.61,4.27h-.66v-4.82h.63V167c.61-1.2,3-1.27,3.48.1C188.57,165.47,191.7,165.77,191.51,168.14Z"/><path class="cls-7" d="M196.93,167.94v3h-.63v-.75c-3.37,2.93-5.53-2.91,0-2,.33-1.77-2-1.93-3-1l-.29-.49C194.22,165.67,197.09,165.78,196.93,167.94Zm-.66,1.54v-.78C191.4,167.93,194.12,172.47,196.27,169.48Z"/><path class="cls-7" d="M198.55,164.59c0-.59,1-.6.95,0A.48.48,0,0,1,198.55,164.59Zm.15,1.52h.65v4.82h-.65Z"/><path class="cls-7" d="M201.16,164.13h.65v6.8h-.65Z"/></g><rect class="cls-9" x="167.08" y="187.57" width="130.84" height="22.4"/><g class="cls-10"><path class="cls-7" d="M179.26,197.35c.15,2.2-2.6,2.32-4.34,2.19v2h-.68v-6.42C176,195.11,179.42,194.85,179.26,197.35Zm-.68,0c.16-1.82-2.33-1.65-3.66-1.61V199C176.24,199,178.74,199.15,178.58,197.35Z"/><path class="cls-7" d="M184.19,198.58v3h-.63v-.75c-3.37,2.92-5.53-2.92,0-2,.33-1.78-2-1.93-3-1l-.3-.49C181.48,196.3,184.35,196.42,184.19,198.58Zm-.65,1.54v-.79C178.66,198.57,181.38,203.11,183.54,200.12Z"/><path class="cls-7" d="M185.29,201l.29-.51c.55.59,3.07.9,3-.25s-3.13-.27-3.13-2.17c-.13-1.48,2.62-1.7,3.62-.93l-.29.52c-.69-.58-2.73-.61-2.68.39,0,1.3,3.13.32,3.13,2.17C189.38,201.87,186.17,201.91,185.29,201Z"/><path class="cls-7" d="M189.77,201l.3-.51c.55.59,3.07.9,3-.25S190,200,190,198.09c-.14-1.48,2.61-1.7,3.61-.93l-.28.52c-.69-.58-2.73-.61-2.68.39,0,1.3,3.13.32,3.13,2.17C193.87,201.87,190.65,201.91,189.77,201Z"/><path class="cls-7" d="M201.91,196.75l-1.82,4.82h-.61L198,197.62l-1.52,3.95h-.61L194,196.75h.62l1.52,4.1,1.55-4.1h.56l1.54,4.1,1.53-4.1Z"/><path class="cls-7" d="M202.27,199.16c-.11-3.2,5-3.21,4.91,0C207.29,202.38,202.16,202.37,202.27,199.16Zm4.25,0a1.8,1.8,0,1,0-3.59,0A1.8,1.8,0,1,0,206.52,199.16Z"/><path class="cls-7" d="M210.94,196.71v.63c-2.27-.31-1.73,2.83-1.78,4.23h-.65v-4.82h.62v.94A1.83,1.83,0,0,1,210.94,196.71Z"/><path class="cls-7" d="M216.47,194.77v6.8h-.62v-.95a2.38,2.38,0,1,1,0-3v-2.89Zm-.64,4.39a1.8,1.8,0,1,0-3.59,0A1.8,1.8,0,1,0,215.83,199.16Z"/></g><rect class="cls-11" x="167.08" y="232.82" width="130.84" height="22.4"/><path class="cls-7" d="M198.9,222.53h-2.14l-.46,1h-.42l1.75-3.83h.4l1.75,3.83h-.42Zm-.15-.33-.92-2.06-.92,2.06Z"/><path class="cls-7" d="M200.34,219.49h.39v4.06h-.39Z"/><path class="cls-7" d="M203.27,220.65V221c-1.36-.18-1,1.69-1.07,2.53h-.39v-2.88h.38v.56A1.08,1.08,0,0,1,203.27,220.65Z"/><path class="cls-7" d="M206.45,222.23H204a1.16,1.16,0,0,0,2,.62l.21.26a1.52,1.52,0,0,1-2.62-1A1.4,1.4,0,1,1,206.45,222.23Zm-2.41-.29h2A1,1,0,0,0,204,221.94Z"/><path class="cls-7" d="M209.34,221.76v1.79H209v-.45c-2.05,1.76-3.24-1.77,0-1.18.19-1.06-1.2-1.15-1.78-.59L207,221C207.73,220.4,209.44,220.47,209.34,221.76Zm-.38.93v-.48C206.11,221.72,207.63,224.48,209,222.69Z"/><path class="cls-7" d="M213,219.49v4.06h-.37V223c-3.22,2.75-3.31-4.44,0-1.76v-1.73Zm-.38,2.62a1.07,1.07,0,1,0-2.14,0A1.07,1.07,0,1,0,212.66,222.11Z"/><path class="cls-7" d="M216.55,220.67c-.63.82-1.39,5.14-3.1,3.71l.18-.29c.5.49,1.08.1,1.25-.55l-1.29-2.87H214l1.09,2.45,1.08-2.45Z"/><path class="cls-7" d="M220.71,221.76v1.79h-.37v-.45c-2.05,1.76-3.24-1.77,0-1.18.2-1.06-1.19-1.15-1.77-.59l-.18-.29C219.1,220.4,220.81,220.47,220.71,221.76Zm-.39.93v-.48C217.48,221.72,219,224.48,220.32,222.69Z"/><path class="cls-7" d="M228,221.88v1.67h-.38c.51-3.54-2.26-3.43-1.8,0h-.38c.51-3.54-2.27-3.44-1.8,0h-.39v-2.88h.37v.52a1.23,1.23,0,0,1,2.08.07C226.2,220.28,228.07,220.47,228,221.88Z"/><path class="cls-7" d="M231.54,222.23h-2.41a1.16,1.16,0,0,0,2,.62l.22.26a1.52,1.52,0,0,1-2.62-1A1.4,1.4,0,1,1,231.54,222.23Zm-2.41-.29h2.05A1,1,0,0,0,229.13,221.94Z"/><path class="cls-7" d="M237.1,221.88v1.67h-.39c.52-3.54-2.26-3.43-1.79,0h-.39c.52-3.54-2.26-3.44-1.79,0h-.39v-2.88h.37v.52a1.23,1.23,0,0,1,2.08.07C235.34,220.28,237.21,220.47,237.1,221.88Z"/><path class="cls-7" d="M241.08,222.11a1.4,1.4,0,0,1-2.54.87v.57h-.38v-4.06h.39v1.73A1.41,1.41,0,0,1,241.08,222.11Zm-.39,0a1.07,1.07,0,1,0-2.14,0A1.07,1.07,0,1,0,240.69,222.11Z"/><path class="cls-7" d="M244.39,222.23H242a1.15,1.15,0,0,0,2,.62l.22.26a1.52,1.52,0,0,1-2.62-1A1.4,1.4,0,1,1,244.39,222.23Zm-2.41-.29h2A1,1,0,0,0,242,221.94Z"/><path class="cls-7" d="M246.64,220.65V221c-1.35-.18-1,1.69-1.06,2.53h-.39v-2.88h.37v.56A1.09,1.09,0,0,1,246.64,220.65Z"/><path class="cls-7" d="M249.16,220.7c0-.87-1.56-.83-1.93-.23l-.29-.22c.52-.8,2.69-.8,2.63.39,0,.93-1,1-1,1.76h-.41C248.16,221.5,249.16,221.41,249.16,220.7Zm-1.08,2.59a.29.29,0,0,1,.57,0A.29.29,0,0,1,248.08,223.29Z"/><path class="cls-12" d="M251.87,219.72h.89v3.11h1.92v.72h-2.81Z"/><path class="cls-12" d="M254.88,222.08c-.08-2,3.32-2,3.24,0C258.2,224.07,254.8,224.06,254.88,222.08Zm2.37,0a.75.75,0,1,0-1.5,0A.75.75,0,1,0,257.25,222.08Z"/><path class="cls-12" d="M261.73,220.6c.22,2.32,0,5.27-3.1,3.65l.34-.61c.61.51,2.09.51,1.91-.6-3.18,2-3-4.19,0-2.06v-.38Zm-.84,1.38c0-.95-1.59-.94-1.55,0S260.93,222.94,260.89,222Z"/><path class="cls-12" d="M264,219.72c0-.62,1.09-.63,1.06,0S264,220.34,264,219.72Zm.1.88h.85v3h-.85Z"/><path class="cls-12" d="M268.74,221.86v1.69h-.85c.41-3.1-1.68-3-1.31,0h-.85v-3h.82V221A1.25,1.25,0,0,1,268.74,221.86Z"/><rect class="cls-13" x="167.08" y="231.45" width="130.84" height="22.4"/><path class="cls-9" d="M215.6,246.13,214,243.78c-.33,0-2,0-2.38,0v2.33h-1.1v-7.67h3c3.37-.32,4.4,4,1.51,5.1l1.82,2.57Zm0-5c.17-1.95-2.57-1.76-4-1.72v3.45C213,242.91,215.74,243.09,215.57,241.14Z"/><path class="cls-9" d="M223.52,243.58h-4.71c.11,1.72,2.71,2.27,3.78,1l.58.68c-1.68,1.94-5.64.69-5.42-2C217.66,239.16,224.09,239.46,223.52,243.58Zm-4.71-.76h3.72C222.4,240.65,218.94,240.64,218.81,242.82Z"/><path class="cls-9" d="M230.56,240.33c.2,4.42.55,10.47-5.79,7.13l.5-.81c1.52,1.32,4.75,1,4.23-1.66-6.63,4.4-6.44-8.34.06-3.77v-.89Zm-1,2.75c.11-2.49-4.12-2.48-4,0C225.42,245.56,229.63,245.57,229.53,243.08Z"/><path class="cls-9" d="M232.38,238.53c0-.89,1.44-.9,1.42,0A.71.71,0,0,1,232.38,238.53Zm.19,1.8h1.05v5.8h-1.05Z"/><path class="cls-9" d="M234.89,245.52l.44-.83c.65.59,3.42,1.05,3.42-.19s-3.67-.18-3.67-2.49c-.14-1.89,3.24-2.12,4.53-1.21l-.45.83c-.77-.6-3-.73-3,.34,0,1.37,3.68.25,3.68,2.51C240,246.49,236,246.55,234.89,245.52Z"/><path class="cls-9" d="M244.38,245.79c-3.44,1.9-3.23-2.46-3.11-4.6h-1v-.86h1v-1.27h1v1.27H244v.86h-1.67c.13,1.11-.69,5.36,1.73,3.85Z"/><path class="cls-9" d="M250.68,243.58H246c.12,1.72,2.71,2.27,3.78,1l.58.68c-1.68,1.94-5.63.69-5.41-2C244.83,239.16,251.26,239.46,250.68,243.58Zm-4.71-.76h3.73C249.57,240.65,246.11,240.64,246,242.82Z"/><path class="cls-9" d="M255.29,240.27v1c-2.66-.42-2,3.23-2.07,4.84h-1.05v-5.8h1v1A2.2,2.2,0,0,1,255.29,240.27Z"/><path class="cls-12" d="M209.59,78.43l.45-.94c.89,1.1,4.9,1.54,4.84-.32,0-2-5.08-.76-5.08-3.88-.31-2.39,4.14-3.06,5.91-1.65l-.4,1c-1.22-1-4.4-1-4.34.65,0,2,5.09.76,5.09,3.85C216.38,79.75,211.1,80.1,209.59,78.43Z"/><path class="cls-12" d="M217.44,71.06c0-1,1.58-1,1.56,0A.78.78,0,0,1,217.44,71.06Zm.2,2h1.16v6.36h-1.16Z"/><path class="cls-12" d="M227.07,73c.22,4.85.61,11.47-6.33,7.81l.55-.89c1.67,1.45,5.2,1.07,4.63-1.81-7.28,4.79-7.07-9.11.06-4.13V73ZM226,76c.12-2.72-4.51-2.71-4.38,0C221.45,78.76,226.06,78.77,226,76Z"/><path class="cls-12" d="M235.31,75.73v3.66h-1.16c-.2-1.47.84-5.61-1.71-5.39-2.73-.21-1.9,3.72-2,5.39h-1.15V73h1.11v1C231.79,72.17,235.52,72.77,235.31,75.73Z"/><path class="cls-12" d="M246.6,73v6.36h-1.09v-1c-1.46,1.91-5.12,1.11-4.9-1.74V73h1.15c.2,1.47-.83,5.61,1.72,5.4,2.68.2,1.84-3.76,2-5.4Z"/><path class="cls-12" d="M255.38,76.21A3.13,3.13,0,0,1,250,78.43v3.28H248.8V73h1.1v1C251.62,71.81,255.58,73.28,255.38,76.21Zm-1.16,0a2.14,2.14,0,1,0-4.28,0A2.14,2.14,0,1,0,254.22,76.21Z"/><rect class="cls-9" x="167.08" y="126.36" width="130.84" height="22.4"/><g class="cls-10"><path class="cls-7" d="M174.24,133.91h.68v5.83h3.59v.59h-4.27Z"/><path class="cls-7" d="M183.16,137.34v3h-.62v-.75c-3.38,2.92-5.54-2.92,0-2,.33-1.78-2-1.93-3-1l-.3-.49C180.46,135.06,183.32,135.18,183.16,137.34Zm-.65,1.54v-.79C177.64,137.33,180.35,141.86,182.51,138.88Z"/><path class="cls-7" d="M184.26,139.78l.29-.51c.56.59,3.08.9,3-.25s-3.12-.27-3.12-2.17c-.14-1.49,2.61-1.7,3.61-.93l-.29.52c-.68-.58-2.72-.61-2.67.39,0,1.3,3.12.32,3.12,2.17C188.36,140.63,185.14,140.67,184.26,139.78Z"/><path class="cls-7" d="M192,140c-2.81,1.68-2.5-2.38-2.43-4h-.87v-.55h.87v-1.06h.65v1.06h1.46v.55h-1.46c.12,1-.64,4.88,1.55,3.51Z"/><path class="cls-7" d="M201,133.91v6.42h-.56l-4.12-5.21v5.21h-.68v-6.42h.56l4.13,5.21v-5.21Z"/><path class="cls-7" d="M206.64,137.34v3H206v-.75c-3.37,2.92-5.53-2.92,0-2,.33-1.78-2-1.93-3-1l-.3-.49C203.93,135.06,206.8,135.18,206.64,137.34Zm-.65,1.54v-.79C201.12,137.33,203.83,141.86,206,138.88Z"/><path class="cls-7" d="M216.37,137.53v2.8h-.65c-.15-1.19.62-4.44-1.39-4.27-2.15-.14-1.53,2.93-1.61,4.27h-.65c-.15-1.19.63-4.44-1.4-4.27-2.14-.14-1.53,2.93-1.61,4.27h-.65v-4.82H209v.88c.61-1.2,3-1.27,3.49.1C213.42,134.86,216.55,135.17,216.37,137.53Z"/><path class="cls-7" d="M222.36,138.12h-4c0,1.65,2.37,2.24,3.38,1l.36.42c-1.38,1.62-4.56.58-4.39-1.67C217.58,134.59,222.73,134.78,222.36,138.12Zm-4-.49h3.42A1.72,1.72,0,0,0,218.32,137.63Z"/></g><rect class="cls-9" x="167.08" y="95.76" width="130.84" height="22.4"/><g class="cls-10"><path class="cls-7" d="M174.92,103.9v2.52h3.32V107h-3.32v2.73h-.68v-6.42h4.4v.59Z"/><path class="cls-7" d="M179.67,103.38c0-.59,1-.6,1,0A.48.48,0,0,1,179.67,103.38Zm.14,1.52h.65v4.83h-.65Z"/><path class="cls-7" d="M184.71,104.87v.63c-2.27-.32-1.73,2.82-1.78,4.23h-.65V104.9h.62v.95A1.83,1.83,0,0,1,184.71,104.87Z"/><path class="cls-7" d="M185.25,109.18l.29-.52c.56.6,3.08.91,3-.24s-3.12-.27-3.12-2.18c-.14-1.48,2.61-1.7,3.61-.92l-.29.52c-.68-.58-2.72-.62-2.67.38,0,1.31,3.12.33,3.12,2.18C189.35,110,186.13,110.06,185.25,109.18Z"/><path class="cls-7" d="M193,109.43c-2.81,1.68-2.5-2.37-2.43-4h-.87v-.55h.87v-1.05h.65v1.05h1.46v.55h-1.46c.12,1-.64,4.89,1.55,3.52Z"/><path class="cls-7" d="M202,103.31v6.42h-.56l-4.12-5.21v5.21h-.68v-6.42h.56l4.13,5.21v-5.21Z"/><path class="cls-7" d="M207.63,106.74v3H207V109c-3.37,2.92-5.53-2.92,0-2,.33-1.77-2-1.93-3-1l-.3-.48C204.92,104.46,207.79,104.58,207.63,106.74Zm-.65,1.54v-.79C202.11,106.72,204.82,111.26,207,108.28Z"/><path class="cls-7" d="M217.36,106.93v2.8h-.65c-.15-1.19.62-4.44-1.39-4.28-2.15-.14-1.53,2.94-1.61,4.28h-.65c-.15-1.2.63-4.44-1.4-4.28-2.14-.14-1.53,2.94-1.61,4.28h-.65V104.9H210v.88c.61-1.19,3-1.27,3.49.11C214.41,104.26,217.54,104.56,217.36,106.93Z"/><path class="cls-7" d="M223.35,107.52h-4c0,1.65,2.37,2.24,3.38,1l.36.42c-1.38,1.63-4.56.58-4.39-1.66C218.57,104,223.72,104.18,223.35,107.52Zm-4-.49h3.42A1.72,1.72,0,0,0,219.31,107Z"/></g></g><g id="Plant"><path class="cls-14" d="M136.44,246.37c-19.83-15.42-18.39,37.34-19.07,39.71"/><path class="cls-14" d="M116.9,292.68s3.91-40.12-10.79-57"/><path class="cls-14" d="M118.3,288.45s-3-45.68,8-55.81"/><path class="cls-14" d="M116.9,288.45s-.25-30.18-8.44-34.87S96.1,264.19,96.1,264.19"/><path class="cls-14" d="M120.14,288.45c-1.11-1.28.49-52.72,18-27.9"/><path class="cls-14" d="M117.93,291.56s4.1-54.2-2.69-63.38"/><path class="cls-7" d="M101.45,258c11.1,4.85-10.21,13.94-11.26,14.46C82.31,266,94.8,246.74,101.45,258Z"/><path class="cls-15" d="M101.45,258c11.1,4.85-10.21,13.94-11.26,14.46C82.31,266,94.8,246.74,101.45,258Z"/><path class="cls-7" d="M119.2,251.21c-12.12.19,4.06,16.79,4.82,17.68C133.71,266.06,129.72,243.4,119.2,251.21Z"/><path class="cls-15" d="M119.2,251.21c-12.12.19,4.06,16.79,4.82,17.68C133.71,266.06,129.72,243.4,119.2,251.21Z"/><path class="cls-7" d="M122.88,233.27c-9.09-2.34,8.37-9.53,15.11-1C136.8,236.32,122.58,245.89,122.88,233.27Z"/><path class="cls-15" d="M122.88,233.27c-9.09-2.34,8.37-9.53,15.11-1C136.8,236.32,122.58,245.89,122.88,233.27Z"/><path class="cls-7" d="M117.48,229c9,2.83-2.07-12.52-12.28-8.87,0,0-.25,8.28,4.81,11.55S117.48,229,117.48,229Z"/><path class="cls-15" d="M117.48,229c9,2.83-2.07-12.52-12.28-8.87,0,0-.25,8.28,4.81,11.55S117.48,229,117.48,229Z"/><path class="cls-7" d="M131.2,256.54c-4.35-5,14.1-3.69,13,7.53C141.17,264.82,124.79,266.23,131.2,256.54Z"/><path class="cls-15" d="M131.2,256.54c-4.35-5,14.1-3.69,13,7.53C141.17,264.82,124.79,266.23,131.2,256.54Z"/><path class="cls-7" d="M106,233c4.35-5-14.1-3.7-13,7.52C96.07,241.28,112.45,242.69,106,233Z"/><path class="cls-15" d="M106,233c4.35-5-14.1-3.7-13,7.52C96.07,241.28,112.45,242.69,106,233Z"/><path class="cls-7" d="M112.56,241.46c-.6-5-9.49,5.85-2.79,11.19C111.82,251.44,121.28,243,112.56,241.46Z"/><path class="cls-15" d="M112.56,241.46c-.6-5-9.49,5.85-2.79,11.19C111.82,251.44,121.28,243,112.56,241.46Z"/><path class="cls-7" d="M133,244.26c-2.14-4.52,11.15-.11,8.33,8C139,252.3,126.42,250.17,133,244.26Z"/><path class="cls-15" d="M133,244.26c-2.14-4.52,11.15-.11,8.33,8C139,252.3,126.42,250.17,133,244.26Z"/><polygon class="cls-16" points="102.16 317.54 133.07 317.54 137.18 287.48 98.05 287.48 102.16 317.54"/><polygon class="cls-13" points="102.16 317.54 133.07 317.54 137.18 287.48 98.05 287.48 102.16 317.54"/><path class="cls-13" d="M141.06,285c.21,2.57,0,6.37-3.46,6.32H97.25c-3.43.05-3.7-3.75-3.46-6.32Z"/></g><g id="Speech_bubble" data-name="Speech bubble"><path class="cls-7" d="M397.52.12H368.79A8.85,8.85,0,0,0,360,9V34c0,9.49,10.37,9.23,17.23,8.85l-2,7.89,8-7.89c7.44-.44,23.27,3,23.24-8.85V9A8.85,8.85,0,0,0,397.52.12Z"/><path class="cls-17" d="M397.52.12H368.79A8.85,8.85,0,0,0,360,9V34c0,9.49,10.37,9.23,17.23,8.85l-2,7.89,8-7.89c7.44-.44,23.27,3,23.24-8.85V9A8.85,8.85,0,0,0,397.52.12Z"/><path class="cls-13" d="M398.52,21.36C398.43,40,370.08,40,370,21.36,370.08,2.72,398.43,2.72,398.52,21.36Z"/><path class="cls-6" d="M382.76,27.73c-.82.46-6-6.67-6.59-7a1.31,1.31,0,0,1,2-1.7l4.59,5.42,7.59-8.94a1.31,1.31,0,0,1,2,1.69C391.89,17.41,383.39,28.44,382.76,27.73Z"/></g><g id="Character"><path class="cls-18" d="M393.64,154.38s-17.41-2.2-43.79,5c-1.19-56.39-21.38-60.11,37-58.19,0,0,1,18.87,3.62,30.25S395,152.19,393.64,154.38Z"/><path class="cls-13" d="M393.64,154.38s-17.41-2.2-43.79,5c-1.19-56.39-21.38-60.11,37-58.19,0,0,1,18.87,3.62,30.25S395,152.19,393.64,154.38Z"/><path class="cls-19" d="M337.13,310.44l7.1,2c.59-3.84,2-13.23,2.6-17l-7.1-2C339.09,297.67,337.78,306.23,337.13,310.44Z"/><path class="cls-19" d="M378,311l7.32,1c0-4.06.09-13.2.12-17.17l-7.33-1C378,298,378,306.8,378,311Z"/><polygon class="cls-20" points="378.06 293.86 378.01 301.4 385.34 301.4 385.39 294.82 378.06 293.86"/><polygon class="cls-20" points="338.52 301.4 345.92 301.4 346.83 295.49 339.73 293.48 338.52 301.4"/><path class="cls-19" d="M305.61,109.63l-7.05-2.08,1.29,8s6.4,1.48,7-1.85Z"/><polygon class="cls-19" points="291.52 109.42 294.98 115.96 299.85 115.59 298.56 107.55 291.52 109.42"/><polygon class="cls-19" points="315.34 111.69 303.76 109.09 302.71 114.72 313.22 117.28 315.34 111.69"/><path class="cls-7" d="M350.37,106.61C332.76,129,328.8,123.54,306.7,118.15l2.13-8.36C338.8,114,325,114.35,345.16,94Z"/><path class="cls-20" d="M349.69,107.42c-1.46,1.71-5,5.84-8.69,9.4.93-6.38,2.95-11.95,6.62-15.52Z"/><path class="cls-7" d="M337.22,309.33c9.54.36,7.95-3.17,10.4,6.76-.16,2.89-8.77.68-11.79,1.41-2.37-.53-17.77,2-14.73-3.22C327.51,313.2,331.61,312.15,337.22,309.33Z"/><path class="cls-7" d="M336.52,310.37c-1.32.41-5.48.82-4.23-1.38C333.12,308.56,337,309.8,336.52,310.37Zm-4-1.11c-.59,1.37,1.59,1.19,3.37.88C334.72,309.62,333.09,309.05,332.54,309.26Z"/><path class="cls-7" d="M336.52,310.37c-1-.23-4.06-2.73-2.11-3.26C336,306.76,336.9,310.17,336.52,310.37Zm-2.24-2.87c-.62.51,1.05,1.83,2,2.4C336.08,309.14,335.54,307.11,334.28,307.5Z"/><path class="cls-7" d="M378.24,309.33c9.55.36,8-3.17,10.4,6.76-.15,2.89-8.76.68-11.79,1.41-2.37-.53-17.77,2-14.73-3.22C368.54,313.2,372.63,312.15,378.24,309.33Z"/><path class="cls-7" d="M377.55,310.37c-1.33.41-5.48.82-4.23-1.38C374.15,308.56,378,309.8,377.55,310.37Zm-4-1.11c-.58,1.37,1.6,1.19,3.38.88C375.74,309.62,374.11,309.05,373.56,309.26Z"/><path class="cls-7" d="M377.55,310.37c-1-.23-4.06-2.73-2.12-3.26C377,306.76,377.93,310.17,377.55,310.37Zm-2.25-2.87c-.61.51,1.06,1.83,2,2.4C377.11,309.14,376.57,307.11,375.3,307.5Z"/><path class="cls-16" d="M393.05,150.08c3.88,16.81-2.78,149.06-2.78,149.06H377.41l-5.5-110.21L351.66,299.14l-13.75-1c9.6-94.16,17.37-131.21,16.91-142.79Z"/><path class="cls-9" d="M337.91,298.14l13.75,1c3.2-17.41,17.35-94.47,20.25-110.21l5.5,110.21h12.86s6.66-132.25,2.78-149.06l-38.23,5.27C355.29,166.81,347.5,204.08,337.91,298.14Z"/><path class="cls-16" d="M386.12,87.81c-1.72,18,4,48,6.93,62.27l-38.23,5.27c-13.94-39-8.69-61.67-8.69-61.67C354,89.46,377.34,86.79,386.12,87.81Z"/><path class="cls-19" d="M365.66,70.27c.28,5.35.85,15.39,5.3,17.94.13,2.08-12.54,11-13,1.74,2.62-2,2-5.26,0-9Z"/><path class="cls-20" d="M362.52,74.63,358,81a17.4,17.4,0,0,1,1.2,2.7C362.45,82.41,364.53,77.5,362.52,74.63Z"/><path class="cls-16" d="M346.16,59.5c-.87,2.78-.39,8.48,3.48,6.63S347.66,54.73,346.16,59.5Z"/><path class="cls-19" d="M366.16,63.25c.43,7.14,1,11.29-2.11,15.33-4.73,6.07-13.89,3.81-16.45-3.07C339.65,55.2,361.87,44.87,366.16,63.25Z"/><path class="cls-16" d="M361.16,59.38v-8s8.48-.63,8.1,3.71c4.7,2.33,2.48,9.64-3.83,13.22-3.46-2.77-3.06-9.43-3.06-9.43C362,59.07,361.58,59.23,361.16,59.38Z"/><path class="cls-19" d="M369.61,68.82a6.67,6.67,0,0,1-2.85,4.31c-5.14,2.56-4.7-7.57-.61-8.11A3.08,3.08,0,0,1,369.61,68.82Z"/><path class="cls-16" d="M355.63,66.44c.17,1.36-1.22,1.5-1.37.15S355.48,65.09,355.63,66.44Z"/><path class="cls-16" d="M349.09,67.17c.17,1.36-1.22,1.5-1.37.15S348.94,65.82,349.09,67.17Z"/><path class="cls-21" d="M351.2,67.22A20.13,20.13,0,0,1,349,72.3a3.48,3.48,0,0,0,2.81.15Z"/><path class="cls-16" d="M355.15,74.31c-.24.11-1.33.25-.79-.2a4.57,4.57,0,0,0,3.52-2.21C358.79,71.67,357.38,73.75,355.15,74.31Z"/><path class="cls-16" d="M357.39,64.11c-1.05-.7-2.5-1.23-2.65-1a.34.34,0,0,1-.13-.67,3.42,3.42,0,0,1,2.93,1.09A.34.34,0,0,1,357.39,64.11Z"/><path class="cls-16" d="M346,65.24a.35.35,0,0,1-.41-.44,3.32,3.32,0,0,1,2.21-2.18.34.34,0,0,1,.17.66C347.78,63.09,346.57,64.2,346,65.24Z"/><path class="cls-16" d="M364.92,62.34s-5-1.83-7.28-4.73c0,0-4.54,1.19-5.47,3a2.26,2.26,0,0,1-.39-3s-3.4.72-4.07,3a2.86,2.86,0,0,1-1.6-3s-1.51.57-2,3c0,0-3.75-7.82,8.64-10.06a9.24,9.24,0,0,0-2.91-.49s8.65-3.49,15.5-.3S371,59.13,364.92,62.34Z"/><path class="cls-7" d="M396,156.8l-12,1.6c-1.12-8-9.22-54.06-7.13-69.62l6.27-1.65L388,88.78C393.29,108.57,394.81,137.45,396,156.8Z"/><path class="cls-7" d="M376.88,112.64s1-16.83,6.27-25.51c.08-5.15-4.49-1.8-6.27-.9C371.32,82.21,372.24,90.48,376.88,112.64Z"/><path class="cls-17" d="M376.88,112.64s1-16.83,6.27-25.51c.08-5.15-4.49-1.8-6.27-.9C371.32,82.21,372.24,90.48,376.88,112.64Z"/><path class="cls-7" d="M349.6,161.43l1.37,1c-1.87-3.54-2.59-65.82,3.92-71.73L345.16,94C343.31,114.39,349.6,161.43,349.6,161.43Z"/><path class="cls-7" d="M350.14,115c.58.6-7.68-29.19,2.29-25.12,0,0,3.39-2.74,4.4.28C356.83,90.2,352.17,93.48,350.14,115Z"/><path class="cls-17" d="M350.14,115c.58.6-7.68-29.19,2.29-25.12,0,0,3.39-2.74,4.4.28C356.83,90.2,352.17,93.48,350.14,115Z"/><path class="cls-20" d="M392.64,115.17c-5.12-2.87-5.8-10.36-5.8-10.36.31-.12,2.21-.77,4.21-1.43C391.64,107.12,392.17,111.12,392.64,115.17Z"/><path class="cls-20" d="M367.6,212.38l4.31-23.45-.83-12.41S365.17,198,367.6,212.38Z"/><path class="cls-20" d="M395.75,152.16c-3.22-.22-6-.43-6-.43l-.61-13.09a4.65,4.65,0,0,1,3.37-.62,36.82,36.82,0,0,0,1.79-6.45C395,140.06,395.49,147.58,395.75,152.16Z"/><polygon class="cls-19" points="396.85 131.56 390.58 141.63 395.54 144.48 401.43 135.41 396.85 131.56"/><path class="cls-7" d="M387.73,88.66c4.22.46,22.16,25.08,22.95,32.5s-10.54,20.23-10.54,20.23l-7.56-4.45s7.68-11.81,8.08-15-14.05-16.08-14.05-16.08C385.14,104,383.51,90.64,387.73,88.66Z"/><path class="cls-7" d="M389.13,138.65s6.45,1.38,9.05,5.43c-2.28,6.14-2.58,11-11.34,10.3C386.84,154.38,386.53,145,389.13,138.65Z"/></g></g></svg>