<svg xmlns="http://www.w3.org/2000/svg" viewBox="0 0 700.53 339.81"><defs><style>.cls-1{fill:#263238;}.cls-2{fill:#3d6d76;}.cls-2,.cls-3,.cls-5,.cls-6,.cls-8{stroke:#272425;stroke-miterlimit:10;stroke-width:0.25px;}.cls-3{fill:#5b3296;}.cls-11,.cls-4{opacity:0.3;}.cls-5{fill:#0c0b16;}.cls-6{fill:#effffc;}.cls-7{fill:#fff;}.cls-8{fill:#9a80fa;}.cls-9{fill:#ffbe9d;}.cls-10{fill:#eb996e;}.cls-12{fill:#fafafa;}</style></defs><g id="Capa_2" data-name="Capa 2"><g id="Table"><path class="cls-1" d="M700.53,339.42c0,.14-156.83.26-350.25.26S0,339.56,0,339.42s156.8-.26,350.28-.26S700.53,339.28,700.53,339.42Z"/></g><g id="Plants"><path class="cls-2" d="M616.58,288.64s-26.51-30.51-36.51-61-5.25-27-5.25-27,13.5,29.63,23.76,43.95,28.51,35.32,28.51,35.32Z"/><path class="cls-2" d="M621.87,205.37a1.55,1.55,0,0,0-2.88,1c1.62,10.72,5.11,35.87,5,52.18-.18,21.19,0,29.38,0,29.38h11s-2-43.81-4.45-57.16C628.8,221.39,625.09,211,621.87,205.37Z"/><path class="cls-2" d="M627.88,284.34A117,117,0,0,0,637,251.4c.91-7.8-.71-18.34-3.12-32.4a87.08,87.08,0,0,1-1.4-15.6,2.63,2.63,0,0,1,4.94-1.23c1.34,2.38,5.19,10.49,6.17,15.58,2.67,13.89,5.7,20.83,3.38,34s-10.86,33.48-10.86,33.48Z"/><path class="cls-2" d="M637.82,285.24s29.1-62.55,31.12-71.83,8.87-30.66,9.68-29.45,2,12.51-3.23,25.42-27.63,77.76-27.63,77.76h-9.94"/><path class="cls-2" d="M624.69,282.44a8,8,0,0,1-.81-.56c-.52-.4-1.3-.95-2.26-1.73a104,104,0,0,1-7.82-6.9,131.24,131.24,0,0,1-21.11-27.1,178,178,0,0,1-14.42-31.22c-1.46-4.16-2.53-7.56-3.22-9.92-.36-1.18-.6-2.1-.77-2.73a5.84,5.84,0,0,1-.23-1,6.19,6.19,0,0,1,.35.93l.88,2.69c.76,2.34,1.89,5.71,3.41,9.84a188.52,188.52,0,0,0,14.53,31.05,137.07,137.07,0,0,0,20.89,27.11c3.11,3.09,5.78,5.45,7.67,7,.92.8,1.68,1.38,2.17,1.81A4.54,4.54,0,0,1,624.69,282.44Z"/><path class="cls-2" d="M627.88,252.43a9.12,9.12,0,0,1-.26-1.83c-.14-1.3-.32-3-.54-5-.46-4.23-1.18-10.06-2.21-16.47s-2.18-12.18-3.07-16.35c-.43-2-.78-3.65-1.06-4.93a11,11,0,0,1-.33-1.82,10,10,0,0,1,.57,1.77c.32,1.14.75,2.81,1.25,4.89,1,4.14,2.22,9.91,3.26,16.34s1.68,12.28,2,16.53c.17,2.12.29,3.85.34,5A11.37,11.37,0,0,1,627.88,252.43Z"/><path class="cls-2" d="M634.69,201.68a4.64,4.64,0,0,1,.35.79l.87,2.33c.39,1,.83,2.25,1.25,3.72s1,3.13,1.41,5l.72,2.94c.25,1,.42,2.11.65,3.22.47,2.22.76,4.63,1.12,7.16a107,107,0,0,1-1.19,33.06c-.53,2.49-1,4.88-1.63,7.06-.3,1.09-.55,2.16-.87,3.16l-.93,2.88c-.55,1.85-1.23,3.46-1.77,4.9s-1,2.64-1.51,3.62-.77,1.69-1,2.26a3.94,3.94,0,0,1-.4.76,4.53,4.53,0,0,1,.29-.81c.23-.59.54-1.35.93-2.3s.91-2.21,1.41-3.66,1.15-3,1.67-4.9c.29-.92.58-1.88.89-2.88s.54-2.07.83-3.16c.61-2.18,1-4.55,1.57-7a120.68,120.68,0,0,0,1.82-16.4,122.51,122.51,0,0,0-.64-16.49c-.34-2.51-.61-4.91-1.06-7.13-.21-1.1-.37-2.19-.6-3.21s-.47-2-.68-2.93c-.39-1.89-.92-3.54-1.32-5s-.8-2.73-1.15-3.74-.57-1.76-.76-2.36A4.49,4.49,0,0,1,634.69,201.68Z"/><path class="cls-2" d="M678.29,185.22a1,1,0,0,1,0,.28c0,.22-.07.48-.12.81-.13.71-.29,1.77-.58,3.11-.56,2.69-1.5,6.57-2.95,11.26s-3.44,10.21-5.8,16.26-5.08,12.65-7.66,19.68-4.64,13.85-6.54,20.06-3.67,11.79-5.4,16.4a104.39,104.39,0,0,1-4.59,10.7c-.6,1.23-1.13,2.16-1.48,2.79l-.41.72c-.09.16-.14.24-.15.23a.84.84,0,0,1,.1-.26l.35-.74c.31-.66.81-1.6,1.37-2.85,1.17-2.48,2.75-6.12,4.4-10.74s3.41-10.19,5.26-16.41,3.88-13.09,6.51-20.12,5.33-13.63,7.71-19.67,4.41-11.51,5.91-16.18,2.5-8.51,3.14-11.18c.32-1.33.51-2.38.68-3.08.08-.32.14-.59.19-.8S678.28,185.21,678.29,185.22Z"/><path class="cls-2" d="M588.54,171.4a2.5,2.5,0,0,0-4.12,2.56,72.05,72.05,0,0,0,3.65,9.4c4,8.5,15.76,39,21.26,55.77s13.25,48,13.25,48l11.75-1.9s-10.75-51.36-21.25-69.87C604.64,200.5,596.2,179,588.54,171.4Z"/><path class="cls-2" d="M612.55,249.61a7,7,0,0,1,.6,1.4c.35.93.82,2.27,1.36,4,1.08,3.35,2.4,8,3.74,13.23s2.43,9.94,3.21,13.37c.35,1.62.65,3,.88,4.07a6.17,6.17,0,0,1,.24,1.51,7.17,7.17,0,0,1-.47-1.45l-1.08-4c-.9-3.53-2.08-8.18-3.39-13.31s-2.58-9.89-3.56-13.26c-.46-1.6-.85-2.94-1.16-4A6.32,6.32,0,0,1,612.55,249.61Z"/><path class="cls-2" d="M628.49,286.19a1.09,1.09,0,0,1-.07-.32c0-.24-.08-.54-.13-.92-.13-.81-.24-2-.49-3.56-.43-3.08-1.2-7.53-2.46-13a184.12,184.12,0,0,0-5.5-18.77c-2.41-7-5.43-14.48-8.85-22.26-6.92-15.55-13.82-29.34-18.36-39.54-2.29-5.08-4.07-9.24-5.24-12.13-.59-1.44-1-2.58-1.32-3.34l-.32-.88a1.26,1.26,0,0,1-.09-.3s.06.09.15.28l.38.85c.34.8.82,1.9,1.43,3.3,1.23,2.86,3.07,7,5.41,12,4.64,10.14,11.6,23.9,18.52,39.47,3.43,7.79,6.45,15.34,8.83,22.33a174.07,174.07,0,0,1,5.39,18.85,129.36,129.36,0,0,1,2.27,13c.22,1.55.29,2.76.37,3.58,0,.38.05.68.07.93A1.11,1.11,0,0,1,628.49,286.19Z"/><path class="cls-2" d="M634.33,285.24a13,13,0,0,1-.39-2c-.24-1.38-.55-3.2-.92-5.4-.81-4.55-2-10.82-3.82-17.64s-3.74-12.91-5.27-17.28l-1.84-5.16a11.66,11.66,0,0,1-.62-1.91,12.52,12.52,0,0,1,.85,1.83c.51,1.19,1.21,2.93,2,5.1a173,173,0,0,1,5.45,17.26c1.78,6.85,3,13.15,3.66,17.73.33,2.29.59,4.15.72,5.44A12.4,12.4,0,0,1,634.33,285.24Z"/><rect class="cls-3" x="612.59" y="283.55" width="45.86" height="55.87"/><g class="cls-4"><rect class="cls-3" x="612.59" y="283.55" width="45.86" height="55.87"/></g><rect class="cls-3" x="603.13" y="283.55" width="40.68" height="55.87"/><path class="cls-2" d="M47.66,264.12c-7.81-5-18.64-5.1-26.24.22-7.22,5-10.88,14.23-10.56,23s4.58,19.55,12.55,24.17l23.41-.09a31.43,31.43,0,0,0,12.87-23.62C60.05,278.57,55.47,269.12,47.66,264.12Z"/><path class="cls-2" d="M36.14,312.39a10.77,10.77,0,0,1-.15-2c0-1.44-.09-3.28-.16-5.49-.11-4.63-.3-11-.61-18.1s-.69-13.46-1-18.08c-.13-2.21-.24-4-.32-5.48a9.45,9.45,0,0,1,0-2,10.25,10.25,0,0,1,.31,2c.16,1.29.36,3.16.57,5.47.42,4.62.89,11,1.2,18.09s.41,13.48.39,18.12c0,2.32,0,4.2-.08,5.5A10.38,10.38,0,0,1,36.14,312.39Z"/><path class="cls-2" d="M13.21,285.37c0,.21-1.28.27-2.84.15s-2.79-.4-2.77-.61,1.28-.27,2.84-.14S13.23,285.17,13.21,285.37Z"/><path class="cls-2" d="M13.65,277.48c-.08.19-1.18-.12-2.45-.68S9,275.63,9.05,275.44s1.18.11,2.45.68S13.73,277.29,13.65,277.48Z"/><path class="cls-2" d="M17.71,271.62c-.1.17-1.34-.41-2.62-1.48S13,268,13.15,267.84s1.17.7,2.42,1.73S17.83,271.44,17.71,271.62Z"/><path class="cls-2" d="M21.8,266.09c-.19.08-.78-.84-1.32-2.07s-.83-2.28-.64-2.36.78.84,1.32,2.06S22,266,21.8,266.09Z"/><path class="cls-2" d="M28.21,262.16c-.18.09-.82-.89-1.24-2.26s-.46-2.53-.26-2.56.56,1,1,2.34S28.4,262.08,28.21,262.16Z"/><path class="cls-2" d="M38.91,257.74c.19.07.07.91-.27,1.87s-.77,1.7-1,1.63-.07-.91.27-1.87S38.71,257.67,38.91,257.74Z"/><path class="cls-2" d="M46.84,261.14c.14.16-.37.86-1.13,1.57s-1.51,1.16-1.65,1,.37-.85,1.14-1.56S46.7,261,46.84,261.14Z"/><path class="cls-2" d="M53.83,265.65c.11.18-.51.8-1.39,1.4s-1.69.94-1.8.77.5-.8,1.38-1.39S53.71,265.48,53.83,265.65Z"/><path class="cls-2" d="M58.79,272.38c.08.19-.9.79-2.19,1.34s-2.39.84-2.48.65.9-.79,2.19-1.34S58.71,272.19,58.79,272.38Z"/><path class="cls-2" d="M60.74,279.72c0,.2-1,.49-2.22.65s-2.29.11-2.32-.09,1-.5,2.23-.65S60.71,279.51,60.74,279.72Z"/><path class="cls-2" d="M61.76,288.75c-.09.19-1.15-.09-2.37-.63s-2.15-1.11-2.07-1.3,1.14.09,2.37.62S61.84,288.56,61.76,288.75Z"/><path class="cls-2" d="M60.86,296.49c-.06.19-1.4-.13-2.8-1.05s-2.24-2-2.09-2.15,1.17.67,2.49,1.53S60.94,296.3,60.86,296.49Z"/><path class="cls-2" d="M56.83,303.55c-.13.16-1.19-.47-2.22-1.57s-1.57-2.22-1.4-2.33,1,.76,1.95,1.82S57,303.38,56.83,303.55Z"/><path class="cls-2" d="M18.52,304.38c.1.18-1,.95-2.5,1.72s-2.76,1.25-2.85,1.06,1-1,2.5-1.72S18.42,304.19,18.52,304.38Z"/><path class="cls-2" d="M15,298c.09.18-.81.78-2,1.32s-2.23.82-2.31.64.81-.78,2-1.32S14.94,297.81,15,298Z"/><path class="cls-2" d="M12.45,292.35c0,.2-1.08.53-2.47.72s-2.55.2-2.58,0,1.08-.53,2.47-.73S12.42,292.14,12.45,292.35Z"/><path class="cls-2" d="M20.89,289.23c.06.19-1,.7-2.46.86s-2.6-.09-2.59-.29,1.14-.3,2.5-.46S20.83,289,20.89,289.23Z"/><path class="cls-2" d="M27.89,282.26c.07.19-.79.62-1.95.74s-2.09-.15-2.06-.35.91-.29,2-.4S27.83,282.06,27.89,282.26Z"/><path class="cls-2" d="M29.23,276.67c-.06.2-1,.05-2.07-.32s-1.9-.83-1.83-1,1-.05,2.07.32S29.3,276.48,29.23,276.67Z"/><path class="cls-2" d="M31.8,271c-.14.14-.78-.28-1.23-1.07s-.51-1.55-.31-1.61.54.54.95,1.24S32,270.88,31.8,271Z"/><path class="cls-2" d="M28.71,294.15c0,.2-.76.57-1.8.83a7.37,7.37,0,0,1-1.51.22l-.15-.44c.27-.05.44,0,.48,0s-.08.22-.29.38l-.15-.43a6.9,6.9,0,0,1,1.44-.5C27.77,294,28.66,294,28.71,294.15Z"/><path class="cls-2" d="M30.15,304.06c.08.19-.95.77-2.29,1.3s-2.49.8-2.57.6.95-.77,2.29-1.3S30.07,303.86,30.15,304.06Z"/><path class="cls-2" d="M22.23,299.66c.07.19-.62.6-1.53.91s-1.7.4-1.77.21.62-.61,1.53-.92S22.17,299.46,22.23,299.66Z"/><path class="cls-2" d="M22.84,279.5c-.05.19-1.24.07-2.62-.41s-2.38-1.15-2.29-1.33,1.2.15,2.54.62S22.89,279.29,22.84,279.5Z"/><path class="cls-2" d="M42,277.3c.11.18-.56.82-1.5,1.44s-1.8,1-1.91.81.56-.81,1.5-1.43S41.88,277.13,42,277.3Z"/><path class="cls-2" d="M43,287.25c0,.2-.66.52-1.58.71s-1.68.18-1.72,0,.66-.52,1.57-.71S43,287.05,43,287.25Z"/><path class="cls-2" d="M44.25,298.43c-.09.19-1.1-.1-2.27-.63s-2-1.13-1.95-1.32,1.1.1,2.27.64S44.34,298.25,44.25,298.43Z"/><path class="cls-2" d="M41.69,309.32c-.16.13-.82-.41-1.48-1.2s-1.05-1.55-.89-1.68.82.41,1.47,1.2S41.85,309.19,41.69,309.32Z"/><path class="cls-2" d="M41.16,270c.13.16-.31.71-1,1.08s-1.45.4-1.5.2.49-.53,1.16-.87S41,269.81,41.16,270Z"/><path class="cls-2" d="M50.55,280c.07.19-.8.67-2,.83s-2.15,0-2.14-.25.93-.33,2-.49S50.48,279.81,50.55,280Z"/><path class="cls-2" d="M48.68,271c.09.18-.77.79-2,1.18s-2.28.4-2.31.2.92-.53,2.09-.91S48.59,270.82,48.68,271Z"/><path class="cls-2" d="M52.6,294c0,.2-1.48.33-3.25,0s-3.12-1-3.05-1.15,1.46.1,3.18.41S52.61,293.75,52.6,294Z"/><path class="cls-2" d="M49.11,307c-.12.16-1.21-.48-2.29-1.57s-1.72-2.18-1.56-2.3,1,.72,2.09,1.77S49.24,306.88,49.11,307Z"/><path class="cls-2" d="M33.77,260.36a33.54,33.54,0,0,0-6.55,5.18,32,32,0,0,0-8.16,18,40.41,40.41,0,0,0,.5,11.05,81.68,81.68,0,0,0,2.07,8.86c.71,2.5,1.37,4.5,1.81,5.89a13,13,0,0,1,.63,2.17,13.37,13.37,0,0,1-.9-2.08c-.53-1.35-1.26-3.33-2.05-5.82a76.09,76.09,0,0,1-2.24-8.9,39.78,39.78,0,0,1-.56-11.26,31.47,31.47,0,0,1,8.52-18.31,23.35,23.35,0,0,1,4.89-3.82,13.69,13.69,0,0,1,1.49-.77A1.79,1.79,0,0,1,33.77,260.36Z"/><path class="cls-2" d="M44,312a80.52,80.52,0,0,0,3.36-8,45.3,45.3,0,0,0,2-20.63,38.21,38.21,0,0,0-3.18-11,25.85,25.85,0,0,0-5.42-7.56,19.8,19.8,0,0,0-5.32-3.36c-1.38-.57-2.21-.71-2.19-.77s.21,0,.61,0a12.91,12.91,0,0,1,1.69.46,18.63,18.63,0,0,1,5.56,3.23,25.53,25.53,0,0,1,5.69,7.66,38.21,38.21,0,0,1,3.3,11.19,43.86,43.86,0,0,1-2.24,20.91c-.43,1.29-1,2.4-1.37,3.39s-.88,1.81-1.25,2.47A14.38,14.38,0,0,1,44,312Z"/><polygon class="cls-3" points="15.02 310.26 56.2 310.26 56.46 318.5 15.02 318.5 15.02 310.26"/><polygon class="cls-3" points="18.52 314.38 20.89 339.54 50.99 339.54 53.41 314.65 18.52 314.38"/><path class="cls-3" d="M56.46,318.6c0,.2-9.28.37-20.72.37S15,318.8,15,318.6s9.27-.38,20.71-.38S56.46,318.39,56.46,318.6Z"/><path class="cls-1" d="M52.27,326.26a6.26,6.26,0,0,1-.88,1.57,23,23,0,0,1-3.19,3.78l-.19.18-.19-.2a59,59,0,0,0-8.07-7.06l.45,0-3.57,3.14-4.23,3.68-.24.2-.23-.19-6.88-5.78.4-.05-3.56,4.34a9.69,9.69,0,0,1-1.39,1.53,9.84,9.84,0,0,1,1.15-1.72l3.36-4.5.17-.22.23.18,7,5.66h-.47l4.21-3.71L39.72,324l.22-.2.24.18a52.39,52.39,0,0,1,8,7.29l-.38,0A41.67,41.67,0,0,0,52.27,326.26Z"/></g><g id="Device"><rect class="cls-5" x="96.6" y="25.1" width="465.06" height="307.54" rx="14.57"/><path class="cls-5" d="M81.37,312.77H585.23a0,0,0,0,1,0,0v9.11a17.8,17.8,0,0,1-17.8,17.8H99.17a17.8,17.8,0,0,1-17.8-17.8v-9.11A0,0,0,0,1,81.37,312.77Z"/><polygon class="cls-5" points="283.28 309.89 289.53 319.83 377.51 319.83 383.32 309.89 283.28 309.89"/><path class="cls-5" d="M557.66,309.89c0,.16-103.22.3-230.52.3s-230.54-.14-230.54-.3,103.2-.3,230.54-.3S557.66,309.72,557.66,309.89Z"/><rect class="cls-6" x="109.92" y="42.78" width="436.6" height="258.98" rx="3.27"/><polygon class="cls-7" points="546.05 302.13 109.45 302.13 109.92 62.13 546.05 62.13 546.05 302.13"/><path class="cls-1" d="M145.72,52.78a3.49,3.49,0,1,1-3.48-3.48A3.48,3.48,0,0,1,145.72,52.78Z"/><path class="cls-1" d="M124.59,52.78a3.49,3.49,0,1,1-3.49-3.48A3.49,3.49,0,0,1,124.59,52.78Z"/><path class="cls-1" d="M134.73,52.78a3.49,3.49,0,1,1-3.48-3.48A3.48,3.48,0,0,1,134.73,52.78Z"/></g><g id="Character"><path class="cls-8" d="M397.93,161.42a39.42,39.42,0,0,1,18.56,24c4.82,17.28,19.59,62.28,19.59,62.28s8.44,9.93,9.35,17.28-.91,25.14-3.62,28.46a7.65,7.65,0,0,1-6.58,2.76L399.7,292.8l-14-93.67Z"/><path class="cls-8" d="M280.44,159.78s-25.4,8-31.73,14.9l20.8,96.77L269.18,302H389.61c0-1.5,1.08-101.37,1.08-101.37l7.24-39.19-42.81-7.54-8.44-6.63-47.63,2.41-7.24,7.24Z"/><g class="cls-4"><path d="M290.09,243.73c-.37-.82-.9-1.7-1.78-1.89-1.46-.3-2.43,1.42-2.92,2.82a127.39,127.39,0,0,1-15.82,30.89l-.31,14.86c7-5.91,13.95-12.24,18.42-20.25S293.87,252.1,290.09,243.73Z"/></g><path class="cls-8" d="M248.71,174.68s-8.37,11.41-11.85,18.86-32.28,70-34,76.47-6.21,26.82,7,31.53h27.06L264,246.62l1.39-63.75Z"/><path class="cls-1" d="M238.59,261.87s-.6-.53-1.85-1.24a20.55,20.55,0,0,0-5.68-2.06,26.14,26.14,0,0,0-4.14-.58,16.06,16.06,0,0,0-4.74.31,17.59,17.59,0,0,0-9.11,5.72,24.51,24.51,0,0,0-5.16,9.59,47.8,47.8,0,0,0-1.63,8.85c-.25,2.56-.35,4.64-.44,6.08,0,.67-.07,1.22-.1,1.66a2.45,2.45,0,0,1-.07.58,2.39,2.39,0,0,1,0-.58c0-.44,0-1,0-1.67,0-1.44.07-3.53.27-6.1a46.13,46.13,0,0,1,1.54-9,24.75,24.75,0,0,1,5.23-9.8,18,18,0,0,1,9.39-5.84,16.37,16.37,0,0,1,4.88-.27,26.46,26.46,0,0,1,4.2.65,19.58,19.58,0,0,1,5.7,2.24,9.78,9.78,0,0,1,1.34,1C238.47,261.71,238.61,261.85,238.59,261.87Z"/><path class="cls-1" d="M225.76,250.93a3.64,3.64,0,0,1,.91-.14,15,15,0,0,1,2.51,0,20.9,20.9,0,0,1,3.69.55,23.48,23.48,0,0,1,4.31,1.52,23.77,23.77,0,0,1,3.9,2.39,20.53,20.53,0,0,1,2.75,2.53,15.22,15.22,0,0,1,1.55,2,3,3,0,0,1,.46.8c-.08.06-.81-1-2.28-2.52a22,22,0,0,0-2.77-2.39,25.72,25.72,0,0,0-3.83-2.31,26.37,26.37,0,0,0-4.21-1.53,24,24,0,0,0-3.6-.64C227.07,250.92,225.77,251,225.76,250.93Z"/><path class="cls-1" d="M250.23,247.92a5.57,5.57,0,0,1-1.25-.09c-.8-.11-2-.22-3.39-.33a57.94,57.94,0,0,0-22.14,2.65c-1.37.44-2.46.83-3.22,1.11a5.48,5.48,0,0,1-1.19.39,6.34,6.34,0,0,1,1.12-.57c.73-.35,1.81-.79,3.17-1.28a51.28,51.28,0,0,1,22.29-2.67c1.44.16,2.59.33,3.39.5A6.16,6.16,0,0,1,250.23,247.92Z"/><path class="cls-1" d="M327.31,194.47a2.4,2.4,0,0,1-.28-.33l-.73-1-2.72-3.77c-2.34-3.29-5.6-7.89-9.43-13.3l.42-.06-4.76,14-.11.32-.27-.18-.56-.36a29.21,29.21,0,0,1-5.9-5,35,35,0,0,1-4.2-5.82,48.5,48.5,0,0,1-4.63-11.2,75.28,75.28,0,0,1-1.76-8c-.15-.91-.28-1.63-.37-2.18-.05-.25-.1-.43-.13-.56s-.07-.18-.06-.18a9.09,9.09,0,0,1,.76,2.88c.39,1.89.93,4.62,1.91,7.91a50.06,50.06,0,0,0,4.69,11.06,35.19,35.19,0,0,0,4.17,5.71,28.42,28.42,0,0,0,5.8,4.88l.55.36-.38.13c1.7-5,3.33-9.68,4.8-14l.15-.45.27.39,9.27,13.41c1.1,1.61,2,2.91,2.61,3.84l.68,1A1.54,1.54,0,0,1,327.31,194.47Z"/><g class="cls-4"><path d="M358.66,240.66a54.77,54.77,0,0,0,7,32.45c5.61,9.75,13.82,18.44,24.05,23.1.33-9.93-.15-21.63.18-31.56Z"/></g><path class="cls-9" d="M357.53,227.59s-4.37,1.21-1.09,10.17,4.37,8.42,6.56,16.81,4.74,16,8.57,20.77,18,14.4,18,14.4l12.76-12s-2.1-9-1.6-15,1.78-21,1.6-23.59-2.91-8.75-2.91-8.75v-4.24l-6.57-20.18s-3.64-1.65-4.92,4.19l-2.19-6.19s-3.46-.56-4.37,6.55.73,17,.73,17l-1.82,12.4-2.74,8.38-2.37.37s-3.56-1-5.52-7.69S362.45,226.13,357.53,227.59Z"/><path class="cls-10" d="M398.1,259.29a2.66,2.66,0,0,1-.06-.46c0-.35-.05-.79-.09-1.33-.07-1.23-.16-2.92-.27-5-.2-4.36-.47-10.41-.79-17.48l.06.14a2.55,2.55,0,0,0-2.58-.67A3.8,3.8,0,0,0,392,236.2c-1.11,1.8-1.18,4.13-1.52,6.39-.7,5.11-1.35,10-2,14.41-.3,2.21-.62,4.32-1,6.27a41.66,41.66,0,0,1-1.58,5.32,43,43,0,0,0-1.38,4.33,13.47,13.47,0,0,0-.41,3.37,10.48,10.48,0,0,0,.51,2.86,3.79,3.79,0,0,1-.31-.7,7.9,7.9,0,0,1-.4-2.15,12.75,12.75,0,0,1,.33-3.45,43.63,43.63,0,0,1,1.31-4.38,42.45,42.45,0,0,0,1.51-5.29c.41-1.94.71-4,1-6.25.59-4.43,1.23-9.3,1.91-14.41.16-1.14.28-2.26.48-3.39a8.76,8.76,0,0,1,1.13-3.2,4.31,4.31,0,0,1,2.68-2,3,3,0,0,1,3.07.85l.06.07V235c.24,7.07.45,13.13.6,17.48,0,2.11.1,3.81.13,5,0,.55,0,1,0,1.34A2.35,2.35,0,0,1,398.1,259.29Z"/><path class="cls-10" d="M391.12,236.32a5.39,5.39,0,0,1-.53-1.14,27.9,27.9,0,0,1-1.07-3.27,33.15,33.15,0,0,1-.92-5,13.93,13.93,0,0,1-.05-3,6.49,6.49,0,0,1,1.1-3.13A4.44,4.44,0,0,1,392,219l.2-.06.1.18c1.84,3.26,3.45,6.14,4.58,8.21.52,1,.95,1.78,1.31,2.44a4.31,4.31,0,0,1,.41.92,4,4,0,0,1-.57-.83l-1.44-2.37c-1.21-2-2.87-4.87-4.74-8.12l.3.12a4,4,0,0,0-2.06,1.56,6.21,6.21,0,0,0-1,2.88,15.25,15.25,0,0,0,0,2.95,35.69,35.69,0,0,0,.8,5c.32,1.41.66,2.52.9,3.29A6.34,6.34,0,0,1,391.12,236.32Z"/><path class="cls-10" d="M388.07,238a5.73,5.73,0,0,1-.11-1.16c0-.86-.08-1.92-.13-3.17-.09-2.68-.17-6.38-.23-10.47a90.59,90.59,0,0,1,.16-10.49,16.62,16.62,0,0,1,.68-3.13,4.45,4.45,0,0,1,.47-1.07,30.38,30.38,0,0,0-.78,4.23c-.26,2.65,0,6.36,0,10.45s.08,7.79.08,10.47c0,1.26,0,2.32,0,3.18A4.47,4.47,0,0,1,388.07,238Z"/><path class="cls-10" d="M377.29,271.57c-.08-.06.72-1,1.71-2.7a23.4,23.4,0,0,0,1.48-3.11,24.63,24.63,0,0,0,1.14-4.06,24.27,24.27,0,0,0,.35-4.2,22.24,22.24,0,0,0-.3-3.44c-.33-1.94-.75-3.1-.66-3.13a2.79,2.79,0,0,1,.37.79A14.74,14.74,0,0,1,382,254a19.62,19.62,0,0,1,.42,3.5,21.71,21.71,0,0,1-.32,4.3,22.17,22.17,0,0,1-1.2,4.14,19.22,19.22,0,0,1-1.62,3.13,14.34,14.34,0,0,1-1.41,1.9C377.53,271.38,377.31,271.6,377.29,271.57Z"/><path class="cls-9" d="M399.68,265.3l11.08,3.85s10.57-5.47,17.86,0,13.62,19.88,11.62,25.71c0,0-5,6.21-8.86,7.12s-18.71-2.69-24.9-4-16.87-8.25-16.87-8.25Z"/><path class="cls-10" d="M401,281.62a4.17,4.17,0,0,1-.11-1c-.05-.75-.1-1.64-.16-2.68-.12-2.26-.27-5.38-.32-8.84a87.69,87.69,0,0,1,.26-8.85c.1-1.13.22-2,.33-2.67a4,4,0,0,1,.23-1c.08,0-.09,1.4-.19,3.65s-.16,5.38-.11,8.82.12,6.44.17,8.84c0,1.13,0,2.05,0,2.68A3.28,3.28,0,0,1,401,281.62Z"/><path class="cls-1" d="M437.56,268.71a36.17,36.17,0,0,0-3.69-3.32,20.24,20.24,0,0,0-22.44-1.24,36.48,36.48,0,0,0-4,2.9,5.78,5.78,0,0,1,.92-1,17.74,17.74,0,0,1,2.92-2.22,19.88,19.88,0,0,1,22.86,1.26,18.05,18.05,0,0,1,2.66,2.53A5.47,5.47,0,0,1,437.56,268.71Z"/><path class="cls-1" d="M436.13,259.48a21.62,21.62,0,0,0-4.6-2.54,20.44,20.44,0,0,0-12.47-.38,29.13,29.13,0,0,0-6.45,2.69,31.62,31.62,0,0,0-4.67,3.3c-1.24,1.06-2.19,2-2.84,2.63a7.75,7.75,0,0,1-1,1A6.45,6.45,0,0,1,405,265a36.37,36.37,0,0,1,2.75-2.77,27.56,27.56,0,0,1,11.22-6.21,20,20,0,0,1,12.74.54,14.56,14.56,0,0,1,3.41,1.92,9.35,9.35,0,0,1,.81.69C436.06,259.37,436.15,259.47,436.13,259.48Z"/><path class="cls-1" d="M436.23,251.48c0,.1-2-.49-5.18-.93a42.51,42.51,0,0,0-5.68-.36,41.5,41.5,0,0,0-13.66,2.41,41.39,41.39,0,0,0-5.21,2.27c-2.87,1.51-4.49,2.73-4.55,2.64a7.43,7.43,0,0,1,1.11-.89c.36-.27.82-.6,1.37-.94s1.17-.76,1.9-1.13a36.53,36.53,0,0,1,5.22-2.4,42.46,42.46,0,0,1,6.8-1.85,43.16,43.16,0,0,1,7-.59,37.12,37.12,0,0,1,5.73.48c.81.1,1.53.29,2.17.42s1.17.28,1.61.41A6.64,6.64,0,0,1,436.23,251.48Z"/><path class="cls-1" d="M351.39,153.55a9.46,9.46,0,0,1,.77,2.95,29,29,0,0,1-.42,8.59,52.63,52.63,0,0,1-1.43,6,45.76,45.76,0,0,1-2.91,6.66c-2.39,4.59-5.39,9.61-8.86,15l-.41.62v-.75c0-3.53,0-7.24,0-11.09l.39.18-9.34,7.54.08-.12a98.35,98.35,0,0,0-4.15,22.45c-.91,12.17-.18,23.81.4,34.37s.81,20.1,1.14,28.1.61,14.46.85,18.93c.13,2.21.23,3.94.3,5.14,0,.57.07,1,.09,1.34a4,4,0,0,1,0,.46s0-.16-.06-.46-.08-.76-.14-1.33c-.11-1.17-.26-2.91-.4-5.14-.31-4.47-.65-10.93-1-18.93s-.78-17.52-1.25-28.08-1.36-22.22-.44-34.44a98.32,98.32,0,0,1,4.2-22.56l0-.07.06,0,9.35-7.52.39-.31v.5c0,3.85,0,7.56,0,11.09l-.4-.12c6.87-10.65,12.45-19.91,13.31-27.4a29.42,29.42,0,0,0,.54-8.53,13.83,13.83,0,0,0-.41-2.21C351.46,153.81,351.39,153.55,351.39,153.55Z"/><path class="cls-7" d="M333.45,282.55h-.35a2.8,2.8,0,1,0,.35,0Z"/><path class="cls-7" d="M333.45,244l-.35,0a2.88,2.88,0,1,0,.35,0Z"/><path class="cls-7" d="M333.08,209.53a2.82,2.82,0,0,0,.37-5.63h-.35a2.82,2.82,0,0,0,0,5.64Z"/><path class="cls-1" d="M289.91,108.39c-3.51-3.88-7.05-7.8-9.6-12.37s-4.08-9.89-3.24-15c.5-3,1.78-5.89,2-8.94.28-4.2-1.49-8.59,0-12.53,2.33-6.15,10.61-7.1,15.63-11.35,3.91-3.31,5.81-8.68,10.12-11.47,3.75-2.43,8.58-2.38,13-1.75s8.89,1.75,13.33,1.15c3.16-.43,6.14-1.7,9.24-2.47s6.55-1,9.31.63,4.31,5.52,2.5,8.15c5.14-2.37,11.67,1.64,13.07,7.12s-1.41,11.41-5.76,15-10,5.3-15.55,6.35c-15.75,3-32.83,1.29-46.41-7.23"/><path class="cls-9" d="M345.27,161.34c-.77-6-1.4-10.94-1.44-11.55,0,0,19.92-4.48,18.83-24.63-.53-9.73-3.26-29.69-5.93-47.72a37.6,37.6,0,0,0-39.69-32l-1.94.13C294.24,48.24,284.81,67.42,288,88.2l11.26,69.67s4.8,15.41,15.07,18.08l13,18.52,2.14-8,9.67-8.41a38.39,38.39,0,0,0,4.76-7.09A15.57,15.57,0,0,0,345.27,161.34Z"/><path class="cls-10" d="M343.85,149.49s-12.65,1.89-26.74-5.7c0,0,7.17,14.07,27.13,10.91Z"/><path class="cls-1" d="M350.25,94.75a2.87,2.87,0,0,1-2.57,3.08,2.75,2.75,0,0,1-3.14-2.39,2.88,2.88,0,0,1,2.57-3.09A2.75,2.75,0,0,1,350.25,94.75Z"/><path class="cls-1" d="M353.06,87.61c-.33.39-2.61-1.07-5.71-.86s-5.25,1.92-5.61,1.56c-.18-.16.14-.86,1.08-1.64A7.9,7.9,0,0,1,347.28,85a7.62,7.62,0,0,1,4.58,1.14C352.86,86.77,353.23,87.43,353.06,87.61Z"/><path class="cls-1" d="M321,96.84a2.87,2.87,0,0,1-2.57,3.08,2.76,2.76,0,0,1-3.14-2.39,2.89,2.89,0,0,1,2.58-3.09A2.75,2.75,0,0,1,321,96.84Z"/><path class="cls-1" d="M322.7,90.22c-.33.4-2.62-1.07-5.71-.86s-5.26,1.92-5.62,1.56c-.17-.15.14-.85,1.08-1.64a7.93,7.93,0,0,1,4.47-1.71,7.64,7.64,0,0,1,4.58,1.14C322.49,89.38,322.86,90,322.7,90.22Z"/><path class="cls-1" d="M335.46,112.4c0-.17,1.87-.63,5-1.24.79-.13,1.52-.34,1.62-.89a4,4,0,0,0-.68-2.3l-2.74-5.86c-3.82-8.35-6.64-15.23-6.3-15.38s3.7,6.49,7.52,14.84l2.64,5.9a4.58,4.58,0,0,1,.62,3.07,2,2,0,0,1-1.22,1.24,5.38,5.38,0,0,1-1.33.28C337.43,112.43,335.48,112.58,335.46,112.4Z"/><path class="cls-1" d="M322.69,78c-.25.86-3.37.67-7,1.35s-6.47,1.87-7,1.15c-.24-.35.22-1.18,1.35-2.07a12.31,12.31,0,0,1,10.64-1.9C322.08,77,322.79,77.63,322.69,78Z"/><path class="cls-1" d="M351.33,78.73c-.5.74-2.68.15-5.24.29s-4.7.79-5.25.09c-.24-.35.05-1.07,1-1.8a7.58,7.58,0,0,1,8.46-.3C351.2,77.67,351.54,78.37,351.33,78.73Z"/><path class="cls-9" d="M290.66,103c-.36-.13-14.11-3.17-12.75,10.56s16.24,9.26,16.23,8.86S290.66,103,290.66,103Z"/><path class="cls-10" d="M288.05,117.91c-.06,0-.22.19-.61.41a2.42,2.42,0,0,1-1.78.22c-1.5-.39-3-2.58-3.27-5a8.12,8.12,0,0,1,.33-3.49,2.77,2.77,0,0,1,1.62-2,1.23,1.23,0,0,1,1.48.52c.22.36.16.65.24.66s.27-.26.1-.81a1.53,1.53,0,0,0-.62-.81,1.83,1.83,0,0,0-1.36-.22,3.39,3.39,0,0,0-2.29,2.38,8.11,8.11,0,0,0-.45,3.91c.36,2.75,2,5.2,4.08,5.58a2.55,2.55,0,0,0,2.15-.58C288.06,118.24,288.1,117.93,288.05,117.91Z"/><path class="cls-1" d="M355.71,58.68c-.94,5.46-12,10.47-21.21,10.2-8.48-.24-12.66-4.45-18.82-7.43-3.9-1.9-3.9-1.9-9.18-1-4.28.7-6.5,5.74-8.9,9.35,4.57,10,2.72,21.56.79,32.35A5.52,5.52,0,0,1,297,105.4c-1.55,1.36-4.05.54-5.57-.85-2.43-2.22-3.53-5.52-4.33-8.72a56.67,56.67,0,0,1-1.36-22.33A38.6,38.6,0,0,1,295,53.34,36.57,36.57,0,0,1,320,42a44.92,44.92,0,0,1,26.62,7.56c3.64,2.38,7.05,5.33,9.1,9.17"/><path class="cls-10" d="M337.48,119.36l-7-3.26a2.41,2.41,0,0,0-1.27-.33,2,2,0,0,0-1.21.83,6.51,6.51,0,0,0-.78,7.15,5.46,5.46,0,0,0,6.57,2.41c2.48-1,3.69-3.9,3.88-6.58Z"/><path class="cls-1" d="M334,126.66c0,.06-.32.26-1,.41a6.22,6.22,0,0,1-3-.22A6.33,6.33,0,0,1,326.5,124a6.47,6.47,0,0,1-.43-5.52A6.71,6.71,0,0,1,327.7,116a6.36,6.36,0,0,1,1.13-.86,1.68,1.68,0,0,1,1.62-.1,11.13,11.13,0,0,1,1.09.62l1,.59,1.7,1.06c2.08,1.32,3.32,2.2,3.25,2.32s-1.45-.53-3.62-1.68l-1.77-1-1-.54a9.6,9.6,0,0,0-1-.52.74.74,0,0,0-.76.07,5.67,5.67,0,0,0-.92.73,5.82,5.82,0,0,0-1.36,2.09,5.64,5.64,0,0,0,.29,4.69,5.82,5.82,0,0,0,2.89,2.66,6.86,6.86,0,0,0,2.71.5C333.61,126.65,334,126.58,334,126.66Z"/><path class="cls-1" d="M331.8,95.09a24.46,24.46,0,0,0-.55-3.47,14.18,14.18,0,0,0-18.59-9.77,14.11,14.11,0,0,0-6.54,4.92,14,14,0,0,0,0,16.65,14,14,0,0,0,6.54,4.91,14.05,14.05,0,0,0,13.37-2,14.35,14.35,0,0,0,5.23-7.77,25.12,25.12,0,0,0,.54-3.48.64.64,0,0,1,0,.24c0,.18,0,.41,0,.68a7,7,0,0,1-.09,1.11,10,10,0,0,1-.27,1.5,13.54,13.54,0,0,1-1.55,3.87,14.46,14.46,0,0,1-9.75,6.9,14.67,14.67,0,0,1-7.65-.6,14.62,14.62,0,0,1-6.79-5.07,14.48,14.48,0,0,1,0-17.25,14.44,14.44,0,0,1,6.79-5.07,14.57,14.57,0,0,1,7.65-.61,14.51,14.51,0,0,1,9.75,6.91,13.32,13.32,0,0,1,1.55,3.87,9.9,9.9,0,0,1,.27,1.49,7,7,0,0,1,.09,1.12c0,.27,0,.49,0,.68A.6.6,0,0,1,331.8,95.09Z"/><path class="cls-1" d="M366.05,93.75a23.81,23.81,0,0,0-.54-3.39,13.93,13.93,0,0,0-5.09-7.57,13.71,13.71,0,0,0-13-1.94A13.73,13.73,0,0,0,341,85.64a13.64,13.64,0,0,0,0,16.21,13.73,13.73,0,0,0,6.37,4.79,13.74,13.74,0,0,0,13-1.93,14,14,0,0,0,5.09-7.58,24.05,24.05,0,0,0,.54-3.38,5,5,0,0,1,0,.89,5.53,5.53,0,0,1-.08,1.08,10.55,10.55,0,0,1-.26,1.46,14.05,14.05,0,0,1-11,10.5,14.15,14.15,0,0,1-7.46-.58,13.64,13.64,0,0,1-3.6-1.93,13.43,13.43,0,0,1-3-3,14.11,14.11,0,0,1,0-16.82,13.48,13.48,0,0,1,3-3,13.33,13.33,0,0,1,3.6-1.92,14.26,14.26,0,0,1,7.46-.59,14.05,14.05,0,0,1,11,10.5,10.55,10.55,0,0,1,.26,1.46,5.59,5.59,0,0,1,.08,1.08A5.13,5.13,0,0,1,366.05,93.75Z"/><path class="cls-1" d="M338.1,90.58c-.05.06-.39-.22-1-.5a5.55,5.55,0,0,0-5,.08c-.59.31-.91.61-1,.55s.18-.44.78-.86a4.89,4.89,0,0,1,2.68-.85,5,5,0,0,1,2.71.75C337.9,90.15,338.15,90.54,338.1,90.58Z"/><path class="cls-1" d="M304,93.06a64.15,64.15,0,0,1-6.27,5,59.9,59.9,0,0,1-6.58,4.58,64.15,64.15,0,0,1,6.27-5A59.9,59.9,0,0,1,304,93.06Z"/><g class="cls-4"><path d="M292.15,158.14c-1.39,13.57,3.77,27.9,14.66,36.12.85.65,1.92,1.29,2.93.92a3.18,3.18,0,0,0,1.52-1.57,26.55,26.55,0,0,0,3.25-17.43c-1.73,4.54-3.21,9-4.95,13.74C300.08,184.16,294.17,171.92,292.15,158.14Z"/></g><path class="cls-11" d="M329,189l8-2.92,1.32,13.51s8.62-15.71,12.19-22.88,1.73-19.81,1.73-19.81,1.28,11-7.36,25.07l-6.52,10.59V181.47Z"/><g class="cls-4"><path d="M236.09,257.66a21.36,21.36,0,0,0-11.58-1.46A22.29,22.29,0,0,0,213,260.56c-3.24,2.62-5.44,6.73-5,10.87l.4.06c2.78-7.54,8.33-13,15.47-13.7s14.13,2.52,19,7.76C242.4,261.64,239.65,259.34,236.09,257.66Z"/></g><g class="cls-4"><path d="M438.07,265.37a18.28,18.28,0,0,0-10.31-5.32,23.21,23.21,0,0,0-19.25,5.57l1.52-1.23a24.22,24.22,0,0,1,12.82-3.48,18.51,18.51,0,0,1,12.22,4.88c3,2.84,4.78,6.68,6.49,10.43A13.05,13.05,0,0,0,438.07,265.37Z"/></g><path class="cls-1" d="M386.58,202.63a5.23,5.23,0,0,1,.36-1.09l1.14-2.91c1-2.45,2.29-5.84,3.69-9.6s2.61-7.2,3.48-9.69l1-2.94a5.22,5.22,0,0,1,.44-1.06,4.33,4.33,0,0,1-.24,1.12c-.2.71-.5,1.74-.89,3-.78,2.52-1.94,6-3.34,9.75s-2.79,7.14-3.84,9.56c-.53,1.21-1,2.18-1.29,2.85A4.63,4.63,0,0,1,386.58,202.63Z"/><path class="cls-1" d="M260.51,203.61c-.14,0-1.22-4.73-2.42-10.63s-2.06-10.7-1.92-10.73,1.23,4.73,2.43,10.63S260.65,203.58,260.51,203.61Z"/><path class="cls-9" d="M258.63,263.1c.31.15-3.67-31.17-3.67-31.17s2.51-23.77,3.93-24.87l0-8.38s3.89-2.36,4.93,1.45c0,0,3.45-3,4,4.13s.73,14.4.73,14.4l7.67,19.19,1.27.64s1.65-15,2.61-17.24,1.61-7.59,5.25-6.79,3.94,3.82,3.28,8.72-1.46,10-1.16,13.13,1.74,10.14,1.3,15.68-3.48,11.38-6.66,15.48-9.26,12.58-12.57,15.14C268.47,283.5,258.63,263.1,258.63,263.1Z"/><path class="cls-10" d="M262.5,237.61a6,6,0,0,1,0-1.34c.07-1,.15-2.19.25-3.64.23-3.07.59-7.31,1-12,.22-2.33.43-4.55.63-6.59a11.71,11.71,0,0,0,0-2.83,4,4,0,0,0-.95-2.16,4.33,4.33,0,0,0-3.14-1.38,9.23,9.23,0,0,0-1.3.17s.1-.07.31-.16a3.38,3.38,0,0,1,1-.21,4.24,4.24,0,0,1,4.52,3.67,11.55,11.55,0,0,1,0,2.94c-.18,2-.37,4.26-.58,6.6-.43,4.68-.84,8.91-1.17,12l-.42,3.62A6.57,6.57,0,0,1,262.5,237.61Z"/><path class="cls-10" d="M266.62,224.8a10.66,10.66,0,0,0-1.35,2.47A41.1,41.1,0,0,0,264,234c-.41,2.68-.82,5.1-1.13,6.84a16.41,16.41,0,0,1-.62,2.82,16,16,0,0,1,.25-2.87c.23-1.76.57-4.19,1-6.87a32.33,32.33,0,0,1,1.44-6.81,6.41,6.41,0,0,1,1.11-1.83C266.37,224.93,266.61,224.78,266.62,224.8Z"/><path class="cls-10" d="M263.8,199.71a3.82,3.82,0,0,1,.27,1c.14.64.32,1.57.51,2.73.38,2.31.8,5.52,1.06,9.09s.32,6.8.28,9.14c0,1.18-.05,2.12-.1,2.78a4.41,4.41,0,0,1-.11,1,31.73,31.73,0,0,1-.16-3.78c-.05-2.34-.17-5.56-.43-9.12s-.62-6.75-.91-9.07A34.64,34.64,0,0,1,263.8,199.71Z"/><path class="cls-10" d="M285.94,229.08a2.83,2.83,0,0,1-2.59.22c-1.47-.44-2.15-1.57-2-1.63a14.23,14.23,0,0,0,2.17,1.13A14.67,14.67,0,0,0,285.94,229.08Z"/><path class="cls-9" d="M259.06,259.2l-20.27,8.52H226.71s-11.94,3.73-13.78,14.92-2.1,17,3.15,18.35,20.08,1.53,27.43-.9,26.61-18,26.61-18L272,270.87Z"/><path class="cls-10" d="M263.8,271.57s-.22-.16-.57-.52a12.8,12.8,0,0,1-1.32-1.68,22.9,22.9,0,0,1-2.83-6.41,38,38,0,0,1-1.25-6.89,13.67,13.67,0,0,1-.08-2.89,20.23,20.23,0,0,1,.45,2.85,52.34,52.34,0,0,0,1.38,6.79,26.79,26.79,0,0,0,2.64,6.35C263.13,270.69,263.88,271.51,263.8,271.57Z"/><path class="cls-10" d="M272.63,275.13a21.11,21.11,0,0,0,1.15-4.35,14.18,14.18,0,0,0-.24-4.82,14.45,14.45,0,0,0-2.48-5.35c-1.23-1.72-2.61-3.23-3.78-4.68a22,22,0,0,1-2.74-4.14,11,11,0,0,1-1-3.2,3.53,3.53,0,0,1,0-1.23,13.86,13.86,0,0,0,1.38,4.26,23,23,0,0,0,2.78,4c1.17,1.42,2.58,2.92,3.84,4.68a14.64,14.64,0,0,1,2.52,5.54,14.14,14.14,0,0,1,.14,5,12.82,12.82,0,0,1-.93,3.22,8.72,8.72,0,0,1-.41.82C272.71,275.05,272.64,275.14,272.63,275.13Z"/><path class="cls-7" d="M241.38,226.32a98.75,98.75,0,0,1-4.94-9,98.56,98.56,0,0,1-4.47-9.23c.12-.06,2.34,4,4.94,9A100.59,100.59,0,0,1,241.38,226.32Z"/><path class="cls-7" d="M274.16,189.83a65.32,65.32,0,0,1,3-7.49,63.39,63.39,0,0,1,3.53-7.28,62.42,62.42,0,0,1-3.05,7.49A63.39,63.39,0,0,1,274.16,189.83Z"/><path class="cls-7" d="M306.26,213.52a45.6,45.6,0,0,1-4.59-5.14,46.73,46.73,0,0,1-4.2-5.48,46.21,46.21,0,0,1,4.6,5.14A45.37,45.37,0,0,1,306.26,213.52Z"/><path class="cls-7" d="M298.88,246.09a36.86,36.86,0,0,1,3.46-5.22,37.81,37.81,0,0,1,3.88-4.91,37.53,37.53,0,0,1-3.46,5.22A39.75,39.75,0,0,1,298.88,246.09Z"/><path class="cls-7" d="M288.94,292.09a9,9,0,0,1-1.18-2c-.66-1.28-1.51-3.07-2.36-5.09s-1.56-3.87-2-5.23a9.4,9.4,0,0,1-.63-2.24,11.53,11.53,0,0,1,1,2.11l2.16,5.16c.82,1.91,1.57,3.63,2.21,5.13A12.09,12.09,0,0,1,288.94,292.09Z"/><path class="cls-7" d="M317.18,272.54a36.85,36.85,0,0,1-6.07-.91,37.71,37.71,0,0,1-6-1.42,34.61,34.61,0,0,1,6.08.91A36.48,36.48,0,0,1,317.18,272.54Z"/><path class="cls-7" d="M339.08,229.55a73.3,73.3,0,0,1,5.79-6.63,73,73,0,0,1,6.17-6.27,77,77,0,0,1-5.79,6.63A74.75,74.75,0,0,1,339.08,229.55Z"/><path class="cls-7" d="M361.11,286.88c-.11.09-3.34-3.65-7.22-8.36s-6.93-8.59-6.82-8.69,3.35,3.65,7.22,8.36S361.23,286.79,361.11,286.88Z"/><path class="cls-7" d="M224.33,262.44c.07.15-2.88,1.65-6.1,4.12s-5.46,4.9-5.58,4.79a7.83,7.83,0,0,1,1.36-1.69,31.91,31.91,0,0,1,8.32-6.35A7.83,7.83,0,0,1,224.33,262.44Z"/><path class="cls-7" d="M232.57,240.35a20.66,20.66,0,0,1-2.35,4,21,21,0,0,1-2.78,3.71,20.66,20.66,0,0,1,2.35-4A20.4,20.4,0,0,1,232.57,240.35Z"/><path class="cls-7" d="M251.13,262.05a10.14,10.14,0,0,1-1.7-4.11,9.92,9.92,0,0,1-.24-4.44c.15,0,.21,2,.75,4.32S251.27,262,251.13,262.05Z"/><path class="cls-7" d="M253.88,193.13a29.47,29.47,0,0,1-7.77,1.1,15.36,15.36,0,0,1,3.85-.81A14.74,14.74,0,0,1,253.88,193.13Z"/><path class="cls-7" d="M267.83,168.4a15.24,15.24,0,0,1-3.38,2.17,15.86,15.86,0,0,1-3.62,1.71,30.44,30.44,0,0,1,7-3.88Z"/><path class="cls-7" d="M307,178.84a33.27,33.27,0,0,1-3.86-4.63,35.58,35.58,0,0,1-3.45-5,34,34,0,0,1,3.86,4.63A36.27,36.27,0,0,1,307,178.84Z"/><path class="cls-7" d="M356.81,203.71a24.49,24.49,0,0,1-6.05-9.72c.14-.07,1.22,2.27,2.89,4.94S356.93,203.61,356.81,203.71Z"/><path class="cls-7" d="M375.8,210a28.71,28.71,0,0,1-2.06,5.17,30.26,30.26,0,0,1-2.53,5,30,30,0,0,1,2.06-5.17A30.26,30.26,0,0,1,375.8,210Z"/><path class="cls-7" d="M378.46,184a55.68,55.68,0,0,1-5-5.66,55.39,55.39,0,0,1-4.65-6,55.68,55.68,0,0,1,5.05,5.66A55.39,55.39,0,0,1,378.46,184Z"/><path class="cls-7" d="M349.45,163a22.55,22.55,0,0,1-.46-4.85,23.52,23.52,0,0,1,.07-4.86,22,22,0,0,1,.45,4.84A23.31,23.31,0,0,1,349.45,163Z"/><path class="cls-7" d="M373.1,161.67a37.54,37.54,0,0,1-6.17,1.08,38.68,38.68,0,0,1-6.25.58,37.14,37.14,0,0,1,6.18-1.09A36.59,36.59,0,0,1,373.1,161.67Z"/><path class="cls-7" d="M410.36,189a61.72,61.72,0,0,1-3.71-7.09,60.55,60.55,0,0,1-3.25-7.3,60.89,60.89,0,0,1,3.72,7.08A60.27,60.27,0,0,1,410.36,189Z"/><path class="cls-7" d="M404.09,212.68A32.44,32.44,0,0,1,405,207a32.09,32.09,0,0,1,1.38-5.59,32.18,32.18,0,0,1-.87,5.69A31.79,31.79,0,0,1,404.09,212.68Z"/><path class="cls-7" d="M421.37,231.33a66.32,66.32,0,0,1-3-7.68,65.89,65.89,0,0,1-2.48-7.86,65.21,65.21,0,0,1,3,7.68A64,64,0,0,1,421.37,231.33Z"/><path class="cls-7" d="M419,242.23a13.5,13.5,0,0,1-5-1.8,13.64,13.64,0,0,1-4.27-3.25c.1-.12,1.95,1.41,4.52,2.79S419,242.08,419,242.23Z"/><path class="cls-7" d="M441.1,267.1a28.55,28.55,0,0,1-3.11-7,14.23,14.23,0,0,1,1.8,3.39A14.54,14.54,0,0,1,441.1,267.1Z"/><path class="cls-7" d="M310.34,301.78a19.74,19.74,0,0,1-.77-4.43,18.88,18.88,0,0,1-.26-4.49,19.74,19.74,0,0,1,.77,4.43A18.88,18.88,0,0,1,310.34,301.78Z"/><path class="cls-7" d="M378.27,300.06a19,19,0,0,1,.66-4.33,18.6,18.6,0,0,1,1.16-4.22,18.58,18.58,0,0,1-.65,4.33A18.91,18.91,0,0,1,378.27,300.06Z"/></g><g id="Speech_Bubble" data-name="Speech Bubble"><path class="cls-12" d="M391.3,78.77l8.78-15.48A41.5,41.5,0,1,1,410,74.34v0Z"/><path class="cls-1" d="M391.3,78.77l18.76-4.29.19,0-.12-.16v0l-.18.18a42.81,42.81,0,0,0,8.51,5.14,41.92,41.92,0,0,0,11.36,3.24,37.22,37.22,0,0,0,6.56.33c1.13-.06,2.28-.09,3.44-.19l3.5-.53a41.76,41.76,0,0,0,32.88-32.61,42.26,42.26,0,0,0-.49-18.43,40.87,40.87,0,0,0-8.88-17l-1.69-1.86c-.56-.63-1.22-1.15-1.82-1.72s-1.2-1.16-1.88-1.64l-2-1.49a17.89,17.89,0,0,0-2.06-1.36L455.28,5,453.08,4a19.22,19.22,0,0,0-2.22-1A42.12,42.12,0,0,0,432.3.11a40.8,40.8,0,0,0-17.05,5,42,42,0,0,0-19.66,24.19,44.92,44.92,0,0,0-1.8,13.47A41.1,41.1,0,0,0,400,63.35v-.12L391.3,78.77c.43-.76,3.21-5.57,8.89-15.42l0-.06,0-.06a42.37,42.37,0,0,1-4.08-8.88,41,41,0,0,1-2-11.55A44.44,44.44,0,0,1,396,29.46a41.64,41.64,0,0,1,19.5-23.9,40.36,40.36,0,0,1,16.85-5,41.87,41.87,0,0,1,18.34,2.83,18,18,0,0,1,2.2,1l2.17,1,2.07,1.27a17.06,17.06,0,0,1,2,1.34l2,1.47c.67.47,1.23,1.08,1.86,1.62s1.25,1.07,1.79,1.69l1.68,1.84a40.38,40.38,0,0,1,8.77,16.83,41.83,41.83,0,0,1,.5,18.2,40.93,40.93,0,0,1-6.9,15.82A41.42,41.42,0,0,1,443.23,82l-3.47.53c-1.14.1-2.28.13-3.4.2a36.56,36.56,0,0,1-6.5-.31,41.32,41.32,0,0,1-11.28-3.17,42.33,42.33,0,0,1-8.49-5.05l-.77-.59.59.77,0,0,.07-.2Z"/><path class="cls-1" d="M446.53,39.88a4.05,4.05,0,1,0,4.05-4.05A4.05,4.05,0,0,0,446.53,39.88Z"/><path class="cls-1" d="M430.34,39.88a4,4,0,1,0,4.05-4.05A4,4,0,0,0,430.34,39.88Z"/><path class="cls-1" d="M414.19,37.85a4,4,0,1,0,5.53-1.48A4,4,0,0,0,414.19,37.85Z"/></g></g></svg>