<svg xmlns="http://www.w3.org/2000/svg" viewBox="0 0 602.26 368.64"><defs><style>.cls-1{fill:#263238;}.cls-2{fill:#455a64;}.cls-3{fill:#effffc;}.cls-10,.cls-11,.cls-16,.cls-3,.cls-6{stroke:#272425;stroke-miterlimit:10;stroke-width:0.25px;}.cls-4{fill:#ffbe9d;}.cls-5{fill:#eb996e;}.cls-6{fill:#5b3296;}.cls-7{opacity:0.6;}.cls-8{fill:#fff;}.cls-9{opacity:0.3;}.cls-10,.cls-16{fill:#0c0b16;}.cls-11{fill:#9a80fa;}.cls-12{fill:#e0e0e0;}.cls-13{opacity:0.2;}.cls-14{fill:#b78876;}.cls-15{fill:#995037;}.cls-16{opacity:0.4;}.cls-17{fill:#fafafa;}.cls-18{fill:#d08979;}.cls-19{fill:#a1675b;}.cls-20{fill:#f5f5f5;}</style></defs><g id="Capa_2" data-name="Capa 2"><g id="Character_1" data-name="Character 1"><path class="cls-1" d="M602.26,349.72c0,.14-134.83.26-301.11.26S0,349.86,0,349.72s134.8-.26,301.15-.26S602.26,349.58,602.26,349.72Z"/><rect class="cls-1" x="252.91" y="295.64" width="88.28" height="11.48" rx="5.52"/><path class="cls-1" d="M274.08,314h47.58s-6.33,12.65-24.77,12.65C277.66,326.64,274.08,314,274.08,314Z"/><path class="cls-1" d="M486.9,48.59a76.41,76.41,0,0,0,3.54-19.36L492,25.52c2.26-2.55,6.35-2.95,9.4-1.43a12.29,12.29,0,0,1,6,7.93,27.1,27.1,0,0,1,.37,10.16c-.26,2.21-.47,4.82,1.21,6.27a20,20,0,0,1,1.9,1.38,3,3,0,0,1-.22,4,4.06,4.06,0,0,1-4.07.83,4.14,4.14,0,1,1-8,2A4.32,4.32,0,0,1,495,59.41a8.22,8.22,0,0,1-4.63-1c-1.92-1-3.73-2.51-4.19-4.6C485.75,52.07,486.36,50.29,486.9,48.59Z"/><path class="cls-2" d="M501.67,59.53a1,1,0,0,0,.39.06,2,2,0,0,0,1.09-.38,2.52,2.52,0,0,0,1-1.52,4.41,4.41,0,0,0-.18-2.41,26.27,26.27,0,0,0-1.22-2.63,9.77,9.77,0,0,1-.86-3.11,22.52,22.52,0,0,1,.81-7.42,25,25,0,0,0,.92-7.55,8.57,8.57,0,0,0-2.43-5.67,6.14,6.14,0,0,0-3.8-1.73,3.4,3.4,0,0,0-1.52.2,8.53,8.53,0,0,1,1.51,0A6,6,0,0,1,501,29.12a8.33,8.33,0,0,1,2.25,5.48,25.5,25.5,0,0,1-.95,7.42,22.57,22.57,0,0,0-.78,7.57,10.15,10.15,0,0,0,.93,3.22,23.84,23.84,0,0,1,1.25,2.57,4.16,4.16,0,0,1,.25,2.26,2.43,2.43,0,0,1-.89,1.43A2.17,2.17,0,0,1,501.67,59.53Z"/><path class="cls-3" d="M496.75,30.51a10.6,10.6,0,0,0-1.25-3.7,4.43,4.43,0,0,0-3.13-2.16,2.83,2.83,0,0,0-3,1.94l.75-.59a12.05,12.05,0,0,0-2.39,9c.31,2.16,1.49,4.45,3.61,5S495.64,39,496.49,37A11.26,11.26,0,0,0,496.75,30.51Z"/><path class="cls-3" d="M493,35.75a3.25,3.25,0,0,0,2,.44,4.4,4.4,0,0,0,1.45-.32c.38-.15.48-.43.44-.44a1.59,1.59,0,0,1-.51.26,5.9,5.9,0,0,1-1.4.23A14.07,14.07,0,0,1,493,35.75Z"/><path class="cls-3" d="M492,32a11.73,11.73,0,0,0,2.46.06,11.19,11.19,0,0,0,2.45-.22,12.19,12.19,0,0,0-2.46-.05A11.49,11.49,0,0,0,492,32Z"/><path class="cls-3" d="M492.81,27.88a6.58,6.58,0,0,0,1.65-.1,4.31,4.31,0,0,1,1.13.06c.28.07.45.14.47.1s-.13-.16-.42-.28a2.71,2.71,0,0,0-1.2-.14A4.48,4.48,0,0,0,492.81,27.88Z"/><path class="cls-1" d="M487.6,17.6c.06-2.14-1.92-3.8-3.92-4.59s-4.22-1.08-6-2.28C476.1,9.67,475,8,473.7,6.66a13.22,13.22,0,0,0-22.24,6.06c-.77,3.06-.24,6.68,2.17,8.71,2.79,2.36,6.94,1.83,10.53,1.1s7.64-1.46,10.63.65c1.81,1.27,2.84,3.33,3.95,5.24s2.49,3.87,4.57,4.59,4.92-.53,5-2.73"/><path class="cls-1" d="M487.46,18.78c-.24,1.8,1.06,3.41,2.36,4.68s2.76,2.62,3,4.42c.27,2.11-1.27,4.18-.82,6.25.28,1.32,1.3,2.33,1.92,3.53a7.5,7.5,0,0,1,.39,5.51c-.54,1.82-1.39,5.87-2.65,7.27a29,29,0,0,1-14.13,8.43,54.71,54.71,0,0,1-15.6.86c-4.27-.26-9.18-.07-12.74-5.94-1.84-3-2.75-7.09-3.73-10.51-.85-3-1.58-6.1-.7-9,.51-1.71,1.54-3.23,2-4.94.63-2.14.4-4.42.66-6.64a15.24,15.24,0,0,1,21.68-12"/><path class="cls-4" d="M449.49,26.16c.4-6.13,4.48-13.64,10.58-13L479.13,18a3.6,3.6,0,0,1,3.21,3.66l-2.1,45a5.78,5.78,0,0,1-.53,2.21c-1.41,3.13-6.11,11-16.33,7.84-2.5-.78-3.64-3.52-4.13-6.33,0-.33-.14-.63-.15-.94a30.39,30.39,0,0,1-.07-6.32c0-3.71,0-5.23,0-5.2s-7.83-1.32-9.43-11.54C448.77,41.3,449.05,33,449.49,26.16Z"/><path class="cls-1" d="M452.2,33.57a1.31,1.31,0,0,0,1.27,1.32,1.26,1.26,0,0,0,1.35-1.18,1.31,1.31,0,0,0-1.26-1.32A1.26,1.26,0,0,0,452.2,33.57Z"/><path class="cls-1" d="M465.7,33.57A1.31,1.31,0,0,0,467,34.89a1.26,1.26,0,0,0,1.36-1.18,1.31,1.31,0,0,0-1.26-1.32A1.25,1.25,0,0,0,465.7,33.57Z"/><path class="cls-1" d="M465.4,31c.21.08,1.22-.62,2.81-.91s2.87,0,3-.17-.16-.24-.73-.38a6.36,6.36,0,0,0-2.45,0,5.8,5.8,0,0,0-2.2.87C465.42,30.71,465.3,31,465.4,31Z"/><path class="cls-1" d="M451.53,30.05c.17.15,1.35-.21,3,0s2.73.88,2.92.79-.08-.29-.57-.59a6.06,6.06,0,0,0-2.32-.78,5.69,5.69,0,0,0-2.37.13C451.63,29.79,451.44,30,451.53,30.05Z"/><path class="cls-1" d="M460,41.24a9.71,9.71,0,0,0-2.29-.42c-.36,0-.7-.11-.76-.36a1.73,1.73,0,0,1,.24-1.06l1.07-2.74a47.88,47.88,0,0,0,2.41-7.17c-.16-.06-1.49,3.06-3,7-.36,1-.7,1.88-1,2.75a2.17,2.17,0,0,0-.19,1.42.89.89,0,0,0,.59.52,2.09,2.09,0,0,0,.61.09A9.34,9.34,0,0,0,460,41.24Z"/><path class="cls-5" d="M459,57.92a26,26,0,0,0,13.69-3.62s-3.46,7.07-13.68,6.09Z"/><path class="cls-5" d="M460.59,44.64a2.54,2.54,0,0,1,2.28-.94,2.31,2.31,0,0,1,1.6.86,1.47,1.47,0,0,1,.11,1.68,1.7,1.7,0,0,1-1.85.47,5.54,5.54,0,0,1-1.8-1.08,1.77,1.77,0,0,1-.4-.42.5.5,0,0,1,0-.53"/><path class="cls-1" d="M464.15,42.22c-.23,0-.23,1.52-1.54,2.6s-2.95.91-3,1.13.36.3,1.05.32a3.81,3.81,0,0,0,2.47-.86,3.34,3.34,0,0,0,1.2-2.18C464.43,42.59,464.26,42.21,464.15,42.22Z"/><path class="cls-1" d="M464.63,27.38c.14.38,1.54.2,3.2.41s3,.65,3.21.31c.1-.16-.14-.53-.67-.9a5.52,5.52,0,0,0-2.38-.84,5.42,5.42,0,0,0-2.51.29C464.87,26.9,464.57,27.2,464.63,27.38Z"/><path class="cls-1" d="M451.81,26.42c.25.32,1.22,0,2.39,0s2.16.22,2.39-.12c.1-.16-.06-.48-.49-.78a3.44,3.44,0,0,0-3.84.11C451.84,25.93,451.71,26.26,451.81,26.42Z"/><path class="cls-1" d="M453.57,11.49A12.41,12.41,0,0,0,461,25.2c.12-1.27.25-2.54.37-3.81,1.57,2.89,5.11,3.93,8.25,4.89s6.65,2.49,7.56,5.65c.71,2.44-.42,5.09.09,7.58.27,1.35,1,2.57,1.37,3.9.53,2,.21,4,.58,6s1.88,4.09,3.9,3.93A3.68,3.68,0,0,0,486,51.09a10.65,10.65,0,0,0,.72-3.76c.34-5.23.58-10.47.4-15.71-.15-4.54-.72-9.33-3.49-12.93-3-4-8.13-5.69-13-6.62s-10-1.27-14.52-3.32"/><path class="cls-2" d="M458.43,20.17a21.68,21.68,0,0,1-2.77-6.08,22.09,22.09,0,0,1-.36-6.67,6.29,6.29,0,0,0-.41,2,14.21,14.21,0,0,0,.35,4.81,14.74,14.74,0,0,0,1.91,4.44A6,6,0,0,0,458.43,20.17Z"/><path class="cls-2" d="M485.86,40.57a2.47,2.47,0,0,0,.22-.48,13.83,13.83,0,0,0,.51-1.45,17.38,17.38,0,0,0,.74-5.6,13.78,13.78,0,0,0-2.72-7.87,11.73,11.73,0,0,0-3.77-3.25,14.94,14.94,0,0,0-5.13-1.49c-1.81-.24-3.58-.34-5.26-.58a17,17,0,0,1-4.68-1.29,17.39,17.39,0,0,1-6.46-5,17.08,17.08,0,0,1-2.74-4.84c-.11-.31-.21-.58-.29-.83l-.18-.62a1.81,1.81,0,0,0-.17-.51,3.57,3.57,0,0,0,.09.53c0,.18.08.39.13.63l.26.85a16.22,16.22,0,0,0,2.66,5,17.23,17.23,0,0,0,6.54,5.19,17,17,0,0,0,4.78,1.35c1.71.26,3.48.35,5.26.59a14.58,14.58,0,0,1,5,1.44,11.12,11.12,0,0,1,3.65,3.12A13.54,13.54,0,0,1,487,33.05a18.17,18.17,0,0,1-.59,5.54c-.17.64-.32,1.13-.43,1.47A1.85,1.85,0,0,0,485.86,40.57Z"/><path class="cls-2" d="M491.14,28.77a2.16,2.16,0,0,0,0-.47A10.23,10.23,0,0,0,491,27a13.59,13.59,0,0,0-6.62-9.69,13.78,13.78,0,0,0-4-1.56c-1.46-.33-3-.34-4.51-.61A5.07,5.07,0,0,1,472.26,13a14.7,14.7,0,0,1-1-1.88,12,12,0,0,0-1-1.82,12.52,12.52,0,0,0-5.65-4.42A12.12,12.12,0,0,0,459.79,4a9.67,9.67,0,0,0-1.31.14,1.69,1.69,0,0,0-.45.11s.63-.08,1.77-.08a12.75,12.75,0,0,1,4.66,1,12.5,12.5,0,0,1,5.43,4.36,13.24,13.24,0,0,1,1,1.78,15.67,15.67,0,0,0,1,1.94,4.75,4.75,0,0,0,1.69,1.58,7.11,7.11,0,0,0,2.25.75c1.56.27,3.08.28,4.49.6a13.21,13.21,0,0,1,3.88,1.49,13.36,13.36,0,0,1,5,4.91A14.63,14.63,0,0,1,490.87,27C491.08,28.13,491.1,28.77,491.14,28.77Z"/><path class="cls-2" d="M481.1,57.42s.13.16.45.46l0,0h0A15.83,15.83,0,0,0,487,54.25a26.53,26.53,0,0,0,3.32-4.19,7.51,7.51,0,0,1,.94-1.09,14.57,14.57,0,0,1,1.19-.95,6.15,6.15,0,0,0,2.09-2.51,7.61,7.61,0,0,0,.57-3.79,9.58,9.58,0,0,0-1-3.43c-.54-1-1.15-1.87-1.53-2.77a4.65,4.65,0,0,1-.31-2.62c.12-.82.35-1.55.5-2.21A9.11,9.11,0,0,0,493,29a3.86,3.86,0,0,0-.11-1.1,1.25,1.25,0,0,0-.14-.36,6,6,0,0,1,.08,1.45,9.68,9.68,0,0,1-.34,1.67c-.17.64-.41,1.37-.56,2.23a4.93,4.93,0,0,0,.28,2.8c.38,1,1,1.84,1.5,2.82a9,9,0,0,1,.94,3.28,7,7,0,0,1-.54,3.57,5.75,5.75,0,0,1-1.95,2.35c-.41.32-.83.62-1.21,1a7.61,7.61,0,0,0-1,1.16A26.72,26.72,0,0,1,486.76,54a17.8,17.8,0,0,1-5.2,3.78h.06A4,4,0,0,0,481.1,57.42Z"/><path class="cls-6" d="M320.39,46.61a16.79,16.79,0,1,0-5.54,23.28l.21-.14-11.37,46.61,36.63,8.93-.14-.21a16.54,16.54,0,0,1-2-12.54,16.74,16.74,0,1,1,25.25,18.09l-.36.22,39.39,9.6c8.51-19,13.45-44.47,3-73.58A103.55,103.55,0,0,0,336.54,1.45L332,.33,320.61,47Z"/><path class="cls-6" d="M320.39,46.61l.23.35h0c.4-1.85,4.45-18.67,11.23-46.66l0-.15.15,0,3.75.91c1.28.29,2.55.72,3.85,1.11,2.58.85,5.22,1.81,7.88,2.93a103.31,103.31,0,0,1,16.25,8.52,101.29,101.29,0,0,1,30.06,29.4c1.07,1.57,2,3.26,3,4.91l1.51,2.49c.46.87.88,1.75,1.33,2.63.88,1.76,1.76,3.54,2.66,5.33l2.26,5.6a100,100,0,0,1,6.31,24.17,94.91,94.91,0,0,1-.39,26.21c-.29,2.22-.79,4.42-1.23,6.64s-1.07,4.4-1.75,6.58a107.83,107.83,0,0,1-4.81,12.93l-.09.2-.2-.05L374.94,134,363,131.1l-.61-.15.54-.33a16.45,16.45,0,0,0,6.62-7.55,16.26,16.26,0,0,0,1.26-4.88,15.53,15.53,0,0,0-.24-5,17.93,17.93,0,0,0-.68-2.41,18.54,18.54,0,0,0-1.05-2.26,15.79,15.79,0,0,0-3-3.92,16.47,16.47,0,0,0-25.24,3,16.16,16.16,0,0,0-1.95,4.27,15.29,15.29,0,0,0-.68,4.59,16.45,16.45,0,0,0,2.53,8.71l.33.52-.58-.14-36.63-9-.22-.06.05-.22c4.17-17,8-32.63,11.4-46.6l.29.2a16.74,16.74,0,0,1-8.5,2.6,16.56,16.56,0,0,1-8.21-1.93,16.87,16.87,0,0,1-5.74-25A17.26,17.26,0,0,1,302,39.3a18.41,18.41,0,0,1,4.79-.53,18.92,18.92,0,0,1,4.18.68,16.64,16.64,0,0,1,8.66,6,9.5,9.5,0,0,1,.77,1.15l-.21-.28a9.88,9.88,0,0,0-.61-.84,16.64,16.64,0,0,0-2.83-2.89,16.9,16.9,0,0,0-5.82-3,18.8,18.8,0,0,0-4.15-.64,18,18,0,0,0-4.73.54,17,17,0,0,0-9.12,6.2,16.58,16.58,0,0,0,5.68,24.57A16.29,16.29,0,0,0,315,69.59l.4-.25-.11.45c-3.4,14-7.19,29.57-11.33,46.62l-.17-.27,36.64,8.91-.26.38a16.9,16.9,0,0,1-2.62-9,15.54,15.54,0,0,1,.7-4.73,16.17,16.17,0,0,1,2-4.4,17,17,0,0,1,7.34-6.31,17,17,0,0,1,18.68,3.23,16.57,16.57,0,0,1,3.11,4,19.76,19.76,0,0,1,1.09,2.33,17.89,17.89,0,0,1,.69,2.48,16.26,16.26,0,0,1,.26,5.16,16.89,16.89,0,0,1-1.3,5,17.07,17.07,0,0,1-6.83,7.8l-.07-.48,11.89,2.9,27.49,6.71-.3.14A106.78,106.78,0,0,0,407,127.47c.68-2.16,1.21-4.36,1.75-6.55s.94-4.39,1.23-6.59a94.3,94.3,0,0,0,.4-26.07,99.4,99.4,0,0,0-6.26-24.06q-1.12-2.82-2.25-5.59-1.33-2.67-2.64-5.31c-.44-.87-.86-1.76-1.32-2.61l-1.5-2.49c-1-1.65-1.94-3.33-3-4.9A101.31,101.31,0,0,0,363.55,14a104,104,0,0,0-16.18-8.52c-2.66-1.13-5.28-2.09-7.85-2.94-1.3-.39-2.55-.82-3.83-1.12L331.94.48l.19-.11c-6.86,28-11,44.77-11.51,46.6v0A3.86,3.86,0,0,1,320.39,46.61Z"/><path class="cls-4" d="M401.25,57.34s-1.37-6.82-1.47-9-6.07-5.71-6.07-5.71l1.59,3,.39,1s-.34,1.77-1.38,1.43-11.93-7.56-11.93-7.56c-2.34-1.54-3.07-.07-3.07-.07s-1.57-1.11-2.41-.12c-.54.64.51,2.35.51,2.35s-1.47-1.47-2.7-.6,1.38,3.72,1.38,3.72c-.82,1.92,4.14,7.46,5.42,9s14.63,12.25,14.63,12.25l7.49-6.61Z"/><path class="cls-5" d="M389.9,49.49a9,9,0,0,1-1.79-1,33.78,33.78,0,0,1-4-3,42.5,42.5,0,0,1-3.54-3.46,8.9,8.9,0,0,1-1.29-1.59,13.81,13.81,0,0,1,1.48,1.41c.9.89,2.15,2.1,3.6,3.35s2.84,2.31,3.86,3A14.86,14.86,0,0,1,389.9,49.49Z"/><path class="cls-5" d="M387.38,52a10.31,10.31,0,0,1-1.58-1.16c-.95-.75-2.24-1.82-3.61-3.06a45.69,45.69,0,0,1-3.35-3.34,9.27,9.27,0,0,1-1.23-1.53A12.6,12.6,0,0,1,379,44.22c.85.85,2.05,2,3.41,3.25L386,50.6A10.06,10.06,0,0,1,387.38,52Z"/><path class="cls-5" d="M384.42,54.14a6.7,6.7,0,0,1-1.49-.91,25.28,25.28,0,0,1-3.16-2.76,32.41,32.41,0,0,1-2.72-3.18,6.8,6.8,0,0,1-1-1.45c.1-.07,1.68,2,4,4.37a37.78,37.78,0,0,0,3,2.81A11.06,11.06,0,0,1,384.42,54.14Z"/><path class="cls-2" d="M441.85,316.63l.21,20.39s-20.65,7.06-21,10.84l39.54,1,1-31.78Z"/><g class="cls-7"><path class="cls-8" d="M454.33,335.62a1.61,1.61,0,0,1,1.07,1.87,1.56,1.56,0,0,1-1.84,1.08,1.71,1.71,0,0,1-1.13-2,1.63,1.63,0,0,1,2.05-.91"/></g><g class="cls-7"><path class="cls-8" d="M460.62,348.87l0-3.21-37.91.23s-1.78.72-1.61,2Z"/></g><path class="cls-1" d="M441.42,336.8c0,.2,1,.31,1.9,1s1.42,1.47,1.6,1.39-.08-1.19-1.22-1.95S441.39,336.63,441.42,336.8Z"/><path class="cls-1" d="M437.23,338.41c-.05.19.78.54,1.42,1.37s.8,1.71,1,1.7.34-1.09-.46-2.11S437.24,338.23,437.23,338.41Z"/><path class="cls-1" d="M434.75,343.32c.17,0,.47-.91,0-2s-1.36-1.52-1.45-1.36.46.74.83,1.62S434.56,343.29,434.75,343.32Z"/><path class="cls-1" d="M441.89,332.15c.08.18,1-.06,2.06,0s1.93.47,2,.3-.7-.87-2-1S441.8,332,441.89,332.15Z"/><g class="cls-9"><polygon points="441.89 320.67 441.93 324.31 461.37 324.63 461.48 321.36 441.89 320.67"/></g><path class="cls-1" d="M441.92,328a3.73,3.73,0,0,0,2,0,8.91,8.91,0,0,0,2.08-.58,9.65,9.65,0,0,0,1.16-.58,2.43,2.43,0,0,0,.61-.45.83.83,0,0,0,.11-1A1.08,1.08,0,0,0,447,325a2.8,2.8,0,0,0-.75.09,6.66,6.66,0,0,0-1.24.39,6.81,6.81,0,0,0-1.86,1.15c-.94.83-1.27,1.54-1.2,1.58s.54-.53,1.5-1.21a8,8,0,0,1,1.79-1,7.59,7.59,0,0,1,1.14-.32c.43-.1.78-.09.88.1s.05.1,0,.22a2.19,2.19,0,0,1-.45.33,10.44,10.44,0,0,1-3,1.25A13,13,0,0,0,441.92,328Z"/><path class="cls-1" d="M442.17,328.32a3.12,3.12,0,0,0,.57-1.9,6.58,6.58,0,0,0-.21-2.17,7.16,7.16,0,0,0-.48-1.22,1.65,1.65,0,0,0-1.24-1,.93.93,0,0,0-.84.53,2.92,2.92,0,0,0-.22.72,4.33,4.33,0,0,0,0,1.34,4.54,4.54,0,0,0,.79,2.06c.75,1.05,1.55,1.3,1.56,1.23s-.59-.48-1.16-1.48a4.58,4.58,0,0,1-.58-1.88,4,4,0,0,1,.07-1.14c.07-.42.24-.75.39-.71s.53.33.68.67a7.6,7.6,0,0,1,.46,1.08,7.48,7.48,0,0,1,.34,2C442.29,327.57,442.06,328.29,442.17,328.32Z"/><path class="cls-3" d="M508.28,288.35l18.1,9.39s-3.47,21.55-.29,23.61l19.46-34.44L518,271.13Z"/><g class="cls-7"><path class="cls-3" d="M530.9,286.25a1.62,1.62,0,0,1,2.16-.07,1.55,1.55,0,0,1,.08,2.14,1.71,1.71,0,0,1-2.28.06,1.63,1.63,0,0,1,.16-2.24"/></g><g class="cls-7"><path class="cls-3" d="M545.55,286.91l-2.84-1.48L525.11,319s-.2,1.91,1,2.35Z"/></g><path class="cls-3" d="M525.89,298.2c.17.09.72-.71,1.73-1.23s2-.56,2-.76-1.09-.49-2.3.17S525.71,298.15,525.89,298.2Z"/><path class="cls-3" d="M525.34,302.66c.14.13.84-.44,1.87-.61s1.88.09,2-.08-.8-.82-2.08-.58S525.18,302.56,525.34,302.66Z"/><path class="cls-3" d="M528.5,307.15c.13-.13-.58-.84-1.75-.93s-2,.49-1.87.64.86-.06,1.82,0S528.39,307.31,528.5,307.15Z"/><path class="cls-3" d="M522,295.6c.19,0,.4-.88,1-1.8s1.32-1.48,1.23-1.65-1.1.2-1.8,1.29S521.82,295.61,522,295.6Z"/><g class="cls-9"><polygon class="cls-3" points="511.87 290.21 515.09 291.88 524.5 274.87 521.66 273.24 511.87 290.21"/></g><path class="cls-3" d="M518.38,293.64c.07,0,.55-.56,1-1.73a8.78,8.78,0,0,0,.47-2.12,10.73,10.73,0,0,0,0-1.28,2.39,2.39,0,0,0-.11-.75.85.85,0,0,0-.85-.59,1.06,1.06,0,0,0-.8.52,2.43,2.43,0,0,0-.28.7,7.74,7.74,0,0,0-.24,1.28,7.07,7.07,0,0,0,.15,2.18,3.4,3.4,0,0,0,.82,1.81c.1-.05-.2-.73-.35-1.89a7.64,7.64,0,0,1,0-2,7.09,7.09,0,0,1,.25-1.16c.11-.42.29-.73.5-.74s.11,0,.17.15a1.73,1.73,0,0,1,.08.55,9.82,9.82,0,0,1,0,1.21,10.1,10.1,0,0,1-.31,2A14.49,14.49,0,0,0,518.38,293.64Z"/><path class="cls-3" d="M518.75,293.56c.06-.05-.36-.72-1.41-1.4a6.4,6.4,0,0,0-2-.83,6,6,0,0,0-1.3-.15,1.64,1.64,0,0,0-1.49.61.94.94,0,0,0,.07,1,2.68,2.68,0,0,0,.54.53,4.22,4.22,0,0,0,1.16.66,4.5,4.5,0,0,0,2.2.27c1.27-.17,1.87-.76,1.82-.8a18.35,18.35,0,0,1-1.86.33,4.73,4.73,0,0,1-1.93-.37,4.38,4.38,0,0,1-1-.6c-.33-.26-.55-.56-.44-.68a1.14,1.14,0,0,1,.91-.28,5.7,5.7,0,0,1,1.18.1,7,7,0,0,1,1.91.64C518.14,293.1,518.67,293.64,518.75,293.56Z"/><path class="cls-10" d="M474.07,166.05s4.53,16.51,3.64,22.1c-.29,1.89-1.7,7.68-2.66,12.15-1.68,7.76-3.31,17.46-3.75,19.4L476,233.41,524.81,273l-12.17,22.4-47.21-29.95-1.65,13s.42,30.2-.76,44.91l-23-.81-4-76.2-6.38-79.06Z"/><path class="cls-10" d="M463.82,278a.66.66,0,0,0,.06-.22l.11-.66c.07-.63.18-1.48.32-2.54.26-2.26.64-5.44,1.1-9.35.93-7.88,2.23-18.78,3.92-30.78s3.44-22.84,5-30.63c.8-3.89,1.43-7,2-9.19.25-1,.44-1.87.59-2.49s.18-.87.17-.88a6.15,6.15,0,0,0-.28.86c-.16.6-.39,1.43-.67,2.46-.62,2.14-1.31,5.28-2.15,9.17-1.65,7.78-3.48,18.61-5.15,30.62s-2.94,22.92-3.77,30.82c-.39,3.92-.71,7.11-.94,9.37-.09,1.07-.17,1.92-.22,2.55S463.81,278,463.82,278Z"/><path class="cls-6" d="M488,90.51l-10.29,50.85s10.51,23.79,9.28,33.14c-.71,5.43-6.56,15.4-6.56,15.4l-51.46-19s5-58.53,8.25-69.56c4.64-15.56,19-33.64,19-33.64h0l.28-5.3,26.12.38-.16,5.34S491,77.77,488,90.51Z"/><path class="cls-6" d="M429.79,109.64c3.83.08,47.94-8,47.94-8"/><path class="cls-6" d="M472,118.55a.74.74,0,0,0,0,.26l.07.74c.06.64.17,1.56.34,2.7A80.77,80.77,0,0,0,477,139.62c.41,1.07.76,1.93,1,2.52l.3.68a1.09,1.09,0,0,0,.12.23l-.09-.25-.26-.69c-.24-.59-.57-1.46-1-2.54-.8-2.16-1.81-5.17-2.7-8.56s-1.49-6.51-1.86-8.78c-.18-1.13-.32-2-.41-2.69l-.1-.73C472,118.64,472,118.55,472,118.55Z"/><path class="cls-6" d="M474.62,188.1c.05,0,.84-1.76,1.76-4s1.61-4,1.56-4-.83,1.75-1.75,4S474.57,188.08,474.62,188.1Z"/><path class="cls-6" d="M466.65,185.08c.05,0,.77-1.69,1.6-3.82s1.47-3.87,1.42-3.89-.77,1.69-1.6,3.82S466.6,185.06,466.65,185.08Z"/><path class="cls-6" d="M457.35,182a1.16,1.16,0,0,0,.19-.3c.12-.21.28-.51.46-.89a28.09,28.09,0,0,0,1.26-3,30.53,30.53,0,0,0,.93-3.16c.1-.41.16-.74.2-1s.06-.37,0-.37-.15.5-.38,1.31-.55,1.91-1,3.12-.87,2.27-1.21,3A11.84,11.84,0,0,0,457.35,182Z"/><path class="cls-6" d="M449.32,178.91c.05,0,.78-2,1.63-4.5s1.49-4.55,1.44-4.57-.78,2-1.63,4.5S449.26,178.9,449.32,178.91Z"/><path class="cls-6" d="M439.37,175.06a35.6,35.6,0,0,0,1.44-3.65,38.47,38.47,0,0,0,1.26-3.73,35.25,35.25,0,0,0-1.44,3.66A37.83,37.83,0,0,0,439.37,175.06Z"/><path class="cls-11" d="M477,74.12c3.23.4,3.16,1.68,6.93,5.72s0,15.68,0,15.68l-11.35,8.68-42.74,5.44s-9.1,2-16.92-10.08c-2.86-4.46-22.61-33.9-22.61-33.9l13-8.69,26.14,28Z"/><g class="cls-9"><path class="cls-11" d="M443.28,107.91l36.55-6.68a2.62,2.62,0,0,1,1.39,0,1.7,1.7,0,0,1,.68,2.26,4.06,4.06,0,0,1-1.93,1.72c-4,2.11-8.78,2.28-13.34,2.41-7.78.21-18.83.57-26.62.79Z"/></g><path class="cls-11" d="M418.5,106l.44.4a12.81,12.81,0,0,0,1.36,1,14.07,14.07,0,0,0,5.85,2.25,14.23,14.23,0,0,0,4.36,0c1.55-.17,3.21-.39,4.95-.62,3.49-.47,7.31-1.06,11.32-1.73l20.48-3.6,6.21-1,1.7-.27.58-.11-.59.07-1.7.23c-1.47.21-3.6.53-6.23,1-5.25.84-12.48,2.18-20.49,3.54-4,.67-7.82,1.27-11.3,1.75-1.74.23-3.4.45-4.95.64a14.24,14.24,0,0,1-10.15-2.1,13.81,13.81,0,0,1-1.37-1C418.67,106.12,418.5,106,418.5,106Z"/><path class="cls-11" d="M484.81,93.36a.63.63,0,0,0,.06-.2c0-.2.08-.39.13-.61.1-.52.24-1.29.37-2.24a19.66,19.66,0,0,0-.2-7.46A10.33,10.33,0,0,0,481,76.76a6.71,6.71,0,0,0-2.07-.94,4,4,0,0,0-.82-.15,8.44,8.44,0,0,1,2.81,1.2,10.51,10.51,0,0,1,4,6,20.79,20.79,0,0,1,.25,7.4c-.12.94-.23,1.71-.31,2.24l-.09.61A1.67,1.67,0,0,0,484.81,93.36Z"/><path class="cls-11" d="M429.21,99.74a2.53,2.53,0,0,0,0-.58c0-.5-.09-1-.14-1.59a47.66,47.66,0,0,1-.16-5.26,49,49,0,0,1,.42-5.24c.08-.56.16-1.09.23-1.58a5.75,5.75,0,0,0,.07-.58,2.49,2.49,0,0,0-.15.57c-.08.37-.18.9-.29,1.57a39,39,0,0,0-.48,5.26,40,40,0,0,0,.22,5.27c.07.67.14,1.21.21,1.59A4.11,4.11,0,0,0,429.21,99.74Z"/><path class="cls-1" d="M472,75.67a6.28,6.28,0,0,1-.8.22l-2.32.56-8.55,2-28.24,6.23-2.45.53-.14,0-.1-.1L410.76,65.21l-5.55-6-1.48-1.64a3,3,0,0,1-.49-.6,5.33,5.33,0,0,1,.56.53l1.55,1.58L411,65l18.75,19.76-.24-.07,2.45-.54L460.26,78l8.58-1.79,2.34-.46A4.15,4.15,0,0,1,472,75.67Z"/><path class="cls-12" d="M354.77,167.6l.29-.29a16.47,16.47,0,1,0-23.47.13l.18.16H292.66v43.89l.17-.19a16.26,16.26,0,0,1,11.5-4.79A16.43,16.43,0,1,1,293,234.78l-.3-.29v50.32h44.1s2-16.79,4-29.55,30.55-38.79,38.74-49.64c3.3-4.37,11.45-18.7,15-38Z"/><path class="cls-6" d="M368.27,218.21a5.24,5.24,0,0,0-5.94-3c-1.59.4-3,1.57-4.67,1.39a4.59,4.59,0,0,1-3.3-2.77c-.68-1.34-1.05-2.83-1.85-4.1a3.91,3.91,0,0,0-3.69-2.1c-1.93.32-3.14,2.69-5.1,2.73a3.57,3.57,0,0,1-2.82-1.78c-.65-1-1.06-2.06-1.72-3a7,7,0,0,0-9.69-1.35c-1.87.95-3.87,4.11-4.14,7.31-.81,9.7-4.59,11.44-4.59,11.44A16.42,16.42,0,0,1,293,234.78l-.3-.29v50.32h44.1s2-16.79,4-29.55l-.07-.32a3.27,3.27,0,0,0,.07-.4C342,245.46,368.27,218.21,368.27,218.21Z"/><path class="cls-1" d="M354.77,167.6l39.77-.14h.17l0,.17A112.86,112.86,0,0,1,387,192.4a76.86,76.86,0,0,1-7.32,13.26c-3.23,4.19-7,8.17-10.87,12.35s-7.88,8.48-11.89,13a137.56,137.56,0,0,0-11.58,14.71,30.15,30.15,0,0,0-4.18,8.68c-.61,3.21-1,6.55-1.52,9.88-.94,6.68-1.83,13.54-2.67,20.52l0,.22H292.41v-.26c0-11.24,0-23.07,0-35.09V233.86l.45.45a16.07,16.07,0,0,0,13.68,4.62,15.16,15.16,0,0,0,4.71-1.4,16.69,16.69,0,0,0,2.14-1.2,18.7,18.7,0,0,0,1.9-1.53,15.79,15.79,0,0,0,3-3.78,16.16,16.16,0,0,0-8.71-23.36,15.2,15.2,0,0,0-4.52-.86,15,15,0,0,0-4.53.41,16.1,16.1,0,0,0-7.71,4.44l-.43.44v-.6c0-15.48,0-30.15,0-43.89v-.22h.21l39.11,0-.13.33a16.6,16.6,0,0,1-4.46-7.55,16.3,16.3,0,0,1,0-8.32,16.54,16.54,0,0,1,30.74-3.53,16.08,16.08,0,0,1,1.8,6.65,15,15,0,0,1,0,2,16.37,16.37,0,0,1-4,9.62c-.29.34-.54.58-.69.74l-.26.24.23-.25c.16-.18.39-.42.68-.77a16.21,16.21,0,0,0,2.19-3.34,16.5,16.5,0,0,0,1.65-6.25,13.25,13.25,0,0,0,0-2,16.06,16.06,0,0,0-.26-2.13,16.52,16.52,0,0,0-1.55-4.43A16.27,16.27,0,0,0,327.47,152a16,16,0,0,0,4.42,15.51l.34.33h-.46l-39.11,0,.22-.22c0,13.74,0,28.41,0,43.89l-.43-.16a16.59,16.59,0,0,1,8-4.6,16,16,0,0,1,4.68-.43,15.76,15.76,0,0,1,4.65.89,16.66,16.66,0,0,1,9,24.08,15.94,15.94,0,0,1-3.13,3.91,19.91,19.91,0,0,1-2,1.58,18.38,18.38,0,0,1-2.21,1.24,15.76,15.76,0,0,1-4.86,1.44,16.47,16.47,0,0,1-5.1-.07,16.65,16.65,0,0,1-9-4.69l.44-.19q0,7.55,0,15.23c0,12,0,23.85,0,35.09l-.26-.25h44.1l-.25.22q1.29-10.52,2.7-20.54c.49-3.35.91-6.64,1.53-9.91a30.59,30.59,0,0,1,4.26-8.83,138,138,0,0,1,11.63-14.75c4-4.56,8.05-8.86,11.92-13s7.66-8.14,10.87-12.3a76.56,76.56,0,0,0,7.3-13.17,114,114,0,0,0,7.69-24.68l.13.16Z"/><path class="cls-6" d="M325.43,199a3.81,3.81,0,1,1-3.81-3.81A3.81,3.81,0,0,1,325.43,199Z"/><g class="cls-13"><path d="M305.85,239.08c-3.88.33-8.19-1.25-10-4.72l-3,1.32c0,2,2.49,5.93,4.32,6.68a17.26,17.26,0,0,0,11.64.88,12.14,12.14,0,0,0,7.86-8.77C313.26,237,309.73,238.76,305.85,239.08Z"/></g><path class="cls-1" d="M444.59,150a3.25,3.25,0,0,0-1-1.39,7.45,7.45,0,0,0-5.16-1.93,13.5,13.5,0,0,0,3.51-3.76,5.06,5.06,0,0,0,.15-4.94,6,6,0,0,0-4.31-2.41,10.68,10.68,0,0,0-6.88,1,7.34,7.34,0,0,0-3.86,5.6l3.37,5.09a12.69,12.69,0,0,0,3.83,5.49c.79.66,1.87,1.25,2.81.82a2.14,2.14,0,0,0,1.06-2.22,6.48,6.48,0,0,0-1-2.41,11.84,11.84,0,0,0,5.13,2.82,2.2,2.2,0,0,0,2-.18A1.54,1.54,0,0,0,444.59,150Z"/><path class="cls-2" d="M431.18,144.94a7.58,7.58,0,0,0,7.46,1.62c0,.06-.35.35-1.08.58a5.86,5.86,0,0,1-3,.13,5.78,5.78,0,0,1-2.65-1.35C431.36,145.4,431.13,145,431.18,144.94Z"/><path class="cls-2" d="M443,138.39c0,.08-.86-.14-2.22-.19a11.45,11.45,0,0,0-9.34,4.2c-.87,1-1.26,1.83-1.33,1.79a5,5,0,0,1,1-2,10.67,10.67,0,0,1,9.65-4.34A5.33,5.33,0,0,1,443,138.39Z"/><path class="cls-2" d="M430.91,146.59a3.82,3.82,0,0,0-.36-1.32c-.7-1.7-1.48-3.5-3-4.51a1.06,1.06,0,0,0-.91-.22c-.49.16-.56.84-.37,1.32a6,6,0,0,1,.6,1.41l1.62,3.39a1.84,1.84,0,0,0,.69,1,1.15,1.15,0,0,0,1.14.12A1.28,1.28,0,0,0,430.91,146.59Z"/><path class="cls-1" d="M433.06,172.35a73.37,73.37,0,0,0,.91-12.72,25.73,25.73,0,0,0-3.28-12.19c-.34-.56-3-4.2-3.58-4-.44.13,1.41,3.64,1.25,4.07a21.91,21.91,0,0,0-.09,13,58,58,0,0,0,4.79,11.86"/><path class="cls-14" d="M428.26,209.43a12.12,12.12,0,0,0,9.47-14.08l-7.21-39c-1.61-10.55-9.08-18.41-19.59-16.52l-1,.24a19.07,19.07,0,0,0-14.37,21.51c1.44,9.14,3.15,19.21,4.37,24,2.53,9.92,12.86,9.06,12.86,9.06s.49,2.33,1.06,5.28a12.14,12.14,0,0,0,14.37,9.54Z"/><path class="cls-15" d="M412.83,194.61a24.69,24.69,0,0,0,12-7s-1.41,8-11.56,9.5Z"/><path class="cls-1" d="M400.13,168.14a1.46,1.46,0,0,0,1.71,1.1,1.39,1.39,0,0,0,1.16-1.63,1.46,1.46,0,0,0-1.72-1.11A1.4,1.4,0,0,0,400.13,168.14Z"/><path class="cls-1" d="M398.73,165.16c.22.14,1.1-.92,2.63-1.28s2.84.13,3-.1-.2-.4-.77-.63a4,4,0,0,0-2.43-.15,3.85,3.85,0,0,0-2,1.25C398.7,164.72,398.62,165.09,398.73,165.16Z"/><path class="cls-1" d="M414.64,164.75a1.45,1.45,0,0,0,1.71,1.1,1.39,1.39,0,0,0,1.16-1.63,1.47,1.47,0,0,0-1.72-1.11A1.4,1.4,0,0,0,414.64,164.75Z"/><path class="cls-1" d="M413.86,162.16c.22.14,1.11-.92,2.64-1.28s2.83.13,2.95-.1-.19-.39-.77-.63a4,4,0,0,0-2.42-.15,3.88,3.88,0,0,0-2.05,1.25C413.83,161.72,413.75,162.1,413.86,162.16Z"/><path class="cls-1" d="M411.21,175.24a10,10,0,0,0-2.59.15c-.4.05-.79.06-.92-.19a2,2,0,0,1,0-1.22c.14-1,.28-2.11.44-3.25.58-4.62.9-8.38.71-8.41s-.81,3.71-1.39,8.33c-.13,1.14-.26,2.22-.38,3.26a2.27,2.27,0,0,0,.17,1.58,1,1,0,0,0,.77.42,2.4,2.4,0,0,0,.69-.07A10.36,10.36,0,0,0,411.21,175.24Z"/><path class="cls-1" d="M416,175.21c-.26,0,.14,1.7-1,3.23s-3,1.76-2.91,2,.47.22,1.22.06a4.22,4.22,0,0,0,2.45-1.57,3.76,3.76,0,0,0,.73-2.68C416.36,175.54,416.08,175.17,416,175.21Z"/><path class="cls-1" d="M412.45,155.93c.25.38,1.73-.19,3.57-.4s3.42-.08,3.57-.51c.06-.2-.29-.53-1-.8a6.24,6.24,0,0,0-5.44.7C412.59,155.34,412.33,155.75,412.45,155.93Z"/><path class="cls-1" d="M398.13,159.92c.35.28,1.32-.33,2.58-.66s2.4-.33,2.56-.75c.07-.2-.19-.51-.74-.73a3.86,3.86,0,0,0-4.14,1.14C398,159.38,398,159.78,398.13,159.92Z"/><path class="cls-14" d="M431.48,163.88c.15-.12,6.35-3.68,7.78,3.18s-5.75,6.87-5.81,6.68S431.48,163.88,431.48,163.88Z"/><path class="cls-15" d="M435,170.71s.13.06.36.11a1.2,1.2,0,0,0,.89-.17,3,3,0,0,0,.82-2.94,4.05,4.05,0,0,0-.69-1.64,1.4,1.4,0,0,0-1.09-.73.62.62,0,0,0-.64.48c-.05.21,0,.33,0,.35s-.17-.08-.18-.38a.78.78,0,0,1,.18-.48.91.91,0,0,1,.63-.31,1.7,1.7,0,0,1,1.47.8,4.26,4.26,0,0,1,.81,1.83c.24,1.39-.2,2.83-1.13,3.32a1.28,1.28,0,0,1-1.13,0C435.05,170.87,435,170.72,435,170.71Z"/><path class="cls-1" d="M397.79,149.28c-1.24-.4,1.38-4.66,3.87-6.44,3.76-2.7,9.83-5.1,13.86-4.78,4.84.39,9.1,1.91,12.23,5.63a27.48,27.48,0,0,1,5.77,13.19,8.37,8.37,0,0,1-.13,4.39c-.66,1.71-2.31,3-1.81,5.11a3,3,0,0,1-.3,2.24c-1,1.59-2.78.64-3.74-.48-2-2.39-2.85-5.57-3.59-8.63a20.44,20.44,0,0,1-.86-6.62c.1-1.21.43-2.4.47-3.61a4.24,4.24,0,0,0-1.17-3.34,4.77,4.77,0,0,0-.67-.45,7.28,7.28,0,0,0-7.37.06c-3.6,2.13-9.8,5.49-11.79,4.52a10.57,10.57,0,0,1-3.69-2.51Z"/><path class="cls-1" d="M415,137.2a15.42,15.42,0,0,0-11.48,2.94,8,8,0,0,0-3.23,5.39c-.17,2.14,1.19,4.47,3.31,4.88l.15.06c3.13.4,4.95-.37,7.68-2,2.29-1.34,4.17-3.29,6.47-4.62A14.23,14.23,0,0,1,426,142,23.16,23.16,0,0,0,415,137.2Z"/><path class="cls-2" d="M425,141.18a8.46,8.46,0,0,0-3.47-.05,10.06,10.06,0,0,0-3.45,1.5,28.47,28.47,0,0,0-3.6,3,31,31,0,0,1-3.63,3.08,10.39,10.39,0,0,1-3.55,1.65,6.94,6.94,0,0,1-2.64.15,2.59,2.59,0,0,1-.93-.26,9.64,9.64,0,0,0,3.47-.24,10.85,10.85,0,0,0,3.37-1.69,36.24,36.24,0,0,0,3.56-3.07,25.4,25.4,0,0,1,3.69-3,9.85,9.85,0,0,1,3.64-1.46,6.56,6.56,0,0,1,2.64.06A2.33,2.33,0,0,1,425,141.18Z"/><path class="cls-2" d="M421.66,139.51a9.34,9.34,0,0,0-3.18.15,10.25,10.25,0,0,0-3.12,1.42,19.61,19.61,0,0,0-3.21,2.78c-1.06,1.1-2,2.19-3,3.11a17.23,17.23,0,0,1-2.8,2.2,9.34,9.34,0,0,1-2.2,1,2.2,2.2,0,0,1-.87.14,17.56,17.56,0,0,0,2.87-1.43,19.42,19.42,0,0,0,2.67-2.23c.93-.93,1.89-2,3-3.13a19.49,19.49,0,0,1,3.33-2.83,10,10,0,0,1,3.3-1.37,6.69,6.69,0,0,1,2.42-.06A2.06,2.06,0,0,1,421.66,139.51Z"/><path class="cls-2" d="M430.56,146.84a5.88,5.88,0,0,1-.15,2,14.69,14.69,0,0,1-5,8.38,5.58,5.58,0,0,1-1.72,1.11,24,24,0,0,0,4.46-5.14A24.17,24.17,0,0,0,430.56,146.84Z"/><path class="cls-2" d="M432.38,151.51a3.32,3.32,0,0,1,0,1.92,8,8,0,0,1-2.35,4,15.75,15.75,0,0,1-3.82,2.56,6.25,6.25,0,0,1-1.75.72,8.2,8.2,0,0,1,1.58-1,20.94,20.94,0,0,0,3.63-2.62,8.62,8.62,0,0,0,2.35-3.68C432.35,152.25,432.29,151.52,432.38,151.51Z"/><path class="cls-2" d="M405.15,140.53c.07.05-.23.57-.69,1.41a14.39,14.39,0,0,0-1.41,3.4,6.84,6.84,0,0,0,.07,3.58c.27.9.64,1.37.57,1.42s-.53-.36-.92-1.29a6.36,6.36,0,0,1-.23-3.83,10.71,10.71,0,0,1,1.61-3.47A4.53,4.53,0,0,1,405.15,140.53Z"/><path class="cls-2" d="M401,144.77a11.67,11.67,0,0,0,.67,3.16,12.42,12.42,0,0,0,1.9,2.63c0,.05-.4-.08-.9-.47a5.27,5.27,0,0,1-1.47-1.94,5.37,5.37,0,0,1-.46-2.4C400.82,145.12,401,144.76,401,144.77Z"/><path class="cls-10" d="M492.55,291.67s12.81,37.09,12.52,42.62-1.47,14-4.56,13.88-29.39-2.29-29.39-2.29l-16.29-4.32-3.37-29.67Z"/><path class="cls-16" d="M489.34,293.25s12.27,35.51,12,41-.89,13.68-4,13.56-26.21-2-26.21-2l-16.29-4.32-3.37-29.67Z"/><path class="cls-10" d="M494.55,298.12c0,.14-.65.48-1.56.77s-1.67.41-1.71.27.65-.48,1.56-.76S494.51,298,494.55,298.12Z"/><path class="cls-10" d="M497.92,307.91c.05.14-.65.48-1.55.77s-1.67.41-1.72.27.66-.48,1.56-.77S497.88,307.77,497.92,307.91Z"/><path class="cls-10" d="M502.35,322.31c0,.14-.65.48-1.55.77s-1.67.41-1.72.27.65-.48,1.56-.77S502.31,322.17,502.35,322.31Z"/><path class="cls-10" d="M505.07,332.54c0,.14-.87.29-2,.32a4.05,4.05,0,0,1-2-.19,4.09,4.09,0,0,1,2-.33C504.18,332.31,505.07,332.39,505.07,332.54Z"/><path class="cls-10" d="M504.22,342c0,.14-.87.16-1.9,0s-1.86-.33-1.84-.47.87-.16,1.9,0S504.24,341.85,504.22,342Z"/><path class="cls-10" d="M491.74,295.27a2.25,2.25,0,0,1,.26.5c.14.34.37.83.62,1.49.52,1.29,1.21,3.19,2,5.55,1.59,4.73,3.59,11.33,5.51,18.7.95,3.68,1.77,7.23,2.35,10.48a26.52,26.52,0,0,1,.44,8.77,13.49,13.49,0,0,1-2.05,5.55,9.13,9.13,0,0,1-1,1.26c-.26.26-.4.38-.42.37s.54-.56,1.27-1.74a14.06,14.06,0,0,0,1.86-5.49,27.22,27.22,0,0,0-.55-8.64c-.61-3.23-1.44-6.75-2.39-10.43-1.91-7.36-3.86-14-5.35-18.71-.75-2.38-1.39-4.29-1.85-5.6-.22-.62-.39-1.12-.53-1.52A2.9,2.9,0,0,1,491.74,295.27Z"/><path class="cls-3" d="M453.31,316.41l29.73.51-.44,37c-3.53-.26-10.4-19.48-10.4-19.48l-19.06.46Z"/><g class="cls-7"><path class="cls-3" d="M470.74,323a1.51,1.51,0,0,1,1.73-1,1.45,1.45,0,0,1,1,1.71,1.59,1.59,0,0,1-1.84,1.08,1.52,1.52,0,0,1-.88-1.9"/></g><g class="cls-7"><path class="cls-3" d="M483,316.92l-3,.07.7,35.43s.7,1.66,1.86,1.49Z"/></g><path class="cls-3" d="M472,335c.18,0,.27-.91.86-1.79s1.36-1.35,1.29-1.51-1.12.09-1.81,1.17S471.84,335.06,472,335Z"/><path class="cls-3" d="M473.57,338.93c.17,0,.49-.74,1.26-1.34s1.58-.78,1.57-1-1-.3-2,.47S473.39,338.92,473.57,338.93Z"/><path class="cls-3" d="M478.18,341.18c0-.16-.86-.42-1.85,0s-1.4,1.29-1.25,1.37.68-.44,1.51-.8S478.16,341.36,478.18,341.18Z"/><path class="cls-3" d="M467.65,334.65c.17-.07-.07-.91,0-1.93s.41-1.81.26-1.9-.81.66-.89,1.86S467.51,334.74,467.65,334.65Z"/><path class="cls-3" d="M463.27,333.72a3.41,3.41,0,0,0,0-1.86,8.47,8.47,0,0,0-.58-1.94,8.37,8.37,0,0,0-.55-1.07,2.24,2.24,0,0,0-.43-.57.79.79,0,0,0-1-.09,1,1,0,0,0-.42.79,2.36,2.36,0,0,0,.09.69,6.85,6.85,0,0,0,.38,1.16,6.38,6.38,0,0,0,1.1,1.72c.79.87,1.46,1.17,1.49,1.11s-.5-.51-1.14-1.39a7.15,7.15,0,0,1-.91-1.66,7,7,0,0,1-.32-1.07c-.1-.39-.1-.73.08-.83s.09,0,.21.05a1.89,1.89,0,0,1,.31.41,9.79,9.79,0,0,1,.55,1,10.33,10.33,0,0,1,.66,1.8A14.3,14.3,0,0,0,463.27,333.72Z"/><path class="cls-3" d="M463.54,333.48a3,3,0,0,0-1.79-.51,6.35,6.35,0,0,0-2,.23,6.24,6.24,0,0,0-1.13.46,1.52,1.52,0,0,0-.95,1.17.86.86,0,0,0,.51.78,2.46,2.46,0,0,0,.68.2,4.32,4.32,0,0,0,1.24,0,4.42,4.42,0,0,0,1.93-.77c1-.71,1.19-1.46,1.13-1.48s-.45.56-1.38,1.11a4.3,4.3,0,0,1-1.74.56,3.87,3.87,0,0,1-1.07-.05c-.4-.06-.71-.21-.67-.36s.3-.49.61-.64a6.73,6.73,0,0,1,1-.44,6.57,6.57,0,0,1,1.86-.34C462.83,333.38,463.51,333.58,463.54,333.48Z"/><path class="cls-6" d="M430.15,298.86s-42.46,13.31-51.89,20.94c-4.79,3.87-5.67,19.46,2,25.81s17.82,3.25,23.7,2.91,52.94-8.37,52.94-8.37l.27-36.36Z"/><path class="cls-6" d="M420.18,324.24a6.23,6.23,0,0,1-1.14.62c-.37.17-.85.35-1.41.57s-1.2.41-1.93.58c-1.44.39-3.19.71-5.12,1a50,50,0,0,0-6.22,1.32,16.39,16.39,0,0,0-4.61,2.12,13.16,13.16,0,0,0-3.14,3.08,45.09,45.09,0,0,0-3,5l-.17.3,0-.34a3.59,3.59,0,0,1,.12-.92,3.69,3.69,0,0,1,0,.93l-.14,0a30.76,30.76,0,0,1,2.82-5.12,13,13,0,0,1,3.19-3.22,16.11,16.11,0,0,1,4.73-2.22,47.47,47.47,0,0,1,6.28-1.29c1.94-.3,3.68-.59,5.12-.93A36.35,36.35,0,0,0,420.18,324.24Z"/><path class="cls-6" d="M400,330.12a22.66,22.66,0,0,0-4.62,1.84,21.71,21.71,0,0,0-3.82,3.19,10.11,10.11,0,0,1,8.44-5Z"/><path class="cls-3" d="M450.64,322.16l18.2,23.51-29.13,22.79c-2-2.91,8.69-20.3,8.69-20.3l-12.28-14.58Z"/><g class="cls-7"><path class="cls-3" d="M456.42,339.85a1.53,1.53,0,0,1,1.89.72,1.46,1.46,0,0,1-.7,1.87,1.59,1.59,0,0,1-2-.76,1.51,1.51,0,0,1,.94-1.87"/></g><g class="cls-7"><path class="cls-3" d="M468.84,345.67l-1.93-2.3L439.7,366.08s-.85,1.58,0,2.38Z"/></g><path class="cls-3" d="M447.81,348.39c.12.13.88-.36,1.94-.45s1.9.22,2,.06-.76-.82-2-.68S447.68,348.28,447.81,348.39Z"/><path class="cls-3" d="M445.75,352c.07.16.88-.08,1.83.15s1.59.75,1.73.63-.4-1-1.59-1.25S445.64,351.9,445.75,352Z"/><path class="cls-3" d="M446.87,357.06c.16-.08-.2-.94-1.18-1.43s-1.88-.29-1.85-.12.77.26,1.57.68S446.72,357.15,446.87,357.06Z"/><path class="cls-3" d="M445.38,344.75c.16.09.66-.62,1.51-1.2s1.67-.81,1.65-1-1-.21-2,.48S445.23,344.7,445.38,344.75Z"/><path class="cls-3" d="M443.37,340.75c.05.06.68-.29,1.46-1.15a8.25,8.25,0,0,0,1.15-1.66,8.51,8.51,0,0,0,.49-1.1,2.3,2.3,0,0,0,.18-.69.8.8,0,0,0-.53-.81,1,1,0,0,0-.88.17,2.54,2.54,0,0,0-.49.5,6.79,6.79,0,0,0-.66,1,6.32,6.32,0,0,0-.65,1.94,3,3,0,0,0,.07,1.85c.1,0,.08-.7.36-1.76a7.28,7.28,0,0,1,.73-1.75,6.74,6.74,0,0,1,.63-.91c.25-.32.51-.53.7-.46s.09.05.09.19a1.66,1.66,0,0,1-.13.51,10.74,10.74,0,0,1-.42,1,9.72,9.72,0,0,1-1,1.64A15,15,0,0,0,443.37,340.75Z"/><path class="cls-3" d="M443.72,340.81a3,3,0,0,0-.72-1.71,6,6,0,0,0-1.45-1.44,5.69,5.69,0,0,0-1.06-.59,1.52,1.52,0,0,0-1.51,0,.85.85,0,0,0-.29.88,2.45,2.45,0,0,0,.27.65,4.16,4.16,0,0,0,2.57,2,2.41,2.41,0,0,0,1.86-.05,14,14,0,0,1-1.72-.38,4.22,4.22,0,0,1-1.54-1,3.47,3.47,0,0,1-.63-.86c-.2-.35-.28-.69-.14-.75a1.11,1.11,0,0,1,.89.08,7,7,0,0,1,1,.51,6.57,6.57,0,0,1,1.42,1.24C443.36,340.2,443.62,340.85,443.72,340.81Z"/><path class="cls-6" d="M414.55,267.48a24.49,24.49,0,0,0-13.6-.21,12,12,0,0,0-6.24,4.2c-4.63,6.57-7.6,17.27-2.79,24.46,4.05,6.06,44.49,44.68,44.49,44.68L458,328.75l-9.81-13.11s17.38,5.9,24.72,4.41,19.4-8.59,17.89-20.12l-2-3.58a26.85,26.85,0,0,0-16.21-12.71Z"/><path class="cls-2" d="M458,328.77a1.8,1.8,0,0,1-.39.26l-1.16.67L452,332.18l-15.51,8.54-.14.08-.12-.12-10.33-10.15-19.62-19.45-5.91-5.93-1.59-1.63a4.22,4.22,0,0,1-.53-.6,5,5,0,0,1,.6.53l1.65,1.56,6,5.83,19.72,19.34,10.3,10.18-.26,0,15.59-8.39,4.49-2.36,1.2-.62Z"/><path class="cls-2" d="M405.62,282.41a3.36,3.36,0,0,1,.74-.11c.48-.06,1.2-.12,2.13-.15a29.27,29.27,0,0,1,7.83.74,21.31,21.31,0,0,1,10.15,5.61c3.22,3.05,5.88,7.13,8.77,11.25s6,7.85,8.68,11.29l7.26,9.1,4.91,6.12,1.32,1.68a3.58,3.58,0,0,1,.44.6,4.9,4.9,0,0,1-.51-.54l-1.4-1.62c-1.2-1.41-2.92-3.46-5-6s-4.59-5.62-7.33-9-5.77-7.17-8.73-11.29-5.53-8.19-8.69-11.21a22.65,22.65,0,0,0-4.92-3.67,23,23,0,0,0-5-1.93,31.06,31.06,0,0,0-7.74-.88c-.93,0-1.65,0-2.13.05A5.3,5.3,0,0,1,405.62,282.41Z"/><path class="cls-2" d="M425.93,288.57a45.17,45.17,0,0,0-4.12-5.18,45.88,45.88,0,0,0-5.16-4.13,6.13,6.13,0,0,1,1.77.85,19.54,19.54,0,0,1,3.74,2.94,19.76,19.76,0,0,1,2.92,3.75A6.27,6.27,0,0,1,425.93,288.57Z"/><path class="cls-14" d="M347.34,216a.9.9,0,0,1,.4-1.38l8.3-1.81c.59.35,4.75,3.51,4.75,3.51l-6.36,1.89-2-1.93S348.69,217.05,347.34,216Z"/><path class="cls-14" d="M374.12,225.5s-13.06-9-13.33-9.16-8.17,1.47-8.17,1.47l-1.47-.13s-4.08-2.25-5.1-1.71-2.12,2.5-1.38,3.5a20.35,20.35,0,0,0,2.1,2.25s-2.28,1.15-1.15,3.23l.76,1.3s-2.12,1.84.6,3.69c0,0-1.23,1.67,1.41,3.63a20.62,20.62,0,0,0,6.93,3.18c.82.14,7,.63,7.53.64s7.91,1.73,7.91,1.73"/><path class="cls-1" d="M375.2,207.56l-25.74,9.27,2.15,1.36,24.1-9.28a.72.72,0,0,0,.37-1h0A.71.71,0,0,0,375.2,207.56Z"/><path class="cls-15" d="M350.14,223.7c.05-.15-.82-.54-1.79-1.15s-1.72-1.19-1.84-1.08.5.91,1.55,1.55S350.1,223.84,350.14,223.7Z"/><path class="cls-15" d="M347.83,227.4c.09-.12-.19-.51-.63-.87s-.88-.56-1-.45.19.51.63.88S347.73,227.52,347.83,227.4Z"/><path class="cls-15" d="M348.64,230.42c0-.15-.44-.32-1-.53s-1-.38-1.08-.25.27.54.89.77S348.63,230.57,348.64,230.42Z"/><path class="cls-15" d="M347.34,216c0,.08.44.24,1.14.62s1.65,1,2.7,1.6a5.31,5.31,0,0,0,.82.46,2.07,2.07,0,0,0,.94.13,3.86,3.86,0,0,0,1.41-.5c.72-.41,1.12-.69,1.09-.76s-.52.1-1.25.41a4.43,4.43,0,0,1-1.29.34,2.29,2.29,0,0,1-1.44-.55,17.74,17.74,0,0,0-2.81-1.48C347.88,216,347.35,216,347.34,216Z"/><path class="cls-17" d="M341.21,217.31a2.76,2.76,0,0,0,1.83,1.82,3.33,3.33,0,0,1,1.4.52,1.2,1.2,0,0,1,.09,1.52,1.67,1.67,0,0,1-1.46.65,3,3,0,0,1-1.55-.57,5.82,5.82,0,0,1-1.93-2.35.91.91,0,0,0,.55-.37l.8.73-.51-1.38a3,3,0,0,0,.83-.7"/><polygon class="cls-12" points="344.67 219.47 344.29 219.61 344.3 221.42 346.25 221.19 344.67 219.47"/><path class="cls-15" d="M367.45,234.05a36.86,36.86,0,0,1-2.33,3.23,6.48,6.48,0,0,0,2.82-3,6.31,6.31,0,0,0,.91-4"/><path class="cls-14" d="M400.57,219.79l-21.63,29.65-30.12-8.54a43.44,43.44,0,0,0-7.44,12.7s41.09,18,43.94,16.35,32.74-40.83,32.74-40.83Z"/><path class="cls-3" d="M408.34,205.74s-5.31,1.79-13,19.76l-4.75,9.61,22.61,8.58,3.42-6.4Z"/><path class="cls-3" d="M481,237.46c-6.19-34.78-16.06-42.71-21.59-46.14s-18.29-3-23.05-3.4c-6.14,9.78-12.58,13.82-21.83,14.13-1.95.06-5.36,2.83-7.91,5.25l16,62.44s32.18,11.59,42.07,14.05,14.62,10.54,20.47,14.38c4.73,3.11,7.12-2.57,7.12-2.57S487.2,272.25,481,237.46Z"/><path class="cls-3" d="M488.43,290.59s-.29-.62-1-1.64a13.44,13.44,0,0,0-3.67-3.59,21.8,21.8,0,0,0-7-2.95c-2.81-.71-6-1.22-9.27-1.88-6.59-1.27-12.56-2.44-16.87-3.32l-5.11-1.06-1.38-.31a2,2,0,0,1-.48-.14,1.87,1.87,0,0,1,.5,0l1.4.23,5.13.91c4.33.78,10.31,1.91,16.9,3.17,3.3.66,6.45,1.18,9.29,1.93a21.64,21.64,0,0,1,7.11,3.1,13,13,0,0,1,3.63,3.77,10,10,0,0,1,.64,1.27A1.62,1.62,0,0,1,488.43,290.59Z"/><path class="cls-3" d="M437.8,275.53c14.2-2.76,29.43.64,43.05,6.66a28.91,28.91,0,0,1,8.74,5.43,12.15,12.15,0,0,1,3.91,9.23c-.16,2-1.7,4.4-3.68,3.9a4.45,4.45,0,0,1-1.88-1.28c-13.57-13-29.81-18.35-50.14-23.94"/><path class="cls-3" d="M460.67,275.77c.05.15-1.7.82-3.68,2s-3.45,2.32-3.55,2.2a9.68,9.68,0,0,1,3.29-2.65A10,10,0,0,1,460.67,275.77Z"/><path class="cls-3" d="M471.84,278.59a50.36,50.36,0,0,1-4.6,2.45c-2.54,1.34-4.53,2.57-4.61,2.45a17.38,17.38,0,0,1,4.36-2.91A17.7,17.7,0,0,1,471.84,278.59Z"/><path class="cls-3" d="M482.19,282.84a27.2,27.2,0,0,1-7.37,6.59,36,36,0,0,1,3.64-3.34A36.46,36.46,0,0,1,482.19,282.84Z"/><path class="cls-3" d="M490,288.17a9.45,9.45,0,0,1-1.58,4.86,9.31,9.31,0,0,1-3.54,3.68,34.76,34.76,0,0,0,3.09-3.95A35.16,35.16,0,0,0,490,288.17Z"/><path class="cls-3" d="M492.84,298.74s-.35-.78-1.18-2.07a17.67,17.67,0,0,0-4.57-4.54A88.27,88.27,0,0,0,468,282.34a109.93,109.93,0,0,0-11.23-3.73,82.49,82.49,0,0,0-9.45-2c-2.72-.41-4.95-.58-6.48-.68l-1.77-.09a2.5,2.5,0,0,1-.62-.06,2.69,2.69,0,0,1,.62,0c.4,0,1,0,1.78,0a62,62,0,0,1,6.52.51,77.77,77.77,0,0,1,9.52,1.9,105,105,0,0,1,11.3,3.7,83.38,83.38,0,0,1,19.1,10,17,17,0,0,1,4.53,4.73,14.16,14.16,0,0,1,.81,1.59A2.35,2.35,0,0,1,492.84,298.74Z"/><path class="cls-14" d="M372.82,224.61l47.85,10.89,12.47-22.18s8-3.23,13.23-.15,6.38,10.44,6.38,10.44l-13.67,21.82c-4.14,6.59-11,14.52-20.31,11.2l-49.55-18.07Z"/><path class="cls-3" d="M463.19,206.74c2.42-9.11-7.62-19.07-16.35-15.53-3.43,1.39-7.73,6.43-9.2,9-3.67,6.48-8.31,16.58-8.31,16.58l17.9,12a4.55,4.55,0,0,0,6.47-1.49C456.66,222.25,461.4,213.45,463.19,206.74Z"/><path class="cls-1" d="M461.34,206.58a1.7,1.7,0,0,1,0,.54c-.05.36-.11.88-.26,1.54a37.45,37.45,0,0,1-1.59,5.5c-.82,2.28-2,4.91-3.28,7.83-.64,1.46-1.3,3-1.93,4.61-.33.8-.57,1.62-.86,2.49a5.3,5.3,0,0,1-.6,1.28,1.74,1.74,0,0,1-1.28.84,2.65,2.65,0,0,1-1.42-.44c-.41-.22-.79-.47-1.17-.71-.77-.5-1.47-1-2.2-1.48l-4.2-2.73-7.08-4.66L430.67,218l-1.27-.88a2.61,2.61,0,0,1-.43-.34,2.49,2.49,0,0,1,.48.25l1.33.81,4.83,3,7.15,4.56,4.21,2.71c.73.46,1.46,1,2.2,1.47a13.29,13.29,0,0,0,1.14.69,2.26,2.26,0,0,0,1.15.39c.78-.07,1.19-1,1.47-1.8s.54-1.7.87-2.5c.63-1.63,1.31-3.16,2-4.62,1.31-2.91,2.51-5.52,3.37-7.77a42.25,42.25,0,0,0,1.73-5.42C461.18,207.31,461.3,206.57,461.34,206.58Z"/><path class="cls-15" d="M424.63,246.06a28.12,28.12,0,0,0-1.25-5.7,29.37,29.37,0,0,0-2.8-5.11,4.62,4.62,0,0,1,1.21,1.25,14.48,14.48,0,0,1,2.93,7.81A4.66,4.66,0,0,1,424.63,246.06Z"/><path class="cls-15" d="M408.34,252.83a8.68,8.68,0,0,1-1.48-.44l-4-1.36c-3.35-1.17-8-2.82-13.05-4.67s-9.68-3.57-13-4.83L372.92,240a9,9,0,0,1-1.41-.62,8.2,8.2,0,0,1,1.48.43l4,1.36c3.35,1.17,8,2.82,13.05,4.68s9.68,3.56,13,4.82l3.92,1.51A7.88,7.88,0,0,1,408.34,252.83Z"/><path class="cls-6" d="M184.2,317.32l-6.94,16.83s14.78,12.71,13.8,16l-33.12-12.29,9.74-26.67Z"/><g class="cls-9"><path class="cls-6" d="M184.2,317.32l-6.94,16.83s14.78,12.71,13.8,16l-33.12-12.29,9.74-26.67Z"/></g><path class="cls-6" d="M167.55,328.92a1.45,1.45,0,0,0-1.51,1.19,1.39,1.39,0,0,0,1.18,1.51,1.54,1.54,0,0,0,1.59-1.28,1.44,1.44,0,0,0-1.4-1.43"/><path class="cls-6" d="M157.94,337.81l1.08-2.65,31.35,12.77s1.24,1.19.69,2.17Z"/><path class="cls-6" d="M177.86,334.18c-.07.16-.9-.06-1.89.16s-1.66.75-1.79.63.46-1,1.66-1.22S178,334.05,177.86,334.18Z"/><path class="cls-6" d="M180.8,336.91c0,.17-.82.18-1.63.66s-1.23,1.15-1.38,1.08.07-1,1.08-1.6S180.85,336.75,180.8,336.91Z"/><path class="cls-6" d="M181.23,341.8c-.16,0-.08-.91.66-1.64s1.63-.81,1.65-.65-.63.46-1.23,1.07S181.4,341.84,181.23,341.8Z"/><path class="cls-6" d="M179,330.17c-.13.12-.78-.38-1.72-.65s-1.76-.26-1.79-.43.86-.49,2-.15S179.14,330.07,179,330.17Z"/><path class="cls-6" d="M167.41,320.19l-.54,19.18s19.31,7,19.56,10.56l-37.24.27-.37-29.93Z"/><path class="cls-6" d="M155.34,337.84a1.53,1.53,0,0,0-1,1.75,1.47,1.47,0,0,0,1.72,1,1.61,1.61,0,0,0,1.09-1.85,1.52,1.52,0,0,0-1.91-.89"/><path class="cls-6" d="M149.17,351l0-2.9,35.81,0s1.67.71,1.49,1.88Z"/><path class="cls-6" d="M167.47,339.18c0,.18-.92.27-1.81.86s-1.36,1.36-1.52,1.29.09-1.12,1.18-1.82S167.51,339,167.47,339.18Z"/><path class="cls-6" d="M171.39,340.77c0,.17-.75.49-1.36,1.26s-.78,1.59-1,1.58-.31-1,.47-2S171.38,340.59,171.39,340.77Z"/><path class="cls-6" d="M173.64,345.42c-.17,0-.43-.86,0-1.86s1.31-1.4,1.39-1.25-.45.68-.81,1.51S173.82,345.4,173.64,345.42Z"/><path class="cls-6" d="M167.11,334.79c-.08.17-.91-.08-1.94,0s-1.83.41-1.92.25.67-.81,1.88-.88S167.2,334.65,167.11,334.79Z"/><path class="cls-10" d="M205.35,162.45s12.15,53,14.7,73c1.77,13.95-1.73,23.13-2.15,25.93a7.9,7.9,0,0,1-.91,2.67l-35.91,64-20.6-7.15s17.31-52.27,21.09-60.68l4.26-7.57-33.69-85.32Z"/><path class="cls-10" d="M185.56,163.39C186,165.07,166,263.69,166,263.69l2.57,70.65-21,.56s-10.72-38.49-11.14-61.2,2.14-26.58.28-40.77c-1.95-15-14-45.74-8.51-66.63,4.55-17.47,16.27-25.87,16.27-25.87Z"/><path class="cls-10" d="M168.62,334.93a1.41,1.41,0,0,0,0-.36c0-.27,0-.62,0-1.07,0-1-.06-2.34-.1-4.1-.1-3.6-.26-8.77-.45-15.18-.43-12.89-1-30.77-1.69-50.87v.07c.48-2.42,1-5,1.51-7.57,4.23-21.49,8.05-40.94,10.82-55,1.35-7,2.45-12.72,3.21-16.69.37-2,.65-3.48.85-4.55l.21-1.18A2.53,2.53,0,0,0,183,178a1.86,1.86,0,0,0-.11.4c-.06.29-.15.68-.26,1.17-.22,1.07-.54,2.58-.95,4.52-.81,4-2,9.65-3.39,16.66-2.81,14.11-6.69,33.55-11,55-.51,2.59-1,5.15-1.5,7.57v.06c.74,20.1,1.4,38,1.88,50.86.26,6.41.47,11.58.62,15.18.08,1.75.14,3.13.19,4.09l.06,1.07A2,2,0,0,0,168.62,334.93Z"/><path class="cls-10" d="M185.57,252.78a8.31,8.31,0,0,0,3,3.55,8.2,8.2,0,0,0,4.22,1.91c.05-.16-1.9-.83-3.88-2.35S185.71,252.68,185.57,252.78Z"/><path class="cls-1" d="M145.2,23l42.56,1.16c.25,20.53,5.53,37.13,11.77,54.24,1.58,4.35,3.6,8.47,4.81,13s1.54,9.72-.23,14c-3.62-1-11.35.88-15-.16,0-1.39-.07-2.78-.1-4.17a6.06,6.06,0,0,1-2.73,4.28,10,10,0,0,1-5.73,1,132.61,132.61,0,0,1-33.43-5.7c-1.46-.45-10.19,2-10.19,2C132.16,81.74,138.9,45.74,145.2,23Z"/><path class="cls-6" d="M191.83,64.17l7,23.19h0c1.2,9.13,6,20.11.79,30.71L198.23,131s8.51,28.69,9.41,33c.67,9-74.91,3.13-77.18-4.23l9.93-30.44-.65-38.89c-.55-12.94.12-26.35.12-26.35L158,61.42l18.57,1.36Z"/><polygon class="cls-6" points="191.06 64.17 228.25 64.17 227.61 87.76 197.73 94.57 191.06 64.17"/><path class="cls-6" d="M161.9,114.21s.24.2.74.44a11.46,11.46,0,0,0,2.2.77,13.69,13.69,0,0,0,13.95-4.73,10.88,10.88,0,0,0,1.28-2,2.36,2.36,0,0,0,.32-.79c-.09,0-.62,1-1.9,2.49a14.23,14.23,0,0,1-13.56,4.6C163,114.66,161.94,114.12,161.9,114.21Z"/><path class="cls-6" d="M195.41,70.39a20.59,20.59,0,0,0,.67,3c.45,1.84,1,4.4,1.5,7.25s.75,5.46.92,7.35a19.32,19.32,0,0,0,.34,3.06A14.18,14.18,0,0,0,198.9,88a59.78,59.78,0,0,0-.77-7.41,60.59,60.59,0,0,0-1.66-7.26A13.33,13.33,0,0,0,195.41,70.39Z"/><g class="cls-9"><path class="cls-6" d="M171.65,114.92c3.23-.89,6.23-2.6,7.87-5.51l.06.17a10.78,10.78,0,0,1-7.51,8.25,9.82,9.82,0,0,1-10-3.54A15.81,15.81,0,0,0,171.65,114.92Z"/></g><path class="cls-11" d="M270.6,46.73c.42-.47.29-5,.29-5l5.23-4.25,5.18,6.94-3.22,11.46Z"/><path class="cls-18" d="M226.84,71.69l20.65.39L271,46.26l7.06,9.65S262.2,86.12,259.74,89,222,91.26,222,91.26Z"/><path class="cls-11" d="M270,59.11a16.37,16.37,0,0,1,11.95,2.75l.33.24-7.34-46.52h0l-4.55.72a101.62,101.62,0,0,0-72.71,58.39c-12.57,27.61-9.81,52.94-3,72.18l4.84-.77,37.7-5.95-.24.34a16.47,16.47,0,1,0,23.17-3.79l-.21-.13,1.05-.17,32.23-5.09-7.33-46.49-.14.21A16.39,16.39,0,1,1,270,59.11Z"/><path class="cls-11" d="M270,59.11l-1.1.26a8.66,8.66,0,0,0-1.33.37c-.26.09-.55.17-.84.29s-.61.26-.94.41a16.45,16.45,0,0,0-4.44,3,16.76,16.76,0,0,0-4,6.06,17.81,17.81,0,0,0-.63,2,17.43,17.43,0,0,0-.36,2.22,15.42,15.42,0,0,0,.26,4.8,16.25,16.25,0,0,0,17.22,13,15.91,15.91,0,0,0,6.56-2,16.25,16.25,0,0,0,5.35-4.84l.25-.36.07.42c2.17,13.69,4.65,29.32,7.38,46.49l0,.21-.21,0-33.28,5.27.09-.43a16.58,16.58,0,0,1,5.72,7,15.45,15.45,0,0,1,1.19,4.49,16.46,16.46,0,0,1-.08,4.7,16.69,16.69,0,0,1-4.12,8.52,17.71,17.71,0,0,1-3.75,3.08,17.4,17.4,0,0,1-4.52,1.87,18,18,0,0,1-4.92.49,17.82,17.82,0,0,1-4.89-1,17.11,17.11,0,0,1-9.22-8.29,18.76,18.76,0,0,1-.93-2.39,16.24,16.24,0,0,1-.77-5.09A16.64,16.64,0,0,1,237,140l.25.41-27.52,4.34-15,2.37-.22,0-.07-.21a101,101,0,0,1-5.46-25.56,93.8,93.8,0,0,1-.12-12.76c.18-2.1.29-4.2.61-6.27.15-1,.25-2.07.44-3.09l.57-3.06a95.58,95.58,0,0,1,7.66-22.93L200.74,68l.66-1.3c.23-.43.5-.83.74-1.25.5-.82,1-1.65,1.5-2.47l1.5-2.45.74-1.22.83-1.15,3.3-4.58c.53-.77,1.15-1.46,1.75-2.17l1.79-2.11,1.77-2.09c.6-.69,1.27-1.31,1.89-2,1.28-1.28,2.51-2.59,3.8-3.81L225,38a106.12,106.12,0,0,1,16.64-11.37,108.75,108.75,0,0,1,17-7.36,86.84,86.84,0,0,1,16.28-3.84l.16,0,0,.17c3.28,21.08,5.74,36.87,7.25,46.52l0,.19-.16-.11a16.4,16.4,0,0,0-9.06-3.2,17.53,17.53,0,0,0-2.39.07l-.78.08s.25,0,.78-.12a14.82,14.82,0,0,1,2.39-.11A16.4,16.4,0,0,1,282.31,62l-.13.08c-1.54-9.65-4.06-25.43-7.43-46.5l.19.14a85.43,85.43,0,0,0-16.2,3.86A107.55,107.55,0,0,0,241.82,27a106,106,0,0,0-16.55,11.35c-1.31,1.15-2.63,2.3-4,3.47s-2.51,2.53-3.78,3.8c-.62.65-1.28,1.27-1.88,1.95l-1.77,2.09-1.77,2.1a26.23,26.23,0,0,0-1.74,2.17l-3.28,4.55-.83,1.15-.74,1.21-1.48,2.45-1.49,2.46c-.25.41-.51.82-.74,1.24l-.66,1.3-2.63,5.23a95.23,95.23,0,0,0-7.61,22.82c-.19,1-.37,2-.56,3s-.29,2.05-.43,3.08c-.32,2-.44,4.14-.61,6.23a91.2,91.2,0,0,0,.13,12.69,100.07,100.07,0,0,0,5.43,25.43l-.28-.17,15-2.37,27.52-4.34.62-.1-.37.5A16,16,0,0,0,235,154.68a17.13,17.13,0,0,0,.9,2.32,16.93,16.93,0,0,0,1.28,2.13,16.28,16.28,0,0,0,7.65,5.92,17.16,17.16,0,0,0,4.74,1,17.45,17.45,0,0,0,4.78-.47,16.67,16.67,0,0,0,4.39-1.81,16.29,16.29,0,0,0,6.25-6.85,17.2,17.2,0,0,0,1.39-4.4,15.84,15.84,0,0,0,.08-4.56,15.18,15.18,0,0,0-1.15-4.36,16.08,16.08,0,0,0-5.54-6.8l-.48-.35.58-.09,33.28-5.23-.18.25c-2.69-17.17-5.15-32.82-7.3-46.5l.32.06a16.46,16.46,0,0,1-5.48,5,16.06,16.06,0,0,1-6.7,2,16.52,16.52,0,0,1-17.47-13.27,15.78,15.78,0,0,1-.24-4.86,19.92,19.92,0,0,1,.37-2.25,18.2,18.2,0,0,1,.66-2,16.63,16.63,0,0,1,4.11-6.1,16.25,16.25,0,0,1,4.49-3l.95-.4c.3-.11.59-.19.85-.28a8.38,8.38,0,0,1,1.34-.35C269.6,59.17,270,59.11,270,59.11Z"/><g class="cls-9"><path class="cls-11" d="M190.22,128.14c6,.94,12.25,1.88,18.11.24,1.53-.42,3-1,4.57-1.32a23.27,23.27,0,0,1,6.24-.1,53.94,53.94,0,0,0,11.29.08,16.61,16.61,0,0,0,10-4.76A137.21,137.21,0,0,0,189.77,125a27.66,27.66,0,0,1,.33,3.1"/></g><path class="cls-18" d="M280.67,51.21a12.66,12.66,0,0,0,2.25-2.68,2.47,2.47,0,0,0-.31-2.49l-.51-.45s.88-2.77-.17-3.93c0,0,.89-2.64-.6-3.68,0,0,1-2.08-.15-2.77a4.54,4.54,0,0,0-3.94.11c-.91.5-4.07,1.62-4.07,2.2,0,0,0,1.56.87,1.67l1.27.15s-2.88.92-2.94,1.65.17,2.07,1.46,2c0,0-.9.76-.54,1.37s.92,1.35,1.71,1.19,1.59-.26,1.59-.26-1.13.48-.81,1,.33,1.15,1.36,1.36,3.07.83,3.07.83Z"/><path class="cls-18" d="M276.66,45.3s.3-.15.8-.35a4.59,4.59,0,0,1,4,.28c.46.26.72.48.74.45s-.19-.29-.65-.61a4.25,4.25,0,0,0-4.16-.29C276.89,45,276.64,45.27,276.66,45.3Z"/><path class="cls-18" d="M281.89,41.5a4.26,4.26,0,0,0-1.2-.21,12,12,0,0,0-2.93.16,11.61,11.61,0,0,0-2.79.89,4,4,0,0,0-1.05.62,20.67,20.67,0,0,1,3.89-1.26A20.1,20.1,0,0,1,281.89,41.5Z"/><path class="cls-18" d="M281.29,37.92a9.61,9.61,0,0,0-3.12.32,9.36,9.36,0,0,0-2.94,1.09c0,.07,1.32-.46,3-.84S281.29,38,281.29,37.92Z"/><path class="cls-18" d="M211.89,109.82s5.65-4.95,7.16-6.76,7.82-5.82,7.82-5.82.93.56.39,2.26a48.3,48.3,0,0,1-3.39,4.15s-1.09,2.41,0,2.81,15.2,1.34,15.2,1.34c3,.21,2.68,2,2.68,2s2.08.07,2.15,1.47c0,.9-2,1.68-2,1.68s2.23-.3,2.71,1.27-3.62,2.28-3.62,2.28c-.56,2.18-8.45,3.69-10.55,4.16s-20.61.92-20.61.92L207.79,111Z"/><path class="cls-18" d="M226.78,110.53a9.43,9.43,0,0,0,2.19.33,38.3,38.3,0,0,0,5.35,0,45.48,45.48,0,0,0,5.31-.64,11,11,0,0,0,2.15-.51,14.52,14.52,0,0,0-2.2.23c-1.35.18-3.21.39-5.28.52s-4,.12-5.31.07A16.21,16.21,0,0,0,226.78,110.53Z"/><path class="cls-18" d="M227.33,114.3a10.66,10.66,0,0,0,2.12,0c1.3,0,3.11-.1,5.1-.26a50.5,50.5,0,0,0,5.07-.67,10,10,0,0,0,2.06-.51,13.15,13.15,0,0,0-2.1.23c-1.3.17-3.08.38-5.06.55l-5.09.37A12,12,0,0,0,227.33,114.3Z"/><path class="cls-18" d="M228.44,118.12a7.33,7.33,0,0,0,1.87.19,25.92,25.92,0,0,0,4.52-.29,36.82,36.82,0,0,0,4.43-.94,8,8,0,0,0,1.78-.62c0-.13-2.79.65-6.26,1.16a40.27,40.27,0,0,1-4.47.41A10.83,10.83,0,0,0,228.44,118.12Z"/><path class="cls-6" d="M139.86,64s-10.33,6.1-11.37,16.68c-1,10.11,1.17,43.53,12.1,53.48,2.51,2.28,19.63,1.85,35.86-1.44a241.9,241.9,0,0,0,34.81-10.24V107.17L159.57,111Z"/><path class="cls-6" d="M211.26,107.17a5.81,5.81,0,0,1-.75.1l-2.18.21-8,.68-26.45,2-14.27,1h-.19l-.06-.17c-1.06-3.25-2-6.28-2.61-9s-1.26-5.13-1.92-7.07-1.21-3.47-1.59-4.51l-.43-1.2c-.09-.27-.14-.41-.12-.42a2.37,2.37,0,0,1,.2.39c.13.31.29.7.5,1.17.43,1,1,2.54,1.72,4.48a71.59,71.59,0,0,1,2,7.06c.69,2.73,1.6,5.75,2.68,9l-.25-.17,14.27-1.07,26.47-1.88,8-.51,2.19-.11A3.65,3.65,0,0,1,211.26,107.17Z"/><path class="cls-6" d="M140.59,134.2a2.14,2.14,0,0,1,.58,0l1.64.09c.71.06,1.58.1,2.59.15s2.16.11,3.43.14a131.39,131.39,0,0,0,19.85-.88,119,119,0,0,0,19.45-4c2.43-.74,4.4-1.38,5.73-1.87l1.56-.53a2.65,2.65,0,0,1,.55-.15,2.2,2.2,0,0,1-.51.25l-1.53.62c-1.31.55-3.26,1.24-5.69,2a108.21,108.21,0,0,1-19.5,4.21,117.91,117.91,0,0,1-19.92.72c-1.28,0-2.43-.13-3.44-.21s-1.88-.15-2.59-.24l-1.63-.19A2.51,2.51,0,0,1,140.59,134.2Z"/><path class="cls-6" d="M159.57,111a23.89,23.89,0,0,0-3.85,3.91,23.76,23.76,0,0,0-2.38,5,11.06,11.06,0,0,1,6.23-8.86Z"/><path class="cls-1" d="M181.79,79.24c.18-2.51-1.46-4.72-2.66-6.93a22.27,22.27,0,0,1-2.47-13.61l16,5a10.13,10.13,0,0,0-1.07,7.41c.72,2.28,2,4.5,1.88,6.89-.14,3.59-3.17,6.38-4.15,9.84-1.07,3.79.45,7.78,2,11.42a21,21,0,0,1-9.61.38c-2-4.57-4-9.74-2.24-14.4C180.17,83.23,181.65,81.41,181.79,79.24Z"/><path class="cls-1" d="M144.64,25.33c1.65-7,3.34-14.3,9.15-18.56,5.17-3.79,11-4.71,17.36-4.23A22.71,22.71,0,0,1,180.51,6c3.7,2.26,5.15,6.63,6.84,10.62,3.39,8,2.58,18.63,0,21.52L153.91,54.42c-5.72-3.21-9.57-4.76-10.9-11.19C142.1,38.86,143.62,29.69,144.64,25.33Z"/><path class="cls-18" d="M154.29,13.29l20.9-5.43c6.7-.76,11.21,7.47,11.68,14.19.52,7.48.87,16.62,0,22.2-1.46,9.61-7.9,12.8-9.74,13.32a2.86,2.86,0,0,1-.56.09c0,.48,0,1.21-.06,2.81l.06,7.5c-2.76,9.1-12,8-23.5,3.27l-2.3-53.92A4,4,0,0,1,154.29,13.29Z"/><path class="cls-1" d="M183.14,31.28a1.42,1.42,0,0,1-1.37,1.46,1.38,1.38,0,0,1-1.5-1.28A1.44,1.44,0,0,1,181.65,30,1.37,1.37,0,0,1,183.14,31.28Z"/><path class="cls-1" d="M184.92,28.75c-.18.19-1.27-.61-2.82-.59s-2.68.79-2.84.6.09-.42.58-.78a4,4,0,0,1,2.28-.72,3.83,3.83,0,0,1,2.25.71C184.84,28.33,185,28.67,184.92,28.75Z"/><path class="cls-1" d="M168.41,31.28A1.43,1.43,0,0,1,167,32.74a1.38,1.38,0,0,1-1.5-1.28A1.44,1.44,0,0,1,166.92,30,1.37,1.37,0,0,1,168.41,31.28Z"/><path class="cls-1" d="M169.71,28.44c-.18.19-1.27-.61-2.82-.6s-2.68.8-2.85.61.1-.42.59-.78a3.88,3.88,0,0,1,2.28-.72,3.7,3.7,0,0,1,2.24.71C169.63,28,169.8,28.36,169.71,28.44Z"/><path class="cls-1" d="M175.4,38.66a10.38,10.38,0,0,1,2.52-.47c.39,0,.76-.13.83-.4a2.07,2.07,0,0,0-.27-1.17c-.38-.95-.78-1.95-1.19-3-1.65-4.27-2.85-7.79-2.68-7.85s1.65,3.34,3.3,7.62l1.14,3a2.23,2.23,0,0,1,.22,1.55,1,1,0,0,1-.65.58,2.94,2.94,0,0,1-.67.1A10.24,10.24,0,0,1,175.4,38.66Z"/><path class="cls-19" d="M176.6,57.67a28.61,28.61,0,0,1-15-3.91s3.77,7.83,15,6.7Z"/><path class="cls-19" d="M170.31,41.58a2.49,2.49,0,0,1,2.06-1.14,3.22,3.22,0,0,1,3,1.44,2.08,2.08,0,0,1,.14,1.45c-.11.25,0,.13-.22.3a5.66,5.66,0,0,1-2.3,1.45,2.42,2.42,0,0,1-2.57-.93A2.48,2.48,0,0,1,170.31,41.58Z"/><path class="cls-1" d="M170.58,39.82c.25,0,.27,1.66,1.73,2.83s3.23,1,3.25,1.21-.39.33-1.15.36a4.22,4.22,0,0,1-2.72-.91,3.68,3.68,0,0,1-1.34-2.38C170.28,40.23,170.46,39.81,170.58,39.82Z"/><path class="cls-1" d="M170.48,22.8c-.13.43-1.68.33-3.48.67s-3.23.92-3.5.56c-.12-.17.11-.59.68-1a6.18,6.18,0,0,1,5.31-.94C170.17,22.29,170.53,22.6,170.48,22.8Z"/><path class="cls-1" d="M184.93,24.59c-.36.29-1.47-.28-2.88-.55s-2.64-.23-2.85-.64c-.09-.2.16-.51.74-.74a4.34,4.34,0,0,1,2.44-.15,4.42,4.42,0,0,1,2.18,1.1C185,24.06,185.09,24.44,184.93,24.59Z"/><path class="cls-1" d="M175.41,6.56a25,25,0,0,1-2.19,13.31A9.06,9.06,0,0,1,171.06,23a4.07,4.07,0,0,1-3.52,1,15.24,15.24,0,0,0,3.33-8.61c-1.43,3.14-2.89,6.35-5.23,8.89s-5.72,4.37-9.15,4l.3-2.3a8,8,0,0,1-2.85,4.21,4.06,4.06,0,0,1-4.81,0c1.32-5.58-1.95-11.77.36-17,1.59-3.63,5.47-5.73,9.28-6.82a31.75,31.75,0,0,1,16.56-.2"/><path class="cls-1" d="M174.94,6.64c0,.08,0,.17,0,.25h0Z"/><path class="cls-1" d="M175,6.89l.69-.27c2.15-1,3.57-2.23,6.77.77a20.14,20.14,0,0,1,4.34,6.47,25.94,25.94,0,0,1,2.3,6.9,30.28,30.28,0,0,1,0,8.61c-1.87-1.31-2.78-3.59-3.33-5.81s-.84-4.53-1.9-6.55A17.29,17.29,0,0,1,184,22.7a2.38,2.38,0,0,1-.65,1.39,1,1,0,0,1-1.39,0,12.25,12.25,0,0,0,.17-6.74,35,35,0,0,0-2.36-6.41,33.56,33.56,0,0,1-.75,11.39,2.89,2.89,0,0,1-.68,1.48,2.67,2.67,0,0,1-2.33.41A5.8,5.8,0,0,0,173.6,24,32.2,32.2,0,0,0,175,6.89Z"/><path class="cls-1" d="M156.18,24.26c2.62,6-1.51,12.86-.52,19.31.72,4.64,4.07,8.72,4,13.42S156,66.1,156.59,70.82c.38,2.91,2.3,5.34,3.78,7.88a28.52,28.52,0,0,1,3.38,19.22l-14.93,0a30.26,30.26,0,0,0-2.63-15c-1.37-3-3.26-5.85-3.59-9.11-.3-3,.75-6,1.11-8.94.65-5.44-1-10.85-2-16.24s-1.07-11.42,2.2-15.82"/><path class="cls-20" d="M292,284.94H252.09s-2-16.79-4-29.55-30.55-38.79-38.75-49.65c-3.3-4.37-11.44-18.69-15-38H232l-.29.3a16.47,16.47,0,1,0,23.48-.13l-.18-.17,36.65.27v43.89s3.42-5.21,11.67-5,14.48,6.08,15.81,12,.22,17.09-10.9,20.1-16.7-4.83-16.7-4.83l.12,51"/><path class="cls-1" d="M291.62,282.7c.15,0,.27.56.27,1.25s-.12,1.25-.26,1.25-.26-.55-.26-1.25S291.48,282.7,291.62,282.7Z"/><path class="cls-1" d="M291.6,272.47a6.74,6.74,0,0,1,.27,2.56,6.4,6.4,0,0,1-.26,2.56,6.58,6.58,0,0,1-.26-2.56A6.51,6.51,0,0,1,291.6,272.47Z"/><path class="cls-1" d="M291.57,262.24a6.3,6.3,0,0,1,.27,2.56,6.74,6.74,0,0,1-.25,2.56,6.26,6.26,0,0,1-.27-2.56A6.78,6.78,0,0,1,291.57,262.24Z"/><path class="cls-1" d="M291.55,252a6.62,6.62,0,0,1,.27,2.55,6.4,6.4,0,0,1-.26,2.56,6.58,6.58,0,0,1-.26-2.56A6.44,6.44,0,0,1,291.55,252Z"/><path class="cls-1" d="M291.53,241.79a12.93,12.93,0,0,1,0,5.11,6.26,6.26,0,0,1-.27-2.56A6.33,6.33,0,0,1,291.53,241.79Z"/><path class="cls-1" d="M293.23,236c0,.06-.3-.08-.67-.36a6.53,6.53,0,0,1-.6-.53l-.33-.35-.17-.2-.08-.1,0-.05,0,0h0l.47-.15a6.11,6.11,0,0,1-.26,2.5,6.31,6.31,0,0,1-.26-2.5l.47-.15h0v0l0,0,.08.1.15.19.29.35.51.6C293.11,235.69,293.28,235.92,293.23,236Z"/><path class="cls-1" d="M302.1,239.64a6.68,6.68,0,0,1-4.73-1.11,9.61,9.61,0,0,1,2.38.49A9.39,9.39,0,0,1,302.1,239.64Z"/><path class="cls-1" d="M311.56,237.71a4.49,4.49,0,0,1-2.16,1.2,4.91,4.91,0,0,1-2.44.39c0-.16,1-.46,2.27-.88A8.84,8.84,0,0,1,311.56,237.71Z"/><path class="cls-1" d="M318.07,230.68a4.47,4.47,0,0,1-.93,2.3c-.74,1.16-1.61,1.89-1.71,1.79a10.25,10.25,0,0,1,1.27-2.07C317.42,231.58,317.93,230.62,318.07,230.68Z"/><path class="cls-1" d="M319.46,221.11a4.7,4.7,0,0,1,.35,2.44,4.63,4.63,0,0,1-.45,2.43,8.09,8.09,0,0,1-.07-2.44A7.93,7.93,0,0,1,319.46,221.11Z"/><path class="cls-1" d="M315.53,212.38c.1-.1,1,.62,1.74,1.76a4.32,4.32,0,0,1,1,2.26c-.14.06-.67-.88-1.42-2S315.42,212.48,315.53,212.38Z"/><path class="cls-1" d="M307.24,207.46a4.51,4.51,0,0,1,2.41.54c1.27.52,2.16,1.21,2.08,1.33a8.84,8.84,0,0,1-2.28-.85A9.1,9.1,0,0,1,307.24,207.46Z"/><path class="cls-1" d="M297.6,207.71a6.8,6.8,0,0,1,4.8-.81,9.57,9.57,0,0,1-2.39.47A9.77,9.77,0,0,1,297.6,207.71Z"/><path class="cls-1" d="M291.63,209.38a6.31,6.31,0,0,1,.26,2.5l-.48-.15h0v0l0,0,0-.06.09-.11.16-.19q.17-.19.33-.36a5.49,5.49,0,0,1,.6-.54c.37-.28.63-.4.68-.35s-.13.28-.42.62l-.51.6-.29.35-.14.19-.08.1,0,0,0,0h0l-.48-.14A6.31,6.31,0,0,1,291.63,209.38Z"/><path class="cls-1" d="M291.63,198.27a14.94,14.94,0,0,1,0,5.55,14.94,14.94,0,0,1,0-5.55Z"/><path class="cls-1" d="M291.63,187.16a14.94,14.94,0,0,1,0,5.55,14.94,14.94,0,0,1,0-5.55Z"/><path class="cls-1" d="M291.63,176.05a14.94,14.94,0,0,1,0,5.55,14.94,14.94,0,0,1,0-5.55Z"/><path class="cls-1" d="M289.13,168a6.32,6.32,0,0,1,2.5-.24l.26.26h0v.48c0,.14,0,.3,0,.46s0,.57-.06.8c0,.45-.11.73-.18.73s-.14-.28-.18-.73c0-.23-.05-.5-.06-.8V168h0l.26.26A6.1,6.1,0,0,1,289.13,168Z"/><path class="cls-1" d="M280.09,167.91a4.94,4.94,0,0,1,2.26-.25,5.19,5.19,0,0,1,2.26.28,5.23,5.23,0,0,1-2.26.24A5.11,5.11,0,0,1,280.09,167.91Z"/><path class="cls-1" d="M271,167.84a10.14,10.14,0,0,1,4.52,0,4.94,4.94,0,0,1-2.26.25A5,5,0,0,1,271,167.84Z"/><path class="cls-1" d="M262,167.78a4.94,4.94,0,0,1,2.26-.25,5.19,5.19,0,0,1,2.26.28,5.19,5.19,0,0,1-2.26.24A5.28,5.28,0,0,1,262,167.78Z"/><path class="cls-1" d="M256.64,169.59c-.06,0-.3-.13-.62-.43-.17-.16-.36-.35-.56-.56l-.31-.34-.16-.18-.1-.08,0,0,0,0h0c-.15.41.22-.55.18-.46a6.31,6.31,0,0,1,2.5.28A6.11,6.11,0,0,1,255,168c0,.09.34-.87.18-.46h0l0,0,.05.05.09.09.17.19.3.37c.19.24.35.46.49.65C256.56,169.29,256.69,169.55,256.64,169.59Z"/><path class="cls-1" d="M259.93,178.54a9,9,0,0,1-.56-2.35,8.83,8.83,0,0,1-.41-2.37,4.29,4.29,0,0,1,.92,2.27A4.34,4.34,0,0,1,259.93,178.54Z"/><path class="cls-1" d="M257.64,187.81a8.46,8.46,0,0,1,.84-2.27,8.9,8.9,0,0,1,1-2.2,7,7,0,0,1-1.84,4.47Z"/><path class="cls-1" d="M250.58,194.23c-.06-.14.87-.68,2-1.41s1.94-1.39,2-1.28-.62,1-1.75,1.71A4.41,4.41,0,0,1,250.58,194.23Z"/><path class="cls-1" d="M241.14,195.64a6,6,0,0,1,2.41-.09,5.82,5.82,0,0,1,2.42.09,7,7,0,0,1-4.83,0Z"/><path class="cls-1" d="M232.51,191.57c.1-.11,1,.54,2.05,1.27s2,1.27,2,1.41a4.41,4.41,0,0,1-2.25-1C233.13,192.52,232.41,191.67,232.51,191.57Z"/><path class="cls-1" d="M227.6,183.39a8.92,8.92,0,0,1,1,2.19,8.46,8.46,0,0,1,.84,2.26,4.45,4.45,0,0,1-1.33-2.06A4.36,4.36,0,0,1,227.6,183.39Z"/><path class="cls-1" d="M228.06,173.85a8.63,8.63,0,0,1-.38,2.38,9.42,9.42,0,0,1-.55,2.36,4.49,4.49,0,0,1,0-2.46A4.58,4.58,0,0,1,228.06,173.85Z"/><path class="cls-1" d="M229.47,167.72a6.31,6.31,0,0,1,2.5-.26c.08.2-.18-.44.19.45h0l0,0,0,.05-.09.09-.17.17-.31.35-.55.56c-.33.31-.56.48-.62.44s.08-.29.33-.67c.13-.19.3-.41.48-.66l.3-.37c.05-.07.11-.12.17-.19l.09-.09,0,0,0,0h0c.37.89.1.25.18.45A6,6,0,0,1,229.47,167.72Z"/><path class="cls-1" d="M220.8,167.72c0-.14.56-.26,1.25-.26s1.25.12,1.25.26-.56.27-1.25.27S220.8,167.87,220.8,167.72Z"/><path class="cls-1" d="M292.1,284.94l-.72,0-2.09,0-8,.06-29.06.08H252l0-.19c-1-8.19-2.22-17.48-3.74-27.47-.38-5.09-3.31-9.65-6.37-14a159.45,159.45,0,0,0-10.46-12.88c-4.91-5.55-9.89-10.79-14.6-15.91-2.35-2.57-4.64-5.09-6.74-7.69a38.13,38.13,0,0,1-2.84-4.07c-.85-1.38-1.64-2.79-2.38-4.18a106.85,106.85,0,0,1-6.9-16.38,108.78,108.78,0,0,1-3.72-14.59l0-.21h.21l18.82.08,5,.05,1.31,0,.44,0-.44,0-1.31,0-5,0-18.82.08.17-.21a110.06,110.06,0,0,0,3.78,14.53,107.81,107.81,0,0,0,6.92,16.29c.74,1.38,1.52,2.78,2.38,4.15a35.78,35.78,0,0,0,2.81,4c2.08,2.57,4.38,5.09,6.73,7.65,4.71,5.12,9.69,10.36,14.61,15.92a161.22,161.22,0,0,1,10.49,12.92,55.75,55.75,0,0,1,4.22,6.82,23.34,23.34,0,0,1,1.48,3.64,27.25,27.25,0,0,1,.74,3.79c1.5,10,2.67,19.29,3.66,27.51l-.21-.19,29.06.09,8,.06,2.09,0Z"/><path class="cls-1" d="M289.47,284.94c0-.15.56-.26,1.25-.26s1.25.11,1.25.26-.56.26-1.25.26S289.47,285.08,289.47,284.94Z"/><path class="cls-1" d="M279.51,284.94a12.05,12.05,0,0,1,5,0,12.05,12.05,0,0,1-5,0Z"/><path class="cls-1" d="M269.54,284.94a12.05,12.05,0,0,1,5,0,12.05,12.05,0,0,1-5,0Z"/><path class="cls-1" d="M259.58,284.94a12.05,12.05,0,0,1,5,0,12.05,12.05,0,0,1-5,0Z"/><path class="cls-1" d="M251.79,282.46c.07,0,.17.26.27.7.05.23.11.49.16.79s0,.32.07.46l0,.25,0,.13v.11h0l-.25-.23h0a6,6,0,0,1,2.49.26,6.24,6.24,0,0,1-2.49.26h0c0-.53-.34-.12-.26-.24h0v-.24l0-.25,0-.46c0-.3,0-.57,0-.79C251.69,282.75,251.72,282.47,251.79,282.46Z"/><path class="cls-1" d="M250.47,272.16a12.75,12.75,0,0,1,.67,5.15,6.9,6.9,0,0,1-.59-2.54A6.7,6.7,0,0,1,250.47,272.16Z"/><path class="cls-1" d="M249.05,261.88a6.71,6.71,0,0,1,.62,2.53,6.84,6.84,0,0,1,.11,2.61,6.71,6.71,0,0,1-.62-2.53A6.84,6.84,0,0,1,249.05,261.88Z"/><path class="cls-1" d="M247,251.74a5.16,5.16,0,0,1,1.1,2.39,5.51,5.51,0,0,1,.22,2.61c-.17,0-.38-1.13-.72-2.48A10.19,10.19,0,0,1,247,251.74Z"/><path class="cls-1" d="M241.66,242.84c.12-.08.86.82,1.67,2a6.33,6.33,0,0,1,1.22,2.3,7,7,0,0,1-1.66-2A6.89,6.89,0,0,1,241.66,242.84Z"/><path class="cls-1" d="M235.23,234.69c.11-.09.94.74,1.85,1.85s1.56,2.08,1.44,2.17-.94-.74-1.84-1.84A6.68,6.68,0,0,1,235.23,234.69Z"/><path class="cls-1" d="M228.38,226.9c.1-.09,1,.69,1.92,1.76a6.69,6.69,0,0,1,1.54,2.11c-.11.1-1-.69-1.93-1.76S228.27,227,228.38,226.9Z"/><path class="cls-1" d="M221.34,219.27c.1-.1,1,.68,1.95,1.73a6.74,6.74,0,0,1,1.58,2.08c-.11.09-1-.68-2-1.73S221.23,219.37,221.34,219.27Z"/><path class="cls-1" d="M214.3,211.63c.11-.1,1,.68,1.95,1.74s1.66,2,1.55,2.1-1-.69-1.94-1.75A6.76,6.76,0,0,1,214.3,211.63Z"/><path class="cls-1" d="M209.33,205.74c.12-.08.56.28,1,.82s.68,1,.57,1.14-.55-.28-1-.82S209.22,205.83,209.33,205.74Z"/><path class="cls-4" d="M208.21,156.14l1.92,1.68s3.23,3.33,3.17,3.41-.12,3.53-.12,3.54l-.22,3.38a2.63,2.63,0,0,1-1.78-1.91l-.34,1.54a2.86,2.86,0,0,1-2-3.21,31.83,31.83,0,0,0,.08-3.46l-.62-.56c-.16.1-5.43,1.82-5.43,1.7s-.6-3.78-.6-3.78Z"/><path class="cls-4" d="M191,167.94l7.77-11.75L209.29,154l6,5,1.25,3.71c-.59.52-2.7-.37-4.21-2.36a12.07,12.07,0,0,0-3.86-3.07l-5.56,2.43.29,3L193.13,172Z"/><path class="cls-1" d="M218.73,165.43l-20.46-15.16a1.17,1.17,0,0,0-1.63.24h0a1.16,1.16,0,0,0,.24,1.63l20.47,15.16,2.7.55Z"/><path class="cls-4" d="M195.1,175.68l5.88-3.59a5.92,5.92,0,0,0,1.87-1.79c1.27-1.9,3.88-5.71,4.79-6.35,1.23-.86,5.65-3.64,5.22-4.85s-1.48-2.28-4-.61-8.78,4.72-8.78,4.72l-8,6.73Z"/><path class="cls-5" d="M200.69,162.9a18.42,18.42,0,0,0,2.81-1.31c1.69-.85,4.08-2.13,6.58-3.44a1.89,1.89,0,0,1,1.8.11,1.36,1.36,0,0,1,.45,1.51,3.46,3.46,0,0,1-1,1.31c-.4.38-.8.72-1.17,1-1.49,1.18-2.54,1.72-2.5,1.79a2.37,2.37,0,0,0,.77-.31,16.1,16.1,0,0,0,1.94-1.2c.39-.28.81-.61,1.24-1a4,4,0,0,0,1.18-1.46,1.82,1.82,0,0,0-.58-2.05,2.33,2.33,0,0,0-2.27-.19c-2.66,1.38-4.89,2.65-6.57,3.59A20.79,20.79,0,0,0,200.69,162.9Z"/><path class="cls-11" d="M62.09,344.36l-.15-13.68,14.21-5-4.81-15.9-18.31,8-9.79,6.41,12.38,25.17,14.23.33S68.89,346.28,62.09,344.36Z"/><g class="cls-7"><polygon class="cls-11" points="43.24 324.22 55.62 349.39 69.85 349.72 68.29 347.55 56.74 346.64 45.32 322.86 43.24 324.22"/></g><path class="cls-11" d="M62.14,338.09c-.11.15-.92-.34-2-.33s-1.92.45-2,.3.69-.94,2-.93S62.27,338,62.14,338.09Z"/><path class="cls-11" d="M62,334.7c-.14.1-.76-.76-1.89-1s-2,.25-2.13.1.12-.3.52-.51a2.62,2.62,0,0,1,1.75-.2,2.58,2.58,0,0,1,1.49.93C62,334.38,62.05,334.66,62,334.7Z"/><path class="cls-11" d="M62.17,330.35c-.15.07-.62-.76-1.6-1.12s-1.88-.07-2-.23.14-.26.54-.4A2.46,2.46,0,0,1,62,329.68C62.24,330.05,62.25,330.32,62.17,330.35Z"/><path class="cls-11" d="M63.22,330.34c-.17,0-.07-.94-.49-1.9s-1.12-1.52-1-1.67,1.11.23,1.61,1.42S63.37,330.42,63.22,330.34Z"/><path class="cls-11" d="M64.9,328.74a6.61,6.61,0,0,1-.33-1.91c-.06-.69-.13-1.38-.19-2.09a4.46,4.46,0,0,1,0-1.32,1.18,1.18,0,0,1,.5-.71.9.9,0,0,1,1,0,2.59,2.59,0,0,1,.81,1.26,5,5,0,0,1,.26,1.29,4.71,4.71,0,0,1-.38,2.15C66,328.61,65.32,329,65.3,329a17.4,17.4,0,0,0,.83-1.69,4.76,4.76,0,0,0,.21-2,4.52,4.52,0,0,0-.25-1.12,2.27,2.27,0,0,0-.59-1,.24.24,0,0,0-.3,0,.55.55,0,0,0-.23.33,5.22,5.22,0,0,0,0,1.13c0,.71,0,1.4.06,2.09A6.05,6.05,0,0,1,64.9,328.74Z"/><path class="cls-11" d="M65.13,329.36s.37-.66,1.46-1a3.56,3.56,0,0,1,4,1.44.64.64,0,0,1-.06.55.8.8,0,0,1-.37.31,2.07,2.07,0,0,1-.67.13,5.62,5.62,0,0,1-1.16,0,6.21,6.21,0,0,1-1.88-.48c-1-.45-1.49-1-1.45-1s.61.29,1.6.61a6.62,6.62,0,0,0,2.83.28,1.87,1.87,0,0,0,.48-.09c.12-.07.09-.05.08-.1s-.15-.21-.28-.33a3.21,3.21,0,0,0-.41-.34,3.68,3.68,0,0,0-.92-.44,3.41,3.41,0,0,0-1.72-.09A14.65,14.65,0,0,0,65.13,329.36Z"/><g class="cls-7"><path class="cls-11" d="M54.6,324A1.69,1.69,0,1,1,53,322.32,1.69,1.69,0,0,1,54.6,324Z"/></g><path class="cls-11" d="M150.2,322.35,150,341s18.87,6.45,19.17,9.9L133,351.8l-.89-29Z"/><g class="cls-7"><path class="cls-11" d="M138.8,339.7a1.47,1.47,0,0,0-1,1.71,1.41,1.41,0,0,0,1.68,1,1.54,1.54,0,0,0,1-1.81,1.47,1.47,0,0,0-1.87-.83"/></g><g class="cls-7"><path class="cls-11" d="M133,351.8l0-2.93,34.64.21s1.62.66,1.47,1.8Z"/></g><path class="cls-11" d="M150.59,340.78c0,.18-.88.28-1.73.87s-1.3,1.34-1.47,1.28.08-1.09,1.12-1.79S150.62,340.62,150.59,340.78Z"/><path class="cls-11" d="M154.42,342.25c.05.17-.71.49-1.29,1.25s-.73,1.56-.91,1.56-.31-1,.43-1.94S154.41,342.08,154.42,342.25Z"/><path class="cls-11" d="M156.69,346.73c-.16,0-.43-.83,0-1.81s1.24-1.38,1.32-1.24-.42.68-.76,1.49S156.86,346.71,156.69,346.73Z"/><path class="cls-11" d="M150.16,336.53c-.07.16-.88-.06-1.88,0s-1.76.43-1.86.28.64-.8,1.81-.89S150.25,336.39,150.16,336.53Z"/><path class="cls-1" d="M150.13,332.77a3.43,3.43,0,0,1-1.81,0,8.56,8.56,0,0,1-1.91-.53,9.4,9.4,0,0,1-1-.53,2.33,2.33,0,0,1-.56-.41.77.77,0,0,1-.1-.94,1,1,0,0,1,.76-.42,2,2,0,0,1,.68.08,6.17,6.17,0,0,1,2.84,1.41c.85.75,1.16,1.4,1.1,1.44s-.5-.48-1.37-1.1a7.17,7.17,0,0,0-1.64-.87,8,8,0,0,0-1-.3c-.38-.09-.71-.08-.8.09s0,.09,0,.2a1.74,1.74,0,0,0,.41.3,9.15,9.15,0,0,0,2.74,1.15A12.94,12.94,0,0,1,150.13,332.77Z"/><path class="cls-1" d="M149.91,333a2.86,2.86,0,0,1-.52-1.74,5.68,5.68,0,0,1,.19-2,6.4,6.4,0,0,1,.44-1.11,1.49,1.49,0,0,1,1.13-.95.85.85,0,0,1,.77.49,2.72,2.72,0,0,1,.2.66,3.86,3.86,0,0,1,0,1.22,4.16,4.16,0,0,1-.72,1.89c-.69.95-1.42,1.18-1.43,1.12s.54-.44,1.06-1.36a4.2,4.2,0,0,0,.53-1.71,3.75,3.75,0,0,0-.06-1.05c-.07-.38-.22-.69-.36-.64s-.48.3-.62.61a5,5,0,0,0-.42,1,6.42,6.42,0,0,0-.31,1.81C149.8,332.35,150,333,149.91,333Z"/><path class="cls-1" d="M71,143.58a1.67,1.67,0,0,1-.68-2.77c-.85-.47-.61-1.81.06-2.51s1.61-1.14,2.13-2a2,2,0,0,1-2.37-1.72,1.62,1.62,0,0,1-1-3c-.9-.08-.83-1.57-.07-2.08a18.13,18.13,0,0,1,2.58-.85,10.74,10.74,0,0,1,5.68-3.34l-3.71-2.76a2.18,2.18,0,0,1-.75-.79c-.32-.73.26-1.55.87-2.07a8.59,8.59,0,0,1,4.61-2c.54-.07,1.23,0,1.41.53a7.77,7.77,0,0,1,3.75-.41,3,3,0,0,1,2,.6,6,6,0,0,0-1.32-1.66,2.48,2.48,0,0,1-.86-1.88c.07-.7.92-1.32,1.51-.92-.66-.31-.57-1.36,0-1.83a3.36,3.36,0,0,1,2.08-.52c.5,0,1.15.07,1.29.56a1.42,1.42,0,0,1,2.58-.21,1.76,1.76,0,0,1,2.53.2,2.26,2.26,0,0,1,3.2,1.19l-2-3.31c-.38-.62-.44-1.79.28-1.72-1,0-1.63-1.41-1.12-2.32a2.7,2.7,0,0,1,2.71-1.12l.9,1.31a2.05,2.05,0,0,1,3.14,2.28,1.06,1.06,0,0,1,1.56.31,3,3,0,0,1,.29,1.78,1.76,1.76,0,0,1,2.73,1.45,5.79,5.79,0,0,1,3-.62,2,2,0,0,1,2.62-2.86,2,2,0,0,1,2.57-1.62c.32-1.21,1.9-2.1,2.86-1.3s.46,2.41-.15,3.55l-2,3.69,6.45-3.46a1.17,1.17,0,0,1,.65-.19c.31,0,.52.32.8.46s.87.1,1.28.23c1.14.35,1.12,2.08.34,3s-2,1.33-2.85,2.13l2.86.54a2.94,2.94,0,0,1,3.78-2c.39-1.06,1.81-1.19,2.94-1.14a4.11,4.11,0,0,1,2.83.84,2.82,2.82,0,0,1,0,3.55,8.26,8.26,0,0,1-3.13,2.21c.19.86,1.31,1.12,2.18,1a5.34,5.34,0,0,1,2.59-.15c1.12.42,1.59,1.86,2.71,2.27a4.61,4.61,0,0,1,1,.34,2.06,2.06,0,0,1,.69,1.33l.42,1.86a2.5,2.5,0,0,1,.07.94c-.2,1-1.61,1.23-2.57.84s-1.77-1.15-2.79-1.3a7.87,7.87,0,0,1,3.52,2.71c.75,1.31.44,3.33-1,3.84s-2.84-.73-3.88-1.84-2.54-2.29-3.93-1.65"/><path class="cls-1" d="M73,142.69a1.85,1.85,0,0,0-2.78,1.6,3.84,3.84,0,0,0-1.43,6.63c.84.72,2.52.74,2.7-.35a3,3,0,0,0,2.12,1.84,2.89,2.89,0,0,0,1.17,4.1,3.09,3.09,0,0,0,.53,5.11,2.36,2.36,0,1,0,4.31,1.93,5,5,0,0,0,1.58,2.35,1.73,1.73,0,0,0,2.49-.42,3.24,3.24,0,0,0,4.61,1.94,2.1,2.1,0,0,0,4.13.73l5.4.41a19.57,19.57,0,0,0,3.59.05,9.71,9.71,0,0,0,4.28-1.55,3.36,3.36,0,0,1,1.31-.65,3.42,3.42,0,0,1,1.63.4,8.76,8.76,0,0,0,8.46-1.25,4.51,4.51,0,0,1,1.17-.78,4,4,0,0,1,1.61-.08,16,16,0,0,0,4-.23,4.2,4.2,0,0,0,2.93-1.58c.6-1,.13-2.58-1-2.66a2.43,2.43,0,0,1,.78-2,1.48,1.48,0,0,1,2,.09A1.06,1.06,0,0,1,128,160c1.14.95,3.14-.07,3.3-1.55a2.92,2.92,0,0,0-2.69-3,6.84,6.84,0,0,0,.37-3.26,2.4,2.4,0,0,0,3.23.65,4.18,4.18,0,0,0,2.51,2.16,2.5,2.5,0,0,0,2.87-1.26,1.8,1.8,0,0,0-1.5-2.45,2.13,2.13,0,0,0-1.63-3.24,3.34,3.34,0,0,0-1.72-3.7,1.75,1.75,0,0,0,2.57-.75c.59,1.15,2.29,1,3.45.47a2.33,2.33,0,0,0,1.66-2.41,2.61,2.61,0,0,0-.82-1.62,6.58,6.58,0,0,0-4-1.35,17.5,17.5,0,0,1-1.2-5.53,3.33,3.33,0,0,0,3.62-2.4l-7.83-4.86s-18.1-2.79-18.75-2.79-38.5,19.49-38.5,19.49a2.17,2.17,0,0,1-3.23-.59,3.53,3.53,0,0,1,.31-3.6,10.3,10.3,0,0,1,2.77-2.57,5.07,5.07,0,0,1-3.4-1.07,1.92,1.92,0,0,1-.52-2.1c.43-1,1.64-1,2.41-1.56a4.45,4.45,0,0,0,1-1.38"/><path class="cls-4" d="M113,184s.69-11.86.7-11.83,8.25-1.42,9.89-12.22c.82-5.36.49-14.15,0-21.34-.45-6.46-4.79-14.37-11.23-13.64l-20.09,5.22A3.78,3.78,0,0,0,88.92,134l1.92,40.51Z"/><path class="cls-1" d="M121.76,146a1.37,1.37,0,0,1-1.32,1.4,1.32,1.32,0,0,1-1.43-1.24,1.38,1.38,0,0,1,1.32-1.4A1.32,1.32,0,0,1,121.76,146Z"/><path class="cls-1" d="M107.39,146.36a1.38,1.38,0,0,1-1.33,1.4,1.31,1.31,0,0,1-1.43-1.23,1.39,1.39,0,0,1,1.32-1.41A1.34,1.34,0,0,1,107.39,146.36Z"/><path class="cls-1" d="M121.73,143.16c-.17.18-1.22-.59-2.71-.57s-2.58.76-2.74.58.09-.41.57-.75a3.82,3.82,0,0,1,2.19-.7,3.61,3.61,0,0,1,2.15.69C121.65,142.75,121.81,143.08,121.73,143.16Z"/><path class="cls-1" d="M107.35,144.08c-.17.18-1.23-.59-2.71-.57s-2.58.76-2.74.58.09-.4.57-.75a3.82,3.82,0,0,1,2.19-.7,3.67,3.67,0,0,1,2.16.69C107.27,143.67,107.43,144,107.35,144.08Z"/><path class="cls-1" d="M112.58,154.53a10.11,10.11,0,0,1,2.41-.45c.38,0,.74-.12.8-.38a1.88,1.88,0,0,0-.26-1.12l-1.14-2.89c-1.59-4.11-2.74-7.49-2.58-7.55s1.59,3.22,3.18,7.33l1.1,2.9a2.18,2.18,0,0,1,.2,1.49.93.93,0,0,1-.62.56,2.23,2.23,0,0,1-.64.09A8.93,8.93,0,0,1,112.58,154.53Z"/><path class="cls-5" d="M113.73,172.13a27.43,27.43,0,0,1-14.47-3.75s3.68,7.49,14.47,6.41Z"/><path class="cls-5" d="M112.75,157.89a3.73,3.73,0,0,0-3.09-1.64,2.28,2.28,0,0,0-1.91,3.57,2.34,2.34,0,0,0,2.47.89,5.58,5.58,0,0,0,2.22-1.4,1.75,1.75,0,0,0,.47-.57.81.81,0,0,0-.07-.78"/><path class="cls-1" d="M108.21,155.59c.24,0,.25,1.6,1.64,2.74s3.11.95,3.13,1.17-.39.32-1.11.34a4,4,0,0,1-2.61-.88,3.5,3.5,0,0,1-1.27-2.3C107.92,156,108.1,155.59,108.21,155.59Z"/><path class="cls-1" d="M107.36,140.06c-.14.4-1.63.22-3.37.44s-3.15.71-3.39.35c-.1-.17.14-.55.71-.95a5.86,5.86,0,0,1,5.15-.6C107.1,139.55,107.43,139.86,107.36,140.06Z"/><path class="cls-1" d="M121.15,138.86c-.26.34-1.29,0-2.52,0s-2.27.25-2.52-.1c-.1-.18.06-.51.51-.84a3.63,3.63,0,0,1,4.06.1C121.12,138.34,121.27,138.69,121.15,138.86Z"/><path class="cls-5" d="M101.75,146.51c0,.15-.35.34-.78.59s-.79.47-.9.38.13-.53.64-.83S101.72,146.38,101.75,146.51Z"/><path class="cls-5" d="M102,145.53c0,.14-.5.23-1.08.1s-1-.43-.93-.56.51-.07,1,.05S102,145.38,102,145.53Z"/><path class="cls-5" d="M123.31,145.13a.24.24,0,0,1-.08.34.26.26,0,0,1-.33-.11A.24.24,0,0,1,123,145,.24.24,0,0,1,123.31,145.13Z"/><path class="cls-5" d="M123.65,146.15c0,.14-.23.25-.5.23s-.48-.14-.48-.29.24-.24.51-.23S123.66,146,123.65,146.15Z"/><path class="cls-5" d="M108.27,155.29c0,.14-.42.15-.82.29s-.71.35-.83.27.08-.57.66-.77S108.33,155.16,108.27,155.29Z"/><path class="cls-1" d="M88.87,145.08a1.81,1.81,0,0,0,.51,2.06,1.24,1.24,0,0,0,1.77-.49c.47.64,1.55,0,1.4-.83.59.32,1.35-.46,1.17-1.19.67.26,1.08-.83,1.43-1.57.2-.4.47-.74.7-1.11A7.63,7.63,0,0,0,97,137.89a7.48,7.48,0,0,0,1.29-4c.11-.89.22-1.79.34-2.68.16-.21.33-.42.5-.62a1.44,1.44,0,0,0,1,1.39,3,3,0,0,0,1.63,0l1.6-.3,1,.29a4.13,4.13,0,0,0,.29,2.62,2.54,2.54,0,0,0,.92,1.46.76.76,0,0,0,1.06-.81.83.83,0,0,0,1.3-.2,2.71,2.71,0,0,0,.37-1.65,7.08,7.08,0,0,0-1.27-3.9l2.78,2.63a1.3,1.3,0,0,0,.68.42.73.73,0,0,0,.78.81,1.88,1.88,0,0,0,1-.69c.69-.71,1.41-1.92.81-2.73a.6.6,0,0,0,.27-.88l3.15,2.42c-.31-.18-.66.31-.59.71a1.62,1.62,0,0,0,.65.94,2.51,2.51,0,0,0-.37,1.5c-.57-.51-1.43.43-1.25,1.25a1.78,1.78,0,0,0,1.67,1.31,1.22,1.22,0,0,0,1.41-.91c.7.15,1.37-.8,1.13-1.59.5.34.94-.56,1-1.24a9.7,9.7,0,0,0-.53-3.68c0,.17.17.32.3.23a.28.28,0,0,0,0-.42l1.77,4.35a10.18,10.18,0,0,1,1,3.63c0,.52.06,1.23.5,1.28a.69.69,0,0,0,.34-.09,6.5,6.5,0,0,0,2.87-3.31,4.93,4.93,0,0,0,.44-1.52,20.84,20.84,0,0,0-.43-3.31,10.27,10.27,0,0,0-.09-1.47,4.45,4.45,0,0,0-1.14-1.93c-1.7-2-3.49-4-5.77-4.83-1.39-.49-2.88-.48-4.28-1a24.68,24.68,0,0,1-2.51-1.16,21.21,21.21,0,0,0-10.95-1.54,17.61,17.61,0,0,0-6.08,1.4,21.52,21.52,0,0,0-5.71,4.37,32.45,32.45,0,0,0-6.72,9,15.79,15.79,0,0,0-1.62,8.9c.44,3.06,2.33,5.92,4.88,6.56l1-1.15"/><path class="cls-4" d="M91.82,147.14c-.15-.07-6-1.93-5.95,4.09S92,156,92,155.78,91.82,147.14,91.82,147.14Z"/><path class="cls-5" d="M90.1,153.52s-.1.07-.28.16a1.07,1.07,0,0,1-.78,0,2.59,2.59,0,0,1-1.22-2.32,3.46,3.46,0,0,1,.28-1.5,1.21,1.21,0,0,1,.78-.81.52.52,0,0,1,.62.28c.08.17,0,.29.08.3s.13-.1.08-.35a.73.73,0,0,0-.24-.38.87.87,0,0,0-.59-.15,1.48,1.48,0,0,0-1.08.95,3.52,3.52,0,0,0-.35,1.68A2.71,2.71,0,0,0,89,154a1.13,1.13,0,0,0,1-.16C90.09,153.67,90.12,153.53,90.1,153.52Z"/><path class="cls-2" d="M111.5,145.3a14,14,0,0,0-.27-1.73,7.11,7.11,0,0,0-2.61-3.86,6.85,6.85,0,0,0-3-1.3,7,7,0,0,0-3.68.31,6.78,6.78,0,0,0-1.77,1,6.35,6.35,0,0,0-1.48,1.49,7,7,0,0,0,0,8.27,6.75,6.75,0,0,0,1.48,1.49,6.46,6.46,0,0,0,1.77.95,7,7,0,0,0,6.64-1,7.13,7.13,0,0,0,2.61-3.87,13.37,13.37,0,0,0,.27-1.73,2.69,2.69,0,0,1,0,.46,2.89,2.89,0,0,1,0,.55,4.94,4.94,0,0,1-.13.75,7.18,7.18,0,0,1-5.63,5.36,7.29,7.29,0,0,1-3.81-.3,7.11,7.11,0,0,1-1.84-1,7,7,0,0,1-1.54-1.54,7.31,7.31,0,0,1-1.41-4.3A7.22,7.22,0,0,1,98.52,141a7,7,0,0,1,1.53-1.54,6.82,6.82,0,0,1,1.84-1,7.19,7.19,0,0,1,9.44,5.06,4.83,4.83,0,0,1,.13.74,3,3,0,0,1,0,.56A2.54,2.54,0,0,1,111.5,145.3Z"/><path class="cls-2" d="M128.48,145.3a13.16,13.16,0,0,0-.28-1.73,7.09,7.09,0,0,0-2.6-3.86,6.85,6.85,0,0,0-3-1.3,7,7,0,0,0-3.68.31,6.78,6.78,0,0,0-1.77,1,6.35,6.35,0,0,0-1.48,1.49,7,7,0,0,0,0,8.27,6.75,6.75,0,0,0,1.48,1.49,6.46,6.46,0,0,0,1.77.95,7,7,0,0,0,6.64-1,7.11,7.11,0,0,0,2.6-3.87,12.62,12.62,0,0,0,.28-1.73,2.69,2.69,0,0,1,0,.46,2.89,2.89,0,0,1,0,.55,6.6,6.6,0,0,1-.13.75,7.18,7.18,0,0,1-5.63,5.36,7.29,7.29,0,0,1-3.81-.3,7.11,7.11,0,0,1-1.84-1,7,7,0,0,1-1.54-1.54,7.25,7.25,0,0,1,0-8.59,7,7,0,0,1,1.54-1.54,6.82,6.82,0,0,1,1.84-1,7.19,7.19,0,0,1,9.44,5.06,6.46,6.46,0,0,1,.13.74,3,3,0,0,1,0,.56A2.54,2.54,0,0,1,128.48,145.3Z"/><path class="cls-2" d="M114.52,143.63c0,.07-.72-.21-1.61-.23s-1.6.19-1.62.12a2.41,2.41,0,0,1,1.63-.39A2.38,2.38,0,0,1,114.52,143.63Z"/><path class="cls-2" d="M97.18,146a11.77,11.77,0,0,1-3,.76,11.21,11.21,0,0,1-3.1.22c0-.08,1.37-.21,3-.49S97.16,145.93,97.18,146Z"/><path class="cls-8" d="M110.75,144.18a3.8,3.8,0,0,1-.07,1.35,8.53,8.53,0,0,1-1.19,3,7.23,7.23,0,0,1-2.27,2.33,1.67,1.67,0,0,1-1.31.29,3.09,3.09,0,0,0,1.21-.45,8,8,0,0,0,2.14-2.32,9.77,9.77,0,0,0,1.23-2.92C110.67,144.69,110.7,144.18,110.75,144.18Z"/><path class="cls-8" d="M126.28,148.76a9.49,9.49,0,0,1,.57-1.12,5.72,5.72,0,0,0,.48-1.26,4.38,4.38,0,0,0,0-1.62,8.51,8.51,0,0,0-.85-2.87,11.09,11.09,0,0,0-.7-1s.12,0,.28.2a3.7,3.7,0,0,1,.59.74,7.53,7.53,0,0,1,1,2.93,4.24,4.24,0,0,1-.05,1.71,4.86,4.86,0,0,1-.55,1.29A4.58,4.58,0,0,1,126.28,148.76Z"/><path class="cls-2" d="M87.57,155.58s-.16.07-.39.25a1.93,1.93,0,0,0-.69,1,1.69,1.69,0,0,0,.36,1.67,2,2,0,0,0,2,.59,2.15,2.15,0,0,0,1.09-3.29A2.56,2.56,0,0,0,89,155a3.35,3.35,0,0,1-.41-.21s.17,0,.46.11a2.49,2.49,0,0,1,1,.83,2.32,2.32,0,0,1,.42,1.9,2.38,2.38,0,0,1-1.59,1.76,2.26,2.26,0,0,1-2.27-.68,1.92,1.92,0,0,1-.45-1,1.89,1.89,0,0,1,.1-.93,2,2,0,0,1,.81-1A.85.85,0,0,1,87.57,155.58Z"/><path class="cls-12" d="M112.53,128a1.47,1.47,0,0,0,.41-.77,1.09,1.09,0,0,0-.27-.91,1.15,1.15,0,0,0-1.15-.3l-.25.09.1-.24a1.19,1.19,0,0,0-.31-1.34,1.17,1.17,0,0,0-1.5.05l-.2-.18a.46.46,0,0,0,.09-.15.69.69,0,0,0-.1-.57.78.78,0,0,0-.49-.31,1.22,1.22,0,0,0-.6,0,1.67,1.67,0,0,1-.68.15c-.28,0-.41-.27-.56-.36a1.93,1.93,0,0,0-.47-.29,2.47,2.47,0,0,0-1-.22,2.58,2.58,0,0,0-1.4.33,5.38,5.38,0,0,1-.46.3s.1-.18.4-.39a2.6,2.6,0,0,1,1.46-.44,2.81,2.81,0,0,1,1.06.21,2.55,2.55,0,0,1,.52.31c.17.12.3.29.45.3a1.72,1.72,0,0,0,.57-.15,1.5,1.5,0,0,1,.73,0,1,1,0,0,1,.65.42.94.94,0,0,1,.14.8.72.72,0,0,1-.14.24l-.2-.18a1.38,1.38,0,0,1,2.22,1.57l-.15-.16a1.34,1.34,0,0,1,1.37.39,1.2,1.2,0,0,1,.26,1.06,1.27,1.27,0,0,1-.33.61C112.62,128,112.54,128.05,112.53,128Z"/><path class="cls-12" d="M119.25,129.78a1.76,1.76,0,0,0,.52-.75,1.36,1.36,0,0,0-.06-1,1.43,1.43,0,0,0-1.06-.77l-.2,0,.14-.15a1.69,1.69,0,0,0,.46-1.47.93.93,0,0,0-.54-.61.72.72,0,0,0-.8.11l-.77.81.56-1a1.4,1.4,0,0,0,.08-1.17,1.3,1.3,0,0,0-.93-.8,1.37,1.37,0,0,0-.9.09l-.32.15.13-.32c.18-.47-.29-1-.76-1.07a2.31,2.31,0,0,0-1.42.36l-.26.14.08-.28a1,1,0,0,0-.32-1,1.74,1.74,0,0,0-.93-.41,4.48,4.48,0,0,0-1.73,0,7.06,7.06,0,0,0-1.45.52,1.7,1.7,0,0,1,.34-.24,5,5,0,0,1,1.08-.43,4.52,4.52,0,0,1,1.8-.09,2,2,0,0,1,1,.44,1.24,1.24,0,0,1,.41,1.2l-.18-.14a2.42,2.42,0,0,1,1.59-.4,1.26,1.26,0,0,1,.79.47,1,1,0,0,1,.17.95l-.18-.17a1.61,1.61,0,0,1,1.08-.12,1.57,1.57,0,0,1,1.12,1,1.7,1.7,0,0,1-.1,1.4l-.21-.15a1,1,0,0,1,1.08-.16,1.13,1.13,0,0,1,.68.78,1.89,1.89,0,0,1-.54,1.67l-.06-.17a1.58,1.58,0,0,1,1.18.9,1.48,1.48,0,0,1,0,1.13,1.57,1.57,0,0,1-.41.59C119.34,129.76,119.26,129.79,119.25,129.78Z"/><path class="cls-2" d="M133.75,131a1.1,1.1,0,0,0-.35-.74,1.29,1.29,0,0,0-.9-.32,4,4,0,0,0-1.29.3l-.15.06,0-.16a1.16,1.16,0,0,0-.94-1.14,3.45,3.45,0,0,0-1.92.31l-.84.31.72-.53a1,1,0,0,0-.07-1.38,2.18,2.18,0,0,0-1.68-.4h-.08l-.54,0,.45-.3a1,1,0,0,0-.12-1.63,1.56,1.56,0,0,0-1.73.17l-.55.44.37-.6a2.33,2.33,0,0,0,0-2.37,2.17,2.17,0,0,0-1.59-1,2.58,2.58,0,0,0-1.28.16c-.27.12-.41.23-.42.21l.09-.09a1.58,1.58,0,0,1,.3-.19,2.37,2.37,0,0,1,1.32-.24,2.31,2.31,0,0,1,1.76,1.06,2.51,2.51,0,0,1,0,2.61l-.18-.16a1.8,1.8,0,0,1,2-.2,1.33,1.33,0,0,1,.58,1,1.17,1.17,0,0,1-.46,1.09l-.09-.25h.08a2.38,2.38,0,0,1,1.89.48,1.34,1.34,0,0,1,.41.89,1,1,0,0,1-.36.88l-.12-.22a3.53,3.53,0,0,1,2.06-.29,1.37,1.37,0,0,1,1.08,1.38l-.13-.1a4.13,4.13,0,0,1,1.35-.28,1.45,1.45,0,0,1,1,.4,1,1,0,0,1,.3.59A.56.56,0,0,1,133.75,131Z"/><path class="cls-2" d="M126.15,117.24s-.11.08-.35.13a4.56,4.56,0,0,1-1.06.06,3.09,3.09,0,0,0-1.51.22,1,1,0,0,0-.53.66.7.7,0,0,0,.28.8l-.19.13c-.06-.35-.49-.57-.87-.8a4.61,4.61,0,0,0-1.27-.55,1.68,1.68,0,0,0-1.29.2,1.08,1.08,0,0,0-.56,1l0,.34-.25-.23a3.07,3.07,0,0,0-1.77-.73,3.51,3.51,0,0,0-1.52.22,4.62,4.62,0,0,0-1.16.74,1.16,1.16,0,0,1,.23-.29,2.71,2.71,0,0,1,.87-.59,3.33,3.33,0,0,1,1.59-.29,3.17,3.17,0,0,1,1.93.75l-.21.11a1.32,1.32,0,0,1,.66-1.25,1.9,1.9,0,0,1,1.49-.24,4.45,4.45,0,0,1,1.35.58,5.36,5.36,0,0,1,.59.38,1,1,0,0,1,.4.61l0,.26-.22-.13a.93.93,0,0,1-.39-1.07,1.2,1.2,0,0,1,.66-.8,3.2,3.2,0,0,1,1.62-.19,5.26,5.26,0,0,0,1,0C126,117.27,126.15,117.23,126.15,117.24Z"/><path class="cls-2" d="M112.71,112a3.47,3.47,0,0,0-.71.1,1.92,1.92,0,0,0-.68.43,1.48,1.48,0,0,0-.43.92l0,.14-.14-.05a.9.9,0,0,0-1,.56,2.79,2.79,0,0,0,0,1.5l.08.53-.33-.44,0-.06a1.14,1.14,0,0,0-.93-.39,1.31,1.31,0,0,0-.89.39,2,2,0,0,0-.54,1.6,3.58,3.58,0,0,0,.3,1.17,3.88,3.88,0,0,1,.17.42s-.12-.11-.27-.37a3.4,3.4,0,0,1-.4-1.2,2.24,2.24,0,0,1,.56-1.8,1.52,1.52,0,0,1,2.21,0l.07.09-.25.1a2.9,2.9,0,0,1,.09-1.65,1.11,1.11,0,0,1,1.3-.66l-.15.1a1.6,1.6,0,0,1,.53-1A1.74,1.74,0,0,1,112,112a1.44,1.44,0,0,1,.56,0C112.65,112,112.71,112,112.71,112Z"/><path class="cls-2" d="M100.85,120.27a.86.86,0,0,1-.35-.08,2.26,2.26,0,0,1-.82-.58,2.37,2.37,0,0,1-.62-1.36,1.31,1.31,0,0,0-.18-.74c-.15-.19-.49-.31-.69-.63a1.37,1.37,0,0,1,.35-1.83v.2a4.38,4.38,0,0,1-1.16-1.61,1.86,1.86,0,0,1-.19-.74s.11.26.33.68a4.77,4.77,0,0,0,1.18,1.48l.13.11-.14.09a1.11,1.11,0,0,0-.26,1.47c.14.24.43.34.66.61a1.42,1.42,0,0,1,.23.89,2.34,2.34,0,0,0,.51,1.25A3.58,3.58,0,0,0,100.85,120.27Z"/><path class="cls-2" d="M97.36,122.66a.72.72,0,0,1-.23,0,3.55,3.55,0,0,1-2.65-1.2h.18a2.33,2.33,0,0,1-1.6.84,2.36,2.36,0,0,1-1-.12,1.46,1.46,0,0,1-.86-.68,1.8,1.8,0,0,1-.11-.39.53.53,0,0,0-.17-.25,1.73,1.73,0,0,0-.63-.28,2,2,0,0,1-.69-.28.79.79,0,0,1-.39-.67l.17.12a2.44,2.44,0,0,1-1.66,0,2.59,2.59,0,0,1-1.08-.69,2.09,2.09,0,0,1-.45-.69.67.67,0,0,1-.07-.29,3.26,3.26,0,0,0,.62.88,2.52,2.52,0,0,0,1,.59,2.14,2.14,0,0,0,1.49-.07l.19-.07v.19a.5.5,0,0,0,.28.44,1.89,1.89,0,0,0,.63.25,2,2,0,0,1,.73.33.87.87,0,0,1,.25.37,1.79,1.79,0,0,0,.1.36,1.21,1.21,0,0,0,.7.54,2.15,2.15,0,0,0,.9.11,2.11,2.11,0,0,0,1.44-.72l.09-.11.09.1a3.59,3.59,0,0,0,1.86,1.16C97,122.64,97.36,122.62,97.36,122.66Z"/><path class="cls-2" d="M75.92,131s0,0,0-.09,0-.16,0-.28a2.88,2.88,0,0,1,.13-1.08A6.53,6.53,0,0,1,76.7,128a6.76,6.76,0,0,1,.6-.86,1.63,1.63,0,0,1,.48-.36.7.7,0,0,1,.66,0l-.17.11a1.84,1.84,0,0,1,.85-1.71,1.86,1.86,0,0,1,2.1.14l-.22.11a1.24,1.24,0,0,1,.5-1,1.18,1.18,0,0,1,1.16-.14,1.26,1.26,0,0,1,.54.4l-.25.09a.81.81,0,0,1,.29-.64,1.14,1.14,0,0,1,.61-.25,2.44,2.44,0,0,1,1.16.3l-.16,0a1.89,1.89,0,0,1,1.17-.82,2.6,2.6,0,0,1,1.33,0,6.89,6.89,0,0,1,2.05,1l-.14.12a.49.49,0,0,1,0-.47.91.91,0,0,1,.34-.26,1.41,1.41,0,0,1,.72-.11,4.15,4.15,0,0,1,1.09.33,3.91,3.91,0,0,1,.61.36c.13.1.19.16.18.17a8.15,8.15,0,0,0-.84-.43,4.2,4.2,0,0,0-1-.27,1.34,1.34,0,0,0-.64.11c-.2.1-.38.29-.28.49l.15.3-.29-.18a6.86,6.86,0,0,0-2-.95,2.48,2.48,0,0,0-1.21,0,1.7,1.7,0,0,0-1,.72l-.06.09-.11,0a2.14,2.14,0,0,0-1-.27c-.32,0-.68.29-.65.6l0,.48-.28-.39a1.1,1.1,0,0,0-.42-.31.93.93,0,0,0-.9.11,1,1,0,0,0-.39.79v.29l-.22-.18a1.56,1.56,0,0,0-2.55,1.34l0,.22-.19-.11c-.29-.17-.64.07-.87.31a6.26,6.26,0,0,0-.6.81,6.47,6.47,0,0,0-.76,1.47A3.36,3.36,0,0,0,75.92,131Z"/><path class="cls-2" d="M77.43,139s-.05-.05-.13-.17a4.28,4.28,0,0,1-.32-.55,1.91,1.91,0,0,1-.22-1,1.35,1.35,0,0,1,.21-.62,1,1,0,0,1,.59-.46l0,.14a1.28,1.28,0,0,1-.06-1.34,1.32,1.32,0,0,1,1.41-.6l-.12.19a1,1,0,0,1,0-1.21,1.51,1.51,0,0,1,1.16-.54,6,6,0,0,0,.6,0,.52.52,0,0,0,.38-.33,2.42,2.42,0,0,1,.35-.58,1.14,1.14,0,0,1,.64-.35,6.48,6.48,0,0,1,1.45,0,1.56,1.56,0,0,0,1.17-.34,6.44,6.44,0,0,0,.38-.52,1.37,1.37,0,0,1,.54-.42,1.44,1.44,0,0,1,1.28.07l-.16.17a1.09,1.09,0,0,1,.14-1.26,1.55,1.55,0,0,1,1-.5,5,5,0,0,1,1.78.22,6,6,0,0,1,1.06.43,1.47,1.47,0,0,1,.35.21s-.51-.26-1.45-.5a5,5,0,0,0-1.71-.17,1.39,1.39,0,0,0-.88.45.85.85,0,0,0-.11,1l.28.43-.44-.26a1.23,1.23,0,0,0-1.06,0,1.14,1.14,0,0,0-.44.35,5.12,5.12,0,0,1-.39.54,1.37,1.37,0,0,1-.64.36,2.93,2.93,0,0,1-.72.07,7.13,7.13,0,0,0-1.39,0,1,1,0,0,0-.5.27,2.06,2.06,0,0,0-.31.53.79.79,0,0,1-.57.46c-.25,0-.46,0-.64,0a1.25,1.25,0,0,0-1,.43.75.75,0,0,0,0,.9l.21.28-.34-.09a1.1,1.1,0,0,0-1.16.48,1.11,1.11,0,0,0,0,1.13l.07.11-.13,0a1,1,0,0,0-.7.91,2.06,2.06,0,0,0,.16.94C77.29,138.69,77.46,139,77.43,139Z"/><path class="cls-2" d="M77.89,155.51a.84.84,0,0,1-.26-.09,1.75,1.75,0,0,1-.62-.49,1.92,1.92,0,0,1-.46-1.15,2,2,0,0,1,.56-1.52v.15a3.69,3.69,0,0,1-.71-1.35,1.53,1.53,0,0,1,.06-.87,1.15,1.15,0,0,1,.65-.68l0,.24a1.57,1.57,0,0,1-.68-1.42,1.83,1.83,0,0,1,.28-.88,1.4,1.4,0,0,1,.7-.56c.26-.12.38-.24.39-.5a2.22,2.22,0,0,1,.18-.8,2.67,2.67,0,0,1,1-1.08c.36-.27.7-.52,1-.73a4.36,4.36,0,0,1,1.66-.78,2.11,2.11,0,0,1,.5-.05c.12,0,.17,0,.17,0s-.24,0-.65.12a4.91,4.91,0,0,0-1.57.83l-1,.76a2.61,2.61,0,0,0-.92,1,2.1,2.1,0,0,0-.15.72.83.83,0,0,1-.15.45,1.21,1.21,0,0,1-.38.27,1.31,1.31,0,0,0-.83,1.22,1.33,1.33,0,0,0,.55,1.18l.23.14-.25.1a1.06,1.06,0,0,0-.55,1.23,3.59,3.59,0,0,0,.64,1.28l.06.08-.07.06a1.85,1.85,0,0,0-.16,2.43A2.9,2.9,0,0,0,77.89,155.51Z"/><path class="cls-2" d="M86.4,148.44a1.28,1.28,0,0,1-.38-.08,3.52,3.52,0,0,1-1-.5A3.56,3.56,0,0,1,84,146.59a1.39,1.39,0,0,1-.19-1,.7.7,0,0,1,.42-.47.57.57,0,0,1,.66.11l-.2.13a1.81,1.81,0,0,1-.19-1,.85.85,0,0,1,.33-.51.73.73,0,0,1,.62-.09,1.07,1.07,0,0,0,.47.06c.1,0,.12-.15.11-.35a1.67,1.67,0,0,1,.46-1.16,1.76,1.76,0,0,1,1.84-.52l-.17.16a1.54,1.54,0,0,1,.28-1.5.94.94,0,0,1,.74-.23.71.71,0,0,1,.61.44l-.24.05A3.86,3.86,0,0,1,91,137.44a3.23,3.23,0,0,1,.88-.49,1,1,0,0,1,.35-.09,4.93,4.93,0,0,0-1.14.69,3.89,3.89,0,0,0-.93,1.18,3.49,3.49,0,0,0-.4,1.87l.07,1-.3-.94c-.1-.33-.67-.38-.94-.11a1.32,1.32,0,0,0-.2,1.25l.06.24-.23-.08a1.54,1.54,0,0,0-1.56.46,1.37,1.37,0,0,0-.39,1,.93.93,0,0,1,0,.32.43.43,0,0,1-.26.3,1.19,1.19,0,0,1-.62-.06.47.47,0,0,0-.41,0,.63.63,0,0,0-.23.36,1.62,1.62,0,0,0,.16.9l.25.66-.45-.54c-.18-.21-.63,0-.68.26a1.22,1.22,0,0,0,.15.89,3.49,3.49,0,0,0,1,1.25A5.07,5.07,0,0,0,86.4,148.44Z"/><path class="cls-2" d="M100,131.67a2,2,0,0,1-.81-.32,2.18,2.18,0,0,1-.73-.63,1.48,1.48,0,0,1-.26-1.18.92.92,0,0,1,.11-.29l.06.19a1.26,1.26,0,0,1-.67-.9,1.19,1.19,0,0,1,.17-.88c.3-.43.65-.48.65-.45s-.28.15-.49.54a1.07,1.07,0,0,0-.1.74,1.12,1.12,0,0,0,.56.71l.12.06-.07.13a1,1,0,0,0-.08.21,1.34,1.34,0,0,0,.21,1,2.41,2.41,0,0,0,.63.61A5.57,5.57,0,0,1,100,131.67Z"/><path class="cls-12" d="M106.34,128.75a1.59,1.59,0,0,0,.19-1,1.12,1.12,0,0,0-.64-.85,1.23,1.23,0,0,0-1.3.2l-.17.16,0-.23a2.25,2.25,0,0,0-.31-.8,1,1,0,0,0-.68-.48c-.43-.06-.92.34-.8.7l-.26,0a2,2,0,0,0-1.91-1.8,3.47,3.47,0,0,0-1.14.2.89.89,0,0,1,.27-.18,2.22,2.22,0,0,1,.88-.19,2.16,2.16,0,0,1,1.3.44,2.25,2.25,0,0,1,.86,1.5l-.25,0a.74.74,0,0,1,.27-.79,1.06,1.06,0,0,1,.81-.25,1.24,1.24,0,0,1,.87.6,2.36,2.36,0,0,1,.34.91l-.21-.07a1.43,1.43,0,0,1,1.56-.22,1.3,1.3,0,0,1,.71,1,1.26,1.26,0,0,1-.16.8A.62.62,0,0,1,106.34,128.75Z"/><polygon class="cls-10" points="65.04 311.14 107.81 297.38 64.84 298.7 61.86 269.93 143.67 277.07 155.22 293.7 152.18 314.57 72.48 334.83 65.04 311.14"/><path class="cls-10" d="M156.46,327.25l1.95-69.1a19.38,19.38,0,0,0-10.68-16.39h0a23.17,23.17,0,0,0-17.5-1.63L77.15,256.32,48,263.17a55.77,55.77,0,0,0-3.73,16.5c-.78,12.63,9.91,24,23.72,20.54,12.77-3.21,62.33-22.72,62.33-22.72l-3.57,51Z"/><path class="cls-10" d="M117.8,292a17.4,17.4,0,0,0-10,5.53c.11.11,2-1.66,4.77-3.17S117.84,292.13,117.8,292Z"/><path class="cls-2" d="M130.34,272.75l-.19.12-.61.3-2.33,1.12-8.62,4-28.5,13.12L82,295.15l-3.87,1.76c-1.26.58-2.5,1.16-3.75,1.63a44,44,0,0,1-7.26,2.14,22.44,22.44,0,0,1-6.61.15,17.72,17.72,0,0,1-8.68-3.77c-.89-.7-1.54-1.29-2-1.69l-.49-.46c-.11-.11-.16-.17-.15-.17a6.2,6.2,0,0,1,.71.55c.46.38,1.12.94,2,1.61a18,18,0,0,0,8.61,3.57,22,22,0,0,0,6.48-.22,43.83,43.83,0,0,0,7.17-2.16c1.23-.47,2.45-1,3.72-1.63l3.87-1.77L89.88,291l28.57-13,8.68-3.88,2.37-1,.63-.25C130.27,272.76,130.34,272.74,130.34,272.75Z"/><path class="cls-2" d="M130.21,271.94a1,1,0,0,1,0,.28c0,.19,0,.46,0,.79q0,1.1-.15,3.09c-.15,2.73-.36,6.67-.64,11.64-.58,10-1.41,24.13-2.38,40.76l-.25-.26L156.45,327l-.25.25c.06-1.66.12-3.45.19-5.24.45-12.65.84-24.69,1.13-35.65s.56-20.82.39-29.1c0-.52,0-1-.08-1.52a11.8,11.8,0,0,0-.13-1.48,10.51,10.51,0,0,0-.81-2.71,13.27,13.27,0,0,0-3.06-4.17,24.69,24.69,0,0,0-7.09-4.43,38.38,38.38,0,0,0-5-1.77l-1.34-.36-.46-.12a3.82,3.82,0,0,1,.47.07c.31.06.77.16,1.36.31a36.45,36.45,0,0,1,5.07,1.68,24.81,24.81,0,0,1,7.21,4.4,13.35,13.35,0,0,1,3.16,4.26,10.22,10.22,0,0,1,.85,2.78,10.88,10.88,0,0,1,.15,1.51c0,.5.08,1,.09,1.54.21,8.3,0,18.17-.28,29.13s-.64,23-1.09,35.64c-.07,1.8-.13,3.59-.19,5.25v.24h-.24l-29.69,1.21h-.27l0-.26c1-16.62,1.94-30.75,2.57-40.74.33-5,.6-8.91.78-11.64.1-1.33.17-2.36.22-3.08,0-.34.06-.6.07-.8A1.14,1.14,0,0,1,130.21,271.94Z"/><path class="cls-2" d="M138,265.44a16.57,16.57,0,0,0-7.75,7.9,4,4,0,0,1,.5-1.62,12,12,0,0,1,2.32-3.36,11.81,11.81,0,0,1,3.32-2.39A4,4,0,0,1,138,265.44Z"/><path class="cls-11" d="M198.1,175.59l-35.74,27.28A16.13,16.13,0,0,1,150.51,206l-38.71-1.21,2-22,42.27.66,34.37-18.89Z"/><path class="cls-4" d="M134.84,230.74,145,232.28l9.07,5.63v9c-4.29-3.24-10.46-6.63-14.92-6.28Z"/><path class="cls-11" d="M113,177.22c0,1,8.53,25,8.42,34.26-.14,12.11-12.86,21.45-12.86,21.45L95.63,253.55C76,266.85,46.88,275.68,48,261.63L63.1,222.22l9.37-21.84a55.63,55.63,0,0,1,14.27-23.66l7.68-5.14Z"/><path class="cls-11" d="M102.9,199.82l-6.22,33.11,39.39-5.18,4.52,15.18L90.08,256.08a14.24,14.24,0,0,1-17.56-4.79h0a14.2,14.2,0,0,1-2.15-11.71l11.36-44.35a10.84,10.84,0,0,1,14-7.59h0A10.86,10.86,0,0,1,102.9,199.82Z"/><path class="cls-11" d="M87.06,191.22A22.45,22.45,0,0,1,92.31,190a22.92,22.92,0,0,1,5.37.54,10.86,10.86,0,0,0-10.62.72Z"/><g class="cls-9"><path class="cls-11" d="M74.49,253.55c-5.71.53-9-2.73-9.63-7.18-.34-2.45.47-4.9,1.27-7.24,3.5-10.25,7-20.59,12.58-29.89-2.09,9.31-4.76,18.24-6.86,27.55a29,29,0,0,0-.89,7.93,14.25,14.25,0,0,0,3.53,8.83"/></g><path class="cls-11" d="M56.57,267a6.83,6.83,0,0,1-2.67-1.6A6.75,6.75,0,0,1,51.83,263a15.51,15.51,0,0,1,2.4,1.92A15.17,15.17,0,0,1,56.57,267Z"/><path class="cls-11" d="M99.17,253.71a4.75,4.75,0,0,1-.81.25l-2.35.66-3.69,1.13a37.21,37.21,0,0,1-5,1.25,18.35,18.35,0,0,1-6.23,0,14.25,14.25,0,0,1-6.54-2.89,11.27,11.27,0,0,1-3.9-6.83,20.13,20.13,0,0,1,.53-8.46c1.58-5.58,2.87-10.92,4-15.8l3-13c.87-3.69,1.59-6.67,2.13-8.72.26-1,.48-1.82.63-2.36a7.15,7.15,0,0,1,.26-.81,4.45,4.45,0,0,1-.15.84c-.14.59-.32,1.38-.54,2.38-.48,2.11-1.15,5.09-2,8.75l-2.9,13c-1.12,4.88-2.41,10.26-4,15.81a19.87,19.87,0,0,0-.54,8.25,10.78,10.78,0,0,0,3.71,6.55,13.92,13.92,0,0,0,6.31,2.84,18.45,18.45,0,0,0,6.1.08,40.77,40.77,0,0,0,4.95-1.17c1.44-.42,2.69-.78,3.72-1.05s1.82-.45,2.37-.57A4.83,4.83,0,0,1,99.17,253.71Z"/><path class="cls-11" d="M136.07,227.75a1.77,1.77,0,0,1-.49.12l-1.42.24-5.22.77c-4.41.63-10.52,1.46-17.26,2.34l-15,1.92.07,0a13.13,13.13,0,0,0-5,4.63A24.36,24.36,0,0,0,90.63,240a2.13,2.13,0,0,1,.18-.65,11.46,11.46,0,0,1,.81-1.74,12.82,12.82,0,0,1,5-4.88h.07l15-2c6.75-.89,12.86-1.66,17.28-2.2l5.25-.6,1.43-.14A2.37,2.37,0,0,1,136.07,227.75Z"/><path class="cls-11" d="M102.58,196.53a7.56,7.56,0,0,1-.06,1.45c-.07.93-.22,2.28-.42,3.93-.4,3.32-1.08,7.88-1.92,12.91s-1.69,9.56-2.33,12.84c-.32,1.63-.6,3-.8,3.87a6.7,6.7,0,0,1-.37,1.4,8.83,8.83,0,0,1,.17-1.44c.17-1,.38-2.33.64-3.9.57-3.39,1.33-7.88,2.17-12.86s1.58-9.57,2.08-12.87c.23-1.57.43-2.88.58-3.9A7.73,7.73,0,0,1,102.58,196.53Z"/><path class="cls-11" d="M88.38,175.62l1.68-5.9,23.09,8.6a3.47,3.47,0,0,1,2.14,5h0a3.48,3.48,0,0,1-4.47,1.46Z"/><path class="cls-11" d="M121.1,206.17a5.5,5.5,0,0,1-.31-1.15c-.2-.85-.46-1.9-.75-3.14-.66-2.64-1.66-6.28-3-10.23-.86-2.64-1.76-5.08-2.6-7.1l-.07-.17.15-.1a3.37,3.37,0,0,0,1.37-2.45,3.3,3.3,0,0,0-.59-2.13,4.76,4.76,0,0,0-1.52-1.3,1.14,1.14,0,0,1,.53.16,3.48,3.48,0,0,1,1.2,1,3.42,3.42,0,0,1,.75,2.31,3.71,3.71,0,0,1-1.48,2.78l.08-.27c.88,2,1.81,4.47,2.67,7.12a103.69,103.69,0,0,1,2.82,10.31c.28,1.33.47,2.43.59,3.18A5.25,5.25,0,0,1,121.1,206.17Z"/><path class="cls-11" d="M93.5,206.41a6.59,6.59,0,0,1-1.29-2.94,6.48,6.48,0,0,1-.22-3.21,22.48,22.48,0,0,1,.73,3.08A20.57,20.57,0,0,1,93.5,206.41Z"/><path class="cls-11" d="M85.86,210.89A6,6,0,0,1,84,213.14a6,6,0,0,1-2.46,1.57,13.71,13.71,0,0,1,2.11-2A13.33,13.33,0,0,1,85.86,210.89Z"/><path class="cls-11" d="M93.82,221.2c-.11.08-.86-.69-1.43-1.88a3.92,3.92,0,0,1-.55-2.28c.15,0,.48.93,1,2.06A9,9,0,0,1,93.82,221.2Z"/><path class="cls-11" d="M84.36,228.5a8.53,8.53,0,0,1,.5-2.89,8.3,8.3,0,0,1,1-2.76,8.53,8.53,0,0,1-.5,2.89A8.42,8.42,0,0,1,84.36,228.5Z"/><path class="cls-11" d="M79.5,237.48c-.13.06-.61-.83-1.07-2a5.09,5.09,0,0,1-.59-2.18c.13-.05.61.83,1.07,2A5.09,5.09,0,0,1,79.5,237.48Z"/><path class="cls-11" d="M94,231.19a14.12,14.12,0,0,1-2.22,2,12.94,12.94,0,0,1-2.3,1.92,6.7,6.7,0,0,1,2-2.31A6.51,6.51,0,0,1,94,231.19Z"/><path class="cls-11" d="M81.25,252.22a18.11,18.11,0,0,1-1.83-2.85,18.17,18.17,0,0,1-1.71-2.93,12.91,12.91,0,0,1,3.54,5.78Z"/><path class="cls-11" d="M90.86,247.74a16.79,16.79,0,0,1-2.59-1.31,15.82,15.82,0,0,1-2.58-1.31,5.71,5.71,0,0,1,2.82.85A5.52,5.52,0,0,1,90.86,247.74Z"/><path class="cls-11" d="M99,246.12c.11.1-.51.91-1,2a14.69,14.69,0,0,1-.89,2.1,3.39,3.39,0,0,1,.42-2.31C98.06,246.73,98.9,246,99,246.12Z"/><path class="cls-11" d="M104.62,239.62a11.11,11.11,0,0,1-2.34-1,12.08,12.08,0,0,1-2.31-1.11,4.59,4.59,0,0,1,2.53.64A4.74,4.74,0,0,1,104.62,239.62Z"/><path class="cls-11" d="M109.11,243.78c.11.09-.36.83-1,1.66s-1.33,1.42-1.44,1.33.36-.84,1-1.67S109,243.68,109.11,243.78Z"/><path class="cls-11" d="M113.92,237.3c-.15,0-.48-.9-1.16-1.89s-1.41-1.65-1.32-1.78,1,.41,1.75,1.49A3.11,3.11,0,0,1,113.92,237.3Z"/><path class="cls-11" d="M119.05,241.11a18.85,18.85,0,0,1,1.5-6.14,10,10,0,0,1-.5,3.13A9.61,9.61,0,0,1,119.05,241.11Z"/><path class="cls-11" d="M129.89,243.24a6.45,6.45,0,0,1-2.23-1.27c-1.15-.81-2-1.57-1.94-1.69a6.35,6.35,0,0,1,2.24,1.27C129.11,242.37,130,243.13,129.89,243.24Z"/><path class="cls-11" d="M133,231.49c.13.06-.2.95-1,1.81s-1.61,1.29-1.68,1.18.58-.72,1.29-1.53S132.89,231.42,133,231.49Z"/><path class="cls-11" d="M88.22,194.32c.1.11-.6.93-1.57,1.85s-1.82,1.57-1.92,1.47.6-.93,1.56-1.85S88.12,194.22,88.22,194.32Z"/><path class="cls-11" d="M98.22,198.42a6.43,6.43,0,0,1-.86-2.42,6.5,6.5,0,0,1-.36-2.55,6.43,6.43,0,0,1,.86,2.42A6.5,6.5,0,0,1,98.22,198.42Z"/><path class="cls-11" d="M96.49,182.16a4.78,4.78,0,0,1-2.19,0c-1.19-.14-2.15-.36-2.13-.51a4.91,4.91,0,0,1,2.19,0A4.88,4.88,0,0,1,96.49,182.16Z"/><path class="cls-11" d="M104,193.45c-.13,0-.43-.7-.43-1.66s.3-1.69.43-1.66.09.77.09,1.66S104.1,193.42,104,193.45Z"/><path class="cls-11" d="M113.12,196.42a8.55,8.55,0,0,1-2.34-1.8c-1.2-1.1-2.09-2.07-2-2.18a8.71,8.71,0,0,1,2.34,1.8A8.81,8.81,0,0,1,113.12,196.42Z"/><path class="cls-11" d="M109.94,202.76c.08.12-.49.63-1.27,1.13s-1.47.82-1.55.7.49-.63,1.27-1.13S109.87,202.64,109.94,202.76Z"/><path class="cls-11" d="M115.6,211.56a4.7,4.7,0,0,1,0-2.7,4.57,4.57,0,0,1,1.09-2.47,17.26,17.26,0,0,1-.58,2.58A16.15,16.15,0,0,1,115.6,211.56Z"/><path class="cls-11" d="M110.44,215.88c-.13.06-.68-.78-1.23-1.88a5.06,5.06,0,0,1-.77-2.11c.13-.06.68.78,1.23,1.88A5.18,5.18,0,0,1,110.44,215.88Z"/><path class="cls-11" d="M102.84,218.22a13.65,13.65,0,0,1-2.17,4.81,7,7,0,0,1,.85-2.51A6.58,6.58,0,0,1,102.84,218.22Z"/><path class="cls-11" d="M109.77,225.19a14.65,14.65,0,0,1-2.9.43A14.39,14.39,0,0,1,104,226a6.07,6.07,0,0,1,2.85-.88A5.92,5.92,0,0,1,109.77,225.19Z"/><path class="cls-11" d="M71.69,217.05a7,7,0,0,1-.83-2.52,6.84,6.84,0,0,1-.32-2.63,6.92,6.92,0,0,1,.83,2.52A6.84,6.84,0,0,1,71.69,217.05Z"/><path class="cls-11" d="M78.06,202.43c.06.12-.65.61-1.68.75s-1.85-.13-1.82-.26.81-.12,1.75-.26S78,202.3,78.06,202.43Z"/><path class="cls-11" d="M66.09,229.82a7.64,7.64,0,0,1,2.58-1.08,7.54,7.54,0,0,1,2.74-.58,8,8,0,0,1-2.58,1.08A7.57,7.57,0,0,1,66.09,229.82Z"/><path class="cls-11" d="M61.91,240.46a8.08,8.08,0,0,1-.51-2.8,8,8,0,0,1,0-2.85,8.08,8.08,0,0,1,.51,2.8A8,8,0,0,1,61.91,240.46Z"/><path class="cls-11" d="M65.15,252.77a11.12,11.12,0,0,1,1.43-3.11,11.67,11.67,0,0,1,1.89-2.86A11.12,11.12,0,0,1,67,249.91,11.67,11.67,0,0,1,65.15,252.77Z"/><path class="cls-11" d="M58.73,256.42a17.42,17.42,0,0,1-1.71-5.8,8.9,8.9,0,0,1,1.1,2.82A9.43,9.43,0,0,1,58.73,256.42Z"/><path class="cls-11" d="M72.07,260.38a11.66,11.66,0,0,1-2.3,1.38A11.3,11.3,0,0,1,67.42,263a5.28,5.28,0,0,1,2.1-1.73A5.3,5.3,0,0,1,72.07,260.38Z"/><path class="cls-11" d="M81.55,192.29a14.64,14.64,0,0,1,.48-5.48,7.62,7.62,0,0,1,0,2.76A7.19,7.19,0,0,1,81.55,192.29Z"/><path class="cls-11" d="M94.66,176.18c-.14,0-.4-.45-.58-1.09s-.22-1.19-.08-1.23.39.45.58,1.09S94.8,176.14,94.66,176.18Z"/><path class="cls-11" d="M105,178.5a3.92,3.92,0,0,1-2.44-.42c-1.29-.52-2.14-1.28-2-1.39a12.08,12.08,0,0,1,2.24.91A13.08,13.08,0,0,1,105,178.5Z"/><path class="cls-11" d="M113.43,180.68c.09.11-.53.69-1.5,1.07s-1.81.37-1.83.23.75-.36,1.64-.72S113.35,180.56,113.43,180.68Z"/><path class="cls-11" d="M123.06,191.13c-.08-.12.59-.71,1.3-1.52s1.22-1.54,1.36-1.47-.2,1-1,1.82S123.13,191.25,123.06,191.13Z"/><path class="cls-11" d="M130.52,201.61a19.61,19.61,0,0,1-4.47-4.5,9.94,9.94,0,0,1,2.42,2.07A10.05,10.05,0,0,1,130.52,201.61Z"/><path class="cls-11" d="M136,191a8,8,0,0,1-1.29,2.53,7.87,7.87,0,0,1-1.74,2.26,8,8,0,0,1,1.3-2.54A7.78,7.78,0,0,1,136,191Z"/><path class="cls-11" d="M144.81,200.93c-.12.07-.6-.54-1.07-1.36S143,198,143.12,198s.61.53,1.07,1.36S144.94,200.86,144.81,200.93Z"/><path class="cls-11" d="M146.13,189c-.12.08-.59-.41-1-1.1s-.74-1.31-.62-1.39.59.41,1,1.1S146.25,188.9,146.13,189Z"/><path class="cls-11" d="M155,197.52c.1.1-.46.84-1.26,1.65s-1.53,1.38-1.63,1.27.46-.83,1.26-1.64S154.93,197.42,155,197.52Z"/><path class="cls-11" d="M154.94,192.76c0,.14-.78.37-1.79.51s-1.84.13-1.86,0,.78-.36,1.79-.5S154.92,192.62,154.94,192.76Z"/><path class="cls-11" d="M159.45,187.79c-.11.08-.84-.78-1.62-1.93a6.21,6.21,0,0,1-1.19-2.22c.12-.08.84.78,1.62,1.93A6.21,6.21,0,0,1,159.45,187.79Z"/><path class="cls-11" d="M163.75,194.45c.11.1-.33.77-1,1.49s-1.27,1.23-1.38,1.14.34-.76,1-1.49S163.65,194.36,163.75,194.45Z"/><path class="cls-11" d="M168.56,185.32c-.12.08-.71-.61-1.61-1.24s-1.74-.94-1.71-1.09,1,0,2,.67S168.68,185.25,168.56,185.32Z"/><path class="cls-11" d="M176.66,184.79c.12.08-.31.86-.95,1.73s-1.25,1.51-1.37,1.43.31-.86.95-1.74S176.55,184.7,176.66,184.79Z"/><path class="cls-11" d="M177.43,180.47a6.87,6.87,0,0,1-1.22-2.37,6.72,6.72,0,0,1-.73-2.56,7.12,7.12,0,0,1,1.22,2.37A6.76,6.76,0,0,1,177.43,180.47Z"/><path class="cls-11" d="M183.7,174.2c-.12-.08.39-1,1.12-2s1.43-1.76,1.55-1.67a5.22,5.22,0,0,1-1.13,2C184.51,173.54,183.82,174.29,183.7,174.2Z"/><path class="cls-11" d="M190.5,176.79a9.53,9.53,0,0,1-2.16-.06,9.49,9.49,0,0,1-2.17,0,3.27,3.27,0,0,1,2.18-.48A3.23,3.23,0,0,1,190.5,176.79Z"/></g></g></svg>