<svg xmlns="http://www.w3.org/2000/svg" viewBox="0 0 396.49 457.44"><defs><style>.cls-1{fill:#fff;}.cls-2{fill:#263238;}.cls-3,.cls-8{fill:#5b3296;}.cls-11,.cls-4,.cls-5{fill:#9a80fa;}.cls-5{stroke:#000;stroke-width:0.5px;}.cls-10,.cls-11,.cls-5,.cls-8{stroke-miterlimit:10;}.cls-6{opacity:0.2;}.cls-7{opacity:0.3;}.cls-10,.cls-11,.cls-8{stroke:#272425;stroke-width:0.25px;}.cls-9{fill:#fafafa;}.cls-10{fill:#effffc;}.cls-12{fill:#455a64;}.cls-13{fill:#e0e0e0;}.cls-14{fill:#ff725e;}.cls-15{fill:#ffbf9d;}.cls-16{fill:#ff9a6c;}</style></defs><g id="Capa_2" data-name="Capa 2"><g id="Character"><path class="cls-1" d="M362.36,72.66l-7,2.77a20.52,20.52,0,0,0-12.63-3.23c-13.08,1-23,14.45-22.16,30s12.13,27.42,25.21,26.42,23-14.46,22.17-30A31.15,31.15,0,0,0,362,81.72h0Z"/><path class="cls-2" d="M362.36,72.66s0,.18,0,.56,0,1,0,1.72c0,1.56-.1,3.84-.18,6.79a.11.11,0,0,1-.1.11l-.05,0h0l.12-.17A30.39,30.39,0,0,1,367.51,94a33.58,33.58,0,0,1,.51,9.09,32.72,32.72,0,0,1-2.33,9.92,28.4,28.4,0,0,1-5.81,9,23.24,23.24,0,0,1-9,5.87,20.06,20.06,0,0,1-10.91.63,21.85,21.85,0,0,1-10.42-5.56l-1.15-1.11-1.06-1.21-.53-.61-.47-.66-.95-1.32a31.23,31.23,0,0,1-2.95-5.86,34,34,0,0,1-2.12-12.83A33.18,33.18,0,0,1,323,87.42a28.24,28.24,0,0,1,6-8.88A21.68,21.68,0,0,1,344.05,72a20.69,20.69,0,0,1,11.34,3.36h-.08l5.27-2,1.34-.5c.29-.11.44-.15.44-.15l-.47.2-1.35.56-5.17,2.12a.09.09,0,0,1-.07,0,20.78,20.78,0,0,0-11.24-3.21,21.57,21.57,0,0,0-14.88,6.57,28,28,0,0,0-5.86,8.76,32.27,32.27,0,0,0-2.59,11.7,33.13,33.13,0,0,0,2.09,12.59,30.39,30.39,0,0,0,2.9,5.75l.93,1.29.46.65.52.59,1,1.2,1.13,1.08a20.63,20.63,0,0,0,20.93,4.86,22.78,22.78,0,0,0,8.87-5.74,27.83,27.83,0,0,0,5.75-8.81,31.89,31.89,0,0,0,2.32-9.76,32.82,32.82,0,0,0-.45-9A30.54,30.54,0,0,0,362,81.79a.12.12,0,0,1,0-.16.08.08,0,0,1,.12,0h0l-.15.09c.12-2.91.22-5.16.29-6.7,0-.76.06-1.34.08-1.75S362.36,72.66,362.36,72.66Z"/><path class="cls-1" d="M396.49,190.64l-6.57-7a38.05,38.05,0,0,0-5-18c-8.81-15.24-26.68-19.11-39.45-8.57-13.12,10.84-16.24,32.67-6.4,48.15,8.35,13.13,23.75,17.14,35.91,9.32a32.81,32.81,0,0,0,13.44-18.92v0Z"/><path class="cls-2" d="M396.49,190.64l-.5.32-1.53,1-6,3.78-.11.07v-.17l.14,0a35.15,35.15,0,0,1-7.53,14,29.07,29.07,0,0,1-3.45,3.27,30.33,30.33,0,0,1-4.12,2.73,24.75,24.75,0,0,1-10,3,24.31,24.31,0,0,1-11.22-1.84,28.23,28.23,0,0,1-10.41-7.63,34.79,34.79,0,0,1-7-13,39.22,39.22,0,0,1-1.35-16.1c0-.34.09-.69.13-1l.36-2.05.42-2,.29-1c.2-.65.39-1.3.59-1.94s.48-1.25.71-1.87a18.44,18.44,0,0,1,.78-1.82,31.52,31.52,0,0,1,1.83-3.4,31,31,0,0,1,9.85-10.2,25.1,25.1,0,0,1,11.87-3.79A24.43,24.43,0,0,1,371.51,153a28.23,28.23,0,0,1,8.86,6.31,35.55,35.55,0,0,1,3.29,4,45.85,45.85,0,0,1,2.51,4.32A38.62,38.62,0,0,1,390,183.63l0-.06,4.88,5.27,1.23,1.34c.28.3.41.46.41.46l-.44-.46-1.28-1.33-4.9-5.15,0,0v0a38.62,38.62,0,0,0-3.88-15.8,45.19,45.19,0,0,0-2.5-4.28,34.88,34.88,0,0,0-3.27-4,27.8,27.8,0,0,0-8.79-6.22,24.22,24.22,0,0,0-11.12-2,24.87,24.87,0,0,0-11.73,3.76,30.79,30.79,0,0,0-9.73,10.09,32.77,32.77,0,0,0-1.81,3.37,17,17,0,0,0-.76,1.8c-.23.61-.5,1.21-.71,1.84l-.57,1.92-.29,1-.21,1-.42,2c-.1.68-.18,1.36-.27,2A38.66,38.66,0,0,0,335.12,196,34.41,34.41,0,0,0,342,208.85a28,28,0,0,0,10.28,7.56,24,24,0,0,0,11.1,1.85,24.48,24.48,0,0,0,9.88-2.94,30.85,30.85,0,0,0,4.1-2.69,29.32,29.32,0,0,0,3.43-3.23,35.1,35.1,0,0,0,7.54-13.81l.18-.6,0,.63v0l-.1-.08,6-3.66,1.56-1Z"/><path class="cls-3" d="M374.94,197a2.26,2.26,0,0,0,2-2.44,2.78,2.78,0,0,0-.35-1.36,10.06,10.06,0,0,0,2.64-6.77c0-5.83-5.08-10.56-11.35-10.56s-11.36,4.73-11.36,10.56S361.65,197,367.92,197a12,12,0,0,0,5.25-1.2A2,2,0,0,0,374.94,197Z"/><path class="cls-3" d="M375.84,198.4a1.6,1.6,0,1,0,1.32,1.57A1.46,1.46,0,0,0,375.84,198.4Z"/><path class="cls-3" d="M374.52,202.9a1.1,1.1,0,1,0,.9,1.08A1,1,0,0,0,374.52,202.9Z"/><path class="cls-4" d="M355.12,163.52c-6.27,0-11.36,4.73-11.36,10.56a10.06,10.06,0,0,0,2.64,6.77,2.78,2.78,0,0,0-.35,1.36,2.27,2.27,0,0,0,2.05,2.44,2,2,0,0,0,1.76-1.2,12.06,12.06,0,0,0,5.26,1.2c6.27,0,11.35-4.73,11.35-10.57S361.39,163.52,355.12,163.52Z"/><path class="cls-4" d="M348.52,187.64a1.35,1.35,0,1,0-1.33,1.58A1.47,1.47,0,0,0,348.52,187.64Z"/><path class="cls-4" d="M348.52,190.57a1.1,1.1,0,1,0,.9,1.08A1,1,0,0,0,348.52,190.57Z"/><path class="cls-1" d="M373.81,308.49l-.6-12.15a42,42,0,0,0,8.25-19.65c3.21-21.1-8.81-41.67-26.53-45.44-18.21-3.88-35.74,11-38.27,33.32-2.15,18.91,7.76,37.19,23.11,42.61a28,28,0,0,0,24-2.45h0Z"/><path class="cls-2" d="M373.81,308.49l-.64-.22-1.91-.69-7.52-2.74-.14,0,.11-.12v0l.09.17A28.54,28.54,0,0,1,348.06,309a26.06,26.06,0,0,1-5.07-.67,31.17,31.17,0,0,1-5.27-1.78,31.93,31.93,0,0,1-10.24-7.23,39.42,39.42,0,0,1-8-12.43,45.88,45.88,0,0,1-3.32-16.41,45.27,45.27,0,0,1,3.18-17.5,38,38,0,0,1,9.93-14.55l.82-.72,1.71-1.34,1.71-1.22.91-.52,1.81-1c.61-.32,1.25-.56,1.87-.84A14.38,14.38,0,0,1,340,232a26.51,26.51,0,0,1,3.84-1,28.3,28.3,0,0,1,15.08,1.21,32.36,32.36,0,0,1,12.35,8.45,39.63,39.63,0,0,1,7.79,12.66A45.07,45.07,0,0,1,382,267.07a50.7,50.7,0,0,1-.07,6.54,59.27,59.27,0,0,1-.91,6,41.44,41.44,0,0,1-7.78,16.81l0-.08c.17,4,.3,7,.39,9.08,0,1,.07,1.78.1,2.31s0,.77,0,.77,0-.28-.05-.81-.08-1.32-.14-2.34c-.11-2-.28-5.07-.49-9v-.05l0,0a41.5,41.5,0,0,0,7.65-16.75,58.18,58.18,0,0,0,.88-5.95,49.69,49.69,0,0,0,.05-6.47,44.81,44.81,0,0,0-3-13.66,39.44,39.44,0,0,0-7.73-12.51,31.93,31.93,0,0,0-12.22-8.32,28,28,0,0,0-14.91-1.19,25.84,25.84,0,0,0-3.79,1,14.69,14.69,0,0,0-1.86.74c-.61.27-1.24.51-1.85.82l-1.79,1-.89.51-.86.61-1.71,1.23c-.55.45-1.08.94-1.62,1.41a37.51,37.51,0,0,0-9.82,14.36,44.86,44.86,0,0,0-3.15,17.31,45.38,45.38,0,0,0,3.27,16.22A38.88,38.88,0,0,0,327.7,299a31.79,31.79,0,0,0,10.13,7.2A30.58,30.58,0,0,0,343,308a26.52,26.52,0,0,0,5,.69,28.48,28.48,0,0,0,15.67-4l.55-.32-.46.48v0l0-.17,7.43,2.83,1.93.74Z"/><path class="cls-4" d="M332.57,276.21a3.7,3.7,0,0,0,1.76-.44,1.79,1.79,0,0,1,.59-.2l0,10.54a1.32,1.32,0,0,0,1.17,1.41l9.2,0v-1.24a2.6,2.6,0,0,0-.14-.84,5.47,5.47,0,0,1-.28-1.74c0-2.63,1.85-4.75,4.08-4.64,2,.11,3.6,2,3.73,4.34a5.41,5.41,0,0,1-.36,2.3,2.44,2.44,0,0,0-.2,1v.88l9.32.07a1.6,1.6,0,0,0,1.45-1.72l0-9.78h.85a4.35,4.35,0,0,0,2.8,1.1c2.64,0,4.77-2.53,4.78-5.66s-2.11-5.68-4.75-5.69a4.05,4.05,0,0,0-2.36.74,1.29,1.29,0,0,1-.39,0H363l0-10.91a1.62,1.62,0,0,0-1.45-1.73L336.15,254a1.3,1.3,0,0,0-1.18,1.4l0,11.1a1.69,1.69,0,0,1-.46-.2,3.73,3.73,0,0,0-2.64-.45,4.93,4.93,0,0,0-3.59,4.55C328,273.53,330,276.2,332.57,276.21Z"/><path class="cls-4" d="M350.74,92.26c0,4.74-2.61,8.59-6.59,8.59s-6.6-3.85-6.6-8.59,2.62-8.59,6.6-8.59S350.74,87.52,350.74,92.26Z"/><path class="cls-4" d="M355.12,111.92c0,2.53-3.26,3.4-11,3.4s-11-.87-11-3.4c0-5.53,2.44-9.46,7.17-11.25a6.47,6.47,0,0,0,7.59,0C352.68,102.46,355.12,106.39,355.12,111.92Z"/><path class="cls-1" d="M270.5,0l-2.21,12.21a38.16,38.16,0,0,0-12.4,16.06c-8.39,19.77-1.74,43.91,14.85,53.9S307.58,84.25,316,64.48s1.75-43.91-14.85-53.9A28.73,28.73,0,0,0,279.56,7h0Z"/><path class="cls-2" d="M270.5,0l.58.42,1.73,1.31,6.81,5.16a.12.12,0,0,1,0,.16l0,0h0l-.06-.22a28.53,28.53,0,0,1,16.54,1.06,29.76,29.76,0,0,1,4.86,2.32,37.24,37.24,0,0,1,4.8,3.48,37.67,37.67,0,0,1,8.47,10.51,44.93,44.93,0,0,1,5,14.9,48.26,48.26,0,0,1-.49,17.32,43.16,43.16,0,0,1-7.18,16.29A34.09,34.09,0,0,1,298.37,83.9c-.65.29-1.3.6-1.95.87l-2,.66-1,.33-1,.22-2,.43c-.68.11-1.36.14-2,.21a13.83,13.83,0,0,1-2,.12,27.14,27.14,0,0,1-4-.25,31,31,0,0,1-14.64-6.14A38.16,38.16,0,0,1,257.34,68a45.61,45.61,0,0,1-4.79-15.07,47.74,47.74,0,0,1,.27-14.62,50.54,50.54,0,0,1,1.57-6.44,57.39,57.39,0,0,1,2.28-5.63,37.45,37.45,0,0,1,11.57-14.08l0,.07c.74-4,1.32-7,1.71-9.1.19-1,.33-1.78.44-2.32s.15-.76.15-.76,0,.29-.13.82-.23,1.33-.41,2.35c-.36,2.07-.89,5.11-1.57,9.06a.13.13,0,0,1-.05.07,37.62,37.62,0,0,0-11.41,14.07A58.09,58.09,0,0,0,254.69,32a51.77,51.77,0,0,0-1.54,6.38,47.4,47.4,0,0,0-.22,14.46,45,45,0,0,0,4.76,14.89,37.63,37.63,0,0,0,10.16,12.22,30.62,30.62,0,0,0,14.46,6,25.18,25.18,0,0,0,4,.25,13.56,13.56,0,0,0,2-.12c.67-.07,1.34-.1,2-.21l2-.42,1-.22,1-.32,2-.65c.64-.27,1.28-.58,1.92-.87a33.6,33.6,0,0,0,13-11,42.56,42.56,0,0,0,7.09-16.07,47.51,47.51,0,0,0,.51-17.1,44.77,44.77,0,0,0-4.92-14.75A36.66,36.66,0,0,0,300.8,10.6,30.17,30.17,0,0,0,296,8.28a28.52,28.52,0,0,0-16.42-1.17.1.1,0,0,1-.11-.09.12.12,0,0,1,.05-.13h0v.2l-6.69-5.23L271.09.48Z"/><path class="cls-5" d="M290.05,78.81,265.38,66.35a4.31,4.31,0,0,1-1.78-5.24l14.47-40.69c.72-2,2.69-3,4.39-2.12l15.65,7.9,6.82,21-10.48,29.5C293.72,78.72,291.76,79.67,290.05,78.81Z"/><path class="cls-5" d="M298.11,26.2,294,37.65a4,4,0,0,0,1.65,4.87l9.24,4.67Z"/><g class="cls-6"><path class="cls-5" d="M293.81,38.72a4.68,4.68,0,0,0,1.22,5,3.08,3.08,0,0,0,.27.24c1.12.86,8.46,6.56,8.54,6.34s1.09-3.08,1.09-3.08l-9.24-4.66A3.86,3.86,0,0,1,293.81,38.72Z"/></g><g class="cls-7"><path class="cls-5" d="M298.11,26.2,294,37.65a4,4,0,0,0,1.65,4.87l9.24,4.67Z"/></g><path class="cls-5" d="M292.13,36.14a35.47,35.47,0,0,1-5.8-2.61,37.07,37.07,0,0,1-5.61-3.15,35.47,35.47,0,0,1,5.8,2.61A37.47,37.47,0,0,1,292.13,36.14Z"/><path class="cls-5" d="M297.2,46.34a97,97,0,0,1-9.48-4.48,98.07,98.07,0,0,1-9.3-5,100.69,100.69,0,0,1,9.49,4.48A98.61,98.61,0,0,1,297.2,46.34Z"/><path class="cls-5" d="M297,52.6c-.05.15-4.68-2.05-10.33-4.9s-10.2-5.29-10.15-5.44,4.68,2.05,10.34,4.9S297,52.45,297,52.6Z"/><path class="cls-5" d="M295.16,57.7c-.05.15-4.68-2.05-10.33-4.9s-10.2-5.29-10.15-5.44,4.68,2,10.34,4.91S295.21,57.55,295.16,57.7Z"/><path class="cls-5" d="M293.35,62.8c-.06.15-4.68-2-10.34-4.9s-10.19-5.29-10.14-5.44,4.68,2,10.33,4.91S293.4,62.65,293.35,62.8Z"/><path class="cls-5" d="M291.53,67.9A112.79,112.79,0,0,1,281.2,63c-5.66-2.85-10.2-5.29-10.15-5.43a112.17,112.17,0,0,1,10.34,4.9C287,65.32,291.58,67.76,291.53,67.9Z"/><path class="cls-8" d="M193.63,26.9c-28.89-14.56-64.93-15.28-94.31-2.17C19.78,60.21,27.51,172.44,27.51,172.44S5.42,240.49,1.06,251.23A10,10,0,0,0,.33,255h0c0,4.67,3.18,8.46,7.1,8.46H30.74s-.64,45.49,0,65.54,20.71,21.59,20.71,21.59l42.06-3.09L81.77,456.28H246.42L228.5,306.74l27.27-107.66a199.83,199.83,0,0,0,6.31-39.15C266.54,82.13,223.91,42.15,193.63,26.9Z"/><path class="cls-8" d="M193.63,26.9c-28.89-14.56-64.93-15.28-94.31-2.17C19.78,60.21,27.51,172.44,27.51,172.44S5.42,240.49,1.06,251.23A10,10,0,0,0,.33,255h0c0,4.67,3.18,8.46,7.1,8.46H30.74s-.64,45.49,0,65.54,20.71,21.59,20.71,21.59l42.06-3.09L81.77,456.28H246.42L228.5,306.74l27.27-107.66a199.83,199.83,0,0,0,6.31-39.15C266.54,82.13,223.91,42.15,193.63,26.9Z"/><path class="cls-8" d="M193.63,26.9s.39.18,1.14.57,1.88,1,3.33,1.79a113.75,113.75,0,0,1,12.53,8.13c1.35,1,2.71,2.09,4.17,3.23s2.95,2.43,4.47,3.83a116.67,116.67,0,0,1,9.64,9.64,125.75,125.75,0,0,1,19.46,29,140.33,140.33,0,0,1,12.76,43.46,185.94,185.94,0,0,1-1.28,54.35q-1.2,7.18-3,14.45T253.18,210q-3.78,14.88-7.76,30.63-8,31.48-16.74,66.14v-.1c5.46,45.52,11.53,96.05,17.95,149.54l0,.29h-.25l-164.65,0h-.26l0-.31c.38-3.49.79-7.28,1.2-11.08,3.58-33.2,7.11-65.85,10.55-97.73l.23.3-42.06,3.08h0a27,27,0,0,1-10.59-3.54,20.34,20.34,0,0,1-8.08-8.64,22.11,22.11,0,0,1-1.9-6.1,46.47,46.47,0,0,1-.41-6.43c-.1-4.27-.15-8.53-.18-12.76-.09-16.95.05-33.59.26-49.93l.21.26H7.5a6.93,6.93,0,0,1-1.8-.26,6.94,6.94,0,0,1-3.17-2,9.71,9.71,0,0,1-2.32-7.76A9.89,9.89,0,0,1,.7,251.6l.72-1.9c.49-1.25.93-2.52,1.39-3.78,1.8-5.06,3.53-10.12,5.22-15.14,6.78-20.09,13.17-39.62,19.3-58.43v.1a213.33,213.33,0,0,1,1.22-32.95c.58-5.34,1.41-10.56,2.31-15.7s2-10.15,3.37-15A168.69,168.69,0,0,1,44,81.31a128.44,128.44,0,0,1,13.58-23A112.86,112.86,0,0,1,74,40.6l4.38-3.55c.71-.61,1.48-1.11,2.22-1.64l2.24-1.55L85,32.32c.74-.5,1.51-.91,2.26-1.37l4.48-2.64c1.51-.8,3-1.5,4.52-2.25s3-1.51,4.47-2.07,3-1.24,4.43-1.8l4.41-1.52c1.44-.53,2.91-.85,4.34-1.28s2.85-.82,4.27-1.1l4.19-.93,4.11-.68,2-.33,2-.22,3.91-.43,3.81-.22c1.25-.07,2.48-.16,3.7-.13,2.43,0,4.78-.07,7,.1l3.35.16c1.1.07,2.17.21,3.23.31a117.47,117.47,0,0,1,21.17,4.18,114.38,114.38,0,0,1,12.67,4.78c2.8,1.32,4.23,2,4.23,2L189.38,25a117.79,117.79,0,0,0-12.68-4.72,117,117,0,0,0-21.16-4.11c-1-.1-2.12-.24-3.22-.3L149,15.66c-2.26-.16-4.61-.09-7-.08-1.21,0-2.44.06-3.69.14l-3.81.22-3.9.44-2,.22-2,.33-4.1.69-4.18.94c-1.42.28-2.83.69-4.26,1.1s-2.9.75-4.34,1.29l-4.39,1.52c-1.47.56-2.94,1.19-4.43,1.8s-3,1.36-4.45,2.08-3,1.45-4.51,2.25L87.4,31.24c-.75.45-1.52.86-2.26,1.37l-2.21,1.53L80.71,35.7a26.3,26.3,0,0,0-2.22,1.63c-1.44,1.17-2.9,2.35-4.36,3.55A112.68,112.68,0,0,0,57.79,58.53a128.05,128.05,0,0,0-13.52,23,168.6,168.6,0,0,0-9.72,27.41c-1.33,4.86-2.36,9.89-3.36,15s-1.71,10.34-2.29,15.66a212.51,212.51,0,0,0-1.2,32.87v.05l0,.05C21.56,191.33,15.18,210.86,8.41,231,6.71,236,5,241,3.18,246.11c-.46,1.26-.9,2.54-1.39,3.79a15.46,15.46,0,0,0-1.17,3.82A9.14,9.14,0,0,0,2.81,261a6.52,6.52,0,0,0,3,1.89,12.45,12.45,0,0,0,3.47.24H31v.25c-.2,16.33-.34,33-.24,49.91,0,4.24.07,8.49.18,12.75a46,46,0,0,0,.4,6.35,21.63,21.63,0,0,0,1.85,5.94A19.92,19.92,0,0,0,41,346.8a26.68,26.68,0,0,0,10.42,3.48h0L93.5,347.2l.27,0,0,.32c-3.44,31.88-7,64.52-10.54,97.73-.41,3.8-.82,7.58-1.19,11.08l-.23-.3H246.42l-.21.29c-6.4-53.49-12.45-104-17.9-149.54v-.1l16.77-66.13q4-15.73,7.78-30.63,1.88-7.44,3.71-14.67t3-14.41a185.54,185.54,0,0,0,1.32-54.23,140.46,140.46,0,0,0-12.68-43.38,126.17,126.17,0,0,0-19.38-29,118.41,118.41,0,0,0-9.62-9.65c-1.52-1.41-3-2.64-4.46-3.84s-2.81-2.28-4.15-3.24a119.85,119.85,0,0,0-12.49-8.19c-1.45-.84-2.57-1.42-3.32-1.82Z"/><path class="cls-9" d="M196.52,456.28s-10.21-85.94-11.77-94.93c-3.74-21.58-14-22.89-20.06-30.28s-13.29-13.78-17.46-22.86a42.07,42.07,0,0,1-.76-32.11c4-10,12.21-17.54,21.39-19.56,14.93-3.28,31.54,7,44.9-1.57,8-5.13,12.32-15.68,15.65-25.76,9.51-28.71,15.3-59.67,13.05-90.41S228.32,77.54,208.7,57.4A85.47,85.47,0,0,0,132.46,33C105.61,37.7,85.36,51.25,66,73.91c-9.35,10.94-20.94,37.46-18.75,52.86,4.1,28.83,39.89,27.91,44.2,56.69,2.72,18.19-10.41,33.23-21.63,46C59.14,241.56,57.1,251.6,57.1,251.6a63.33,63.33,0,0,0,.67,42c5,13.11,14.64,23.59,26.07,28.29,9.38,3.86,17.49,3,26.8,7.16s13.7,13.83,13.86,25.66c.16,11.61-2.71,102.72-2.71,102.72Z"/><path class="cls-10" d="M139.62,360.51a21.48,21.48,0,0,1,4.43-3.93l-.12-6.1,8.21-2.46,2.32,5.44a17.58,17.58,0,0,1,5.46,1l3.53-4.42,7.27,5.18-1.59,5.8a24.68,24.68,0,0,1,3.3,5.28l5.11-.15,2.07,9.79-4.56,2.76a29.3,29.3,0,0,1-.81,6.51l3.71,4.21L173.6,398l-4.86-1.89a22,22,0,0,1-4.43,3.92l.12,6.1-8.22,2.46-2.31-5.44a17.93,17.93,0,0,1-5.47-.95l-3.53,4.41-7.27-5.18,1.59-5.79a25,25,0,0,1-3.29-5.29l-5.12.15-2.07-9.79,4.57-2.76a29.43,29.43,0,0,1,.8-6.51l-3.7-4.2,4.34-8.67,4.87,1.9Zm7,11.87c-2.58,5.13-1.17,11.78,3.13,14.85s9.89,1.39,12.46-3.74,1.17-11.78-3.13-14.85S149.15,367.25,146.58,372.38Z"/><path class="cls-10" d="M81.1,262.53A27.39,27.39,0,0,1,85.74,257l-1-7.16L94,245.22l3.53,5.92a20.68,20.68,0,0,1,6.57,0l3.51-5.94,9.32,4.59-1,7.15a27.84,27.84,0,0,1,4.65,5.53l6-1.23,3.87,11.09-5,4.2a35.34,35.34,0,0,1,0,7.83l5,4.18-3.85,11.11-6-1.22A27.78,27.78,0,0,1,116,304l1,7.15-9.31,4.61-3.52-5.92a20.75,20.75,0,0,1-6.58,0l-3.51,5.94-9.32-4.58,1-7.16a27.28,27.28,0,0,1-4.66-5.53l-6,1.24-3.87-11.1,5-4.2a34.17,34.17,0,0,1,0-7.83l-5-4.18,3.84-11.11,6,1.22ZM91,275.06c-2.28,6.58.35,14.11,5.88,16.82s11.84-.41,14.12-7-.35-14.12-5.87-16.83S93.31,268.48,91,275.06Z"/><path class="cls-10" d="M124.25,313.61a13,13,0,0,1,2.19-2.61l-.49-3.37,4.39-2.18,1.66,2.8a9.48,9.48,0,0,1,3.1,0l1.65-2.8,4.39,2.16-.48,3.37a12.81,12.81,0,0,1,2.19,2.61l2.83-.58,1.83,5.23-2.35,2a16.26,16.26,0,0,1,0,3.69l2.35,2-1.82,5.23-2.83-.57a13,13,0,0,1-2.18,2.61l.49,3.37-4.39,2.18-1.66-2.79a9.77,9.77,0,0,1-3.1,0l-1.65,2.8-4.4-2.16.48-3.37a13.13,13.13,0,0,1-2.19-2.61l-2.83.58-1.82-5.22,2.34-2a17,17,0,0,1,0-3.7l-2.34-2,1.81-5.23,2.83.57Zm4.68,5.91c-1.07,3.1.17,6.65,2.77,7.93s5.58-.2,6.66-3.3-.17-6.65-2.77-7.93S130,316.42,128.93,319.52Z"/><path class="cls-10" d="M186.8,441.9l-6.67,1.38a30.67,30.67,0,0,0-5.17-6.15l1.14-7.95-10.36-5.09-3.9,6.59a23.21,23.21,0,0,0-7.3,0l-3.92-6.58-10.34,5.12,1.16,7.95a30.83,30.83,0,0,0-5.16,6.16L129.61,442l-4.27,12.34,2.31,1.94,20.23-.42c2.53-7.3,10.34-8.54,15.13-6.37a11.18,11.18,0,0,1,6,6.79h20.66l1.45-2Z"/><path class="cls-10" d="M132.27,246.48a11.2,11.2,0,0,1,1.83-2.19l-.41-2.82,3.67-1.82,1.39,2.34a8.33,8.33,0,0,1,2.59,0l1.38-2.34,3.68,1.81-.4,2.82a11.32,11.32,0,0,1,1.83,2.18l2.37-.48,1.52,4.37-2,1.66a13.79,13.79,0,0,1,0,3.08l2,1.65-1.51,4.38-2.37-.48a10.91,10.91,0,0,1-1.83,2.19l.41,2.82-3.67,1.82-1.39-2.34a8.1,8.1,0,0,1-2.6,0l-1.38,2.34-3.67-1.81.4-2.82a11.07,11.07,0,0,1-1.84-2.18l-2.36.49-1.53-4.38,2-1.65a13.31,13.31,0,0,1,0-3.09l-2-1.65L129.9,246l2.37.48Zm3.91,4.94c-.89,2.59.14,5.56,2.32,6.63s4.67-.16,5.57-2.76-.14-5.56-2.32-6.63S137.08,248.82,136.18,251.42Z"/><path class="cls-11" d="M196.52,456.28l-74.52.14h-.12v-.15c.41-14.94.87-31.67,1.37-50q.34-13.75.71-28.69.15-7.47.31-15.21c0-5.15.37-10.46-.65-15.66A26.35,26.35,0,0,0,116.94,333c-3.5-3.65-8.13-5.35-12.75-6.6s-9.51-1.75-14.34-3a41.61,41.61,0,0,1-14-6.33,48.61,48.61,0,0,1-11.74-11.81A54.71,54.71,0,0,1,56.25,289a63.94,63.94,0,0,1,.66-38.19v0a38.16,38.16,0,0,1,2.73-7.34,61.16,61.16,0,0,1,3.78-6.71,72.1,72.1,0,0,1,4.49-6.14c1.61-1.95,3.29-3.81,4.94-5.73a136.73,136.73,0,0,0,9.54-12.06,57.89,57.89,0,0,0,7.37-14.25,39.15,39.15,0,0,0,1.07-4c.13-.69.28-1.37.4-2.07l.22-2.1c0-.36.08-.71.1-1.06v-3.19l-.2-2.12a14.87,14.87,0,0,0-.29-2.11,30.46,30.46,0,0,0-7-14.82c-3.46-4.12-7.66-7.28-11.9-10.32s-8.67-5.9-12.77-9.42a44.75,44.75,0,0,1-5.79-5.88,31.31,31.31,0,0,1-4.43-7.43A31.87,31.87,0,0,1,47,125.28c-.06-.77-.14-1.54-.18-2.31l0-2.31a19.59,19.59,0,0,1,.15-2.3c.08-.77.12-1.54.23-2.3A85.65,85.65,0,0,1,51.89,98.4,106.89,106.89,0,0,1,59.6,82.08a67.93,67.93,0,0,1,4.91-7.41L65.89,73l1.43-1.63c1-1.08,1.9-2.21,2.9-3.25A144,144,0,0,1,82.61,56a115.67,115.67,0,0,1,13.68-10.2,98.9,98.9,0,0,1,14.93-7.68c2.14-.94,4.34-1.66,6.52-2.44l3.3-1,1.65-.49,1.67-.42a103.44,103.44,0,0,1,13.39-2.52c2.25-.16,4.49-.47,6.74-.47l3.37-.08,3.36.11,1.68.06,1.67.15,3.34.31,3.32.5,1.65.25,1.65.34,3.28.7c1.08.28,2.16.59,3.24.89,2.17.53,4.27,1.36,6.4,2.06a86.82,86.82,0,0,1,23.64,13.41l2.65,2.25c.44.38.89.74,1.32,1.14l1.26,1.21,2.52,2.43,2.39,2.6,1.19,1.3,1.13,1.37,2.24,2.75,2.11,2.89,1,1.44,1,1.5,2,3,1.83,3.11.91,1.56c.29.52.56,1.07.85,1.6l1.67,3.21a140.78,140.78,0,0,1,10,27.35,163.82,163.82,0,0,1,4.55,28.72,197.18,197.18,0,0,1-.21,28.57,241.38,241.38,0,0,1-3.9,27.48c-1.8,8.93-4.06,17.58-6.59,26s-5.12,16.71-9.34,23.85a38,38,0,0,1-3.51,5,25.32,25.32,0,0,1-4.26,4,22.54,22.54,0,0,1-10.07,4,41.58,41.58,0,0,1-10.46-.1c-3.44-.4-6.82-1-10.18-1.47a59.61,59.61,0,0,0-10-.7l-2.47.17-2.44.4a23.13,23.13,0,0,0-4.71,1.46,31.57,31.57,0,0,0-14.82,13.65A36.75,36.75,0,0,0,144.9,281a42.59,42.59,0,0,0,.46,20.91,38.75,38.75,0,0,0,3.89,9.09c3.25,5.53,7.41,10,11.31,14.35,1,1.09,1.95,2.19,2.9,3.29s1.86,2.25,2.85,3.23c2,2,4.22,3.56,6.28,5.32a31.78,31.78,0,0,1,5.62,5.9,34.38,34.38,0,0,1,3.92,7.26,68.11,68.11,0,0,1,3.54,15.79c.69,5.19,1.31,10.19,1.91,15,1.16,9.58,2.23,18.33,3.19,26.2,1.87,15.76,3.32,28,4.3,36.29.48,4.14.85,7.31,1.1,9.44s.33,3,.35,3.22c-.08-.74-2.11-17.47-5.93-48.92l-3.23-26.2q-.92-7.17-1.93-15a67.39,67.39,0,0,0-3.53-15.71A34.63,34.63,0,0,0,178,343.3a32.52,32.52,0,0,0-5.58-5.84c-2.06-1.74-4.28-3.33-6.31-5.32-1-1-1.93-2.14-2.87-3.24s-1.91-2.2-2.89-3.29c-3.91-4.38-8.09-8.81-11.38-14.39a39.14,39.14,0,0,1-3.92-9.18,43,43,0,0,1-.49-21.13,37,37,0,0,1,3.89-10.05,31.86,31.86,0,0,1,15-13.81,23.76,23.76,0,0,1,4.77-1.49l2.47-.4,2.49-.17a60,60,0,0,1,10.07.68c6.71.89,13.58,2.5,20.55,1.56a22.09,22.09,0,0,0,9.92-3.9,24.91,24.91,0,0,0,4.19-3.92,38,38,0,0,0,3.46-4.9c4.18-7.06,6.69-15.42,9.28-23.75s4.78-17,6.57-25.92a241,241,0,0,0,3.88-27.42,197.36,197.36,0,0,0,.21-28.48,163.52,163.52,0,0,0-4.54-28.61,140.9,140.9,0,0,0-10-27.23l-1.67-3.2c-.28-.53-.55-1.07-.84-1.59l-.91-1.55-1.81-3.1-2-3-1-1.5-1.05-1.43-2.1-2.87-2.23-2.73-1.12-1.37-1.19-1.29-2.37-2.59L206,54.48l-1.25-1.21c-.42-.4-.88-.75-1.31-1.13l-2.64-2.24a86.85,86.85,0,0,0-23.53-13.33c-2.11-.7-4.21-1.53-6.37-2.06-1.07-.29-2.14-.61-3.22-.88l-3.27-.7-1.64-.34-1.64-.25-3.31-.5-3.32-.3-1.67-.15-1.67-.06-3.34-.11-3.35.08c-2.24,0-4.47.31-6.71.47a102.66,102.66,0,0,0-13.34,2.51l-1.66.42-1.65.49-3.29,1c-2.17.78-4.36,1.5-6.5,2.43A99.9,99.9,0,0,0,96.5,46.27,113.62,113.62,0,0,0,82.88,56.43a143,143,0,0,0-12.35,12c-1,1-1.93,2.16-2.89,3.23L66.2,73.33,64.84,75A67.45,67.45,0,0,0,60,82.39,107,107,0,0,0,52.3,98.61a84.43,84.43,0,0,0-4.67,17.53c-.11.75-.16,1.52-.24,2.27a19.21,19.21,0,0,0-.14,2.27l0,2.28c0,.75.12,1.5.18,2.25a31.45,31.45,0,0,0,2.21,8.6A30.38,30.38,0,0,0,54,141.12a43.75,43.75,0,0,0,5.72,5.82c4.07,3.49,8.46,6.35,12.73,9.39a63,63,0,0,1,12,10.4,31.11,31.11,0,0,1,7.08,15.08,15.64,15.64,0,0,1,.29,2.15l.21,2.16v3.25c0,.36-.07.72-.11,1.08l-.22,2.14c-.12.71-.28,1.4-.41,2.1a39.8,39.8,0,0,1-1.08,4.1,58.93,58.93,0,0,1-7.44,14.38,140,140,0,0,1-9.58,12.1c-1.65,1.92-3.33,3.78-4.93,5.71a71.26,71.26,0,0,0-4.47,6.1A61.76,61.76,0,0,0,60,243.73,38.44,38.44,0,0,0,57.29,251v0h0a63.41,63.41,0,0,0-.66,37.86,54.34,54.34,0,0,0,7.8,16.1,48.28,48.28,0,0,0,11.63,11.71A41,41,0,0,0,89.93,323c4.8,1.23,9.65,1.74,14.34,3a40.9,40.9,0,0,1,6.84,2.42,20.66,20.66,0,0,1,6,4.28,26.75,26.75,0,0,1,6.78,14c1,5.28.67,10.61.65,15.76s-.22,10.23-.32,15.21q-.39,14.93-.73,28.69c-.53,18.33-1,35.06-1.43,50l-.11-.14Z"/><path class="cls-11" d="M183.65,137.46c.59-24.5-15.59-44.94-36.15-45.65s-37.71,18.58-38.31,43.08c-.43,17.74,7.94,33.34,20.39,40.87-.13,5.26-.27,11.19-.27,11.19l32.63,1.13s.35-6.28.56-11.88C174.67,169.25,183.23,154.64,183.65,137.46Z"/><path class="cls-1" d="M157.05,187.9s0-.19,0-.55-.07-.92-.12-1.62c-.09-1.43-.22-3.53-.34-6.24-.25-5.42-.5-13.27-.34-23,0-2.42.1-5,.19-7.61.06-1.33.11-2.68.17-4.05a16.2,16.2,0,0,1,.54-4.18,4.71,4.71,0,0,1,1-1.83,2.2,2.2,0,0,1,1.75-.81,2.26,2.26,0,0,1,1.63,1.2,4.76,4.76,0,0,1,.63,2.18,5.57,5.57,0,0,1-1.71,4.12,6,6,0,0,1-3.73,1.72,6.18,6.18,0,0,1-4-1.11,8.52,8.52,0,0,1-2.86-3.66,12.33,12.33,0,0,1-1-5,9.14,9.14,0,0,1,.35-2.59,3.63,3.63,0,0,1,1.38-2.09,1.64,1.64,0,0,1,1.14-.24,2.36,2.36,0,0,1,1.08.49,4.37,4.37,0,0,1,1.36,2.17,10.44,10.44,0,0,1,.39,2.67c0,.9,0,1.8,0,2.71a21.77,21.77,0,0,1-.89,5.37,10.35,10.35,0,0,1-2.65,4.54,6.66,6.66,0,0,1-2.08,1.34,4.57,4.57,0,0,1-2.34.25,4.49,4.49,0,0,1-2.14-1.1,7.25,7.25,0,0,1-1.55-2.06,18.75,18.75,0,0,1-1.63-5c-.18-.87-.32-1.74-.44-2.61a17.75,17.75,0,0,1-.24-2.64,5,5,0,0,1,.61-2.55,2.66,2.66,0,0,1,.85-.91,1.41,1.41,0,0,1,1.15-.14,1.93,1.93,0,0,1,.95.73,4.73,4.73,0,0,1,.59,1.11,10,10,0,0,1,.57,2.48,17.37,17.37,0,0,1-1.28,9.64,8.92,8.92,0,0,1-2.83,3.38,5.2,5.2,0,0,1-3.8,1,5,5,0,0,1-3.26-2.24,7.75,7.75,0,0,1-1.39-4A6.69,6.69,0,0,1,133,145a3.27,3.27,0,0,1,1-1.74,1.29,1.29,0,0,1,.9-.24,1.34,1.34,0,0,1,.81.46,4.13,4.13,0,0,1,.81,1.81,19.24,19.24,0,0,1,.29,3.9c0,1.27,0,2.51.07,3.72.16,9.7.18,17.56.11,23,0,2.72-.1,4.82-.14,6.25,0,.71-.05,1.25-.07,1.62l0,.56v-.56c0-.37,0-.91,0-1.62,0-1.43.07-3.53.09-6.25,0-5.42,0-13.27-.19-23,0-1.22-.06-2.46-.08-3.73a19,19,0,0,0-.29-3.83,4,4,0,0,0-.75-1.69,1,1,0,0,0-1.45-.19,3,3,0,0,0-.95,1.6,6.65,6.65,0,0,0-.19,2.05,7.37,7.37,0,0,0,1.35,3.87,4.84,4.84,0,0,0,3.11,2.15,5,5,0,0,0,3.64-1,8.47,8.47,0,0,0,2.74-3.28,16.94,16.94,0,0,0,1.25-9.45,9.66,9.66,0,0,0-.55-2.39,2.65,2.65,0,0,0-1.38-1.67,1.54,1.54,0,0,0-1.71.93,4.69,4.69,0,0,0-.57,2.38,19,19,0,0,0,.24,2.58c.12.86.26,1.73.44,2.59a18.38,18.38,0,0,0,1.6,4.93,6.8,6.8,0,0,0,1.48,2,4.26,4.26,0,0,0,2,1,5,5,0,0,0,4.21-1.53,10,10,0,0,0,2.57-4.39,21.43,21.43,0,0,0,.87-5.28,16.93,16.93,0,0,0-.36-5.25,4,4,0,0,0-1.26-2,1.65,1.65,0,0,0-2-.24,3.36,3.36,0,0,0-1.25,1.92,8.61,8.61,0,0,0-.34,2.49,12,12,0,0,0,1,4.82,8.17,8.17,0,0,0,2.76,3.54,5.92,5.92,0,0,0,3.85,1.07,5.79,5.79,0,0,0,3.59-1.64,5.3,5.3,0,0,0,1.62-3.88,4.52,4.52,0,0,0-.58-2,2,2,0,0,0-1.45-1.08,2,2,0,0,0-1.59.73,4.58,4.58,0,0,0-1,1.73,15.67,15.67,0,0,0-.53,4.09q-.09,2.07-.18,4-.15,4-.21,7.61c-.18,9.7,0,17.55.25,23,.11,2.71.22,4.81.3,6.23,0,.71.06,1.25.08,1.63S157.05,187.9,157.05,187.9Z"/><path class="cls-2" d="M133.37,174.45a2.51,2.51,0,0,1-.43-.19c-.28-.14-.7-.32-1.22-.61a31.71,31.71,0,0,1-4.24-2.77,36.66,36.66,0,0,1-5.6-5.34,41.56,41.56,0,0,1-5.43-8.22,45.92,45.92,0,0,1-3.5-9.61,47.87,47.87,0,0,1-1.3-8.4,46.84,46.84,0,0,1,0-5.77c0-.68.1-1.2.12-1.56a5,5,0,0,1,.07-.54s0,.19,0,.55-.06.88-.07,1.56a51.3,51.3,0,0,0,1.46,14.08,47,47,0,0,0,3.5,9.52,42.15,42.15,0,0,0,5.38,8.18,37.79,37.79,0,0,0,5.53,5.36,35.76,35.76,0,0,0,4.18,2.85c.51.31.92.5,1.19.66A2.84,2.84,0,0,1,133.37,174.45Z"/><path class="cls-2" d="M113.58,123a9.36,9.36,0,0,1-.38,2.25,8.83,8.83,0,0,1-.65,2.17,9.71,9.71,0,0,1,.39-2.25A9.3,9.3,0,0,1,113.58,123Z"/><path class="cls-2" d="M179.28,147.62a3.86,3.86,0,0,1,.07-.46c.07-.33.15-.77.26-1.32,0-.29.12-.6.19-1s.1-.73.16-1.14c.1-.82.27-1.75.32-2.79.05-.53.09-1.07.13-1.64s0-1.16.05-1.78c0-1.23,0-2.54-.08-3.92a54.69,54.69,0,0,0-1.33-8.83,52.37,52.37,0,0,0-2.86-8.31c-.58-1.19-1.11-2.35-1.71-3.35-.29-.51-.55-1-.84-1.47l-.84-1.3c-.52-.85-1.08-1.52-1.54-2.15-.23-.3-.44-.6-.65-.86l-.59-.67-.81-1a3.57,3.57,0,0,1-.27-.35l.31.3.84.91.61.66c.21.25.43.54.67.84.47.62,1,1.29,1.58,2.13l.86,1.29c.3.45.56,1,.86,1.47.61,1,1.15,2.16,1.74,3.36a51.65,51.65,0,0,1,2.89,8.36,53.32,53.32,0,0,1,1.33,8.9c0,1.39.12,2.71.05,4,0,.62,0,1.22-.06,1.79s-.1,1.12-.15,1.64c-.06,1.05-.24,2-.36,2.8-.07.41-.12.8-.19,1.15s-.15.65-.21.94c-.13.54-.23,1-.31,1.3A2.46,2.46,0,0,1,179.28,147.62Z"/><g class="cls-6"><path class="cls-1" d="M145.75,104.26a7,7,0,0,0-4.34-4.11,10,10,0,0,0-8.84.87c-8.09,4.76-12.77,10.65-15.82,21.3-1,3.61-1.65,9.61-.23,13.22a6.61,6.61,0,0,0,3.56,3.92c4.17,1.59,7.62-3.16,9-7.76,1.32-4.3,1.88-9.17,4.54-12.46,2.2-2.71,5.41-3.79,8.12-5.74S146.87,107.78,145.75,104.26Z"/></g><g class="cls-6"><path class="cls-1" d="M160.72,103c-1.31-2.89-4.73-4.18-6.76-3.17a7,7,0,0,0-3.4,4.84,7.25,7.25,0,0,0,2.29,6.88,4.59,4.59,0,0,0,6.15-.49C160.66,109.37,161.76,105.35,160.72,103Z"/></g><g id="_2gGvdE.tif" data-name="2gGvdE.tif"><path class="cls-12" d="M137.86,209.82a11.26,11.26,0,0,1,2.08,2.32,2.08,2.08,0,0,0,1.71,1l6.56.22a2.11,2.11,0,0,0,1.87-1.09,4.25,4.25,0,0,1,2.29-2Z"/></g><path class="cls-2" d="M131.27,187.79c0,.16,1.23,12.43,1.7,17.12a5.84,5.84,0,0,0,2.61,4.52,3.87,3.87,0,0,0,1.86.55l14.36.49s3.75.12,4.69-3.4c1-3.7,3-18.33,3-18.33Z"/><path class="cls-13" d="M157.44,205.47l-25-.74a.81.81,0,0,1-.7-.87v-.09a.78.78,0,0,1,.73-.83l25,.74a.8.8,0,0,1,.69.87v.09A.79.79,0,0,1,157.44,205.47Z"/><path class="cls-2" d="M157.44,205.47a.81.81,0,0,0,.49-.26,1,1,0,0,0,.21-.7.8.8,0,0,0-.51-.75c-1.36-.07-3.38-.08-5.85-.15l-19.33-.52a.57.57,0,0,0-.5.3.86.86,0,0,0-.1.32,1.06,1.06,0,0,0,0,.36.68.68,0,0,0,.38.48,3.24,3.24,0,0,0,.65,0l2.72.08,5.13.16,8.69.29,5.85.22,1.6.07.41,0c.09,0,.14,0,.14,0h-.55l-1.6,0-5.86-.13-8.69-.22-5.13-.14-2.71-.08h-.35a.89.89,0,0,1-.38-.06,1,1,0,0,1-.54-.67,1.89,1.89,0,0,1,0-.47,1.45,1.45,0,0,1,.14-.46.81.81,0,0,1,.71-.42l19.33.61c2.47.09,4.46.13,5.86.24a.9.9,0,0,1,.56.85,1,1,0,0,1-.25.76A.58.58,0,0,1,157.44,205.47Z"/><path class="cls-13" d="M158.06,201.63,132,200.87a.8.8,0,0,1-.69-.87v-.1a.78.78,0,0,1,.73-.82l26.08.76a.8.8,0,0,1,.69.87v.1A.78.78,0,0,1,158.06,201.63Z"/><path class="cls-2" d="M158.06,201.63a.72.72,0,0,0,.51-.27,1,1,0,0,0,.19-.74.76.76,0,0,0-.59-.71l-6.08-.14L132,199.22a.57.57,0,0,0-.52.33,1,1,0,0,0-.09.34,1.11,1.11,0,0,0,0,.37.66.66,0,0,0,.44.45c.19,0,.46,0,.69,0l2.82.08,5.33.17,9,.3,6.08.22,1.66.08.43,0,.14,0h-.57l-1.66,0-6.09-.13-9-.23-5.33-.15-2.82-.08c-.25,0-.46,0-.74,0a.91.91,0,0,1-.62-.63,1.39,1.39,0,0,1,0-.49,1.11,1.11,0,0,1,.13-.48.8.8,0,0,1,.72-.46l20.08.63c2.57.1,4.64.16,6.09.24a.85.85,0,0,1,.64.81,1.07,1.07,0,0,1-.23.79A.56.56,0,0,1,158.06,201.63Z"/><path class="cls-13" d="M158.49,197.79,131.73,197a.8.8,0,0,1-.69-.87v-.09a.79.79,0,0,1,.73-.83l26.76.78a.81.81,0,0,1,.69.87v.1A.78.78,0,0,1,158.49,197.79Z"/><path class="cls-2" d="M158.49,197.79a.65.65,0,0,0,.51-.28,1,1,0,0,0,.18-.76.74.74,0,0,0-.63-.69l-6.23-.14-20.55-.56a.59.59,0,0,0-.52.34.86.86,0,0,0-.09.35.9.9,0,0,0,.05.38.61.61,0,0,0,.46.43l.72,0,2.89.09,5.46.17,9.24.3,6.23.23,1.69.08.44,0,.15,0s-.05,0-.15,0h-.44l-1.69,0-6.23-.13-9.25-.25-5.45-.15-2.89-.08-.75,0a.87.87,0,0,1-.66-.6,1.2,1.2,0,0,1-.06-.49,1.08,1.08,0,0,1,.12-.5.82.82,0,0,1,.73-.48l20.56.65,6.23.23a.83.83,0,0,1,.69.79,1,1,0,0,1-.21.81C158.73,197.89,158.48,197.79,158.49,197.79Z"/><path class="cls-13" d="M159.13,194l-27.85-.82a.8.8,0,0,1-.69-.87v-.09a.79.79,0,0,1,.73-.83l27.84.82a.8.8,0,0,1,.7.87v.09A.77.77,0,0,1,159.13,194Z"/><path class="cls-2" d="M159.13,194a.71.71,0,0,0,.52-.3,1,1,0,0,0,.16-.8.71.71,0,0,0-.71-.63l-6.46-.15-21.32-.58a.6.6,0,0,0-.54.36,1,1,0,0,0,0,.76.61.61,0,0,0,.52.38l.76,0,3,.09,5.66.18,9.59.31,6.46.23,1.75.08.46,0,.16,0h-.62l-1.76,0-6.46-.15-9.59-.25-5.66-.16-3-.08-.77,0a.85.85,0,0,1-.72-.54,1.44,1.44,0,0,1,0-1,.83.83,0,0,1,.75-.51l21.33.67,6.46.23a.82.82,0,0,1,.77.73,1.12,1.12,0,0,1-.19.86.72.72,0,0,1-.41.26A.29.29,0,0,1,159.13,194Z"/><path class="cls-14" d="M127.9,177.12c0,.31.41,7.82.62,11.67a4.87,4.87,0,0,0,1.68,3.51l1.44,1.18,27.76.93,1.48-1.06a4.85,4.85,0,0,0,1.84-3.44l1.1-11.59Z"/><g class="cls-7"><path d="M133.35,204.68a30.17,30.17,0,0,0,8.26,1c2.37.07,4.69.22,7.27.25,1.88,0,3.62,0,5.51-.08a4.36,4.36,0,0,0,2.19-.49Z"/></g><g class="cls-7"><path d="M132.45,200.79a35.43,35.43,0,0,0,8.91,1.06c2.55.08,5.06.24,7.83.27,2,0,3.91,0,5.94-.06a5.07,5.07,0,0,0,2.37-.48Z"/></g><g class="cls-7"><path d="M132.54,197a35.89,35.89,0,0,0,8.91,1.06c2.55.08,5.06.24,7.83.27,2,0,3.91,0,5.94-.06a5.07,5.07,0,0,0,2.37-.48Z"/></g><g class="cls-7"><path d="M132.63,193.15a35.89,35.89,0,0,0,8.91,1.06c2.55.07,5.06.24,7.83.27,2,0,3.91,0,5.94-.06a4.91,4.91,0,0,0,2.37-.49Z"/></g><path class="cls-8" d="M127.9,177.12c0,.31.41,7.82.62,11.67a4.87,4.87,0,0,0,1.68,3.51l1.44,1.18,27.76.93,1.48-1.06a4.85,4.85,0,0,0,1.84-3.44l1.1-11.59Z"/><path class="cls-2" d="M162,191.48c0,.08-7.43-.11-16.59-.41s-16.59-.63-16.59-.71,7.43.11,16.6.42S162,191.4,162,191.48Z"/><path class="cls-2" d="M163.63,178.1c0,.09-8.07-.07-18-.36s-18-.6-18-.68,8.06.07,18,.36S163.63,178,163.63,178.1Z"/><path class="cls-2" d="M232.4,208.22c-.85-10.31-2.15-20.68-5.32-30.33s-8.36-18.62-15.68-24.2l-1.89,2.09c-1.3-4.43-4.75-7.86-8.65-8.57s-8.05,1.32-10.41,5.09c-4.2-1.35-9,.69-11.55,4.9a15.32,15.32,0,0,0-.23,14.62c-3.93.59-7.4,4.28-8.35,8.87s.7,9.78,4,12.47c-4.34,4.47-6.07,12.2-4.17,18.65s7.31,11.19,13,11.44c-1.28,5.93,1.32,12.72,5.91,15.47s10.72,1.17,13.95-3.59c-.41,6.17,3.74,12,8.78,13.48s10.55-1,14.23-5.33,5.7-10.42,6.49-16.54A88.21,88.21,0,0,0,232.4,208.22Z"/><path class="cls-8" d="M209.1,162.53c-5,1.94-6.06,6.8-7.11,10.85-2.25,8.72.28,21.62,4.38,29.32s8.58,11.62,16.15,12.93q.38-20.76.74-41.51Z"/><path class="cls-2" d="M206.26,186.36c-3.44-5.32-2.95-13.68,1.07-18.39-2.2-3.3-1.41-8.39.83-11.65s5.57-5.14,8.78-6.91c1.77-9.66,10.86-16.45,18.93-14.13,4.19-7.36,13.14-8.51,20.31-6a16.41,16.41,0,0,0,5.33,1.38,26.07,26.07,0,0,0,4-.65c7.29-1.17,14.53,4.95,17.37,13a17.77,17.77,0,0,0,1.55,3.77c1,1.45,2.38,2.31,3.61,3.43a14.89,14.89,0,0,1,4.46,10.26c.12,3.38-.79,7,.41,10,.6,1.54,1.68,2.78,2.14,4.38,1.35,4.64-3,9.38-2.16,14.19.16,1,.53,1.9.76,2.86a10,10,0,0,1-.44,6c-.57,1.42-1.5,2.72-1.58,4.3a16.2,16.2,0,0,0,.59,3.51c.49,2.88-4.71,14-6.8,15.52l-62.27.66c-4.71-1.14-8.55-6.23-9-11.94a5.93,5.93,0,0,0-.58-2.72,5,5,0,0,0-1.7-1.32c-4-2.57-4.5-9.13-4.07-14.52a7.83,7.83,0,0,0,0-2.27A8.44,8.44,0,0,0,206.26,186.36Z"/><path class="cls-15" d="M224.1,186.47c-.18-13.14,6.73-28.23,17.68-34.65,6.9-4,12.28-4.07,15.91-4.58,8.13-1.13,14.69,3.67,14.69,3.67,3.43,1,16,14.69,16.66,29.58.73,16.54,1.06,36.78-.69,49.09-3.53,24.76-19.51,27.72-19.51,27.72s1.49,41.16,1.49,41.16l-30.72,30-12-47.64Z"/><path class="cls-16" d="M268.84,257.3A46.45,46.45,0,0,1,241,248.08a27.26,27.26,0,0,0,28.12,15.53Z"/><path class="cls-15" d="M227.24,210c0-1.85-1.74-6.23-3.27-6.53-4.08-.82-11.45-.52-11.63,11.85-.24,16.91,14,13.72,14.09,13.23S227.2,216.39,227.24,210Z"/><path class="cls-16" d="M222.6,222.32c-.06-.06-.25.2-.67.42a2.11,2.11,0,0,1-1.85,0c-1.49-.68-2.71-3.54-2.73-6.59a11.16,11.16,0,0,1,.75-4.21c.45-1.23,1.13-2.08,1.89-2.22a1.23,1.23,0,0,1,1.45.84c.18.47.09.81.16.84s.31-.28.21-1a2,2,0,0,0-.55-1.07,1.63,1.63,0,0,0-1.36-.46c-1.09.07-2.1,1.25-2.62,2.57a11.59,11.59,0,0,0-.92,4.7c0,3.41,1.45,6.62,3.5,7.37a2.29,2.29,0,0,0,2.26-.4C222.57,222.72,222.65,222.35,222.6,222.32Z"/><path class="cls-2" d="M292.09,178a51,51,0,0,0-5-17.37,36.19,36.19,0,0,0-6.41-10.19,32.91,32.91,0,0,0-7.66-5.51c-7.11-4-15-7.42-22.72-5.36-4.12,1.1-7.83,3.71-11.44,6.33a44,44,0,0,0-7.86,6.75,38.91,38.91,0,0,0-5.11,8.09,59.68,59.68,0,0,0-6.33,22.78c-.46,8.05-5.57,15.16-1.61,21.71.31.5,7.36,2.24,7.85,2.47,1.14.55,2.4-.93,2.39-2.4a5.67,5.67,0,0,0-1.77-3.73c1.76-.07,3-2.4,2.85-4.49a12.18,12.18,0,0,0-2.19-5.62,1.72,1.72,0,0,1-.31-.72c-.07-.71.61-1.15,1.13-1.52,2.53-1.78,2.81-6.74.5-8.91,3.39-.94,5.58-5.79,4.38-9.67a2.91,2.91,0,0,1-.21-1.89,1.93,1.93,0,0,1,1.33-.91c3.75-1.33,6.27-6.37,5.45-10.92a17.13,17.13,0,0,0,5.89-.32,7.09,7.09,0,0,0,4.65-4,7.85,7.85,0,0,0,6.31,4.7,7.48,7.48,0,0,0,6.69-3.87,17.26,17.26,0,0,0,9.74-1.8,10.77,10.77,0,0,0,6.2,7.95,2.32,2.32,0,0,1,1.54,1.1,3.12,3.12,0,0,1,.13,1.37c-.1,2.36,1.25,3.37,2.34,5.34s3,4.92,4.91,4.26a10.26,10.26,0,0,0,4.44,9.12Z"/><path class="cls-12" d="M295,174.88a7.26,7.26,0,0,0-.75-1.82c-.3-.57-.72-1.23-1.11-2.07a9,9,0,0,1-.77-3.17,28.54,28.54,0,0,1,.09-4.18,22.45,22.45,0,0,0-.07-5,15.63,15.63,0,0,0-1.83-5.34,13.54,13.54,0,0,0-1.73-2.42,17.09,17.09,0,0,0-2.23-2,9.34,9.34,0,0,1-2.14-2.24,15.34,15.34,0,0,1-1.32-3.19,23,23,0,0,0-3.4-6.58,19.38,19.38,0,0,0-5.46-5.1,15.17,15.17,0,0,0-3.4-1.56,12.7,12.7,0,0,0-3.73-.54,12.21,12.21,0,0,0-1.91.16c-.64.11-1.27.26-1.9.39a7.72,7.72,0,0,1-3.79,0c-1.27-.31-2.51-.87-3.82-1.27a21.93,21.93,0,0,0-4-.89,21.4,21.4,0,0,0-4.16-.09,19,19,0,0,0-4.17.87,14,14,0,0,0-7.19,5.55l-.53.83.23-.11a13.87,13.87,0,0,0-12.25,2.82,19,19,0,0,0-6.93,11.51l.12-.17a41.15,41.15,0,0,0-5,3.08,16.09,16.09,0,0,0-4.09,4.29,12.8,12.8,0,0,0-1.89,5.81,9.15,9.15,0,0,0,1.31,5.74l0-.29a15.28,15.28,0,0,0-3.33,8.65,16.62,16.62,0,0,0,1.42,8.42,14.38,14.38,0,0,0,.93,1.69,16.71,16.71,0,0,1,1,1.52,4,4,0,0,1,.5,1.66,12.8,12.8,0,0,1-.06,1.75,33.75,33.75,0,0,0,.11,6.42,15.32,15.32,0,0,0,1.36,4.9,7.87,7.87,0,0,0,2.19,2.77c.73.58,1.38.81,1.73,1.13a3.3,3.3,0,0,1,.52.52,1.92,1.92,0,0,0-.48-.57c-.36-.34-1-.6-1.71-1.19a7.86,7.86,0,0,1-2.11-2.75,15.06,15.06,0,0,1-1.3-4.84,33.39,33.39,0,0,1-.06-6.36,12,12,0,0,0,.06-1.81,4.31,4.31,0,0,0-.52-1.8c-.29-.55-.64-1.05-1-1.56a14.33,14.33,0,0,1-.9-1.64,16.32,16.32,0,0,1-1.35-8.22,14.9,14.9,0,0,1,3.26-8.38l.11-.14-.1-.15a8.67,8.67,0,0,1-1.22-5.43,12.49,12.49,0,0,1,1.82-5.58,15.84,15.84,0,0,1,4-4.16,42.69,42.69,0,0,1,5-3l.09,0,0-.12a18.54,18.54,0,0,1,6.76-11.19,13.49,13.49,0,0,1,11.91-2.74l.14,0,.09-.15c.17-.26.34-.53.52-.79a13.57,13.57,0,0,1,7-5.38,18.07,18.07,0,0,1,4.08-.85,19.84,19.84,0,0,1,4.08.08,20.16,20.16,0,0,1,3.95.87c1.29.39,2.54,1,3.85,1.27a8.34,8.34,0,0,0,2,.26,9.81,9.81,0,0,0,2-.23c.64-.13,1.26-.28,1.88-.39a13.1,13.1,0,0,1,1.86-.16,12.69,12.69,0,0,1,3.63.51,15,15,0,0,1,3.33,1.52,19,19,0,0,1,5.37,5,22.9,22.9,0,0,1,3.36,6.44,14.93,14.93,0,0,0,1.37,3.28,9.62,9.62,0,0,0,2.22,2.31,17.44,17.44,0,0,1,2.21,2,12.89,12.89,0,0,1,1.69,2.34,15.08,15.08,0,0,1,1.82,5.22,21.82,21.82,0,0,1,.11,5,28.76,28.76,0,0,0-.06,4.22,8.92,8.92,0,0,0,.83,3.22c.41.85.84,1.5,1.15,2.05a11.37,11.37,0,0,1,.64,1.3C295,174.72,295,174.88,295,174.88Z"/><path class="cls-12" d="M242.55,131.63s.38-.25,1.07-.65a8.38,8.38,0,0,1,3.1-1,7.63,7.63,0,0,1,4.66.86,10.62,10.62,0,0,1,4.91,6.54,2.48,2.48,0,0,1-.11,1.78l-.35.57.57-.19a5.07,5.07,0,0,1,4.39.67,6.44,6.44,0,0,1,2.38,3.15,8.66,8.66,0,0,1,.54,2.79,9.69,9.69,0,0,0,0,1.06,1,1,0,0,0,.06-.27,4.27,4.27,0,0,0,.08-.79,8.06,8.06,0,0,0-.43-2.91,6.79,6.79,0,0,0-2.45-3.4,5.29,5.29,0,0,0-4.68-.77l.22.38a3,3,0,0,0,.19-2.2,11,11,0,0,0-5.16-6.84,7.66,7.66,0,0,0-4.85-.78,7.92,7.92,0,0,0-3.14,1.22,6.54,6.54,0,0,0-.76.58C242.63,131.53,242.54,131.61,242.55,131.63Z"/><path class="cls-12" d="M219.4,150.83s.14.24.49.61a9.34,9.34,0,0,0,1.59,1.34,6,6,0,0,0,2.83,1,4.5,4.5,0,0,0,3.53-1.24l-.31-.06.41.7c.15.23.32.45.48.67a8.43,8.43,0,0,0,3.53,2.66,7.52,7.52,0,0,0,3.38.54,7,7,0,0,0,2.24-.58,2.73,2.73,0,0,0,.74-.47,10.36,10.36,0,0,1-3,.69,7.58,7.58,0,0,1-3.23-.62,8.47,8.47,0,0,1-3.35-2.57c-.15-.21-.31-.42-.45-.63s-.27-.44-.39-.66l-.14-.23-.18.17a4.24,4.24,0,0,1-3.24,1.18,6,6,0,0,1-2.71-.89C220.17,151.6,219.44,150.75,219.4,150.83Z"/><path class="cls-12" d="M211.79,166.44a1.18,1.18,0,0,0,0,.31,3.33,3.33,0,0,0,.31.82,3.91,3.91,0,0,0,2.28,1.84,6.21,6.21,0,0,0,4.06-.49,20.84,20.84,0,0,0,2.24-1,4.22,4.22,0,0,0,2-2.11l.09-.27-.34.12a16.33,16.33,0,0,0,4.19,3.05,6.3,6.3,0,0,0,4,.53,5,5,0,0,0,2.46-1.31,3.38,3.38,0,0,0,.52-.62c.1-.16.15-.25.14-.26s-.26.29-.76.72a5.06,5.06,0,0,1-2.41,1.11,6.17,6.17,0,0,1-3.8-.61,16.49,16.49,0,0,1-4.06-3l-.23-.22-.11.33c0,.08-.05.15-.07.23a3.84,3.84,0,0,1-1.77,1.87,24,24,0,0,1-2.19,1,6.14,6.14,0,0,1-3.86.58,3.78,3.78,0,0,1-2.21-1.6A7.58,7.58,0,0,1,211.79,166.44Z"/><path class="cls-11" d="M193.25,339.62l23.2,74.53L204,456.28H320.68s-7.17-39.09-7.61-47.88,0-58.94-3.51-76.16S296,278.14,296,278.14l-29.58-5.59c-13.56,8.68-24.21,7.22-38.8-2.84l-26.81,15.7Z"/><path class="cls-11" d="M295.27,278.08s9,2.29,15.37,17.86c6.32,15.38,30.77,83.17,31.72,94.54s-6.79,26.68-13.54,28.8L308,382.9l.63-5.31-17.43-69.25Z"/><path class="cls-11" d="M299.8,303.86s.05,0,.13.15.2.28.33.48c.29.43.75,1,1.25,1.87a52.07,52.07,0,0,1,3.86,7.51,69.12,69.12,0,0,1,3.82,12.25,94.53,94.53,0,0,1,2,15.82,176,176,0,0,1-1.6,29c-.47,3.68-.89,6.64-1.19,8.69-.15,1-.27,1.78-.36,2.35,0,.25-.07.45-.1.61a.53.53,0,0,1-.05.21s0-.07,0-.21,0-.37.07-.62c.07-.58.17-1.37.29-2.37.25-2.09.62-5.06,1.06-8.7a182.94,182.94,0,0,0,1.49-28.9,97.06,97.06,0,0,0-2-15.75A71.38,71.38,0,0,0,305.14,314a57.69,57.69,0,0,0-3.75-7.55c-.48-.86-.92-1.47-1.19-1.92l-.3-.5Z"/><path class="cls-11" d="M331.07,380.16a3.67,3.67,0,0,1-.85-.26l-2.29-.85a33.86,33.86,0,0,0-7.67-2,15.09,15.09,0,0,0-7.71,1,21,21,0,0,0-2.91,1.72,3.68,3.68,0,0,1,.69-.66,10.28,10.28,0,0,1,2.13-1.35,14.4,14.4,0,0,1,7.84-1.21,29.71,29.71,0,0,1,7.71,2.16c1,.39,1.73.74,2.26,1A3.76,3.76,0,0,1,331.07,380.16Z"/><path class="cls-11" d="M328.55,364a4.08,4.08,0,0,1-.85.38c-.56.21-1.35.55-2.32,1a37.08,37.08,0,0,0-7.2,4.41,41.63,41.63,0,0,0-6.26,6.12c-.73.88-1.3,1.62-1.69,2.14a4,4,0,0,1-.63.77,6.13,6.13,0,0,1,.52-.88c.35-.56.9-1.33,1.61-2.25a37,37,0,0,1,6.25-6.27,32.53,32.53,0,0,1,7.31-4.34,23.16,23.16,0,0,1,2.37-.87A3.81,3.81,0,0,1,328.55,364Z"/><g class="cls-7"><path class="cls-11" d="M307.26,319.9a107.93,107.93,0,0,1,4,48.26l11.19-5a37.71,37.71,0,0,1-11.62,12.15c3-1,6.1-2.09,9.24-1.85a9.14,9.14,0,0,1,7.78,5.39c-3.66-.8-7.38-1.6-11.07-1.08a12.38,12.38,0,0,0-9.4,6.29,184,184,0,0,0,3.14-43.36"/></g><g class="cls-7"><path d="M311.9,413.51l-83.36,9.85c6-.15,10.63,5.91,15.83,9.49,9.63,6.64,21.63,4.78,32.62,2.72l27.33-5.12c2.3-.43,4.75-.94,6.44-2.84C313.8,424.2,313,418.32,311.9,413.51Z"/></g><path class="cls-15" d="M248.23,405.35l-14-16.06a5.86,5.86,0,0,0-5.08-2.13c-4,.45-10.74,1.29-12.13,1.93-2,.93-3.88,2.25-4.43,3.44a79.28,79.28,0,0,0-2.55,9.38,24.19,24.19,0,0,0,.22,3.39c.17,1.64,1.69,2.6,2.89,1.79a3.51,3.51,0,0,0,1.32-1.48,6,6,0,0,0,.78-2.77s-.44,7.14,4.44,7.27c0,0-2.25,6.08,4,8.59,0,0-.23,4,5,4.49a53.53,53.53,0,0,0,10,0s9.61,8.22,16.37,8.75,21.92-3,21.92-3l1.83-33.25Z"/><path class="cls-16" d="M229.32,395.16a13.25,13.25,0,0,1-2.24,1.12,56.11,56.11,0,0,1-5.56,2.16c-1.1.37-2.21.58-3.13.88a3.6,3.6,0,0,0-1.9,1.86,18.74,18.74,0,0,1-1,1.74c-.28.39-.47.55-.49.53a5.48,5.48,0,0,1,.37-.64c.24-.4.51-1,.9-1.8a5.8,5.8,0,0,1,.76-1.19,2.91,2.91,0,0,1,1.26-.89c1-.35,2-.55,3.13-.93,2.2-.69,4.15-1.47,5.57-2A14.88,14.88,0,0,1,229.32,395.16Z"/><path class="cls-16" d="M231.12,405.35a7.14,7.14,0,0,1-1.56.86c-1,.47-2.34,1.07-3.87,1.68s-2.92,1.11-3.94,1.43a7,7,0,0,1-1.68.44,7.78,7.78,0,0,1,1.6-.74l3.9-1.55,3.9-1.56A7.2,7.2,0,0,1,231.12,405.35Z"/><path class="cls-16" d="M234.57,414.83c0,.14-2.44.44-5.34,1.38s-5.15,2.13-5.19,2a5.44,5.44,0,0,1,1.42-.91,23.27,23.27,0,0,1,3.67-1.53,21.61,21.61,0,0,1,3.82-.87A5.32,5.32,0,0,1,234.57,414.83Z"/><path class="cls-15" d="M266.9,431.06l61.76-12.79s-7.28-36-18.13-36c-1.6,0-55.36,23.94-55.36,23.94Z"/><path class="cls-16" d="M256.06,414.94a13.14,13.14,0,0,1-1.45-1.58l-3.38-4c-1.32-1.56-2.49-3-3.31-4.06a11.55,11.55,0,0,1-1.27-1.81,12.37,12.37,0,0,1,1.46,1.59l3.38,4c1.31,1.56,2.49,3,3.31,4.06A10.72,10.72,0,0,1,256.06,414.94Z"/><path class="cls-11" d="M202.06,284.44s-20.74,14.42-15.37,40.95c6.06,29.89,61.9,74.55,61.9,74.55-2.62-18.48-.58-36.15,7.91-52.71l-28.91-31.92"/><path class="cls-11" d="M227.59,315.31l.53.55,1.53,1.65,5.81,6.36L256.6,347.1l.09.1-.07.12a81.49,81.49,0,0,0-7.75,23.54,95.71,95.71,0,0,0-.1,29.05l.07.5-.35-.29c-5.89-4.78-11.85-10-17.84-15.55-11.68-10.9-22.38-22-30.93-33.54-1.08-1.41-2.08-2.9-3.09-4.32s-1.95-2.9-2.82-4.4a67.49,67.49,0,0,1-4.69-9A41.11,41.11,0,0,1,185.73,315,39,39,0,0,1,189.42,300a42.25,42.25,0,0,1,6-9.36,40.91,40.91,0,0,1,4.78-4.83c.58-.49,1-.85,1.35-1.08s.48-.33.48-.33l-.46.37c-.3.24-.75.61-1.33,1.11a43.64,43.64,0,0,0-4.72,4.88,42.78,42.78,0,0,0-6,9.36A39.08,39.08,0,0,0,186,315a40.79,40.79,0,0,0,3.4,18.19,69.19,69.19,0,0,0,4.69,8.91c.86,1.49,1.86,2.9,2.81,4.37s2,2.9,3.09,4.31c8.54,11.45,19.23,22.57,30.9,33.46,6,5.54,11.94,10.76,17.81,15.54l-.28.22a96,96,0,0,1,.13-29.2,81.17,81.17,0,0,1,7.84-23.64l0,.21-21-23.34-5.76-6.43-1.5-1.69C227.75,315.51,227.59,315.31,227.59,315.31Z"/><path class="cls-15" d="M248.59,399s13.07,12.7,26.45,5.13c2.14-1.21,4.83-4.39,6.45-9.68C290,366.58,291,293.11,291,293.11l-23.35-1.88-11.16,56C248.48,361,246,378.26,248.59,399Z"/><path class="cls-16" d="M284.61,381.27a4.21,4.21,0,0,1-.05.53c0,.34-.11.85-.21,1.5-.2,1.31-.52,3.19-1.05,5.48a45.18,45.18,0,0,1-2.49,7.79,18.57,18.57,0,0,1-5.62,7.67,14.33,14.33,0,0,1-8.28,2.52,20.19,20.19,0,0,1-6.92-1.22,23,23,0,0,1-4.38-2.08c-.51-.29-.87-.57-1.13-.74a2.1,2.1,0,0,1-.37-.29,17.5,17.5,0,0,1,1.56.87,25.22,25.22,0,0,0,4.39,1.94,20.52,20.52,0,0,0,6.85,1.11,14.09,14.09,0,0,0,8.09-2.5,18.19,18.19,0,0,0,5.5-7.47,45.94,45.94,0,0,0,2.55-7.69c.56-2.26.92-4.13,1.16-5.42.11-.61.2-1.1.28-1.49A1.68,1.68,0,0,1,284.61,381.27Z"/><path class="cls-2" d="M255.75,347.63a20,20,0,0,0-3.72,1.21,21.25,21.25,0,0,0-7.52,6.37,55.36,55.36,0,0,0-5.41,9.06c-.58,1.17-1.06,2.16-1.44,2.92a6.43,6.43,0,0,1-.56,1,7.55,7.55,0,0,1,.44-1.13c.3-.71.75-1.74,1.33-3a50.14,50.14,0,0,1,5.36-9.2,20.37,20.37,0,0,1,7.7-6.36,11.64,11.64,0,0,1,2.78-.84,5.71,5.71,0,0,1,.77-.08Q255.75,347.6,255.75,347.63Z"/><path class="cls-15" d="M268.51,283.94c-.51-2.06-3.42-21-4.6-25.43-1.67-6.22-15.24-17.34-15.24-17.34s2.13-5.84,7.9-2.81c6.84,3.6,10.22,9.65,11.94,8.41s12.47-14.25,15.4-13.84,3.57,4,2.53,5.42a33.43,33.43,0,0,0-2.19,3.81s6.2-2.22,5,5.87c0,0,7.06-5.25,6.37,5.83,0,0,4.65-2.26,5.68,1.64s-2,8.42-3.58,11.5-6.58,20.93-6.58,20.93l-.58,10.93-24.17-1.23Z"/><path class="cls-16" d="M290.88,299.9s0-.27,0-.79,0-1.3,0-2.3c0-2,.09-5,.15-8.88h0v0c1.27-4.48,2.88-10.29,5.08-17a27.2,27.2,0,0,1,2.07-5.09,38.47,38.47,0,0,0,2.49-5.2,11,11,0,0,0,.64-3,5.41,5.41,0,0,0-.6-3,2.37,2.37,0,0,0-.44-.55,2.53,2.53,0,0,0-.57-.37,3,3,0,0,0-1.32-.28,6.84,6.84,0,0,0-2.73.63l-.24.11v-.3a18.55,18.55,0,0,0-.05-3.16,5.46,5.46,0,0,0-1-2.85,2.43,2.43,0,0,0-2.46-.79,6.88,6.88,0,0,0-2.6,1.16l-.31.21,0-.43c0-.41.09-.83.13-1.25s0-.84,0-1.27a4.73,4.73,0,0,0-.76-2.3,2.79,2.79,0,0,0-1.92-1,5.26,5.26,0,0,0-2.22.23l-.43.14.22-.46c.43-.85.88-1.7,1.37-2.52.24-.42.5-.82.77-1.22a2.48,2.48,0,0,0,.47-1.25,3.9,3.9,0,0,0-.72-2.67,3,3,0,0,0-2.16-1.24,2.48,2.48,0,0,0-1.18.36,10,10,0,0,0-1.14.73,28,28,0,0,0-2.17,1.8c-1.42,1.28-2.79,2.67-4.15,4.09L272,243.51c-1.06,1.12-2.07,2.27-3.19,3.3a1.16,1.16,0,0,1-1.13.31,2.73,2.73,0,0,1-1-.6,20.11,20.11,0,0,1-1.59-1.61c-1-1.1-2-2.17-3.11-3.12a26.56,26.56,0,0,0-3.36-2.55,10.64,10.64,0,0,0-3.62-1.59,5.07,5.07,0,0,0-3.65.58,6.69,6.69,0,0,0-2.54,3l-.06-.25a94.76,94.76,0,0,1,10.33,9.77,30.79,30.79,0,0,1,4,5.46,9.9,9.9,0,0,1,.7,1.55c.09.27.2.54.27.81l.19.82c.24,1.1.45,2.18.65,3.24,1.57,8.49,2.63,15.76,3.68,21.25V284c-.71,4.41-1.26,7.82-1.63,10.15-.19,1.15-.33,2-.43,2.63s-.16.89-.16.89,0-.31.11-.9l.39-2.64c.35-2.33.87-5.75,1.53-10.17V284c-1.1-5.53-2.19-12.77-3.79-21.25-.44-2.09-.69-4.39-1.79-6.3a30.4,30.4,0,0,0-4-5.37,95,95,0,0,0-10.3-9.71l-.13-.11.06-.15a7.12,7.12,0,0,1,2.7-3.23,5.37,5.37,0,0,1,3.87-.62,10.84,10.84,0,0,1,3.73,1.63,26.57,26.57,0,0,1,3.41,2.58,42.16,42.16,0,0,1,3.13,3.14,21.2,21.2,0,0,0,1.56,1.58c.54.47,1.18.83,1.68.29,1.08-1,2.11-2.16,3.16-3.27l3.18-3.38c1.37-1.43,2.74-2.82,4.17-4.11a27.13,27.13,0,0,1,2.21-1.83,9.86,9.86,0,0,1,1.18-.76,2.72,2.72,0,0,1,1.35-.39,3.39,3.39,0,0,1,2.42,1.39,4.37,4.37,0,0,1,.8,3,3,3,0,0,1-.55,1.48c-.26.38-.51.78-.75,1.19-.48.81-.93,1.65-1.35,2.49l-.21-.31a5.6,5.6,0,0,1,2.36-.25,3.07,3.07,0,0,1,2.14,1.17,5.17,5.17,0,0,1,.85,2.56c0,.44,0,.89,0,1.33s-.09.87-.13,1.3l-.27-.22a7.21,7.21,0,0,1,2.74-1.21,3.33,3.33,0,0,1,1.47.05,2.61,2.61,0,0,1,1.28.86,5.89,5.89,0,0,1,1.09,3.09,18.5,18.5,0,0,1,0,3.24l-.22-.2a6.89,6.89,0,0,1,2.85-.65,3.1,3.1,0,0,1,1.43.31,2.67,2.67,0,0,1,.65.42,2.87,2.87,0,0,1,.51.63,5.87,5.87,0,0,1,.65,3.21,11.2,11.2,0,0,1-.68,3.1,37.46,37.46,0,0,1-2.53,5.24,27.16,27.16,0,0,0-2.06,5c-2.21,6.73-3.86,12.54-5.16,17v0c-.1,3.84-.18,6.83-.24,8.87,0,1-.05,1.77-.07,2.3S290.88,299.9,290.88,299.9Z"/><path class="cls-16" d="M284.23,242.37a39.75,39.75,0,0,1-3,3.33,36,36,0,0,1-3.07,3.24,19.14,19.14,0,0,1,2.82-3.57A17.25,17.25,0,0,1,284.23,242.37Z"/><path class="cls-16" d="M289.75,247.59a9.57,9.57,0,0,1-1.52,3.28,8.15,8.15,0,0,1-2.3,2.58c-.07-.1,1-1.23,2-2.85S289.65,247.53,289.75,247.59Z"/><path class="cls-16" d="M295.52,253.46a10.12,10.12,0,0,1-1.29,2.52,9.55,9.55,0,0,1-1.6,2.26,10.12,10.12,0,0,1,1.29-2.52A9.55,9.55,0,0,1,295.52,253.46Z"/><path class="cls-2" d="M251.64,197.44a3.09,3.09,0,0,1-2.86,3.22,3,3,0,0,1-2.77-3.2,3.09,3.09,0,0,1,2.85-3.22A3,3,0,0,1,251.64,197.44Z"/><path class="cls-2" d="M280.28,198.36a3.09,3.09,0,0,1-2.85,3.22,3,3,0,0,1-2.78-3.2,3.1,3.1,0,0,1,2.86-3.23A3,3,0,0,1,280.28,198.36Z"/><path class="cls-2" d="M285.71,189.86c-.37.41-2.42-1.59-5.45-1.77s-5.33,1.51-5.64,1c-.15-.2.24-1,1.24-1.75a6.72,6.72,0,0,1,8.85.57C285.61,188.86,285.89,189.67,285.71,189.86Z"/><path class="cls-2" d="M255,190.23c-.41.37-2.28-1.88-5.28-2.42s-5.43.84-5.69.34c-.14-.22.31-.94,1.38-1.59a6.58,6.58,0,0,1,4.63-.81,7.08,7.08,0,0,1,4.13,2.47C254.94,189.23,255.15,190.07,255,190.23Z"/><path class="cls-2" d="M265.54,216.52c0-.21,1.9-.48,5-.77.78,0,1.52-.18,1.68-.81a5.53,5.53,0,0,0-.41-2.76q-.94-3.41-2-7.16c-2.76-10.18-4.71-18.54-4.37-18.67s2.87,8,5.62,18.21c.66,2.51,1.3,4.9,1.9,7.19a6.33,6.33,0,0,1,.25,3.65,2.07,2.07,0,0,1-1.33,1.27,4.7,4.7,0,0,1-1.33.14C267.45,216.82,265.55,216.72,265.54,216.52Z"/><path class="cls-16" d="M263.9,225.15a5.19,5.19,0,0,0-4.8-2.71,4.7,4.7,0,0,0-3.53,2,4.32,4.32,0,0,0-.42,4.29,3.34,3.34,0,0,0,3.92,1.44,11.1,11.1,0,0,0,4-2.53,3.67,3.67,0,0,0,.91-1,1.41,1.41,0,0,0,0-1.35"/><path class="cls-2" d="M256.52,218.48c.49,0,.34,3.92,3,6.87s6.21,2.73,6.22,3.28c0,.25-.82.71-2.3.67a7.55,7.55,0,0,1-5.2-2.51A9.22,9.22,0,0,1,256,221C255.89,219.4,256.3,218.45,256.52,218.48Z"/><path class="cls-2" d="M257.86,176.15c-.42.92-3.36-.09-6.94-.22s-6.58.48-6.93-.47c-.16-.46.45-1.28,1.72-2a9.86,9.86,0,0,1,5.34-1.19,10.12,10.12,0,0,1,5.23,1.72C257.49,174.83,258,175.72,257.86,176.15Z"/><path class="cls-2" d="M285.28,174.34c-.57.79-2.62-.18-5.13-.38s-4.66.28-5.12-.61c-.19-.43.18-1.23,1.14-1.95a6.17,6.17,0,0,1,4.23-1.09,6.51,6.51,0,0,1,4,1.89C285.27,173.09,285.53,174,285.28,174.34Z"/></g></g></svg>